<svg width="660" height="652" viewBox="0 0 660 652" fill="none" xmlns="http://www.w3.org/2000/svg">
<path d="M0.0235243 353.791C0.509693 310.292 8.53148 268.565 24.0889 228.611C39.6463 188.334 62.0101 150.635 91.1802 115.514C120.836 80.3924 154.868 52.3598 193.276 31.4159C218.556 19.4939 250.887 11.1164 290.266 6.28317C324.784 2.09439 352.982 0 374.86 0C377.291 0 379.964 0 382.882 0C405.245 0.644428 420.073 1.44996 427.366 2.4166C582.94 31.4159 660.484 121.314 659.998 272.11C659.998 313.998 654.164 360.396 642.496 411.306C635.203 444.494 620.375 477.038 598.011 508.937C576.134 540.836 547.207 569.513 511.23 594.968C475.254 620.101 433.929 637.178 387.257 646.2C367.81 649.744 347.634 651.678 326.729 652C296.587 652 264.986 648.295 231.926 640.884C178.447 627.995 133.72 606.568 97.7435 576.602C61.2808 546.958 35.7569 513.287 21.1719 475.588C6.5868 439.178 -0.462645 400.029 0.0235243 358.141C0.0235243 356.53 0.0235243 355.08 0.0235243 353.791Z" fill="#EF965A"/>
</svg>
