<svg width="335" height="438" fill="none" xmlns="http://www.w3.org/2000/svg"><path d="m35.774 330.994-3.844-25.459-.741-5.528-3.135-2.394-5.598 1.833-9.576 12.538-3.025 12.96 6.8 13.591 8.522 3.836 10.246-5.918.351-5.459ZM198.9 385.325l-12.359 4.687-3.766 7.431-1.193 18.558 4.687 12.359 11.727 5.138 11.408-6.94.382-22.995-10.886-18.238Z" fill="#A1A1A1"/><path d="m151.614 268.285-2.433-13.311-26.41 1.592-16.726 4.405-31.728-.943-3.486 3.065-6.752 36.836-16.234-3.236-5.069 10.636.78 21.974 7.291 5.949 14.441 14.082 18.348 4.468 15.915-8.843 7.672-17.046 4.679-21.622 49.952 75.557 15.634-4.476 20.843-17.295 2.885-10.776-17.436-18.66-16.945-26.301-15.221-36.055Z" fill="#2D5473"/><path d="m67.851 173.016-17.896-28.555 26.972-10.324 26.91 24.749 8.242 8.203 12.008.772 8.944-2.714 5.248 3.626 41.062 9.216-1.824 28.383-29.335-4.078 3.112 53.913-30.707.218-14.612 5.638-32.75-2.105-8.242-8.202-1.412-12.149 8.366-61.944-4.086-4.647Z" fill="#539AD1"/><path d="m28.307 37.838 10.746 20.421 12.819 5.209 17.076-9.864 3.696-6.34-2.994-4.577-4.367-.28.912-14.192-5.388-1.442-6.97 6.128-9.335-8.273-4.507 1.903 1.412 12.149-10.636-5.069-2.464 4.227ZM81.706 93.886l-3.275-.21-3.736-10.106 23.548-42.334 22.465-8.421 35.924 20.943L196.22 85.9l9.093 29.085-5.279 13.911-9.755-1.723 4.117-12.89c-14.247 30.654-42.6 37.455-54.995 37.024-37.441-4.16-51.22-27.408-53.43-38.511l-4.265-18.91ZM191.015 252.182l-.601-7.712-16.094-5.419-6.761 2.854-1.372 4.297 6.269 4.788-3.836 8.522 1.903 4.507 6.55.421 1.692 7.782 6.55.421 6.09-9.474-.39-10.987Z" fill="#BF8C69"/><path d="m76.49 72.723-4.087-4.647-.67-6.62.56-8.733 2.745-8.593 10.386-8.102 2.464-4.226 5.74-4.016 2.534-5.318 10.175-4.827 11.868 2.955 9.154-5.989 15.634-4.476 15.073 4.257 3.946 6.831 12.959 3.025 1.763 6.69 12.078-.32 9.264 9.365 4.156 3.556 3.805 9.014 1.622 8.873 8.313 7.112 2.503 12.218.18 14.262 3.805 9.014-3.556 4.156-7.992 4.967-10.106 3.736-5.598 1.832-3.315-16.655-4.086-4.648-2.643-10.035-10.426-8.343-9.544-4.998-9.755-1.724-9.263-9.364-5.529.74-11.236-12.78-2.714-8.943-7.501-2.675.07-1.091-8.413 11.517-9.085 4.897-5.138 11.727-5.669 2.925-1.863 11.938-7.572-1.583-5.037-6.9Z" fill="#555"/><path d="m111.68 122.12-1.201-15.423 22.293 11.298 28.103 6.191-10.597 11.377-20.811-.242-17.787-13.201Z" fill="#fff"/><path fill-rule="evenodd" clip-rule="evenodd" d="M129.783 17.66c9.786-7.877 21.711-4.168 26.531-1.185a2.735 2.735 0 1 0 2.878-4.651c-5.722-3.541-20.43-8.413-32.839 1.576a2.735 2.735 0 0 0 3.43 4.26ZM159.123 20.061a2.735 2.735 0 0 0 1.658 3.495c2.661.948 9.433 2.744 15.315 2.148a2.735 2.735 0 1 0-.551-5.441c-4.71.477-10.588-1.025-12.927-1.86a2.736 2.736 0 0 0-3.495 1.658ZM192.947 25.435a2.734 2.734 0 0 0-3.859-.248c-1.813 1.594-4.165 2.448-6.516 2.819-2.356.37-4.494.221-5.638.003a2.735 2.735 0 1 0-1.025 5.373c1.743.332 4.517.499 7.514.026 3.001-.473 6.442-1.621 9.276-4.113a2.735 2.735 0 0 0 .248-3.86ZM195.644 38.011a2.735 2.735 0 0 0 .39 3.848c1.047.854 2.736 2.503 4.206 4.53 1.497 2.063 2.566 4.242 2.764 6.196a2.735 2.735 0 1 0 5.441-.55c-.338-3.343-2.035-6.456-3.777-8.858-1.769-2.439-3.792-4.427-5.176-5.556a2.735 2.735 0 0 0-3.848.39ZM214.2 63.253c-4.073-3.07-9.025-4.057-12.377-4.063a2.734 2.734 0 1 0-.009 5.47c2.493.004 6.198.778 9.094 2.961 2.734 2.06 4.987 5.537 4.595 11.626a2.736 2.736 0 0 0 5.459.35c.506-7.885-2.526-13.151-6.762-16.344ZM216.403 92.846a2.735 2.735 0 0 0 .01 3.867c1.163 1.158 2.438 3.004 2.806 4.747.172.818.126 1.51-.116 2.105-.237.583-.758 1.313-1.955 2.057a2.735 2.735 0 0 0 2.887 4.646c2-1.243 3.39-2.81 4.135-4.642.739-1.82.746-3.659.4-5.296-.668-3.165-2.715-5.917-4.299-7.493a2.735 2.735 0 0 0-3.868.009ZM171.772 78.138a2.735 2.735 0 0 0 1.993 3.314c2.964.738 10.145 4.92 11.003 15.938a2.735 2.735 0 0 0 5.453-.425c-1.063-13.66-10.186-19.588-15.134-20.82a2.735 2.735 0 0 0-3.315 1.993ZM143.808 52.22a2.736 2.736 0 0 0-2.348 3.074c1.014 7.568 5.372 12.892 10.194 16.407 4.783 3.486 10.174 5.319 13.773 5.954a2.735 2.735 0 0 0 .952-5.386c-2.904-.513-7.49-2.062-11.503-4.988-3.974-2.896-7.231-7.013-7.995-12.714a2.734 2.734 0 0 0-3.073-2.347Z" fill="#000"/><path fill-rule="evenodd" clip-rule="evenodd" d="M127.334 40.158a2.735 2.735 0 0 0-2.662 2.806c.152 5.733 3.145 10.782 6.471 14.616 3.351 3.864 7.308 6.808 9.998 8.377a2.735 2.735 0 1 0 2.754-4.726c-2.24-1.306-5.712-3.881-8.62-7.235-2.934-3.382-5.031-7.247-5.135-11.177a2.735 2.735 0 0 0-2.806-2.661ZM172.006 101.404a2.735 2.735 0 0 0-3.74.985l-1.232 2.113a2.736 2.736 0 0 0 4.726 2.755l1.232-2.113a2.735 2.735 0 0 0-.986-3.74ZM117.384 81.45a2.735 2.735 0 0 0-3.74.986l-1.232 2.113a2.734 2.734 0 1 0 4.725 2.755l1.232-2.113a2.734 2.734 0 0 0-.985-3.74ZM211.776 110.443a2.736 2.736 0 0 0-3.646 1.293c-.346.727-2.353 3.222-7.077 2.234a2.734 2.734 0 0 0-1.119 5.354c7.39 1.545 11.791-2.418 13.134-5.235a2.736 2.736 0 0 0-1.292-3.646Z" fill="#000"/><path fill-rule="evenodd" clip-rule="evenodd" d="M192.778 100.257a2.735 2.735 0 0 0-2.905 2.554c-.138 2.153-.124 5.534.375 8.804.249 1.636.632 3.325 1.219 4.85.576 1.495 1.429 3.04 2.742 4.163a2.735 2.735 0 1 0 3.555-4.156c-.349-.299-.783-.91-1.193-1.974-.399-1.035-.703-2.309-.916-3.708-.427-2.8-.443-5.778-.324-7.628a2.734 2.734 0 0 0-2.553-2.905ZM200.202 102.12a2.733 2.733 0 0 0-1.456 3.583c.272.643.621 1.642.796 2.502.053.259.08.458.092.601a2.735 2.735 0 0 0 4.178 3.415c1.076-.945 1.255-2.238 1.291-2.904.041-.769-.068-1.55-.201-2.202-.269-1.323-.755-2.681-1.117-3.539a2.734 2.734 0 0 0-3.583-1.456Zm-.566 6.948a.161.161 0 0 0 .005-.043.168.168 0 0 0-.005.043ZM121.019 32.133a2.735 2.735 0 0 0-3.39 1.863c-.864 2.975-2.795 7.501-5.69 11.246-2.918 3.776-6.461 6.324-10.535 6.402a2.735 2.735 0 1 0 .104 5.468c6.462-.122 11.381-4.155 14.759-8.525 3.402-4.4 5.603-9.584 6.615-13.065a2.736 2.736 0 0 0-1.863-3.39Z" fill="#000"/><path fill-rule="evenodd" clip-rule="evenodd" d="M100.432 47.215a2.735 2.735 0 0 0-2.514 2.938c.187 2.398.147 6.06-.534 9.201-.34 1.573-.809 2.86-1.376 3.767-.554.887-1.084 1.239-1.55 1.361a2.735 2.735 0 1 0 1.394 5.29c2.211-.583 3.755-2.09 4.795-3.753 1.026-1.644 1.67-3.602 2.083-5.507.826-3.814.855-8.04.641-10.783a2.735 2.735 0 0 0-2.939-2.514Z" fill="#000"/><path fill-rule="evenodd" clip-rule="evenodd" d="M91.332 64.237a2.735 2.735 0 0 0-2.13 3.228c.387 1.89.75 4.794.611 7.32-.07 1.27-.258 2.282-.53 2.98-.133.337-.26.536-.35.645a.588.588 0 0 1-.092.091.126.126 0 0 1-.027.017 2.735 2.735 0 1 0 2.127 5.04c1.836-.776 2.865-2.346 3.434-3.798.57-1.457.814-3.117.9-4.677.17-3.136-.268-6.532-.715-8.715a2.735 2.735 0 0 0-3.228-2.13ZM107.476 20.634c3.487-.11 6.752 1.457 8.649 2.958a2.735 2.735 0 1 0 3.395-4.288c-2.624-2.077-7.116-4.298-12.216-4.137-5.311.167-10.813 2.905-15.153 9.919a2.735 2.735 0 1 0 4.651 2.878c3.489-5.637 7.4-7.227 10.674-7.33Z" fill="#000"/><path fill-rule="evenodd" clip-rule="evenodd" d="M92.435 31.842c2.322.01 5.162.965 7.1 1.922a2.735 2.735 0 1 0 2.423-4.903c-2.313-1.143-6.012-2.473-9.498-2.488-1.766-.008-3.722.32-5.408 1.43-1.77 1.163-2.942 2.99-3.394 5.36a2.735 2.735 0 0 0 5.372 1.025c.21-1.095.637-1.56 1.028-1.816.473-.312 1.239-.535 2.377-.53Z" fill="#000"/><path fill-rule="evenodd" clip-rule="evenodd" d="M88.594 34.53a2.735 2.735 0 0 0-3.719-1.062c-2.884 1.603-7.068 4.619-10.423 8.58-3.329 3.93-6.158 9.18-5.468 15.118a2.735 2.735 0 1 0 5.433-.631c-.44-3.781 1.33-7.554 4.209-10.952 2.853-3.368 6.485-5.989 8.906-7.334a2.735 2.735 0 0 0 1.062-3.718ZM82.826 48.275a2.735 2.735 0 0 0-2.514 2.94c.077.989-.036 2.501-.535 3.718-.465 1.135-1.09 1.685-2.03 1.81a2.735 2.735 0 1 0 .727 5.422c3.483-.467 5.421-2.858 6.364-5.158.91-2.219 1.05-4.637.927-6.218a2.735 2.735 0 0 0-2.94-2.514Z" fill="#000"/><path fill-rule="evenodd" clip-rule="evenodd" d="M74.242 58.022a2.735 2.735 0 0 0-3.834.513c-1.307 1.712-2.793 5.732-.837 10.365a2.735 2.735 0 0 0 5.039-2.127c-1.088-2.578-.143-4.54.145-4.918a2.735 2.735 0 0 0-.513-3.833ZM76.352 69.755a2.735 2.735 0 0 0-2.904 2.554c-.16 2.489.965 8.086 7.059 9.718a2.735 2.735 0 0 0 1.414-5.284c-1.363-.365-2.07-1.106-2.483-1.864-.46-.846-.562-1.758-.532-2.22a2.735 2.735 0 0 0-2.554-2.904Z" fill="#000"/><path fill-rule="evenodd" clip-rule="evenodd" d="M78.189 74.464a2.735 2.735 0 0 0-3.658 1.255c-1.623 3.32-3.084 8.46-2.636 13.174.228 2.393.967 4.862 2.626 6.889 1.698 2.075 4.162 3.441 7.352 3.915a2.735 2.735 0 1 0 .803-5.41c-2.022-.3-3.193-1.077-3.923-1.97-.77-.94-1.253-2.263-1.413-3.941-.326-3.43.782-7.55 2.104-10.254a2.735 2.735 0 0 0-1.255-3.658Zm32.941 28.244a2.739 2.739 0 0 0-2.034 1.148c-1.269 1.794-1.796 4.382-1.793 7.015.002 2.727.569 5.87 1.861 9.047 2.605 6.406 8.172 12.97 18.03 16.571 19.684 7.19 33.534-1.55 36.027-11.902a2.732 2.732 0 0 0-2.318-3.354c-5.837-.732-15.308-2.524-24.603-5.505-9.404-3.015-18.153-7.1-22.991-12.179a2.74 2.74 0 0 0-2.179-.841Zm45.563 23.449c-3.344 5.489-12.604 10.68-27.622 5.194-8.349-3.049-12.792-8.457-14.841-13.494-1.035-2.544-1.456-4.991-1.458-6.992 0-.16.003-.316.007-.467 5.876 4.567 13.977 8.014 21.851 10.539 7.972 2.556 16.044 4.268 22.063 5.22Z" fill="#000"/><path fill-rule="evenodd" clip-rule="evenodd" d="M83.522 82.29a2.735 2.735 0 0 0-3.169 2.218c-1.517 8.588-1.175 22.112 4.705 35.132 5.93 13.129 17.451 25.631 38.012 31.966 20.639 6.36 37.302 1.795 49.655-6.57 12.244-8.292 20.194-20.264 23.809-28.839a2.734 2.734 0 1 0-5.04-2.124c-3.283 7.789-10.624 18.841-21.836 26.434-11.103 7.519-26.06 11.701-44.977 5.872-18.995-5.853-29.325-17.226-34.638-28.99-5.363-11.874-5.658-24.26-4.303-31.93a2.735 2.735 0 0 0-2.218-3.169Z" fill="#000"/><path fill-rule="evenodd" clip-rule="evenodd" d="M206.412 114.302a2.735 2.735 0 0 0-3.156 2.236c-1.317 7.718-4.189 9.746-6.235 10.226-2.446.573-5.452-.578-7.614-2.173a2.735 2.735 0 0 0-3.246 4.402c2.722 2.008 7.393 4.201 12.107 3.096 5.114-1.198 8.884-5.868 10.38-14.631a2.736 2.736 0 0 0-2.236-3.156ZM49.096 32.13c1.383 3.152 2.056 6.978 2.23 9.523a2.735 2.735 0 0 0 5.415.325c.526-2.755 1.61-6.675 3.095-9.573.756-1.473 1.487-2.425 2.09-2.896.474-.37.633-.305.813-.232h.002c.169.069.41.186.55.97.159.889.073 2.22-.319 3.924-.773 3.365-2.502 7.22-3.885 9.748a2.735 2.735 0 0 0 4.357 3.222c.982-1.007 2.5-2.077 3.852-2.393.62-.144 1.074-.101 1.421.041.33.136.84.473 1.387 1.42.033.056.067.12.028.33-.051.272-.226.73-.677 1.38-.915 1.318-2.573 2.875-4.786 4.531-4.38 3.277-10.212 6.416-14.262 8.299a2.735 2.735 0 0 0 2.306 4.96c4.236-1.97 10.438-5.292 15.232-8.88 2.374-1.775 4.587-3.751 6.003-5.791 1.377-1.984 2.485-4.807.893-7.564-1.031-1.784-2.391-3.066-4.05-3.746-1.233-.505-2.475-.613-3.626-.494a34.92 34.92 0 0 0 1.138-3.838c.458-1.996.72-4.163.373-6.109-.365-2.05-1.481-4.104-3.877-5.077-2.382-.968-4.583-.305-6.238.987-1.526 1.192-2.697 2.968-3.592 4.713-.162.316-.319.64-.471.968a25.897 25.897 0 0 0-.392-.945c-1.644-3.748-4.632-7.945-9.74-8.273-2.67-.171-4.804.897-6.15 2.864-1.2 1.752-1.61 3.973-1.709 5.99a25.08 25.08 0 0 0 .04 2.93c-1.128-.725-2.438-1.34-3.854-1.552-1.802-.27-3.68.14-5.272 1.54-2.1 1.846-2.01 4.64-1.624 6.613.42 2.15 1.414 4.55 2.582 6.861 2.356 4.662 5.772 9.627 8.192 12.78a2.735 2.735 0 0 0 4.339-3.331c-2.3-2.997-5.5-7.665-7.65-11.916-1.085-2.146-1.817-4.022-2.095-5.443-.196-1.005-.102-1.406-.066-1.512.238-.188.448-.233.785-.183.489.073 1.202.37 2.103 1.012 1.797 1.28 3.569 3.37 4.636 4.94A2.735 2.735 0 0 0 43.5 40.92c-.862-2.843-1.688-6.944-1.53-10.139.08-1.625.4-2.646.758-3.169.21-.308.462-.548 1.286-.495 1.879.121 3.634 1.71 5.081 5.012ZM42.008 63.18a2.735 2.735 0 0 0-3.175 2.208c-2.407 13.377-.216 46.374 26.805 74.22a2.735 2.735 0 1 0 3.925-3.809C43.946 109.4 42.073 78.265 44.216 66.357a2.735 2.735 0 0 0-2.208-3.176Z" fill="#000"/><path fill-rule="evenodd" clip-rule="evenodd" d="M78.54 130.25a2.737 2.737 0 0 0-2.1.24 165.156 165.156 0 0 1-13.6 6.746c-5.38 2.347-10.388 4.077-13.362 4.256a2.736 2.736 0 0 0-1.986 4.419c2.839 3.616 7.133 9.37 10.771 14.856 1.821 2.746 3.45 5.383 4.647 7.628 1.262 2.369 1.834 3.928 1.907 4.657a2.735 2.735 0 1 0 5.442-.551c-.194-1.919-1.276-4.339-2.522-6.678-1.313-2.463-3.048-5.263-4.916-8.079-2.692-4.06-5.72-8.243-8.287-11.646 3.29-.882 7.005-2.327 10.493-3.849 4.277-1.866 8.498-3.977 11.704-5.687 7.963 13.22 20.016 21.4 26.056 24.319 5.868 8.329 12.354 11.42 18.428 11.251 6.008-.168 10.901-3.518 13.595-6.474a2.735 2.735 0 0 0-4.043-3.684c-2.024 2.222-5.61 4.576-9.705 4.69-3.878.109-8.949-1.78-14.185-9.484a2.738 2.738 0 0 0-1.139-.957c-5.277-2.375-18.072-10.762-25.555-24.644a2.737 2.737 0 0 0-1.643-1.329Z" fill="#000"/><path fill-rule="evenodd" clip-rule="evenodd" d="M74.665 172.742a2.735 2.735 0 0 0-3.356 1.921c-2.417 8.889-5.723 23.369-7.806 38.009-2.065 14.506-3.008 29.656-.386 39.611a2.734 2.734 0 1 0 5.29-1.393c-2.313-8.778-1.555-22.932.51-37.447 2.047-14.38 5.302-28.636 7.67-37.345a2.734 2.734 0 0 0-1.922-3.356ZM135.376 167.655a2.735 2.735 0 0 0 1.711 3.468c4.714 1.6 12.477 3.981 20.514 5.947 6.648 1.627 13.675 3.019 19.352 3.39a420.555 420.555 0 0 0-1.731 13.077c-.335 2.923-.616 5.762-.775 8.166a69.563 69.563 0 0 0-.119 2.312c-3.839-.622-8.578-1.45-12.883-2.323-2.811-.57-5.399-1.152-7.418-1.7a30.802 30.802 0 0 1-2.465-.761c-.549-.202-.795-.333-.858-.366-.018-.009-.021-.011-.013-.005a2.736 2.736 0 0 0-4.342 1.639c-.561 2.813-1.249 7.393-1.514 12.098-.258 4.599-.143 9.743 1.167 13.437 1.24 3.497 1.907 9.737 2.196 15.944.197 4.238.211 8.253.156 11.003-4.222-.327-9.855-.528-15.624-.281-7.145.306-14.882 1.31-20.369 3.86-4.353 2.024-11.415 2.663-18.88 2.483-7.34-.177-14.585-1.127-18.978-1.942a2.734 2.734 0 1 0-.998 5.377c4.634.861 12.172 1.848 19.845 2.033 7.548.182 15.727-.392 21.317-2.991 4.457-2.072 11.28-3.055 18.297-3.356 6.928-.296 13.671.084 17.724.522a2.735 2.735 0 0 0 3.023-2.543c.148-2.307.242-8.16-.05-14.419-.286-6.162-.96-13.162-2.504-17.518-.918-2.588-1.115-6.781-.861-11.302.162-2.872.494-5.705.849-8.05.457.14.943.279 1.448.416 2.185.594 4.905 1.203 7.765 1.783 5.729 1.161 12.174 2.238 16.365 2.875a2.733 2.733 0 0 0 3.121-3.067c-.107-.8-.096-2.439.06-4.797.151-2.281.421-5.024.752-7.905a426.104 426.104 0 0 1 2.166-15.918 2.736 2.736 0 0 0-2.737-3.156c-5.329.067-13.249-1.386-21.184-3.328-7.863-1.924-15.473-4.258-20.056-5.813a2.735 2.735 0 0 0-3.469 1.711ZM173.579 242.044c4.026.1 9.089 1.292 12.556 2.399a2.735 2.735 0 0 0 1.664-5.21c-3.694-1.18-9.319-2.539-14.085-2.657-2.335-.058-4.841.167-6.832 1.16-1.042.52-2.029 1.293-2.716 2.419-.696 1.139-.962 2.438-.881 3.789.259 4.304 2.144 7.106 5.015 8.345.139.06.278.116.418.167a21.273 21.273 0 0 0-1.636 2.964c-1.308 2.937-2.152 7.249 1.286 10.382 1.445 1.316 3.081 2.035 4.811 2.115a7.206 7.206 0 0 0 2.013-.194 8.27 8.27 0 0 0-.015.222c-.099 1.618.066 3.526 1.073 5.147 1.114 1.793 2.966 2.777 5.232 2.923 5.482.352 9.492-3.706 11.497-8.51 2.045-4.902 2.42-11.31.392-17.504a2.735 2.735 0 0 0-5.198 1.701c1.638 5.003 1.276 10.058-.242 13.697-1.559 3.736-3.939 5.296-6.098 5.157-.757-.048-.887-.268-.931-.342l-.006-.009c-.146-.235-.328-.815-.26-1.927.135-2.206 1.152-5.039 2.132-7.021a2.736 2.736 0 0 0-4.815-2.589c-.69 1.184-1.886 2.627-3.132 3.355-.588.344-1.046.446-1.389.43-.296-.013-.753-.123-1.38-.694-.703-.641-1.015-1.776.026-4.114.989-2.222 2.825-4.499 4.243-5.901a2.736 2.736 0 0 0-2.838-4.522c-.926.328-2.154.418-3.015.046-.561-.242-1.558-.914-1.723-3.653-.025-.409.06-.563.088-.609.037-.06.147-.204.49-.375.779-.389 2.195-.638 4.256-.587Z" fill="#000"/><path fill-rule="evenodd" clip-rule="evenodd" d="M176.913 185.139a2.734 2.734 0 0 0 2.393 3.038c5.992.711 15.052 5.096 22.117 11.394 7.175 6.396 11.222 13.757 9.484 20.248-2.122 7.927-6.849 13.518-11.412 17.076-2.283 1.78-4.489 3.023-6.242 3.778-.879.378-1.606.617-2.141.745-.409.098-.594.104-.61.108a2.734 2.734 0 0 0-.913 5.392c.951.181 1.984.014 2.797-.18.907-.218 1.936-.571 3.03-1.042 2.193-.944 4.802-2.429 7.443-4.488 5.285-4.122 10.838-10.66 13.331-19.974 2.59-9.674-3.615-19.049-11.127-25.746-7.623-6.795-17.687-11.861-25.112-12.742a2.734 2.734 0 0 0-3.038 2.393ZM124.692 147.498a2.735 2.735 0 0 0-3.474 1.7l-4.046 11.797a2.735 2.735 0 1 0 5.173 1.775l4.047-11.798a2.735 2.735 0 0 0-1.7-3.474ZM150.368 265.475a2.734 2.734 0 0 0-1.637 3.504c3.308 9.114 9.761 24.075 18.417 39.504 8.639 15.398 19.582 31.46 31.922 42.608a2.735 2.735 0 1 0 3.666-4.059c-11.695-10.566-22.294-26.033-30.817-41.225-8.506-15.161-14.836-29.85-18.047-38.694a2.735 2.735 0 0 0-3.504-1.638ZM111.173 299.041a2.734 2.734 0 0 0-1.948 3.341c.979 3.715 3.699 9.339 7.257 15.787 3.605 6.535 8.218 14.175 13.164 22.027 9.893 15.708 21.183 32.364 28.563 42.911a2.735 2.735 0 0 0 2.209 1.167c9.11.105 17.66-3.816 24.512-8.515 6.872-4.713 12.309-10.394 15.261-14.261a2.736 2.736 0 1 0-4.347-3.32c-2.632 3.447-7.655 8.713-14.008 13.07-5.985 4.105-12.911 7.24-19.975 7.536-7.343-10.532-18.116-26.466-27.587-41.503-4.919-7.808-9.47-15.35-13.003-21.754-3.581-6.491-5.973-11.564-6.757-14.539a2.735 2.735 0 0 0-3.341-1.947Z" fill="#000"/><path fill-rule="evenodd" clip-rule="evenodd" d="M116.676 294.329c.215-.033.53.017.897.253a2.734 2.734 0 1 0 2.957-4.601c-1.212-.779-2.859-1.339-4.685-1.058-1.888.29-3.555 1.415-4.847 3.24-2.441 3.449-3.857 9.801-3.656 20.421.238 12.511-5.435 26.862-14.46 34.087-4.425 3.543-9.574 5.324-15.291 4.511-5.77-.821-12.51-4.342-19.926-12.201l-5.076-5.774a2.735 2.735 0 0 0-4.108 3.612l5.108 5.809c.02.024.041.047.063.07 7.964 8.452 15.775 12.847 23.168 13.899 7.454 1.06 14.083-1.334 19.48-5.656 10.621-8.502 16.773-24.632 16.511-38.461-.198-10.452 1.294-15.24 2.651-17.157.607-.856 1.061-.97 1.214-.994ZM69.248 260.055a2.735 2.735 0 0 0-2.55 2.908c.542 8.252-.152 28.425-6.994 43.146a2.734 2.734 0 1 0 4.96 2.305c7.406-15.934 8.058-37.182 7.492-45.809a2.735 2.735 0 0 0-2.908-2.55Z" fill="#000"/><path fill-rule="evenodd" clip-rule="evenodd" d="M46.886 293.797a2.734 2.734 0 0 0-1.888 1.628c-1.58 3.889-3.628 10.209-4.679 16.66-.525 3.229-.814 6.565-.64 9.688.173 3.1.811 6.172 2.288 8.729a2.735 2.735 0 0 0 4.736-2.736c-.89-1.541-1.416-3.669-1.562-6.297-.146-2.605.091-5.524.577-8.505.748-4.596 2.057-9.163 3.285-12.66.446.156.896.29 1.34.405 1.654.432 3.486.679 5.274.814 3.575.268 7.257.102 9.587-.134a2.735 2.735 0 1 0-.551-5.441c-2.084.211-5.438.36-8.627.12-1.594-.119-3.075-.331-4.304-.651-1.277-.333-2.04-.722-2.412-1.041a2.735 2.735 0 0 0-2.425-.579Z" fill="#000"/><path fill-rule="evenodd" clip-rule="evenodd" d="M27.698 302.011a2.734 2.734 0 0 0-.248 3.859c1.62 1.843 4.632 3.581 7.293 4.918a80.497 80.497 0 0 0 7.58 3.302 2.734 2.734 0 1 0 1.904-5.127 74.953 74.953 0 0 1-7.029-3.062c-2.719-1.366-4.809-2.696-5.64-3.642a2.735 2.735 0 0 0-3.86-.248Z" fill="#000"/><path fill-rule="evenodd" clip-rule="evenodd" d="M28.632 301.925c-.062.368-.184.602-.224.659a2.735 2.735 0 0 0 4.5 3.109c1.043-1.509 1.629-3.992.914-6.301a6.393 6.393 0 0 0-2.396-3.333c-1.232-.886-2.771-1.366-4.538-1.48-1.93-.124-3.79.667-5.347 1.68-1.607 1.044-3.191 2.518-4.66 4.239-2.94 3.442-5.66 8.153-7.31 13.259-1.646 5.095-2.296 10.808-.795 16.142 1.531 5.44 5.232 10.226 11.751 13.395 5.311 2.582 10.82 1.333 14.422-1.716 3.572-3.024 5.561-8.156 3.095-13.126a2.735 2.735 0 0 0-4.9 2.432c1.093 2.201.398 4.719-1.729 6.519-2.098 1.776-5.304 2.524-8.496.972-5.174-2.515-7.787-6.083-8.878-9.957-1.12-3.981-.698-8.544.735-12.98 1.429-4.424 3.795-8.498 6.264-11.388 1.235-1.446 2.435-2.525 3.483-3.206 1.096-.714 1.762-.823 2.014-.807.995.064 1.48.308 1.695.462a.929.929 0 0 1 .365.51c.075.24.095.562.035.916ZM197.382 382.961a2.735 2.735 0 0 0-.474 3.838c3.769 4.831 9.189 15.999 10.665 26.034.738 5.024.42 9.33-1.159 12.362-1.458 2.8-4.209 4.932-9.532 5.297-3.148.215-5.82-1.058-8.031-3.512-2.263-2.511-3.986-6.226-4.919-10.561-1.891-8.778-.331-18.927 4.83-24.813a2.735 2.735 0 0 0-4.113-3.606c-6.668 7.605-8.184 19.73-6.064 29.57 1.071 4.975 3.125 9.655 6.202 13.071 3.129 3.473 7.359 5.657 12.469 5.307 6.908-.473 11.535-3.474 14.01-8.227 2.354-4.522 2.525-10.19 1.718-15.684-1.617-11.001-7.43-23.047-11.763-28.602a2.735 2.735 0 0 0-3.839-.474Z" fill="#000"/><path fill-rule="evenodd" clip-rule="evenodd" d="M181.038 372.155a2.736 2.736 0 0 0-.248 3.86c1.998 2.272 5.039 5.961 7.638 9.602 1.3 1.823 2.46 3.59 3.318 5.136.903 1.627 1.311 2.725 1.387 3.29a2.733 2.733 0 0 0 3.073 2.347 2.736 2.736 0 0 0 2.348-3.074c-.221-1.647-1.076-3.506-2.027-5.219-.996-1.794-2.283-3.746-3.647-5.657-2.731-3.827-5.894-7.662-7.982-10.037a2.736 2.736 0 0 0-3.86-.248Z" fill="#000"/><path d="M285.91 307.012c0 3.625-3.428 6.563-7.657 6.563s-7.658-2.938-7.658-6.563c0-3.625 3.429-6.564 7.658-6.564 4.229 0 7.657 2.939 7.657 6.564ZM331.854 200.902a7.657 7.657 0 1 1-15.314 0 7.657 7.657 0 1 1 15.314 0Z" fill="#fff"/><path d="m241.06 304.824-1.094 14.221 7.657 4.376 13.127-8.752 16.409-32.817 25.16-57.977 10.939-20.785 3.282-18.596-5.47-9.845-10.939 1.094-3.282 14.22-55.789 114.861Z" fill="#C4BA8E"/><path fill-rule="evenodd" clip-rule="evenodd" d="M310.826 177.259c-.89-.976-2.001-1.376-3.538-1.035-2.219.493-3.247 1.092-3.802 1.619-.527.502-.902 1.198-1.256 2.555-.168.644-.322 1.438-.501 2.364-.547 2.827-1.332 6.88-3.484 11.615-4.396 9.672-22.287 46.401-30.663 63.517-14.512 29.656-22.039 45.27-24.773 53.909-1.4 4.421-1.266 6.242-.926 7.034.253.589.872 1.172 3.323 1.989 1.652.551 3.502.246 5.698-1.104 2.229-1.37 4.534-3.662 6.786-6.508 4.491-5.675 8.278-12.907 10.459-17.27 1.029-2.057 2.892-6.638 5.391-12.931a4648.96 4648.96 0 0 0 2.082-5.254c2.029-5.128 4.33-10.945 6.796-17.034 6.696-16.536 14.687-35.287 21.896-48.041 6.951-12.298 9.171-22.417 8.678-28.942-.247-3.28-1.154-5.371-2.166-6.483Zm7.62 6.072c.602 7.969-2.101 19.182-9.371 32.044-7.012 12.406-14.883 30.847-21.587 47.403a2201.162 2201.162 0 0 0-6.773 16.976c-.733 1.852-1.432 3.618-2.091 5.278-2.457 6.185-4.423 11.039-5.583 13.358-2.194 4.388-6.192 12.064-11.062 18.218-2.429 3.069-5.199 5.922-8.211 7.773-3.045 1.872-6.601 2.864-10.291 1.634-2.471-.824-5.33-2.018-6.619-5.019-1.202-2.797-.678-6.377.736-10.844 2.892-9.137 10.68-25.246 25.075-54.662 8.398-17.16 26.242-53.795 30.597-63.377 1.857-4.087 2.445-7.122 2.974-9.858.215-1.112.42-2.174.698-3.237.466-1.788 1.185-3.622 2.778-5.137 1.565-1.489 3.681-2.395 6.385-2.996 3.385-.752 6.513.215 8.768 2.691 2.133 2.342 3.278 5.788 3.577 9.755Z" fill="#000"/><path fill-rule="evenodd" clip-rule="evenodd" d="M312.621 182.613c-.584 3.685-1.934 8.79-4.44 15.915-1.94 5.514-5.514 12.927-9.634 21.45l-.239.495c-4.096 8.473-8.774 18.15-13.16 28.532-17.014 40.266-26.736 57.815-33.196 65.295-3.299 3.821-6.098 5.432-8.932 5.702-1.319.125-2.471-.066-3.291-.207h-.003c-.906-.156-1.351-.232-1.796-.207l-.304-5.462c1.092-.06 2.123.12 2.835.245l.193.033c.799.137 1.319.203 1.849.153.866-.083 2.478-.553 5.31-3.832 5.803-6.719 15.225-23.446 32.296-63.849 4.441-10.51 9.171-20.294 13.257-28.747l.257-.531c4.176-8.641 7.585-15.73 9.398-20.885 2.454-6.977 3.687-11.732 4.197-14.956.525-3.31.224-4.645.044-5.058h-.001a4.593 4.593 0 0 0-.295-.042c-.116-.016-.384-.05-.644-.115a3.18 3.18 0 0 1-1.555-.88c-.783-.823-.89-1.834-.77-2.557l5.395.899a2.497 2.497 0 0 0-.663-2.113c-.494-.519-1.04-.646-1.091-.657l-.003-.001a1.158 1.158 0 0 0-.063-.014l.13.018.026.003c.13.017.354.046.596.093a5.419 5.419 0 0 1 2.075.845c.796.548 1.437 1.328 1.876 2.335.82 1.88.915 4.502.346 8.1ZM325.171 191.389c3.389.714 6.557 3.146 8.036 6.103.524 1.048.76 2.453.8 3.772.042 1.39-.123 3.018-.652 4.605-.531 1.593-1.466 3.25-3.031 4.512-1.598 1.288-3.658 2.007-6.127 2.007-2.767 0-5.079-.575-6.871-1.783-1.834-1.235-2.87-2.963-3.348-4.762-.9-3.394.143-7.103 1.166-9.354l.021-.046.023-.045c1.062-2.125 2.587-3.644 4.45-4.484 1.839-.829 3.779-.894 5.533-.525Zm-5.069 7.411c-.787 1.753-1.263 4.034-.837 5.64.188.708.533 1.236 1.117 1.63.626.421 1.769.849 3.815.849 1.359 0 2.171-.375 2.693-.796.554-.447.987-1.115 1.276-1.983.291-.874.4-1.844.374-2.71a6.654 6.654 0 0 0-.115-1.081 2.488 2.488 0 0 0-.11-.409l-.001-.002c-.709-1.42-2.464-2.816-4.27-3.196-.845-.178-1.571-.107-2.159.158-.557.251-1.21.773-1.783 1.9ZM279.396 295.741c3.389.713 6.557 3.145 8.036 6.102.524 1.048.76 2.454.8 3.772.042 1.39-.123 3.018-.652 4.606-.531 1.592-1.466 3.249-3.031 4.511-1.598 1.289-3.658 2.008-6.127 2.008-2.767 0-5.079-.576-6.871-1.783-1.834-1.236-2.87-2.964-3.347-4.763-.901-3.393.142-7.102 1.165-9.354l.021-.046.023-.045c1.062-2.125 2.587-3.644 4.45-4.484 1.839-.829 3.78-.893 5.533-.524Zm-5.069 7.41c-.787 1.753-1.263 4.034-.837 5.64.188.708.533 1.236 1.117 1.63.626.422 1.769.849 3.815.849 1.36 0 2.171-.375 2.693-.795.555-.447.987-1.115 1.276-1.984.291-.873.4-1.844.374-2.71a6.654 6.654 0 0 0-.115-1.081 2.488 2.488 0 0 0-.11-.411c-.71-1.419-2.464-2.816-4.271-3.196-.845-.178-1.571-.106-2.159.159-.557.251-1.21.773-1.783 1.899Z" fill="#000"/><path fill-rule="evenodd" clip-rule="evenodd" d="M281.922 307.838c-.299 1.161-1.185 2.011-2.437 2.429-.783.261-1.785.432-2.68-.052-1.008-.544-1.251-1.548-1.283-2.191-.031-.649.116-1.306.276-1.827a10 10 0 0 1 .607-1.503c.258-.516.666-1.004 1.27-1.285a2.476 2.476 0 0 1 1.751-.12c.951.278 1.655 1.029 2.059 1.735.419.733.71 1.756.437 2.814Zm-3.486-1.426-.003-.002Zm.365 1.46v.004ZM327.867 202.822c-.3 1.161-1.186 2.012-2.438 2.429-.783.261-1.785.432-2.679-.051-1.008-.545-1.252-1.548-1.283-2.191-.032-.65.115-1.306.275-1.828.168-.545.392-1.072.607-1.502.258-.517.667-1.004 1.27-1.286a2.476 2.476 0 0 1 1.751-.12c.952.278 1.655 1.029 2.059 1.736.419.733.711 1.756.438 2.813Zm-3.487-1.426-.002-.002Zm.365 1.461.001.004ZM270.366 296.76l6.273 2.091-4.658 9.317-5.532-1.843 1.729-5.189.657.218 1.531-4.594ZM315.217 192.838l5.876 1.959-2.582 7.746h-5.253v-5.469h.547l1.412-4.236Z" fill="#000"/></svg>