<svg width="585" height="151" fill="none" xmlns="http://www.w3.org/2000/svg"><mask id="a" maskUnits="userSpaceOnUse" x="0" y="-1" width="585" height="110" fill="#000"><path fill="#fff" d="M0-1h585v110H0z"/><path d="M11.0577 72.5959a549.4387 549.4387 0 0 1-4.1005-22.191c-1.2205-7.4555-1.8706-13.9653-1.95-19.5293-.0851-5.5977.5927-8.757 2.0335-9.4778.9569-.5031 2.6611-.9899 5.1128-1.4606l1.4675-.2402c1.8892-.3093 3.6769-.498 5.363-.5662 4.9752-.5027 9.5516-.1608 13.7295 1.0258 4.206 1.1473 8.3588 3.2387 12.4582 6.274 4.5313 3.3457 8.0871 7.821 10.6674 13.4259 1.8208 3.928 3.0708 7.9667 3.7501 12.1162a44.707 44.707 0 0 1 .5414 5.2113c.2451 4.6708.0448 8.8431-.6008 12.5167-.6119 3.6681-1.8443 7.1433-3.6971 10.4256-1.819 3.2768-4.3224 6.0768-7.5099 8.3999-3.1484 2.3513-7.1978 4.3825-12.1483 6.0936-4.028 1.4215-8.6396 2.5575-13.8349 3.408a136.677 136.677 0 0 1-3.6517.5459c-.579.0601-1.6088-2.4213-3.0892-7.4441-1.4805-5.0229-2.9941-11.2008-4.541-18.5337ZM21.5301 48.331l.1657 1.012c.2927 1.788.7551 4.1891 1.3871 7.2032.7651 3.6158 1.2891 6.0761 1.572 7.3807.2773 1.2709 1.0072 4.4596 2.1895 9.5659 1.2106 5.0671 1.9962 8.3851 2.357 9.9541 5.5031-2.3558 9.9588-5.9257 13.367-10.7097 3.4082-4.784 4.7579-9.9758 4.0491-15.5753a3052.873 3052.873 0 0 1-.1657-1.0121 125.7604 125.7604 0 0 0-.7317-3.5173c-.378-1.4623-.9102-3.0206-1.5967-4.6748-.6527-1.6598-1.4407-3.1935-2.364-4.6012-.9232-1.4076-2.0995-2.7738-3.5287-4.0986a20.6713 20.6713 0 0 0-4.6522-3.3433c-1.7114-.9322-3.7549-1.6715-6.1306-2.2178-2.3757-.5464-4.9461-.8011-7.7112-.7641.2112 2.7713.4982 5.5821.8609 8.4325.3572 2.8166.668 5.1385.9325 6.9658ZM94.3994 14.8006c.3076-.8546 1.487-1.4528 3.5381-1.7947a22.4217 22.4217 0 0 1 3.6915-.3076c.889 0 1.778.0513 2.667.1538 2.188.2393 3.572.6837 4.153 1.3332.821.9572 1.504 5.179 2.051 12.6655.547 7.4864.906 15.5711 1.077 24.254.137 6.1875.205 12.0502.205 17.5881 0 2.222-.017 4.3927-.051 6.5122-.068 7.3839-.256 11.5373-.564 12.4603.137.9572-1.06 1.6922-3.589 2.2049-1.505.3077-3.043.4615-4.615.4615-1.026 0-2.069-.0683-3.1283-.2051-2.6322-.3418-4.0679-1.0597-4.3072-2.1536-.3077-1.5383-.6324-13.9303-.9743-37.1759-.1709-13.4004-.2735-23.0576-.3077-28.9716 0-4.3756.0513-6.7173.1539-7.025ZM142.317 23.1931c.211-.5228 1.318-1.1621 3.322-1.9178 2.038-.751 4.253-1.2875 6.645-1.6093 1.406-.1834 2.55-.2136 3.43-.0908.609.0851 1.105.2407 1.488.4667.697.4425 1.293 1.3712 1.785 2.7862.527 1.4196.949 3.2215 1.265 5.4057.35 2.1889.63 4.2644.839 6.2266.21 1.9621.408 4.2506.595 6.8654.226 2.5857.413 4.4585.562 5.6183.893 7.2005 1.692 15.9411 2.397 26.2218.48-1.2101 2.461-6.6287 5.945-16.2556 3.523-9.656 6.481-17.3716 8.875-23.1468 2.399-5.809 4.078-8.9398 5.039-9.3925.598-.3307 1.439-.4204 2.523-.2691 1.049.1465 2.358.5363 3.927 1.1695 3.146 1.1985 4.969 2.2297 5.47 3.0935.499.3803.671 1.25.516 2.609-.014.1015-.031.22-.05.3554-.184 1.3204-.573 2.8711-1.167 4.6521-.656 1.9794-1.432 4.0801-2.329 6.3019-.859 2.1928-1.838 4.5068-2.937 6.9421-1.099 2.4352-2.115 4.6406-3.046 6.616a449.3912 449.3912 0 0 1-2.586 5.5413c-.826 1.7141-1.366 2.864-1.621 3.4498-1.726 4.2115-3.159 7.6703-4.296 10.3764-1.137 2.7061-2.656 6.17-4.557 10.3917-1.867 4.2265-3.495 7.4853-4.885 9.7764-1.361 2.3298-2.416 3.5804-3.165 3.752-1.139.4968-3.268.5447-6.388.1437l-.457-.0638c-2.844-.397-4.579-.9499-5.205-1.6585-1.284-.9387-3.011-7.3582-5.181-19.2586-2.136-11.8956-3.929-23.7779-5.378-35.6467-1.306-10.6752-1.805-16.9923-1.497-18.9512.033-.237.074-.4039.122-.5008ZM222.814 70.6414c-.068-3.6578-.119-7.2984-.154-10.922 0-8.9906.257-18.0325.77-27.1256.718-12.7167 1.846-19.2289 3.384-19.5366 2.803-.376 6.307-.564 10.512-.564 1.401 0 2.888.0171 4.461.0513 6.29.1709 10.631.4444 13.024.8204.889-.0684 1.607.3931 2.154 1.3845.547 1.0255.854 2.2562.923 3.6919.034.3761.051.7521.051 1.1281-.034 1.0597-.12 2.1366-.256 3.2305-.205 1.4699-.598 2.7348-1.18 3.7945-.547 1.0597-1.213 1.6238-1.999 1.6921-.855.0684-2.479.1026-4.872.1026-2.358 0-4.871-.0171-7.537-.0513-2.633-.0342-4.017-.0513-4.154-.0513-.171 1.4358-.256 3.0425-.256 4.8201v.8717c.068 2.0853.136 4.256.205 6.5122.068 1.6067.085 2.6835.051 3.2304v.4102c3.316 0 6.991.1881 11.025.5641.581.0684 1.589.1538 3.025.2564 1.47.1025 2.478.2222 3.025.3589.992.2735 1.487 1.6751 1.487 4.2047 0 1.7435-.239 4.0509-.717 6.9225-.137.6836-2.393 1.0255-6.769 1.0255s-8.136-.1026-11.281-.3077c-.034 2.0169-.137 5.2987-.308 9.8452-.136 4.5124-.222 7.7429-.256 9.6914 3.145.2051 5.965.3077 8.461.3077.923 0 1.811-.0171 2.666-.0513 1.333-.0342 2.53-.0513 3.589-.0513 1.436 0 2.684.0342 3.744.1026 1.811.1367 2.803.5298 2.974 1.1793.547 1.6751.82 3.4527.82 5.3329 0 1.9485-.154 3.5039-.461 4.6662-.274 1.0939-.496 1.6408-.667 1.6408-.889.4103-6.016.6837-15.383.8205-1.607.0342-3.111.0342-4.512 0-6.837 0-11.435-.2393-13.794-.7179-.923-.2051-1.521-6.6318-1.795-19.2802ZM278.067 33.1032c-.391-3.6718-.347-5.6583.132-5.9595.937-.7721 2.56-1.5613 4.871-2.3677 2.345-.8106 5.088-1.4645 8.229-1.9617a33.4515 33.4515 0 0 1 1.826-.2805 56.9895 56.9895 0 0 1 7.644-.4414c3.172.0159 6.193.6191 9.064 1.8095 2.871 1.1905 5.07 2.9303 6.597 5.2195 2.172 3.0351 3.827 6.0663 4.964 9.0933.837 2.2724 1.357 4.3605 1.561 6.2642.119.6741.185 1.3377.198 1.9907.034 2.4762-.166 4.8613-.602 7.1553-.402 2.2898-1.01 4.3125-1.823 6.0682-.814 1.7557-1.6 3.3184-2.358 4.6882-.763 1.3359-1.367 2.428-1.812 3.2761-.449.8143-.593 1.3147-.432 1.5012.764.8689 2.927 3.1473 6.49 6.8349 3.558 3.6538 7.215 7.8121 10.969 12.4749.085.1272.136.2586.153.3943.085.6783-.602 1.798-2.06 3.3588-1.763 1.8747-3.804 3.457-6.123 4.7468-1.225.6703-2.228 1.0544-3.008 1.1522-.678.085-1.196-.0569-1.552-.4256-2.541-2.6789-5.601-6.3434-9.181-10.9936-3.581-4.6501-6.054-7.7509-7.42-9.3023-.691-.8436-1.581-1.0765-2.671-.6988l-.102.0128c-.53.1698-.937.4964-1.221.9799-.254.4453-.328.9541-.222 1.5265.221 1.2126.623 3.1777 1.204 5.8954.578 2.6838 1.045 5.0369 1.402 7.0593a65.725 65.725 0 0 1 .555 3.5997c.102.814.185 1.6133.248 2.3977.124.9836-.819 1.9805-2.829 2.9905-1.78.912-3.62 1.487-5.52 1.725-.203.026-.407.051-.61.077-2.078.191-3.185-.256-3.321-1.341-1.24-5.4949-2.52-11.3119-3.841-17.4511-1.321-6.1392-2.644-12.571-3.969-19.2953-1.359-6.7201-2.514-12.7767-3.466-18.1698-.722-4.1126-1.277-7.7123-1.664-10.7989-.123-.9837-.223-1.9186-.3-2.8047Zm14.21 3.6967c.438 2.9425 1.262 7.4558 2.473 13.5399 1.244 6.0799 2.083 10.5741 2.516 13.4827.094.7462.565 1.0662 1.413.9599 2.637-.6751 4.941-2.0836 6.912-4.2255 2-2.1801 3.339-4.6907 4.017-7.5318.478-1.9548.581-3.8799.309-5.7751-.106-.848-.28-1.6875-.522-2.5184-.874-2.8533-2.609-5.0131-5.205-6.4793-2.561-1.4704-6.121-2.385-10.679-2.7439-.382-.0211-.694.1041-.935.3756-.242.2714-.341.5767-.299.9159ZM338.784 13.7082c-.016-.6869.001-1.3712.053-2.053.051-.6817.137-1.3609.257-2.0375.239-1.3531.736-2.4811 1.49-3.384.788-.9002 1.745-1.3078 2.869-1.2227l.103.0078c.102.0077 1.81.0856 5.124.2336 3.349.1506 7.123.3334 11.324.5485 4.2.215 8.534.4746 13.002.7785l2.045.1548c3.682.2786 6.915.5919 9.7.9398 3.325.4574 5.314.8993 5.968 1.326.687.429 1.07 1.7094 1.149 3.8408.021.6188.008 1.2519-.041 1.8996-.109 1.4317-.42 2.8308-.935 4.1974-.695 1.9358-1.677 2.9071-2.946 2.9139-.926-.0015-1.883-.0396-2.871-.1145-.855-.0304-1.757-.1158-2.706-.2562-1.427-.1766-2.769-.3296-4.028-.4591-.582-.0098-1.112-.0328-1.589-.0689-1.709-.0608-2.563.1146-2.559.5262-1.363 26.603-2.502 45.955-3.418 58.0559-.08 1.0567-.507 1.95-1.282 2.6798-.741.7324-1.642 1.0757-2.701 1.0298-3.078-.0959-5.555-.2148-7.429-.3567-1.057-.0799-1.932-.5233-2.625-1.3299-.662-.7701-.987-1.686-.975-2.7479.087-5.6842.329-16.1221.725-31.3136.398-15.2256.638-24.2923.721-27.2-.071-.4168-1.163-.7052-3.277-.8651-2.113-.16-4.624-.2814-7.531-.3644-2.397-.0443-4.106-.1051-5.129-.1825-.239-.018-.426-.0322-.562-.0426-.509-.0727-.949-.6031-1.32-1.5911-.371-.988-.573-2.1689-.606-3.5427ZM413.155 25.5347c.308-.8547 1.487-1.4529 3.538-1.7947a22.4116 22.4116 0 0 1 3.692-.3077c.889 0 1.778.0513 2.666.1538 2.188.2393 3.573.6837 4.154 1.3332.82.9572 1.504 5.179 2.051 12.6655.547 7.4864.906 15.5711 1.077 24.254.137 6.1875.205 12.0502.205 17.5881 0 2.222-.017 4.3927-.051 6.5122-.069 7.3839-.257 11.5373-.564 12.4603.136.9572-1.06 1.6926-3.59 2.2046-1.504.308-3.042.462-4.615.462-1.025 0-2.068-.069-3.128-.205-2.632-.342-4.068-1.06-4.307-2.1539-.308-1.5383-.632-13.9303-.974-37.1759-.171-13.4004-.274-23.0576-.308-28.9716 0-4.3756.051-6.7173.154-7.0249ZM455.985 59.5021a549.3947 549.3947 0 0 1-2.073-22.4712c-.54-7.5355-.598-14.0774-.173-19.6257.423-5.5824 1.384-8.6673 2.884-9.2546.999-.4143 2.74-.7448 5.224-.9914.512-.0366 1.006-.072 1.483-.1063 1.91-.1368 3.707-.1628 5.393-.078 5-.0499 9.527.7053 13.58 2.2655 4.084 1.5237 8.031 3.9826 11.838 7.3769 4.21 3.7424 7.346 8.5215 9.407 14.3371 1.458 4.0768 2.337 8.2121 2.637 12.4061.125 1.739.147 3.4853.067 5.2389-.179 4.6739-.756 8.8108-1.732 12.4108-.942 3.5976-2.484 6.9468-4.626 10.0478-2.109 3.0985-4.855 5.6602-8.24 7.685-3.349 2.0564-7.565 3.7124-12.651 4.9679-4.14 1.0507-8.835 1.7643-14.086 2.1406-1.194.0855-2.423.1565-3.687.2128-.582.0074-1.382-2.557-2.402-7.6934-1.019-5.1363-1.967-11.4259-2.843-18.8688Zm12.628-23.2164c.022.3069.046.6479.073 1.0229.13 1.8072.373 4.2403.729 7.2992.434 3.6703.733 6.1679.897 7.4928.161 1.2908.599 4.5325 1.314 9.7249.746 5.1559 1.228 8.5315 1.445 10.1267 5.694-1.8475 10.455-4.999 14.282-9.4546 3.828-4.4556 5.643-9.5037 5.444-15.1444-.025-.341-.049-.682-.073-1.0229-.12-1.191-.257-2.3807-.41-3.5693-.244-1.4905-.633-3.0905-1.167-4.8002-.5-1.7121-1.145-3.3108-1.937-4.7963-.792-1.4855-1.84-2.9527-3.143-4.4016a20.6992 20.6992 0 0 0-4.33-3.7509c-1.62-1.0834-3.589-2.0048-5.905-2.7642-2.316-.7593-4.853-1.2458-7.61-1.4595-.041 2.779-.01 5.6043.093 8.4758.101 2.8374.2 5.1779.298 7.0216ZM526.769 61.7364v.4615c-.034 5.0935.53 9.8281 1.692 14.2037 1.163 4.5124 3.197 8.5804 6.102 12.204 2.906 3.6236 6.478 6.2045 10.717 7.7428 2.701.8888 5.248 1.3332 7.641 1.3332 1.675-.0341 3.298-.2563 4.871-.6666 3.76-1.0939 7.076-3.1791 9.948-6.2558 2.871-3.0424 5.179-6.478 6.922-10.3067 1.778-3.8628 2.974-7.7941 3.59-11.7937.923-6.1191 1.384-11.6741 1.384-16.6651 0-18.323-6.239-29.2279-18.716-32.7148-.171-.0341-.65-.0854-1.436-.1538-.615-.0684-1.453-.0854-2.512-.0513h-.821c-1.436 0-2.923.1026-4.461.3077-1.538.1709-3.179.547-4.923 1.1281-1.743.5811-3.247 1.3332-4.512 2.2562-3.077 2.5297-5.794 5.9139-8.153 10.1529-2.359 4.2389-4.171 8.7854-5.435 13.6397-1.231 4.8542-1.863 9.9135-1.898 15.178Zm14.717 4.5637c.068-2.7006.222-5.1278.461-7.2814.24-2.1878.582-4.3073 1.026-6.3584.171-.7862.41-1.7092.718-2.7689.307-1.0939.752-2.4955 1.333-4.2047.581-1.7093 1.282-3.316 2.102-4.8201.821-1.5383 1.727-2.9741 2.718-4.3073.991-1.3332 2.137-2.3416 3.436-3.0253.923-.4786 1.88-.7179 2.871-.7179.376 0 .769.0342 1.18.1026.991.0683 1.897.4102 2.717 1.0255.855.5811 1.521 1.2477 2 1.9998.479.7521.872 1.5383 1.179 2.3588.342.8204.564 1.487.667 1.9998.137.4785.205.752.205.8204.889 2.769 1.333 6.0678 1.333 9.8965 0 1.8118-.102 3.7261-.307 5.743-.069.7863-.24 1.8118-.513 3.0766-.274 1.2307-.633 2.6835-1.077 4.3586-.41 1.6409-.94 3.2817-1.59 4.9226a67.9822 67.9822 0 0 1-2.153 4.8713c-.786 1.6067-1.692 2.9912-2.718 4.1535-.991 1.1622-2.051 2.051-3.179 2.6664-.786.4444-1.658.6666-2.615.6666-.376.0342-.769.0171-1.18-.0513-1.401-.2735-2.837-1.0426-4.307-2.3075-1.436-1.2648-2.53-3.0424-3.282-5.3328-.683-2.1536-1.042-4.4782-1.076-6.9737.034-.1709.051-.3418.051-.5127Z"/></mask><path d="M11.0577 72.5959a549.4387 549.4387 0 0 1-4.1005-22.191c-1.2205-7.4555-1.8706-13.9653-1.95-19.5293-.0851-5.5977.5927-8.757 2.0335-9.4778.9569-.5031 2.6611-.9899 5.1128-1.4606l1.4675-.2402c1.8892-.3093 3.6769-.498 5.363-.5662 4.9752-.5027 9.5516-.1608 13.7295 1.0258 4.206 1.1473 8.3588 3.2387 12.4582 6.274 4.5313 3.3457 8.0871 7.821 10.6674 13.4259 1.8208 3.928 3.0708 7.9667 3.7501 12.1162a44.707 44.707 0 0 1 .5414 5.2113c.2451 4.6708.0448 8.8431-.6008 12.5167-.6119 3.6681-1.8443 7.1433-3.6971 10.4256-1.819 3.2768-4.3224 6.0768-7.5099 8.3999-3.1484 2.3513-7.1978 4.3825-12.1483 6.0936-4.028 1.4215-8.6396 2.5575-13.8349 3.408a136.677 136.677 0 0 1-3.6517.5459c-.579.0601-1.6088-2.4213-3.0892-7.4441-1.4805-5.0229-2.9941-11.2008-4.541-18.5337ZM21.5301 48.331l.1657 1.012c.2927 1.788.7551 4.1891 1.3871 7.2032.7651 3.6158 1.2891 6.0761 1.572 7.3807.2773 1.2709 1.0072 4.4596 2.1895 9.5659 1.2106 5.0671 1.9962 8.3851 2.357 9.9541 5.5031-2.3558 9.9588-5.9257 13.367-10.7097 3.4082-4.784 4.7579-9.9758 4.0491-15.5753a3052.873 3052.873 0 0 1-.1657-1.0121 125.7604 125.7604 0 0 0-.7317-3.5173c-.378-1.4623-.9102-3.0206-1.5967-4.6748-.6527-1.6598-1.4407-3.1935-2.364-4.6012-.9232-1.4076-2.0995-2.7738-3.5287-4.0986a20.6713 20.6713 0 0 0-4.6522-3.3433c-1.7114-.9322-3.7549-1.6715-6.1306-2.2178-2.3757-.5464-4.9461-.8011-7.7112-.7641.2112 2.7713.4982 5.5821.8609 8.4325.3572 2.8166.668 5.1385.9325 6.9658ZM94.3994 14.8006c.3076-.8546 1.487-1.4528 3.5381-1.7947a22.4217 22.4217 0 0 1 3.6915-.3076c.889 0 1.778.0513 2.667.1538 2.188.2393 3.572.6837 4.153 1.3332.821.9572 1.504 5.179 2.051 12.6655.547 7.4864.906 15.5711 1.077 24.254.137 6.1875.205 12.0502.205 17.5881 0 2.222-.017 4.3927-.051 6.5122-.068 7.3839-.256 11.5373-.564 12.4603.137.9572-1.06 1.6922-3.589 2.2049-1.505.3077-3.043.4615-4.615.4615-1.026 0-2.069-.0683-3.1283-.2051-2.6322-.3418-4.0679-1.0597-4.3072-2.1536-.3077-1.5383-.6324-13.9303-.9743-37.1759-.1709-13.4004-.2735-23.0576-.3077-28.9716 0-4.3756.0513-6.7173.1539-7.025ZM142.317 23.1931c.211-.5228 1.318-1.1621 3.322-1.9178 2.038-.751 4.253-1.2875 6.645-1.6093 1.406-.1834 2.55-.2136 3.43-.0908.609.0851 1.105.2407 1.488.4667.697.4425 1.293 1.3712 1.785 2.7862.527 1.4196.949 3.2215 1.265 5.4057.35 2.1889.63 4.2644.839 6.2266.21 1.9621.408 4.2506.595 6.8654.226 2.5857.413 4.4585.562 5.6183.893 7.2005 1.692 15.9411 2.397 26.2218.48-1.2101 2.461-6.6287 5.945-16.2556 3.523-9.656 6.481-17.3716 8.875-23.1468 2.399-5.809 4.078-8.9398 5.039-9.3925.598-.3307 1.439-.4204 2.523-.2691 1.049.1465 2.358.5363 3.927 1.1695 3.146 1.1985 4.969 2.2297 5.47 3.0935.499.3803.671 1.25.516 2.609-.014.1015-.031.22-.05.3554-.184 1.3204-.573 2.8711-1.167 4.6521-.656 1.9794-1.432 4.0801-2.329 6.3019-.859 2.1928-1.838 4.5068-2.937 6.9421-1.099 2.4352-2.115 4.6406-3.046 6.616a449.3912 449.3912 0 0 1-2.586 5.5413c-.826 1.7141-1.366 2.864-1.621 3.4498-1.726 4.2115-3.159 7.6703-4.296 10.3764-1.137 2.7061-2.656 6.17-4.557 10.3917-1.867 4.2265-3.495 7.4853-4.885 9.7764-1.361 2.3298-2.416 3.5804-3.165 3.752-1.139.4968-3.268.5447-6.388.1437l-.457-.0638c-2.844-.397-4.579-.9499-5.205-1.6585-1.284-.9387-3.011-7.3582-5.181-19.2586-2.136-11.8956-3.929-23.7779-5.378-35.6467-1.306-10.6752-1.805-16.9923-1.497-18.9512.033-.237.074-.4039.122-.5008ZM222.814 70.6414c-.068-3.6578-.119-7.2984-.154-10.922 0-8.9906.257-18.0325.77-27.1256.718-12.7167 1.846-19.2289 3.384-19.5366 2.803-.376 6.307-.564 10.512-.564 1.401 0 2.888.0171 4.461.0513 6.29.1709 10.631.4444 13.024.8204.889-.0684 1.607.3931 2.154 1.3845.547 1.0255.854 2.2562.923 3.6919.034.3761.051.7521.051 1.1281-.034 1.0597-.12 2.1366-.256 3.2305-.205 1.4699-.598 2.7348-1.18 3.7945-.547 1.0597-1.213 1.6238-1.999 1.6921-.855.0684-2.479.1026-4.872.1026-2.358 0-4.871-.0171-7.537-.0513-2.633-.0342-4.017-.0513-4.154-.0513-.171 1.4358-.256 3.0425-.256 4.8201v.8717c.068 2.0853.136 4.256.205 6.5122.068 1.6067.085 2.6835.051 3.2304v.4102c3.316 0 6.991.1881 11.025.5641.581.0684 1.589.1538 3.025.2564 1.47.1025 2.478.2222 3.025.3589.992.2735 1.487 1.6751 1.487 4.2047 0 1.7435-.239 4.0509-.717 6.9225-.137.6836-2.393 1.0255-6.769 1.0255s-8.136-.1026-11.281-.3077c-.034 2.0169-.137 5.2987-.308 9.8452-.136 4.5124-.222 7.7429-.256 9.6914 3.145.2051 5.965.3077 8.461.3077.923 0 1.811-.0171 2.666-.0513 1.333-.0342 2.53-.0513 3.589-.0513 1.436 0 2.684.0342 3.744.1026 1.811.1367 2.803.5298 2.974 1.1793.547 1.6751.82 3.4527.82 5.3329 0 1.9485-.154 3.5039-.461 4.6662-.274 1.0939-.496 1.6408-.667 1.6408-.889.4103-6.016.6837-15.383.8205-1.607.0342-3.111.0342-4.512 0-6.837 0-11.435-.2393-13.794-.7179-.923-.2051-1.521-6.6318-1.795-19.2802ZM278.067 33.1032c-.391-3.6718-.347-5.6583.132-5.9595.937-.7721 2.56-1.5613 4.871-2.3677 2.345-.8106 5.088-1.4645 8.229-1.9617a33.4515 33.4515 0 0 1 1.826-.2805 56.9895 56.9895 0 0 1 7.644-.4414c3.172.0159 6.193.6191 9.064 1.8095 2.871 1.1905 5.07 2.9303 6.597 5.2195 2.172 3.0351 3.827 6.0663 4.964 9.0933.837 2.2724 1.357 4.3605 1.561 6.2642.119.6741.185 1.3377.198 1.9907.034 2.4762-.166 4.8613-.602 7.1553-.402 2.2898-1.01 4.3125-1.823 6.0682-.814 1.7557-1.6 3.3184-2.358 4.6882-.763 1.3359-1.367 2.428-1.812 3.2761-.449.8143-.593 1.3147-.432 1.5012.764.8689 2.927 3.1473 6.49 6.8349 3.558 3.6538 7.215 7.8121 10.969 12.4749.085.1272.136.2586.153.3943.085.6783-.602 1.798-2.06 3.3588-1.763 1.8747-3.804 3.457-6.123 4.7468-1.225.6703-2.228 1.0544-3.008 1.1522-.678.085-1.196-.0569-1.552-.4256-2.541-2.6789-5.601-6.3434-9.181-10.9936-3.581-4.6501-6.054-7.7509-7.42-9.3023-.691-.8436-1.581-1.0765-2.671-.6988l-.102.0128c-.53.1698-.937.4964-1.221.9799-.254.4453-.328.9541-.222 1.5265.221 1.2126.623 3.1777 1.204 5.8954.578 2.6838 1.045 5.0369 1.402 7.0593a65.725 65.725 0 0 1 .555 3.5997c.102.814.185 1.6133.248 2.3977.124.9836-.819 1.9805-2.829 2.9905-1.78.912-3.62 1.487-5.52 1.725-.203.026-.407.051-.61.077-2.078.191-3.185-.256-3.321-1.341-1.24-5.4949-2.52-11.3119-3.841-17.4511-1.321-6.1392-2.644-12.571-3.969-19.2953-1.359-6.7201-2.514-12.7767-3.466-18.1698-.722-4.1126-1.277-7.7123-1.664-10.7989-.123-.9837-.223-1.9186-.3-2.8047Zm14.21 3.6967c.438 2.9425 1.262 7.4558 2.473 13.5399 1.244 6.0799 2.083 10.5741 2.516 13.4827.094.7462.565 1.0662 1.413.9599 2.637-.6751 4.941-2.0836 6.912-4.2255 2-2.1801 3.339-4.6907 4.017-7.5318.478-1.9548.581-3.8799.309-5.7751-.106-.848-.28-1.6875-.522-2.5184-.874-2.8533-2.609-5.0131-5.205-6.4793-2.561-1.4704-6.121-2.385-10.679-2.7439-.382-.0211-.694.1041-.935.3756-.242.2714-.341.5767-.299.9159ZM338.784 13.7082c-.016-.6869.001-1.3712.053-2.053.051-.6817.137-1.3609.257-2.0375.239-1.3531.736-2.4811 1.49-3.384.788-.9002 1.745-1.3078 2.869-1.2227l.103.0078c.102.0077 1.81.0856 5.124.2336 3.349.1506 7.123.3334 11.324.5485 4.2.215 8.534.4746 13.002.7785l2.045.1548c3.682.2786 6.915.5919 9.7.9398 3.325.4574 5.314.8993 5.968 1.326.687.429 1.07 1.7094 1.149 3.8408.021.6188.008 1.2519-.041 1.8996-.109 1.4317-.42 2.8308-.935 4.1974-.695 1.9358-1.677 2.9071-2.946 2.9139-.926-.0015-1.883-.0396-2.871-.1145-.855-.0304-1.757-.1158-2.706-.2562-1.427-.1766-2.769-.3296-4.028-.4591-.582-.0098-1.112-.0328-1.589-.0689-1.709-.0608-2.563.1146-2.559.5262-1.363 26.603-2.502 45.955-3.418 58.0559-.08 1.0567-.507 1.95-1.282 2.6798-.741.7324-1.642 1.0757-2.701 1.0298-3.078-.0959-5.555-.2148-7.429-.3567-1.057-.0799-1.932-.5233-2.625-1.3299-.662-.7701-.987-1.686-.975-2.7479.087-5.6842.329-16.1221.725-31.3136.398-15.2256.638-24.2923.721-27.2-.071-.4168-1.163-.7052-3.277-.8651-2.113-.16-4.624-.2814-7.531-.3644-2.397-.0443-4.106-.1051-5.129-.1825-.239-.018-.426-.0322-.562-.0426-.509-.0727-.949-.6031-1.32-1.5911-.371-.988-.573-2.1689-.606-3.5427ZM413.155 25.5347c.308-.8547 1.487-1.4529 3.538-1.7947a22.4116 22.4116 0 0 1 3.692-.3077c.889 0 1.778.0513 2.666.1538 2.188.2393 3.573.6837 4.154 1.3332.82.9572 1.504 5.179 2.051 12.6655.547 7.4864.906 15.5711 1.077 24.254.137 6.1875.205 12.0502.205 17.5881 0 2.222-.017 4.3927-.051 6.5122-.069 7.3839-.257 11.5373-.564 12.4603.136.9572-1.06 1.6926-3.59 2.2046-1.504.308-3.042.462-4.615.462-1.025 0-2.068-.069-3.128-.205-2.632-.342-4.068-1.06-4.307-2.1539-.308-1.5383-.632-13.9303-.974-37.1759-.171-13.4004-.274-23.0576-.308-28.9716 0-4.3756.051-6.7173.154-7.0249ZM455.985 59.5021a549.3947 549.3947 0 0 1-2.073-22.4712c-.54-7.5355-.598-14.0774-.173-19.6257.423-5.5824 1.384-8.6673 2.884-9.2546.999-.4143 2.74-.7448 5.224-.9914.512-.0366 1.006-.072 1.483-.1063 1.91-.1368 3.707-.1628 5.393-.078 5-.0499 9.527.7053 13.58 2.2655 4.084 1.5237 8.031 3.9826 11.838 7.3769 4.21 3.7424 7.346 8.5215 9.407 14.3371 1.458 4.0768 2.337 8.2121 2.637 12.4061.125 1.739.147 3.4853.067 5.2389-.179 4.6739-.756 8.8108-1.732 12.4108-.942 3.5976-2.484 6.9468-4.626 10.0478-2.109 3.0985-4.855 5.6602-8.24 7.685-3.349 2.0564-7.565 3.7124-12.651 4.9679-4.14 1.0507-8.835 1.7643-14.086 2.1406-1.194.0855-2.423.1565-3.687.2128-.582.0074-1.382-2.557-2.402-7.6934-1.019-5.1363-1.967-11.4259-2.843-18.8688Zm12.628-23.2164c.022.3069.046.6479.073 1.0229.13 1.8072.373 4.2403.729 7.2992.434 3.6703.733 6.1679.897 7.4928.161 1.2908.599 4.5325 1.314 9.7249.746 5.1559 1.228 8.5315 1.445 10.1267 5.694-1.8475 10.455-4.999 14.282-9.4546 3.828-4.4556 5.643-9.5037 5.444-15.1444-.025-.341-.049-.682-.073-1.0229-.12-1.191-.257-2.3807-.41-3.5693-.244-1.4905-.633-3.0905-1.167-4.8002-.5-1.7121-1.145-3.3108-1.937-4.7963-.792-1.4855-1.84-2.9527-3.143-4.4016a20.6992 20.6992 0 0 0-4.33-3.7509c-1.62-1.0834-3.589-2.0048-5.905-2.7642-2.316-.7593-4.853-1.2458-7.61-1.4595-.041 2.779-.01 5.6043.093 8.4758.101 2.8374.2 5.1779.298 7.0216ZM526.769 61.7364v.4615c-.034 5.0935.53 9.8281 1.692 14.2037 1.163 4.5124 3.197 8.5804 6.102 12.204 2.906 3.6236 6.478 6.2045 10.717 7.7428 2.701.8888 5.248 1.3332 7.641 1.3332 1.675-.0341 3.298-.2563 4.871-.6666 3.76-1.0939 7.076-3.1791 9.948-6.2558 2.871-3.0424 5.179-6.478 6.922-10.3067 1.778-3.8628 2.974-7.7941 3.59-11.7937.923-6.1191 1.384-11.6741 1.384-16.6651 0-18.323-6.239-29.2279-18.716-32.7148-.171-.0341-.65-.0854-1.436-.1538-.615-.0684-1.453-.0854-2.512-.0513h-.821c-1.436 0-2.923.1026-4.461.3077-1.538.1709-3.179.547-4.923 1.1281-1.743.5811-3.247 1.3332-4.512 2.2562-3.077 2.5297-5.794 5.9139-8.153 10.1529-2.359 4.2389-4.171 8.7854-5.435 13.6397-1.231 4.8542-1.863 9.9135-1.898 15.178Zm14.717 4.5637c.068-2.7006.222-5.1278.461-7.2814.24-2.1878.582-4.3073 1.026-6.3584.171-.7862.41-1.7092.718-2.7689.307-1.0939.752-2.4955 1.333-4.2047.581-1.7093 1.282-3.316 2.102-4.8201.821-1.5383 1.727-2.9741 2.718-4.3073.991-1.3332 2.137-2.3416 3.436-3.0253.923-.4786 1.88-.7179 2.871-.7179.376 0 .769.0342 1.18.1026.991.0683 1.897.4102 2.717 1.0255.855.5811 1.521 1.2477 2 1.9998.479.7521.872 1.5383 1.179 2.3588.342.8204.564 1.487.667 1.9998.137.4785.205.752.205.8204.889 2.769 1.333 6.0678 1.333 9.8965 0 1.8118-.102 3.7261-.307 5.743-.069.7863-.24 1.8118-.513 3.0766-.274 1.2307-.633 2.6835-1.077 4.3586-.41 1.6409-.94 3.2817-1.59 4.9226a67.9822 67.9822 0 0 1-2.153 4.8713c-.786 1.6067-1.692 2.9912-2.718 4.1535-.991 1.1622-2.051 2.051-3.179 2.6664-.786.4444-1.658.6666-2.615.6666-.376.0342-.769.0171-1.18-.0513-1.401-.2735-2.837-1.0426-4.307-2.3075-1.436-1.2648-2.53-3.0424-3.282-5.3328-.683-2.1536-1.042-4.4782-1.076-6.9737.034-.1709.051-.3418.051-.5127Z" fill="#000"/><path d="m11.0577 72.5959-4.897 1.0097.0023.0112.0024.0111 4.8923-1.032ZM5.0071 30.8756l4.9995-.0715-.0001-.0045-4.9994.076Zm2.0336-9.4778 2.2372 4.4715.045-.0225.0445-.0234-2.3267-4.4256Zm5.1128-1.4606-.8078-4.9343-.0676.0111-.0673.0129.9427 4.9103Zm6.8305-.8064.2021 4.9959.1506-.0061.15-.0152-.5027-4.9746Zm13.7295 1.0258-1.3661 4.8098.0251.0071.0251.0068 1.3159-4.8237Zm12.4582 6.274-2.9753 4.0184.0054.004 2.9699-4.0224Zm10.6674 13.4259-4.5419 2.0909.0055.0119 4.5364-2.1028Zm3.7501 12.1162-4.9343.8078 4.9343-.8078Zm.5414 5.2113-4.9949.2257.0008.0181.001.0181 4.9931-.2619Zm-.6008 12.5167-4.9246-.8655-.0037.0214-.0036.0214 4.9319.8227Zm-3.6971 10.4256-4.3542-2.4578-.0087.0155-.0087.0155 4.3716 2.4268Zm-7.5099 8.3999-2.9449-4.0408-.0236.0173-.0235.0174 2.992 4.0061Zm-12.1483 6.0936-1.6333-4.7257-.0153.0053-.0153.0054 1.6639 4.715Zm-13.8349 3.408-.8078-4.9343.8078 4.9343Zm-3.6517.5459.5166 4.9733.0789-.008.0787-.011-.6742-4.9543Zm2.8422-50.2427-4.9484.7163.0066.0458.0075.0457 4.9343-.8078Zm.1657 1.012-4.9343.8078 4.9343-.8078Zm1.3871 7.2032-4.8936 1.0261.0019.009 4.8917-1.0351Zm1.572 7.3807-4.8865 1.0595.0014.0065 4.8851-1.066Zm2.1895 9.5659-4.8711 1.1279.0039.017.0041.0169 4.8631-1.1618Zm2.357 9.9541-4.8728 1.1205 1.3406 5.8304 5.4999-2.3544-1.9677-4.5965Zm17.4161-26.285 4.9604-.6279-.0114-.0902-.0147-.0897-4.9343.8078Zm-.1657-1.0121 4.9343-.8078-.0115-.0704-.0136-.0701-4.9092.9483Zm-.7317-3.5173 4.8802-1.088-.0183-.082-.021-.0813-4.8409 1.2513Zm-1.5967-4.6748-4.6531 1.8299.0171.0435.0179.043 4.6181-1.9164Zm-5.8927-8.6998-3.45 3.619.0253.0242.0257.0238 3.399-3.667Zm-4.6522-3.3433-2.3917 4.3909.0307.0167.031.0163 2.33-4.4239Zm-13.8418-2.9819-.0669-4.9995-5.3232.0712.4046 5.3083 4.9855-.38Zm.8609 8.4325 4.9603-.6291-.0003-.0021-4.96.6312Zm73.8018-26.5646-4.7045-1.6936-.0201.056-.0188.0565 4.7434 1.5811Zm3.5381-1.7947-.822-4.932.822 4.932Zm6.3585-.1538-.573 4.9671.014.0017.015.0016.544-4.9704Zm4.153 1.3332 3.797-3.2539-.035-.0404-.035-.0397-3.727 3.334Zm3.128 36.9195-4.999.0984v.0121l4.999-.1105Zm.154 24.1003-4.999-.0807-.001.0172v.0172l5 .0463Zm-.564 12.4603-4.743-1.5811-.374 1.1197.167 1.1685 4.95-.7071Zm-3.589 2.2049-.994-4.9003-.008.0018 1.002 4.8985Zm-7.7433.2564-.6439 4.9584.0041.0005.6398-4.9589Zm-4.3072-2.1536-4.9029.9806.0088.044.0096.0439 4.8845-1.0685Zm-.9743-37.1759-4.9996.0637.0001.0098 4.9995-.0735Zm-.3077-28.9716h-5v.0145l.0001.0144 4.9999-.0289Zm48.0715 1.3675 4.479 2.2218.086-.172.071-.1781-4.636-1.8717Zm3.322-1.9178-1.729-4.6915-.017.0065-.018.0066 1.764 4.6784Zm6.645-1.6093-.646-4.9581-.011.0014-.01.0013.667 4.9554Zm3.43-.0908-.692 4.952.692-4.952Zm1.488.4667 2.678-4.2221-.067-.0426-.068-.0405-2.543 4.3052Zm1.785 2.7862-4.721 1.6445.016.0474.018.0471 4.687-1.739Zm1.265 5.4057-4.948.7168.005.0366.006.0366 4.937-.79Zm1.434 13.092-4.987.3571.003.039.003.0389 4.981-.435Zm.562 5.6183 4.962-.6155-.001-.0103-.002-.0102-4.959.636Zm2.397 26.2218-4.988.342 9.636 1.5001-4.648-1.8421Zm5.945-16.2556-4.697-1.7135-.004.0121 4.701 1.7014Zm8.875-23.1468 4.619 1.9147.002-.0063-4.621-1.9084Zm5.039-9.3925 2.131 4.523.146-.0687.141-.078-2.418-4.3763Zm2.523-.2691.691-4.952-.691 4.952Zm3.927 1.1695-1.872 4.6364.046.0185.046.0175 1.78-4.6724Zm5.47 3.0935-4.326 2.5075.501.8642.795.6054 3.03-3.9771Zm.516 2.609 4.952.6913.009-.0619.007-.0621-4.968-.5673Zm-.05.3554 4.952.6913-4.952-.6913Zm-1.167 4.6521L190.98 34.4l-.003.0085 4.746 1.5729Zm-2.329 6.3019-4.637-1.8716-.01.0244-.009.0246 4.656 1.8226Zm-5.983 13.5581-4.523-2.1327-.011.0238-.011.0238 4.545 2.0851Zm-2.586 5.5413 4.504 2.1708.006-.0122.006-.0122-4.516-2.1464Zm-1.621 3.4498-4.586-1.9915-.02.047-.02.0475 4.626 1.897Zm-8.853 20.7681-4.559-2.0529-.007.0162-.007.0163 4.573 2.0204Zm-4.885 9.7764-4.275-2.5932-.022.0356-.021.0359 4.318 2.5217Zm-3.165 3.752-1.116-4.8736-.455.1041-.427.1862 1.998 4.5833Zm-6.388.1437-.691 4.9523.027.003.027.004.637-4.9593Zm-.457-.0638-.691 4.9521.691-4.9521Zm-5.205-1.6585 3.748-3.31-.359-.4066-.438-.3201-2.951 4.0367Zm-5.181-19.2586-4.921.8838.002.0132 4.919-.897Zm-5.378-35.6467 4.963-.6062v-.0008l-4.963.607Zm-1.497-18.9512 4.94.7765.006-.0425.006-.0427-4.952-.6913Zm80.619 46.9475-4.999.0935v.0146l4.999-.1081Zm-.154-10.922h-5v.0236l.001.0236 4.999-.0472Zm.77-27.1256-4.992-.2818v.0003l4.992.2815Zm3.384-19.5366-.665-4.9556-.159.0213-.157.0314.981 4.9029Zm14.973-.5127.136-4.9982-.014-.0004-.013-.0003-.109 4.9989Zm13.024.8204-.776 4.9394.577.0907.583-.0448-.384-4.9853Zm2.154 1.3845 4.412-2.353-.017-.0313-.017-.0311-4.378 2.4154Zm.923 3.6919-4.994.2378.005.1076.009.1073 4.98-.4527Zm.051 1.1281 4.998.1612.002-.0806v-.0806h-5Zm-.256 3.2305 4.952.691.005-.0354.004-.0355-4.961-.6201Zm-1.18 3.7945-4.384-2.4042-.03.0551-.029.0559 4.443 2.2932Zm-1.999 1.6921.398 4.9841.018-.0014.017-.0015-.433-4.9812Zm-12.409.0513-.065 4.9996.065-4.9996Zm-4.154-.0513v-5h-4.44l-.525 4.409 4.965.591Zm-.256 5.6918h-5v.0819l.002.0819 4.998-.1638Zm.205 6.5122-4.998.1514.001.0306.001.0305 4.996-.2125Zm.051 3.2304-4.99-.3119-.01.1558v.1561h5Zm0 .4102h-5v5h5v-5Zm11.025.5641.584-4.9658-.06-.007-.06-.0056-.464 4.9784Zm3.025.2564-.356 4.9873.008.0006.348-4.9879Zm3.025.3589 1.33-4.8199-.058-.0161-.059-.0147-1.213 4.8507Zm.77 11.1272 4.902.9805.016-.079.013-.0796-4.931-.8219Zm-18.05.7178.325-4.9894-5.235-.3414-.089 5.2461 4.999.0847Zm-.308 9.8452-4.996-.1878-.001.0182v.0182l4.997.1514Zm-.256 9.6914-4.999-.0877-.084 4.7668 4.758.3103.325-4.9894Zm11.127.2564-.128-4.9984-.036.001-.036.0014.2 4.996Zm7.333.0513.376-4.9858-.027-.0021-.027-.0018-.322 4.9897Zm2.974 1.1793-4.836 1.2725.037.141.046.1386 4.753-1.5521Zm.359 9.9991-4.834-1.2795-.009.0333-.008.0335 4.851 1.2127Zm-.667 1.6408v-5H257.2l-.997.4602 2.095 4.5398Zm-15.383.8205-.073-4.9995-.017.0003-.016.0003.106 4.9989Zm-4.512 0 .121-4.9985-.06-.0015h-.061v5Zm-13.794-.7179-1.085 4.8809.045.0101.046.0092.994-4.9002Zm53.458-56.8184 4.982-.4308-.004-.0496-.006-.0495-4.972.5299Zm.132-5.9595 2.662 4.2327.271-.1705.247-.2037-3.18-3.8585Zm4.871-2.3677-1.634-4.7255-.007.0024-.007.0024 1.648 4.7207Zm8.229-1.9617.782 4.9386.057-.0091.058-.0104-.897-4.9191Zm1.826-.2805-.622-4.9611.622 4.9611Zm7.644-.4414-.048 4.9998.012.0001h.011l.025-4.9999Zm15.661 7.029-4.159 2.7749.046.0682.047.0666 4.066-2.9097Zm4.964 9.0933 4.693-1.7265-.006-.0161-.006-.0161-4.681 1.7587Zm1.561 6.2642-4.972.5332.018.1686.03.167 4.924-.8688Zm.198 1.9907 4.999-.0702V46.3705l-4.999.0991Zm-.602 7.1553-4.912-.9334-.007.0343-.006.0345 4.925.8646Zm-4.181 10.7564 4.342 2.4793.016-.0285.016-.0286-4.374-2.4222Zm-1.812 3.2761 4.378 2.4151.025-.0459.025-.0465-4.428-2.3227Zm-.432 1.5012-3.783 3.2694.013.0155.014.0154 3.756-3.3003Zm6.49 6.8349-3.596 3.4742.007.0072.007.0073 3.582-3.4887Zm10.969 12.4749 4.159-2.7749-.124-.1863-.14-.1744-3.895 3.1356Zm.153.3943-4.962.6218 4.962-.6218Zm-2.06 3.3588 3.642 3.4256.006-.0062.006-.0062-3.654-3.4132Zm-6.123 4.7468 2.4 4.3867.015-.009.015-.008-2.43-4.3697Zm-3.008 1.1522-.622-4.9612.622 4.9612Zm-1.552-.4256-3.628 3.4411.016.016.016.017 3.596-3.4741ZM304.394 77.399l-3.867 3.1696.056.0682.059.0661 3.752-3.3039Zm-2.671-.6988.622 4.9612.52-.0652.496-.1718-1.638-4.7242Zm-.102.0128-.622-4.9612-.461.0578-.442.1418 1.525 4.7616Zm-1.221.9799-4.311-2.532-.016.0263-.015.0265 4.342 2.4792Zm-.222 1.5265 4.919-.8961-.001-.008-.002-.008-4.916.9121Zm1.204 5.8954-4.889 1.0467.001.0053 4.888-1.052Zm1.402 7.0593-4.924.8688.002.0137.003.0136 4.919-.8961Zm.555 3.5997 4.961-.6219-4.961.6219Zm.248 2.3977-4.983.4057.009.1083.013.1078 4.961-.6218Zm-2.829 2.9905-2.245-4.4679-.017.0087-.018.0089 2.28 4.4503Zm-5.52 1.725.622 4.961-.622-4.961Zm-.61.077.459 4.979.081-.008.081-.01-.621-4.961Zm-3.321-1.341 4.961-.622-.03-.241-.054-.238-4.877 1.101Zm-7.81-36.7464 4.906-.9668-.003-.0122-.002-.0122-4.901.9912Zm-3.466-18.1698-4.925.8649.001.004 4.924-.8689Zm-1.664-10.7989-4.961.6218 4.961-.6218Zm13.91.892-4.961.6219.007.057.009.0568 4.945-.7357Zm2.473 13.5399-4.904.9757.002.0135.003.0134 4.899-1.0026Zm2.516 13.4827 4.962-.6219-.008-.0577-.008-.0575-4.946.7371Zm1.413.9599.622 4.9612.312-.0392.306-.0782-1.24-4.8438Zm6.912-4.2255 3.679 3.3856.005-.005-3.684-3.3806Zm4.017-7.5318-4.857-1.1887-.003.0145-.004.0145 4.864 1.1597Zm.309-5.7751-4.961.6219.006.0443.006.0441 4.949-.7103Zm-.522-2.5184 4.801-1.3979-.01-.0337-.01-.0335-4.781 1.4651Zm-5.205-6.4793-2.489 4.3364.015.0085.015.0085 2.459-4.3534Zm-10.679-2.7439.392-4.9846-.058-.0046-.059-.0032-.275 4.9924Zm47.073-29.2747-3.762-3.2933-.038.0437-.038.0446 3.838 3.205Zm2.869-1.2227.378-4.9857-.378 4.9857Zm.103.0078-.378 4.9857.378-4.9857Zm5.124.2336.225-4.995h-.002l-.223 4.995Zm24.326 1.327.378-4.9858-.019-.0014-.019-.0013-.34 4.9885Zm2.045.1548.378-4.9858-.378 4.9858Zm9.7.9398.681-4.9534-.031-.0042-.03-.0038-.62 4.9614ZM390.719 9l-2.734 4.1866.043.0278.043.0269 2.648-4.2414Zm1.149 3.8408 4.997-.1755-.001-.0088-4.996.1843Zm-.041 1.8996 4.985.3774-4.985-.3774Zm-.935 4.1974-4.679-1.7626-.014.0364-.013.0366 4.706 1.6896Zm-2.946 2.9139-.008 5h.017l.018-.0001-.027-4.9999Zm-2.871-.1145.377-4.9857-.099-.0076-.1-.0035-.178 4.9968Zm-2.706-.2562.731-4.9462-.058-.0087-.059-.0073-.614 4.9622Zm-4.028-.4591.512-4.9738-.213-.0219-.215-.0036-.084 4.9993Zm-1.589-.0689.378-4.9857-.1-.0076-.1-.0035-.178 4.9968Zm-2.559.5262 4.993.2557.008-.1467-.002-.147-4.999.038Zm-3.418 58.0559 4.986.3774-4.986-.3774Zm-1.282 2.6798-3.428-3.6404-.044.0415-.043.0426 3.515 3.5563Zm-2.701 1.0298.216-4.9953-.03-.0013-.03-.001-.156 4.9976Zm-7.429-.3567-.378 4.9858.378-4.9858Zm-2.625-1.3299-3.792 3.2586 3.792-3.2586Zm-.975-2.7479-4.999-.0768-.001.0106v.0106l5 .0556Zm.725-31.3136-4.999-.1307v.0005l4.999.1302Zm.721-27.2 4.998.1426.014-.4963-.083-.4894-4.929.8431Zm-10.808-1.2295.142-4.998-.025-.0007-.025-.0004-.092 4.9991Zm-5.129-.1825.377-4.9857-.377 4.9857Zm-.562-.0426-.709 4.9496.165.0236.166.0126.378-4.9858Zm72.445 6.6927-4.704-1.6936-.021.056-.018.0564 4.743 1.5812Zm3.538-1.7947-.822-4.932.822 4.932Zm6.358-.1539-.573 4.9671.015.0017.015.0016.543-4.9704Zm4.154 1.3332 3.796-3.2539-.034-.0404-.036-.0396-3.726 3.3339Zm3.128 36.9195-4.999.0984v.0121l4.999-.1105Zm.154 24.1003-5-.0807v.0344l5 .0463Zm-.564 12.4603-4.744-1.5811-.373 1.1197.167 1.1685 4.95-.7071Zm-3.59 2.2046-.993-4.9-.009.0018 1.002 4.8982Zm-7.743.257-.644 4.958.004.001.64-4.959Zm-4.307-2.1539-4.903.9806.009.044.01.0439 4.884-1.0685Zm-.974-37.1759-5 .0637v.0098l5-.0735Zm-.308-28.9716h-5V32.5885l5-.0289Zm42.984 26.9425-4.968.5619.001.0113.001.0113 4.966-.5845Zm-2.246-42.0969 4.986.3817v-.0044l-4.986-.3773Zm2.884-9.2546 1.823 4.6558.047-.0183.046-.0193-1.916-4.6182Zm5.224-.9914-.357-4.9872-.069.005-.068.0067.494 4.9755Zm6.876-.1843-.252 4.9937.151.0076.151-.0015-.05-4.9998Zm13.58 2.2655-1.797 4.6662.025.0094.024.0091 1.748-4.6847Zm11.838 7.3769-3.327 3.7323.005.0045 3.322-3.7368Zm9.407 14.3371-4.712 1.6708.004.0124 4.708-1.6832Zm2.637 12.4061-4.987.3574 4.987-.3574Zm.067 5.2389-4.994-.2277-.001.0181-.001.0181 4.996.1915Zm-1.732 12.4108-4.826-1.3081-.005.021-.006.021 4.837 1.2661Zm-4.626 10.0478-4.114-2.8422-.01.0146-.01.0147 4.134 2.8129Zm-8.24 7.685-2.567-4.291-.025.015-.025.0153 2.617 4.2607Zm-12.651 4.9679-1.198-4.8542-.016.0039-.016.0039 1.23 4.8464Zm-14.086 2.1406-.358-4.9872.358 4.9872Zm-3.687.2128.064 4.9996.08-.001.079-.0036-.223-4.995Zm7.383-49.7786-4.993.265.002.0463.004.0461 4.987-.3574Zm.073 1.0229-4.987.3575 4.987-.3575Zm.729 7.2992-4.967.5786.002.0091 4.965-.5877Zm.897 7.4928-4.963.6124.001.0067 4.962-.6191Zm1.314 9.7249-4.954.6819.003.0173.002.0173 4.949-.7165Zm1.445 10.1267-4.954.6744.807 5.928 5.69-1.8465-1.543-4.7559Zm19.726-24.599 4.997-.176-.003-.0908-.007-.0907-4.987.3575Zm-.073-1.0229 4.987-.3575-.005-.0712-.007-.0711-4.975.4998Zm-.41-3.5693 4.958-.6413-.011-.0833-.013-.0828-4.934.8074Zm-1.167-4.8002-4.8 1.4009.013.0448.014.0445 4.773-1.4902Zm-5.08-9.1979-3.764 3.2917.023.0263.023.026 3.718-3.344Zm-4.33-3.7509-2.78 4.1561.029.0195.029.019 2.722-4.1946Zm-13.515-4.2237.386-4.985-5.308-.4114-.078 5.3231 5 .0733Zm.093 8.4758 4.997-.1771v-.0021l-4.997.1792Zm58.454 32.4723-5-.0325v.0325h5Zm0 .4615 5 .0335v-.0335h-5Zm1.692 14.2037 4.842-1.2471-.004-.0183-.005-.0182-4.833 1.2836Zm16.819 19.9468-1.705 4.7006.071.025.071.024 1.563-4.7496Zm7.641 1.3332v5.0004h.051l.051-.001-.102-4.9994Zm4.871-.6666 1.262 4.838.068-.017.067-.02-1.397-4.801Zm9.948-6.2558-3.636-3.4319-.01.0102-.01.0101 3.656 3.4116Zm6.922-10.3067-4.542-2.0902-.004.0091-.004.0091 4.55 2.072Zm3.59-11.7937 4.941.7603.002-.0073.001-.0072-4.944-.7458ZM560.92 19.2789l1.346-4.8155-.181-.0505-.184-.0369-.981 4.9029Zm-1.436-.1538-.552 4.9694.059.0066.06.0052.433-4.9812Zm-2.512-.0513v5h.08l.081-.0026-.161-4.9974Zm-5.282.3077.552 4.9694.055-.006.054-.0073-.661-4.9561Zm-9.435 3.3843-2.947-4.039-.117.0852-.111.0917 3.175 3.8621Zm-13.588 23.7926-4.839-1.2608-.004.016-.004.016 4.847 1.2288Zm12.819 19.7417-4.998-.1266-.002.0633v.0633h5Zm.461-7.2814 4.97.5522.001-.0086-4.971-.5436Zm1.026-6.3584-4.886-1.0621-.001.0034 4.887 1.0587Zm.718-2.7689 4.802 1.394.005-.0201.006-.0202-4.813-1.3537Zm3.435-9.0248 4.39 2.3943.011-.0206.011-.0208-4.412-2.3529Zm6.154-7.3326-2.302-4.4388-.014.0071-.013.0071 2.329 4.4246Zm4.051-.6153-.822 4.9319.237.0396.24.0166.345-4.9881Zm2.717 1.0255-3 4 .093.0695.096.0651 2.811-4.1346Zm3.179 4.3586-4.681 1.7556.031.0843.035.0831 4.615-1.923Zm.667 1.9998-4.903.9805.04.1985.055.1946 4.808-1.3736Zm.205.8204h-5v.7828l.239.7453 4.761-1.5281Zm1.026 15.6395-4.975-.5059-.003.0364-.004.0364 4.982.4331Zm-.513 3.0766 4.881 1.0847.003-.014.003-.014-4.887-1.0567Zm-1.077 4.3586-4.833-1.2822-.009.0347-.009.0348 4.851 1.2127Zm-6.461 13.9474-3.749-3.3081-.028.0314-.027.0319 3.804 3.2448Zm-3.179 2.6664-2.394-4.3895-.033.0181-.033.0186 2.46 4.3528Zm-2.615.6666v-5h-.227l-.226.0205.453 4.9795Zm-1.18-.0513-.957 4.9074.068.0132.067.0114.822-4.932Zm-4.307-2.3075-3.305 3.7518.022.0193.022.019 3.261-3.7901Zm-3.282-5.3328-4.765 1.5129.007.0235.008.0235 4.75-1.5599Zm-1.076-6.9737-4.903-.9806-.104.5195.007.5296 5-.0685ZM15.9547 71.5862a544.4228 544.4228 0 0 1-4.0632-21.9891l-9.8686 1.6156a554.4374 554.4374 0 0 0 4.1378 22.3929l9.794-2.0194Zm-4.0632-21.9891c-1.1937-7.2918-1.8099-13.5452-1.8849-18.793l-9.999.1429c.084 5.8802.768 12.6465 2.0153 20.2657l9.8686-1.6156Zm-1.885-18.7975c-.0403-2.6528.1115-4.406.334-5.4428.1105-.5152.1967-.6486.1511-.565-.0467.0855-.3794.6601-1.2137 1.0775l-4.4743-8.9431C1.8506 18.4036.9333 21.5331.563 23.2589c-.4554 2.1224-.6 4.7478-.5553 7.6926l9.9988-.1519Zm-.639-4.9762c-.0024.0012.018-.0096.0665-.0307.048-.021.1163-.0489.2077-.0829.1855-.069.4378-.1524.7682-.2468.666-.1902 1.552-.3977 2.6862-.6154l-1.8853-9.8207c-2.4701.4742-4.8247 1.0661-6.4968 1.9452l4.6534 8.8513Zm3.5938-.9519 1.4675-.2402-1.6156-9.8686-1.4675.2402 1.6156 9.8686Zm1.4675-.2402c1.7148-.2807 3.2989-.4456 4.7573-.5046l-.4041-9.9919c-1.914.0775-3.9053.2901-5.9688.6279l1.6156 9.8686Zm5.0579-.5259c4.4413-.4487 8.3744-.1292 11.8607.861l2.7321-9.6196c-4.8694-1.383-10.0892-1.7474-15.5981-1.1907l1.0053 9.9493Zm11.9109.8749c3.5153.959 7.1145 2.7408 10.7988 5.4687l5.9506-8.0368c-4.5146-3.3427-9.2209-5.7436-14.1177-7.0794l-2.6317 9.6475Zm10.8042 5.4727c3.7894 2.7979 6.8334 6.5807 9.0954 11.4944l9.0837-4.1818c-2.8985-6.2961-6.9661-11.4639-12.2393-15.3574l-5.9398 8.0448Zm9.1009 11.5063c1.6357 3.5287 2.7484 7.1326 3.3522 10.8212l9.8686-1.6156c-.7547-4.6104-2.1422-9.0839-4.1481-13.4112l-9.0727 4.2056Zm3.3522 10.8212a39.727 39.727 0 0 1 .4808 4.6292l9.9898-.4515a49.7094 49.7094 0 0 0-.602-5.7933l-9.8686 1.6156Zm.4826 4.6654c.23 4.3844.0339 8.1676-.5323 11.3893l9.8491 1.731c.725-4.1255.9295-8.6868.6694-13.6442l-9.9862.5239Zm-.5396 11.4321c-.5147 3.0856-1.5489 6.0084-3.1194 8.7905l8.7084 4.9156c2.1352-3.7825 3.5657-7.8102 4.2747-12.0607l-9.8637-1.6454Zm-3.1368 8.8215c-1.4479 2.6084-3.4514 4.8678-6.0832 6.7859l5.8897 8.0815c3.7433-2.7281 6.7466-6.0685 8.9367-10.0138l-8.7432-4.8536Zm-6.1303 6.8206c-2.6238 1.9596-6.1747 3.7789-10.7896 5.374l3.2667 9.4514c5.2861-1.8271 9.834-4.0702 13.5068-6.8133l-5.9839-8.0121Zm-10.8202 5.3847c-3.6944 1.3037-8.0106 2.3753-12.9788 3.1887l1.6156 9.8685c5.4224-.888 10.3295-2.088 14.6911-3.6272l-3.3279-9.43Zm-12.9788 3.1887a131.8334 131.8334 0 0 1-3.5181.5258l1.3484 9.9087c1.2958-.176 2.5577-.365 3.7853-.566l-1.6156-9.8685Zm-3.3606.5069c1.8446-.1916 3.0798.7033 3.4754 1.0323.444.3692.6625.7055.687.7424.0681.1026-.0151-.006-.2342-.5338-.4097-.9874-.9771-2.6568-1.7047-5.1253l-9.5921 2.8271c.7529 2.5544 1.4406 4.6372 2.0606 6.1311.2958.7129.6711 1.5278 1.1414 2.2348.2256.34.6311.899 1.248 1.412.5685.473 1.9626 1.433 3.9519 1.226l-1.0333-9.9466Zm2.2235-3.8844c-1.4314-4.8563-2.9144-10.898-4.4447-18.1521l-9.7846 2.064c1.5635 7.4117 3.1077 13.7258 4.6372 18.9152l9.5921-2.8271Zm-3.7989-40.5772.1657 1.012 9.8686-1.6155-.1657-1.0121-9.8686 1.6156Zm.1657 1.012c.3101 1.8941.7895 4.3774 1.4278 7.4215l9.7871-2.0522c-.6257-2.9841-1.0709-5.3029-1.3463-6.9848l-9.8686 1.6155Zm1.4297 7.4305c.7649 3.6146 1.2913 6.0865 1.5772 7.4051l9.7729-2.1189c-.2798-1.2907-.8013-3.7393-1.5668-7.3564l-9.7833 2.0702Zm1.5786 7.4116c.2857 1.309 1.0238 4.5331 2.2035 9.6278l9.7422-2.2558c-1.185-5.118-1.9066-8.2711-2.1756-9.504l-9.7701 2.132Zm2.2115 9.6617c1.2116 5.0717 1.9921 8.3683 2.3473 9.9128l9.7457-2.241c-.3665-1.5935-1.1573-4.933-2.3668-9.9955l-9.7262 2.3237Zm9.1878 13.3888c6.33-2.7097 11.5201-6.8585 15.4716-12.405l-8.1445-5.8023c-2.8651 4.0215-6.5862 7.0124-11.2625 9.0143l3.9354 9.193Zm15.4716-12.405c4.1044-5.7612 5.8107-12.204 4.9372-19.1044l-9.9208 1.2559c.5441 4.2985-.4489 8.2393-3.1609 12.0462l8.1445 5.8023Zm4.9111-19.2843-.0828-.506a888.3822 888.3822 0 0 1-.0829-.5061l-9.8686 1.6156.0828.5061.0829.506 9.8686-1.6156Zm-.1908-1.1526c-.236-1.222-.4896-2.441-.7607-3.657l-9.7604 2.1759a121.124 121.124 0 0 1 .7027 3.3778l9.8184-1.8967Zm-.8-3.8203c-.4461-1.726-1.0592-3.508-1.8194-5.34l-9.2363 3.8329c.6127 1.4765 1.0641 2.811 1.3739 4.0096l9.6818-2.5025Zm-1.7845-5.2535c-.771-1.9604-1.7138-3.8022-2.8361-5.5133l-8.3619 5.4843c.7241 1.1041 1.3573 2.3298 1.8918 3.6889l9.3062-3.6599Zm-2.8361-5.5133c-1.1771-1.7948-2.6298-3.4655-4.3108-5.0235l-6.7979 7.334c1.1776 1.0915 2.0774 2.1532 2.7468 3.1738l8.3619-5.4843Zm-4.2598-4.9756a25.6735 25.6735 0 0 0-5.772-4.1481l-4.6601 8.8478a15.6738 15.6738 0 0 1 3.5322 2.5384l6.8999-7.2381Zm-5.7103-4.115c-2.1965-1.1965-4.6883-2.0758-7.4017-2.6998l-2.2413 9.7456c2.0378.4686 3.6332 1.0679 4.8595 1.7359l4.7835-8.7817Zm-7.4017-2.6998c-2.8131-.647-5.7866-.9325-8.8988-.8908l.1338 9.9991c2.4181-.0324 4.5854.1915 6.5237.6373l2.2413-9.7456Zm-13.8174 4.4887c.2178 2.858.5134 5.7526.8864 8.6836l9.92-1.2623c-.3525-2.7697-.6307-5.4967-.8353-8.1812l-9.9711.7599Zm.8861 8.6815c.3592 2.8321.6741 5.1858.9444 7.0531l9.8968-1.4326c-.2587-1.7872-.5654-4.0774-.9206-6.8786l-9.9206 1.2581Zm83.4665-25.5c-.44 1.2223-1.2937 1.6589-1.3273 1.6759-.0449.0229.0015-.006.1832-.0588.177-.0515.4379-.1131.7998-.1734l-1.644-9.864c-1.2747.2125-2.6376.5565-3.8627 1.178-1.213.6152-2.8102 1.7783-3.5579 3.8551l9.4089 3.3872Zm-.3443 1.4437a17.4257 17.4257 0 0 1 2.8695-.2396v-10c-1.509 0-3.0149.126-4.5135.3757l1.644 9.8639Zm2.8695-.2396c.696 0 1.394.0401 2.094.1209l1.146-9.9341a28.249 28.249 0 0 0-3.24-.1868v10Zm2.123.1242c.441.0482.803.1026 1.094.1584.295.0564.488.1086.601.1447.119.0381.095.0418-.016-.02-.106-.0593-.392-.2335-.708-.5863l7.453-6.668c-1.157-1.293-2.636-1.9144-3.673-2.2472-1.131-.363-2.387-.5827-3.664-.7223l-1.087 9.9407Zm.901-.3832c-.543-.6336-.581-1.0977-.416-.5295.109.3731.25 1.0029.405 1.9591.307 1.8984.602 4.6577.872 8.3462l9.973-.7287c-.277-3.7979-.598-6.8928-.974-9.2161-.187-1.1548-.405-2.2279-.672-3.1495-.211-.7265-.642-2.0773-1.595-3.1894l-7.593 6.5079Zm.861 9.7758c.539 7.3855.895 15.3806 1.064 23.9881l9.998-.1968c-.172-8.7582-.535-16.9326-1.089-24.52l-9.973.7287Zm1.064 24.0002c.136 6.1548.204 11.9805.204 17.4776h10c0-5.5788-.069-11.4785-.206-17.6985l-9.998.2209Zm.204 17.4776c0 2.1964-.017 4.3402-.05 6.4315l9.998.1613c.035-2.1476.052-4.3452.052-6.5928h-10Zm-.051 6.4659c-.034 3.6702-.097 6.4852-.187 8.4732-.045.9982-.095 1.7379-.145 2.2496-.066.6735-.1.5761.025.2027l9.486 3.1623c.279-.8349.383-1.7977.442-2.3932.074-.7575.133-1.6907.182-2.7692.098-2.1654.162-5.1191.197-8.8328l-10-.0926Zm-.514 13.2137c-.138-.9707.093-1.9306.565-2.6847.408-.652.866-.9477.973-1.0137.124-.0764.119-.0505-.118.0288-.222.0742-.563.1678-1.053.2671l1.987 9.8007c1.441-.2922 3.063-.7435 4.418-1.5758 1.405-.8627 3.601-2.9236 3.128-6.2366l-9.9 1.4142Zm.359-3.4007c-1.167.2386-2.369.36-3.613.36v10c1.901 0 3.775-.1862 5.617-.5629l-2.004-9.7971Zm-3.613.36c-.803 0-1.632-.0535-2.488-.164l-1.2801 9.9178c1.2631.163 2.5191.2462 3.7681.2462v-10Zm-2.484-.1634c-.5018-.0652-.8724-.139-1.1336-.2071-.2686-.07-.3567-.1171-.3256-.1015.0265.0132.2801.1415.5828.4689.3316.3587.6604.8933.8094 1.5759l-9.769 2.137c.5647 2.5815 2.4455 4.0329 3.9047 4.7625 1.438.719 3.0857 1.0787 4.6431 1.281l1.2882-9.9167Zm-.049 1.8241c.016.0798-.055-.5239-.142-2.435-.077-1.694-.156-4.0767-.237-7.1631-.1612-6.167-.3275-15.0537-.4983-26.6707l-9.999.147c.1711 11.6285.338 20.5606.5012 26.7857.0815 3.1095.1626 5.5661.2438 7.3546.0713 1.5715.1561 3.0937.3259 3.9427l9.8054-1.9612Zm-.8772-36.2591c-.1709-13.3995-.2733-23.0416-.3073-28.9367l-9.9999.0578c.0343 5.9329.1371 15.6052.308 29.0064l9.9992-.1275Zm-.3073-28.9078c0-2.1768.0129-3.8129.0373-4.9285.0123-.5632.0268-.9521.0409-1.1945.0072-.125.0117-.1636.0097-.1448a2.869 2.869 0 0 1-.0243.1676c-.0099.0581-.0542.32-.1663.6564l-9.4868-3.1623c-.2015.6043-.254 1.1657-.2627 1.2454a13.0634 13.0634 0 0 0-.0528.658c-.0244.4199-.042.9476-.0553 1.5553-.0268 1.226-.0397 2.9485-.0397 5.1474h10Zm47.7075 3.2392c-.188.4669-.418.8068-.589 1.0225-.171.2178-.324.3634-.415.4429-.168.1485-.25.1833-.144.1217.091-.0522.264-.1431.545-.2692.277-.124.625-.2673 1.054-.429l-3.529-9.3568c-1.111.419-2.176.8787-3.069 1.3943-.447.258-.971.5979-1.469 1.0369-.454.4005-1.195 1.1492-1.657 2.2933l9.273 3.7434Zm.415.902c1.659-.6113 3.514-1.0671 5.583-1.3455l-1.334-9.9107c-2.715.3654-5.29.9825-7.707 1.8732l3.458 9.383Zm5.563-1.3428c1.192-.1555 1.837-.1322 2.091-.0968l1.383-9.9039c-1.506-.2104-3.147-.1266-4.767.0846l1.293 9.9161Zm2.091-.0968c.08.0112.082.0174.025-.0005-.058-.0181-.199-.0682-.388-.1797l5.086-8.6103c-1.125-.6642-2.311-.9698-3.34-1.1134l-1.383 9.9039Zm-.499-.2633c-.222-.1411-.37-.2791-.455-.3691-.084-.0887-.115-.1406-.106-.1266.008.0133.045.0732.102.1952.056.121.125.288.202.5092l9.443-3.2891c-.597-1.7155-1.668-3.9927-3.829-5.3637l-5.357 8.4441Zm-.223.3032c.362.9765.717 2.4051 1.004 4.3835l9.896-1.4336c-.346-2.3899-.834-4.5652-1.525-6.428l-9.375 3.4781Zm1.015 4.4567c.338 2.113.606 4.1014.805 5.9669l9.943-1.0607c-.22-2.0588-.511-4.2214-.874-6.4862l-9.874 1.58Zm.805 5.9669c.201 1.8894.395 4.1177.579 6.6922l9.974-.7142c-.19-2.6552-.393-5.0038-.61-7.0387l-9.943 1.0607Zm.585 6.7701c.226 2.5923.421 4.5516.584 5.8193l9.918-1.272c-.135-1.0519-.315-2.8382-.54-5.4173l-9.962.87Zm.581 5.7988c.878 7.0808 1.67 15.7245 2.371 25.9483l9.976-.684c-.708-10.3375-1.515-19.175-2.423-26.4953l-9.924 1.231Zm12.007 27.4484c.516-1.301 2.534-6.8234 5.999-16.3962l-9.403-3.4029c-3.504 9.681-5.449 14.9956-5.892 16.1149l9.296 3.6842Zm5.994-16.3841c3.512-9.6254 6.442-17.2654 8.797-22.9457l-9.238-3.8293c-2.433 5.8701-5.419 13.6612-8.953 23.3479l9.394 3.4271Zm8.799-22.952c1.176-2.8476 2.121-4.9031 2.844-6.2495.365-.6809.613-1.0655.744-1.2439.064-.0869.046-.0494-.057.0516-.076.0751-.404.3914-.982.6639l-4.262-9.046c-1.448.6822-2.355 1.8635-2.75 2.3988-.528.7175-1.031 1.5636-1.505 2.4481-.958 1.7845-2.052 4.1989-3.275 7.1603l9.243 3.8167Zm2.836-6.9246c-.405.2236-.718.2706-.808.2802-.085.009-.027-.0083.221.0263l1.383-9.9039c-1.56-.2177-3.67-.2398-5.632.8447l4.836 8.7527Zm-.587.3065c.479.0668 1.361.2947 2.747.854l3.743-9.2729c-1.751-.707-3.486-1.2587-5.107-1.485l-1.383 9.9039Zm2.839.89c1.46.5565 2.443 1.0114 3.046 1.3522.142.0803.247.1454.32.1943.075.0496.105.0738.101.0706-.002-.0017-.061-.0492-.15-.1464-.087-.0951-.237-.2741-.393-.5421l8.652-5.0151c-.97-1.6736-2.6-2.6961-3.608-3.2659-1.221-.6904-2.723-1.3504-4.408-1.9925l-3.56 9.3449Zm4.22 2.3982c-1.057-.8053-1.318-1.7978-1.372-2.0696-.053-.2678-.003-.2793-.05.1341l9.936 1.1347c.108-.9456.149-2.0714-.076-3.2088-.225-1.1415-.822-2.759-2.378-3.9446l-6.06 7.9542Zm-1.406-2.0594c-.007.0508-.015.1059-.023.1651-.008.0593-.017.1227-.027.1903l9.904 1.3826c.054-.3846.001-.0049.05-.3554l-9.904-1.3826Zm-.05.3554c-.129.9236-.425 2.1635-.958 3.762l9.486 3.1629c.655-1.9635 1.137-3.825 1.376-5.5423l-9.904-1.3826Zm-.961 3.7705c-.618 1.8652-1.357 3.8655-2.22 6.0032l9.273 3.7433c.931-2.3061 1.745-4.507 2.439-6.6006l-9.492-3.1459Zm-2.239 6.0522c-.824 2.1041-1.769 4.3395-2.838 6.7075l9.114 4.1144c1.13-2.5026 2.143-4.8952 3.036-7.1766l-9.312-3.6453Zm-2.838 6.7075c-1.09 2.4153-2.094 4.5949-3.012 6.5405l9.045 4.2654c.946-2.0053 1.973-4.2364 3.081-6.6915l-9.114-4.1144Zm-3.034 6.5881a441.582 441.582 0 0 1-2.557 5.48l9.032 4.2928a457.6713 457.6713 0 0 0 2.614-5.6026l-9.089-4.1702Zm-2.545 5.4557c-.819 1.6997-1.403 2.9379-1.703 3.629l9.173 3.9829c.208-.4804.705-1.5421 1.538-3.2704l-9.008-4.3415Zm-1.743 3.7235c-1.724 4.2045-3.15 7.6487-4.279 10.3364l9.219 3.874c1.145-2.7246 2.583-6.198 4.313-10.4164l-9.253-3.794Zm-4.279 10.3364c-1.115 2.6518-2.615 6.0734-4.507 10.2758l9.118 4.1058c1.91-4.241 3.448-7.7472 4.608-10.5076l-9.219-3.874Zm-4.521 10.3083c-1.833 4.1484-3.361 7.1819-4.587 9.2036l8.55 5.1865c1.553-2.5607 3.282-6.0447 5.184-10.3492l-9.147-4.0409Zm-4.63 9.2751c-.615 1.0542-1.054 1.6723-1.316 1.9835-.13.1536-.133.1317-.008.0331.069-.0542.207-.1561.415-.2669.206-.1103.525-.2532.946-.3496l2.233 9.7476c2.104-.482 3.472-2.022 4.058-2.717.793-.94 1.562-2.1117 2.307-3.3872l-8.635-5.0435Zm-.845 1.6904c.306-.1332.247-.0252-.566-.0069-.726.0163-1.77-.0432-3.186-.2253l-1.275 9.9185c1.703.219 3.283.336 4.686.304 1.317-.029 2.893-.194 4.338-.824l-3.997-9.1663Zm-3.699-.225c-.108-.0152-.382-.0534-.457-.0638l-1.382 9.9041c.196.027.227.032.457.064l1.382-9.9043Zm-.457-.0638c-1.282-.179-2.117-.3683-2.607-.5244-.24-.0764-.304-.116-.255-.0898.03.0158.349.1845.714.5977l-7.495 6.6196c1.246 1.412 2.936 2.061 4 2.4 1.245.397 2.699.683 4.261.901l1.382-9.9041Zm-2.945-.7432c.344.2519.559.4914.66.6146.108.1305.161.2181.167.2277.005.0096-.065-.1095-.196-.431-.262-.6404-.603-1.6747-1.012-3.1922-.81-3.011-1.755-7.4328-2.832-13.3379l-9.838 1.7939c1.093 5.9952 2.097 10.7335 3.014 14.1419.455 1.6923.922 3.1826 1.413 4.3818.245.5982.537 1.2276.891 1.8145.312.516.889 1.371 1.832 2.06l5.901-8.0733Zm-3.211-16.1056c-2.119-11.8045-3.898-23.5942-5.336-35.3692l-9.927 1.2123c1.461 11.9628 3.268 23.9376 5.421 35.9244l9.842-1.7675Zm-5.336-35.37c-.65-5.3081-1.091-9.4756-1.332-12.5308-.121-1.5296-.188-2.7356-.209-3.6423-.01-.4522-.008-.8004.001-1.058.009-.2742.024-.3669.02-.3366l-9.879-1.5531c-.262 1.668-.141 4.348.098 7.3771.257 3.262.718 7.5905 1.375 12.9576l9.926-1.2139Zm-1.508-17.6529c.002-.0126-.007.0595-.038.1862a3.389 3.389 0 0 1-.087.2994 4.319 4.319 0 0 1-.226.5441l-8.958-4.4436c-.436.8787-.555 1.7485-.595 2.0313l9.904 1.3826Zm80.666 46.1628c-.068-3.6425-.119-7.2678-.153-10.8758l-9.999.0944c.034 3.6391.086 7.2952.154 10.9683l9.998-.1869Zm-.153-10.8286c0-8.8955.254-17.8435.762-26.8441l-9.984-.563c-.518 9.1857-.778 18.3214-.778 27.4071h10Zm.762-26.8438c.356-6.3077.805-10.8842 1.319-13.8501.262-1.516.502-2.3683.653-2.7535.078-.201.046-.045-.181.2479-.202.2621-.962 1.1489-2.418 1.4402l-1.962-9.8058c-1.841.3683-2.972 1.5259-3.534 2.2527-.585.7576-.964 1.5722-1.219 2.2236-.516 1.3198-.891 2.948-1.192 4.6881-.615 3.5463-1.089 8.5842-1.45 14.9933l9.984.5636Zm-.943-14.8628c2.504-.336 5.769-.5196 9.847-.5196v-10c-4.331 0-8.075.1924-11.177.6084l1.33 9.9112Zm9.847-.5196c1.361 0 2.812.0166 4.352.0501l.218-9.9977c-1.605-.0348-3.128-.0524-4.57-.0524v10Zm4.325.0494c6.309.1714 10.35.442 12.384.7617l1.552-9.8788c-2.751-.4324-7.393-.7088-13.664-.8792l-.272 9.9963Zm13.544.8076c-.591.0454-1.282-.0985-1.883-.4846-.529-.3406-.724-.6986-.725-.7008l8.756-4.8308c-.548-.9936-1.375-2.0781-2.623-2.8802-1.318-.8475-2.813-1.188-4.292-1.0742l.767 9.9706Zm-2.642-1.2479c.126.2365.299.7096.341 1.5768l9.988-.4756c-.095-2.0043-.538-3.9925-1.505-5.8071l-8.824 4.7059Zm.355 1.7917c.021.2262.031.4512.031.6754h10c0-.5278-.024-1.0549-.072-1.5808l-9.959.9054Zm.034.5142c-.029.9003-.102 1.8239-.221 2.7715l9.923 1.2403c.155-1.2402.253-2.4702.293-3.6894l-9.995-.3224Zm-.211 2.7007c-.14 1.0017-.38 1.6594-.612 2.0813l8.768 4.8083c.931-1.6975 1.477-3.5694 1.748-5.5076l-9.904-1.382Zm-.671 2.1923c-.076.1469-.011-.0402.304-.3059.368-.3115.96-.6251 1.706-.69l.867 9.9624c3.255-.283 5.104-2.6264 6.009-4.3801l-8.886-4.5864Zm2.045-.9988c-.626.0501-2.057.0867-4.473.0867v10c2.371 0 4.187-.0319 5.27-.1185l-.797-9.9682Zm-4.473.0867c-2.335 0-4.826-.0169-7.473-.0509l-.129 9.9992c2.685.0344 5.22.0517 7.602.0517v-10Zm-7.473-.0509c-2.597-.0337-4.038-.0517-4.218-.0517v10c-.001 0 .074.0006.28.0029.188.0021.454.0053.799.0096.691.0085 1.694.0213 3.01.0384l.129-9.9992Zm-9.183 4.3573c-.199 1.6703-.291 3.4788-.291 5.4111h10c0-1.623.078-3.0278.221-4.229l-9.93-1.1821Zm-.291 5.4111V33.9783h10V33.1066h-10Zm.002 1.0355c.069 2.0808.137 4.2474.205 6.4998l9.996-.3029c-.069-2.26-.137-4.4348-.206-6.5246l-9.995.3277Zm.207 6.5609c.07 1.6464.072 2.4634.057 2.706l9.98.6238c.054-.8513.021-2.1879-.046-3.7549l-9.991.4251Zm.047 3.0179V44.1311h10V43.7209h-10Zm5 5.4102c3.132 0 6.649.1778 10.561.5425l.928-9.9568c-4.156-.3874-7.989-.5857-11.489-.5857v10Zm10.44.5299c.708.0832 1.82.1754 3.254.2779l.712-9.9746c-1.437-.1027-2.342-.1813-2.797-.2349l-1.169 9.9316Zm3.262.2785c.687.0479 1.22.0968 1.618.1439.432.0513.575.086.543.0778l2.425-9.7014c-1.028-.2571-2.449-.3955-3.89-.4961l-.696 9.9758Zm2.044.191c-.766-.2114-1.363-.6378-1.759-1.0839-.358-.4031-.486-.743-.51-.8127-.028-.0771.001-.0247.032.2211.03.2364.053.5828.053 1.0602h10c0-1.4925-.133-3.1322-.657-4.6155-.534-1.5099-1.805-3.6657-4.5-4.4091l-2.659 9.6399Zm-2.184-.6153c0 1.3466-.19 3.3464-.649 6.1005l9.863 1.6439c.499-2.989.786-5.6041.786-7.7444h-10Zm-.62 5.9419c.248-1.2403.922-2.0605 1.412-2.5003.462-.4141.876-.6039 1.021-.6662.278-.1191.334-.0892-.074-.0274-.748.1134-2.105.2-4.225.2v10c2.255 0 4.215-.0843 5.723-.3128.72-.1091 1.639-.2929 2.515-.6683.561-.2406 2.879-1.2924 3.433-4.0639l-9.805-1.9611Zm-1.866-2.9939c-4.305 0-7.951-.1011-10.956-.2971l-.65 9.9788c3.285.2143 7.16.3183 11.606.3183v-10Zm-16.28 4.6076c-.034 1.9611-.134 5.1983-.305 9.7421l9.993.3757c.171-4.5493.275-7.8757.31-9.9483l-9.998-.1695Zm-.306 9.7785c-.137 4.5134-.224 7.7718-.258 9.7551l9.998.1754c.034-1.9137.118-5.1163.255-9.6276l-9.995-.3029Zm4.416 14.8322c3.226.2104 6.158.3183 8.786.3183v-10c-2.364 0-5.072-.0973-8.136-.2971l-.65 9.9788Zm8.786.3183c.984 0 1.94-.0183 2.866-.0553l-.4-9.992c-.783.0313-1.605.0473-2.466.0473v10Zm2.794-.0529c1.301-.0334 2.454-.0497 3.461-.0497v-10c-1.111 0-2.352.0179-3.717.0529l.256 9.9968Zm3.461-.0497c1.363 0 2.499.0327 3.422.0922l.644-9.9793c-1.197-.0772-2.557-.1129-4.066-.1129v10Zm3.367.0884c.704.0531.825.1345.636.0595-.1-.0396-1.609-.6508-2.121-2.5935l9.671-2.5449c-.682-2.5922-2.773-3.7248-3.864-4.1574-1.181-.4682-2.461-.6517-3.569-.7353l-.753 9.9716Zm-1.402-2.2544c.372 1.1414.573 2.3923.573 3.7808h10c0-2.3719-.346-4.6762-1.067-6.8849l-9.506 3.1041Zm.573 3.7808c0 1.7482-.144 2.8184-.295 3.3867l9.667 2.5589c.465-1.7562.628-3.7968.628-5.9456h-10Zm-.312 3.4535c-.121.4844-.178.6209-.153.5614a2.428 2.428 0 0 1 .098-.2117 4.008 4.008 0 0 1 .317-.5169c.148-.2061.47-.6187 1.004-1.0161.549-.4087 1.551-.9632 2.918-.9632v10c2.689 0 4.049-1.9771 4.198-2.1843.39-.5433.618-1.0708.729-1.344.247-.6064.438-1.2904.59-1.8998l-9.701-2.4254Zm2.089-1.6863c.464-.214.781-.254.616-.2221-.07.0133-.24.0411-.547.0759-.608.0692-1.512.1398-2.753.2059-2.467.1316-6.015.2331-10.677.3011l.146 9.9989c4.705-.0686 8.404-.1723 11.064-.3142 1.323-.0706 2.453-.1538 3.349-.2556.446-.0506.895-.1126 1.313-.1932.322-.0622.993-.2005 1.679-.5171l-4.19-9.0796Zm-13.394.3614c-1.542.0328-2.969.0325-4.285.0004l-.243 9.997c1.487.0363 3.068.0359 4.74.0003l-.212-9.9977Zm-4.406-.0011c-6.903 0-11.008-.2546-12.8-.6181l-1.988 9.8004c2.926.5936 8.016.8177 14.788.8177v-10Zm-12.709-.5988c1.292.2872 2.093 1.0139 2.466 1.4292.376.4188.564.7906.629.9263.128.2687.126.3656.062.0871-.115-.5001-.261-1.4545-.404-2.999-.283-3.0309-.498-7.6559-.634-13.951l-9.998.2162c.138 6.3533.359 11.2658.675 14.6616.155 1.6689.349 3.1502.614 4.308.127.5505.324 1.2819.663 1.9908.17.3557.466.899.952 1.4407.483.5381 1.398 1.3391 2.805 1.6519l2.17-9.7618Zm57.345-52.4674c-.188-1.7706-.248-2.9335-.233-3.6035.007-.3566.034-.3626-.01-.1702-.023.0992-.1.4132-.306.8161-.196.3813-.668 1.1559-1.629 1.7607l-5.324-8.4655c-1.081.6801-1.659 1.5827-1.947 2.1446-.299.5836-.455 1.1309-.543 1.516-.175.7644-.225 1.5409-.239 2.1776-.029 1.3165.085 2.9828.288 4.884l9.943-1.0598Zm-1.66-1.5711c.22-.1812 1.137-.7371 3.339-1.5054l-3.296-9.4415c-2.419.8444-4.749 1.867-6.403 3.2298l6.36 7.7171Zm3.325-1.5007c2.002-.6924 4.448-1.2852 7.377-1.7486l-1.563-9.8771c-3.355.5309-6.395 1.2458-9.082 2.1747l3.268 9.451Zm7.492-1.7681a28.1422 28.1422 0 0 1 1.551-.2384l-1.244-9.9223c-.703.088-1.403.1956-2.1.3226l1.793 9.8381Zm1.551-.2384a51.9834 51.9834 0 0 1 6.974-.4028l.097-9.9996a61.9914 61.9914 0 0 0-8.315.4801l1.244 9.9223Zm6.997-.4027c2.537.0127 4.915.4915 7.174 1.4283l3.83-9.2373c-3.482-1.4442-7.147-2.1718-10.954-2.1908l-.05 9.9998Zm7.174 1.4283c2.079.8622 3.444 2.0133 4.353 3.3757l8.319-5.5498c-2.146-3.2159-5.179-5.5444-8.842-7.0632l-3.83 9.2373Zm4.446 3.5105c1.956 2.7333 3.388 5.3813 4.35 7.9422l9.361-3.5173c-1.313-3.4931-3.19-6.9073-5.578-10.2443l-8.133 5.8194Zm4.338 7.9101c.73 1.9838 1.131 3.6656 1.281 5.0709l9.943-1.0664c-.257-2.4021-.897-4.8965-1.839-7.4575l-9.385 3.453Zm1.329 5.4065c.076.4321.115.8382.123 1.2209l9.998-.1981c-.019-.9232-.112-1.8442-.273-2.7604l-9.848 1.7376Zm.122 1.192c.03 2.1598-.145 4.2078-.514 6.1518l9.824 1.8669c.502-2.6441.728-5.3664.689-8.159l-9.999.1403Zm-.527 6.2206c-.341 1.9451-.836 3.5386-1.435 4.8307l9.073 4.2042c1.029-2.2192 1.749-4.6711 2.212-7.3056l-9.85-1.7293Zm-1.435 4.8307c-.774 1.6713-1.507 3.1241-2.196 4.3682l8.749 4.8443c.828-1.4955 1.668-3.1682 2.52-5.0083l-9.073-4.2042Zm-2.163 4.3111c-.777 1.3608-1.414 2.5102-1.898 3.4327l8.856 4.6453c.406-.7738.977-1.8085 1.726-3.1195l-8.684-4.9585Zm-1.848 3.3402c-.288.5218-.646 1.2337-.872 2.0184-.112.3897-.264 1.0382-.244 1.8243.02.7927.232 2.1315 1.279 3.343l7.566-6.5388a4.7 4.7 0 0 1 1.152 2.9455c.015.6144-.103 1.0519-.143 1.1914-.082.2844-.143.3389.018.0464l-8.756-4.8302Zm.19 7.2166c.861.9794 3.123 3.3588 6.65 7.0088l7.192-6.9484c-3.6-3.7252-5.663-5.9025-6.33-6.661l-7.512 6.6006Zm6.664 7.0233c3.432 3.5237 6.984 7.5611 10.656 12.1218l7.79-6.2712c-3.837-4.765-7.597-9.0441-11.282-12.8279l-7.164 6.9773Zm10.392 11.7611c-.295-.4416-.559-1.0375-.65-1.7588l9.923-1.2437c-.125-.9926-.49-1.8513-.955-2.5473l-8.318 5.5498Zm-.65-1.7588c-.1-.8032.063-1.3892.139-1.6165.081-.2426.152-.3411.109-.2705-.036.0585-.126.1936-.301.4125-.172.2148-.401.48-.699.7983l7.308 6.8264c.835-.8939 1.624-1.8427 2.217-2.8099.467-.7616 1.415-2.4688 1.15-4.584l-9.923 1.2437Zm-.74-.6886c-1.399 1.488-3.029 2.7555-4.911 3.8028l4.86 8.7393c2.755-1.5325 5.208-3.4294 7.335-5.6909l-7.284-6.8512Zm-4.881 3.786c-.471.2574-.82.4161-1.059.508-.253.0966-.295.085-.171.0694l1.244 9.9227c1.711-.215 3.37-.953 4.786-1.727l-4.8-8.7731Zm-1.23.5774c.14-.0176.526-.0465 1.047.0966.565.1548 1.144.4737 1.619.9648l-7.192 6.9483c1.793 1.855 4.094 2.123 5.77 1.913l-1.244-9.9227Zm2.698 1.0948c-2.375-2.5042-5.319-6.0197-8.848-10.603l-7.923 6.1005c3.631 4.7169 6.809 8.5305 9.515 11.3844l7.256-6.8819Zm-8.848-10.603c-3.567-4.6338-6.137-7.8625-7.628-9.5561l-7.505 6.6079c1.24 1.4092 3.617 4.3821 7.21 9.0487l7.923-6.1005Zm-7.514-9.4218c-.887-1.0831-2.142-2.0446-3.788-2.475-1.619-.4235-3.145-.2092-4.388.2218l3.276 9.4483c-.154.0532-.689.1952-1.418.0045-.755-.1974-1.219-.6208-1.416-.8603l7.734-6.3393Zm-7.16-2.4902-.102.0127 1.244 9.9224.102-.0128-1.244-9.9223Zm-1.005.2123c-1.711.5481-3.106 1.6742-4.007 3.2095l8.623 5.064c-.143.2428-.359.5154-.664.7598-.305.2447-.622.4005-.901.4899l-3.051-9.5232Zm-4.038 3.2623c-.919 1.6108-1.087 3.3498-.796 4.9178l9.832-1.8242c.034.1821.06.4669.008.821-.053.363-.176.7215-.36 1.0438l-8.684-4.9584Zm-.799 4.9018c.236 1.2943.651 3.3243 1.234 6.046l9.779-2.0934c-.581-2.7137-.969-4.6139-1.175-5.7448l-9.838 1.7922Zm1.235 6.0513c.569 2.6417 1.023 4.9314 1.366 6.8761l9.848-1.7376c-.371-2.1-.851-4.5166-1.438-7.2424l-9.776 2.1039Zm1.371 6.9034c.205 1.1243.375 2.2328.512 3.3254l9.923-1.2437a70.9523 70.9523 0 0 0-.597-3.8739l-9.838 1.7922Zm.512 3.3254c.094.7453.169 1.4724.227 2.1816l9.967-.8115a61.5752 61.5752 0 0 0-.271-2.6138l-9.923 1.2437Zm.249 2.3977c-.085-.6832.033-1.3076.234-1.794.186-.45.409-.7034.481-.779.073-.0773.068-.054-.086.0511-.149.1011-.387.2445-.742.4227l4.49 8.9349c1.236-.621 2.557-1.432 3.601-2.536 1.084-1.145 2.256-3.058 1.945-5.5434l-9.923 1.2437Zm-.148-2.0816c-1.285.6586-2.566 1.0519-3.862 1.2143l1.244 9.922c2.503-.313 4.902-1.071 7.178-2.236l-4.56-8.9003Zm-3.862 1.2143c-.102.0127-.203.0255-.305.0383l-.305.0382 1.243 9.9225c.102-.013.204-.026.306-.038l.305-.039-1.244-9.922Zm-.447.0588c-.315.029-.477.0221-.518.0188-.052-.0041.138.0022.46.1323.345.1391.884.4403 1.363 1.0316.496.6113.725 1.2825.794 1.8335l-9.922 1.244c.318 2.534 1.974 4.337 4.021 5.163 1.654.668 3.398.656 4.72.535l-.918-9.9582Zm2.015 2.5372c-1.235-5.4765-2.512-11.277-3.83-17.4017l-9.776 2.1032c1.324 6.1538 2.608 11.9872 3.852 17.4995l9.754-2.201Zm-3.83-17.4017c-1.314-6.1086-2.631-12.5119-3.951-19.2105l-9.812 1.9336c1.331 6.7501 2.66 13.2103 3.987 19.3801l9.776-2.1032Zm-3.956-19.2349c-1.353-6.689-2.5-12.7038-3.443-18.0474l-9.848 1.7377c.96 5.4426 2.124 11.5409 3.489 18.2921l9.802-1.9824Zm-3.442-18.0434c-.713-4.0573-1.254-7.5726-1.628-10.556l-9.922 1.2437c.4 3.19.968 6.874 1.7 11.0419l9.85-1.7296Zm-1.628-10.556c-.116-.9271-.209-1.7979-.279-2.6136l-9.963.8615c.083.9567.19 1.9556.32 2.9958l9.922-1.2437Zm4.004 2.2496c.456 3.0694 1.3 7.6821 2.514 13.7799l9.807-1.9513c-1.207-6.0704-2.011-10.4844-2.43-13.3l-9.891 1.4714Zm2.519 13.8068c1.242 6.066 2.058 10.4497 2.47 13.2171l9.891-1.4741c-.455-3.0496-1.317-7.6544-2.564-13.7482l-9.797 2.0052Zm2.454 13.1019c.165 1.3142.799 3.1063 2.574 4.313 1.641 1.1155 3.378 1.1171 4.422.9863l-1.244-9.9224c.196-.0246 1.273-.1298 2.443.6657 1.305.8868 1.656 2.1458 1.728 2.7137l-9.923 1.2437Zm7.614 5.1819c3.64-.9318 6.773-2.8816 9.351-5.6837l-7.359-6.7712c-1.363 1.4817-2.838 2.3489-4.472 2.7673l2.48 9.6876Zm9.356-5.6887c2.568-2.7992 4.319-6.0716 5.196-9.7527l-9.727-2.3194c-.477 2.0011-1.405 3.7499-2.837 5.3109l7.368 6.7612Zm5.189-9.7237c.623-2.5439.77-5.1138.403-7.6741l-9.899 1.4206c.177 1.2301.117 2.5103-.217 3.8761l9.713 2.3774Zm.415-7.5857a21.251 21.251 0 0 0-.683-3.2944l-9.602 2.7957c.169.5802.289 1.1602.362 1.7425l9.923-1.2438Zm-.703-3.3616c-1.25-4.0763-3.814-7.2706-7.526-9.3675l-4.919 8.7067c1.479.8355 2.384 1.9607 2.884 3.5909l9.561-2.9301Zm-7.496-9.3505c-3.46-1.9859-7.845-3.0039-12.777-3.3922l-.785 9.9692c4.185.3294 6.919 1.1407 8.583 2.0957l4.979-8.6727Zm-12.894-3.4c-1.811-.1-3.632.5679-4.945 2.0438l7.47 6.6483c-.35.3931-.837.7693-1.456 1.018-.611.2454-1.181.2989-1.62.2747l.551-9.9848Zm-4.945 2.0438c-1.132 1.2715-1.759 2.9931-1.525 4.862l9.922-1.2437c.065.5126.029 1.0965-.164 1.6882-.191.5837-.486 1.0303-.763 1.3418l-7.47-6.6483Zm54.942-18.9722c-.013-.5217 0-1.0399.039-1.555l-9.971-.7547a25.5297 25.5297 0 0 0-.065 2.5509l9.997-.2412Zm.039-1.555c.039-.5152.104-1.0294.195-1.5433l-9.847-1.7432a25.7092 25.7092 0 0 0-.319 2.5318l9.971.7547Zm.195-1.5433c.113-.6398.298-.9227.405-1.0506l-7.676-6.41c-1.401 1.6778-2.21 3.651-2.576 5.7174l9.847 1.7432Zm.329-.9623c-.026.03-.183.1935-.494.3257-.32.1364-.609.1567-.776.144l.755-9.9714c-2.802-.212-5.258.9143-7.009 2.915l7.524 6.5867Zm-1.27.4698.102.0077.755-9.9715-.102-.0077-.755 9.9715Zm.102.0077c.205.0155 2.056.099 5.279.2429l.446-9.99c-3.405-.152-4.97-.2244-4.97-.2244l-.755 9.9715Zm5.278.2428c3.335.1501 7.099.3324 11.292.5471l.511-9.987c-4.208-.2155-7.993-.3988-11.354-.55l-.449 9.9899Zm11.292.5471c4.171.2135 8.477.4713 12.919.7734l.679-9.9769c-4.495-.3057-8.857-.5669-13.087-.7835l-.511 9.987Zm12.881.7707 1.022.0774 1.023.0774.755-9.9715-1.023-.0774-1.022-.0774-.755 9.9715Zm2.045.1548c3.624.2743 6.773.5803 9.457.9155l1.24-9.9228c-2.886-.3606-6.203-.6812-9.942-.9642l-.755 9.9715Zm9.396.9075c1.601.2203 2.778.4235 3.582.6021.403.0895.645.1582.765.1976.185.0609-.052.0073-.432-.2405l5.467-8.3734c-1.187-.7748-2.704-1.1396-3.631-1.3457-1.185-.2633-2.665-.5098-4.389-.7468l-1.362 9.9067Zm4.001.6139c-.61-.3804-.959-.8304-1.132-1.1062-.167-.2668-.214-.4406-.208-.42.004.0114.034.1194.066.3572.031.2326.059.546.074.9529l9.993-.3687c-.047-1.2698-.19-2.5948-.552-3.8076-.33-1.1-1.081-2.9265-2.946-4.0904l-5.295 8.4828Zm-1.2-.225c.015.4257.006.8741-.03 1.3467l9.971.7548c.063-.8227.081-1.6407.053-2.4525l-9.994.351Zm-.03 1.3467c-.072.9495-.278 1.8826-.628 2.8122l9.358 3.5253c.679-1.8037 1.097-3.6689 1.241-5.5827l-9.971-.7548Zm-.655 2.8852c-.208.5798-.303.5476-.068.3151.139-.1378.381-.3301.733-.4833.361-.1566.732-.2264 1.068-.2282l.054 9.9998c4.542-.0243 6.722-3.7106 7.625-6.2241l-9.412-3.3793Zm1.768-.3965c-.794-.0013-1.628-.034-2.502-.1002l-.755 9.9715c1.103.0834 2.184.127 3.241.1287l.016-10Zm-2.701-.1113c-.649-.0231-1.365-.0891-2.153-.2056l-1.463 9.8924c1.111.1643 2.199.2691 3.26.3069l.356-9.9937Zm-2.27-.2216a202.6653 202.6653 0 0 0-4.13-.4707l-1.024 9.9475c1.22.1256 2.529.2746 3.926.4475l1.228-9.9243Zm-4.558-.4962c-.504-.0085-.934-.028-1.295-.0553l-.755 9.9715c.593.0448 1.222.0713 1.882.0823l.168-9.9985Zm-1.495-.0664c-.949-.0338-2.076-.0267-3.107.1852-.481.0988-1.401.3289-2.313.9591-1.078.7439-2.334 2.2324-2.317 4.4167l9.999-.076a4.7206 4.7206 0 0 1-.67 2.462c-.422.7057-.942 1.1577-1.33 1.4259-.7.4834-1.301.5963-1.355.6074-.177.0365-.023-.0137.737.0134l.356-9.9937Zm-7.731 5.2673c-1.362 26.5984-2.498 45.8985-3.409 57.9343l9.971.7547c.921-12.1661 2.063-31.5701 3.425-58.1776l-9.987-.5114Zm-3.409 57.9343c.003-.0461.023-.1682.095-.3189.072-.1504.153-.2384.18-.2644l6.855 7.2808c1.679-1.5806 2.666-3.6357 2.841-5.9428l-9.971-.7547Zm.188-.4992c.083-.0817.252-.2134.502-.3088.248-.0947.446-.104.528-.1004l-.432 9.9906c2.421.1049 4.681-.7392 6.431-2.4688l-7.029-7.1126Zm.97-.4115c-3.045-.0948-5.438-.2109-7.208-.3448l-.755 9.9715c1.98.1499 4.539.2716 7.651.3685l.312-9.9952Zm-7.208-.3448c.074.0056.239.0342.434.1332.195.0987.312.2125.356.2639l-7.584 6.5173c1.553 1.8083 3.655 2.8766 6.039 3.0571l.755-9.9715Zm.79.3971c.053.0616.127.1735.18.3225.024.0686.038.1289.046.1755.007.0459.007.0703.007.0684l-10-.1112c-.024 2.2157.69 4.3255 2.183 6.0621l7.584-6.5173Zm.232.5877c.087-5.654.328-16.0667.724-31.2604l-9.997-.2603c-.395 15.1894-.637 25.6524-.725 31.367l9.998.1537Zm.724-31.2598c.398-15.2288.639-24.2879.721-27.1881l-9.996-.2852c-.083 2.9153-.324 11.9895-.722 27.2119l9.997.2614Zm.652-28.1738c-.378-2.2096-1.938-3.3313-2.582-3.7215-.736-.4458-1.469-.6736-1.943-.7986-.994-.2623-2.157-.4009-3.303-.4877l-.755 9.9715c.453.0343.809.0724 1.078.1101.134.0187.236.0359.312.0503.037.0071.066.013.086.0175.009.0022.017.0039.022.0052a.15.15 0 0 1 .007.0018l-.009-.0025-.026-.0081a2.069 2.069 0 0 1-.114-.0401c-.093-.0353-.289-.1166-.538-.2672-.353-.2139-1.75-1.1433-2.092-3.1445l9.857-1.6862Zm-7.828-5.0078c-2.215-.1676-4.807-.2921-7.767-.3766l-.285 9.996c2.856.0814 5.284.1998 7.297.3521l.755-9.9715Zm-7.817-.3777c-2.393-.0442-3.977-.1035-4.844-.1691l-.754 9.9715c1.178.0891 3.013.1515 5.413.1958l.185-9.9982Zm-4.844-.1691-.562-.0426-.755 9.9715.563.0426.754-9.9715Zm-.231-.0065c1.342.1921 2.131.9462 2.429 1.3057.272.3276.307.5152.224.2955l-9.362 3.5146c.289.7683.729 1.715 1.44 2.573.738.89 2.001 1.9456 3.852 2.2104l1.417-9.8992Zm2.653 1.6012c-.125-.3328-.265-.9318-.288-1.906l-9.997.2412c.042 1.7734.306 3.5362.923 5.1794l9.362-3.5146Zm73.788 11.7347c-.44 1.2222-1.293 1.6589-1.327 1.6759-.045.0228.002-.006.183-.0589.177-.0515.438-.1131.8-.1734l-1.644-9.8639c-1.275.2124-2.638.5564-3.863 1.1779-1.213.6152-2.81 1.7782-3.557 3.8552l9.408 3.3872Zm-.344 1.4436a17.4344 17.4344 0 0 1 2.87-.2396v-10c-1.51 0-3.015.1259-4.514.3757l1.644 9.8639Zm2.87-.2396c.696 0 1.393.0401 2.093.1209l1.147-9.9341a28.24 28.24 0 0 0-3.24-.1868v10Zm2.123.1242c.44.0482.802.1026 1.094.1584.294.0564.488.1086.601.1447.118.0381.095.0418-.016-.02-.107-.0593-.393-.2335-.708-.5863l7.452-6.6679c-1.157-1.293-2.636-1.9145-3.672-2.2473-1.131-.363-2.387-.5827-3.664-.7223l-1.087 9.9407Zm.901-.3832c-.543-.6336-.581-1.0977-.416-.5294.108.3731.249 1.0028.404 1.959.308 1.8984.603 4.6577.872 8.3462l9.974-.7287c-.278-3.7979-.598-6.8928-.974-9.2161-.187-1.1548-.405-2.2279-.673-3.1495-.211-.7265-.642-2.0773-1.595-3.1894l-7.592 6.5079Zm.86 9.7758c.54 7.3855.895 15.3806 1.065 23.9881l9.998-.1968c-.173-8.7582-.535-16.9326-1.089-24.52l-9.974.7287Zm1.065 24.0002c.136 6.1548.204 11.9805.204 17.4776h10c0-5.5787-.069-11.4785-.206-17.6985l-9.998.2209Zm.204 17.4776c0 2.1964-.017 4.3402-.051 6.4315l9.999.1613c.035-2.1475.052-4.3452.052-6.5928h-10Zm-.051 6.4659c-.034 3.6702-.098 6.4852-.188 8.4732-.045.9982-.094 1.7379-.144 2.2496-.066.6736-.1.5761.024.2027l9.487 3.1623c.278-.8349.383-1.7977.441-2.3932.074-.7575.133-1.6907.182-2.7692.098-2.1655.163-5.1191.197-8.8328l-9.999-.0926Zm-.514 13.2137c-.139-.9707.092-1.9307.565-2.6847.408-.652.865-.9477.973-1.0137.124-.0764.118-.0505-.118.0288-.222.0742-.564.1678-1.053.2671l1.986 9.801c1.442-.292 3.064-.744 4.419-1.576 1.404-.863 3.601-2.924 3.127-6.2367l-9.899 1.4142Zm.358-3.4007c-1.166.2386-2.369.36-3.613.36v10.0002c1.901 0 3.775-.186 5.617-.563l-2.004-9.7972Zm-3.613.36c-.803 0-1.631-.0535-2.488-.164l-1.28 9.9182c1.264.163 2.52.246 3.768.246V96.0658Zm-2.484-.1634c-.501-.0652-.872-.139-1.133-.2071-.269-.07-.357-.1171-.326-.1015.027.0132.28.1415.583.4689.332.3587.66.8933.81 1.5759l-9.769 2.137c.564 2.5814 2.445 4.0324 3.904 4.7624 1.438.719 3.086 1.079 4.643 1.281l1.288-9.9166Zm-.048 1.8241c.016.0798-.055-.5239-.142-2.435-.077-1.694-.156-4.0767-.237-7.1631-.162-6.167-.328-15.0537-.499-26.6707l-9.999.147c.171 11.6285.338 20.5606.501 26.7857.082 3.1095.163 5.5661.244 7.3546.072 1.5715.156 3.0937.326 3.9427l9.806-1.9612Zm-.878-36.2591c-.171-13.3995-.273-23.0416-.307-28.9367l-10 .0578c.035 5.9329.137 15.6052.308 29.0064l9.999-.1275Zm-.307-28.9078c0-2.1768.013-3.8129.037-4.9285.013-.5632.027-.9521.041-1.1945.007-.125.012-.1636.01-.1448a3.1361 3.1361 0 0 1-.024.1676c-.01.0581-.055.32-.167.6564l-9.486-3.1623c-.202.6043-.254 1.1657-.263 1.2455-.025.2228-.041.4518-.053.658-.024.4199-.042.9475-.055 1.5552-.027 1.226-.04 2.9485-.04 5.1474h10Zm42.952 26.3806a544.5642 544.5642 0 0 1-2.054-22.2668l-9.974.7149a554.2302 554.2302 0 0 0 2.092 22.6757l9.936-1.1238Zm-2.054-22.2668c-.528-7.37-.575-13.6534-.174-18.8865l-9.971-.7635c-.449 5.8636-.381 12.664.171 20.3649l9.974-.7149Zm-.174-18.8909c.2-2.6456.51-4.3778.826-5.3903.156-.503.254-.628.201-.5489-.054.0809-.437.623-1.306.9631L454.8 3.4947c-3.075 1.2038-4.272 4.2373-4.797 5.9225-.645 2.0724-1.027 4.6738-1.25 7.6107l9.972.7546Zm-.186-5.0137c-.002.001.019-.0079.069-.0246.05-.0165.121-.0381.215-.0637.191-.0519.449-.1121.787-.1762.681-.1291 1.582-.2554 2.731-.3695l-.988-9.9511c-2.503.2484-4.901.6246-6.646 1.3486l3.832 9.2365Zm3.666-.6224 1.483-.1063-.715-9.9744-1.483.1063.715 9.9744Zm1.483-.1063c1.733-.1242 3.326-.1449 4.783-.0715l.503-9.9874c-1.913-.0963-3.915-.065-6.001.0845l.715 9.9744Zm5.085-.0654c4.463-.0446 8.351.6299 11.733 1.9319l3.593-9.3324c-4.724-1.8185-9.89-2.6543-15.426-2.599l.1 9.9995Zm11.782 1.9504c3.414 1.2734 6.837 3.374 10.259 6.4245l6.654-7.4646c-4.193-3.738-8.662-6.5554-13.418-8.3293l-3.495 9.3694Zm10.264 6.429c3.521 3.1297 6.209 7.1726 8.017 12.2711l9.425-3.3416c-2.316-6.5328-5.899-12.0479-10.798-16.4031l-6.644 7.4736Zm8.021 12.2835c1.31 3.6623 2.091 7.3522 2.358 11.0803l9.975-.7148c-.334-4.6598-1.311-9.2406-2.916-13.7319l-9.417 3.3664Zm2.358 11.0803c.111 1.5429.131 3.0938.06 4.6538l9.989.4554c.089-1.9473.064-3.889-.074-5.824l-9.975.7148Zm.058 4.69c-.168 4.3872-.706 8.1371-1.562 11.2942l9.652 2.6162c1.096-4.0429 1.713-8.5669 1.903-13.5275l-9.993-.3829Zm-1.573 11.3362c-.792 3.0263-2.087 5.8433-3.903 8.4717l8.227 5.6844c2.469-3.5736 4.259-7.4551 5.35-11.6239l-9.674-2.5322Zm-3.923 8.501c-1.678 2.4665-3.878 4.5352-6.673 6.2069l5.133 8.5819c3.975-2.3778 7.269-5.4324 9.808-9.163l-8.268-5.6258Zm-6.723 6.2372c-2.791 1.7139-6.492 3.2039-11.232 4.3744l2.397 9.7084c5.43-1.3406 10.162-3.1625 14.068-5.5615l-5.233-8.5213Zm-11.264 4.3822c-3.797.9637-8.192 1.6399-13.214 1.9998l.715 9.9744c5.481-.3928 10.476-1.1437 14.959-2.2814l-2.46-9.6928Zm-13.214 1.9998c-1.146.0821-2.33.1505-3.551.2049l.445 9.9901c1.306-.0582 2.58-.1317 3.821-.2206l-.715-9.9744Zm-3.393.2004c1.855-.0237 3.004.9794 3.368 1.3429.409.4079.596.7626.617.8016.058.1083-.015-.0074-.185-.5529-.319-1.0204-.732-2.7343-1.233-5.2586l-9.809 1.9465c.518 2.612 1.014 4.7485 1.497 6.2925.23.7368.53 1.5818.934 2.3294.194.3586.547.9526 1.115 1.5193.523.5224 1.825 1.6041 3.824 1.5785l-.128-9.9992Zm2.567-3.667c-.986-4.966-1.915-11.1173-2.782-18.4802l-9.932 1.1691c.886 7.5229 1.852 13.9509 2.905 19.2576l9.809-1.9465Zm-.107-40.7546c.011.1534.022.3154.034.4859.013.1704.025.3495.039.5371l9.974-.7149c-.013-.1875-.026-.3665-.038-.537-.012-.1704-.024-.3324-.035-.4859l-9.974.7148Zm.073 1.023c.137 1.9143.39 4.4308.749 7.5203l9.933-1.1571c-.352-3.0285-.586-5.3781-.708-7.0781l-9.974.7149Zm.751 7.5294c.434 3.669.734 6.1785.899 7.5175l9.925-1.2248c-.162-1.3107-.459-3.7964-.894-7.4681l-9.93 1.1754Zm.9 7.5242c.166 1.3294.609 4.6072 1.322 9.7877l9.907-1.3638c-.717-5.2044-1.149-8.4099-1.306-9.662l-9.923 1.2381Zm1.327 9.8223c.747 5.1606 1.226 8.5143 1.44 10.0846l9.908-1.3488c-.22-1.6201-.705-5.0175-1.451-10.1688l-9.897 1.433Zm7.937 14.1661c6.55-2.1251 12.094-5.7866 16.532-10.9523l-7.585-6.5164c-3.218 3.7454-7.195 6.387-12.033 7.9569l3.086 9.5118Zm16.532-10.9523c4.61-5.3657 6.893-11.6273 6.648-18.5786l-9.994.3519c.153 4.3302-1.193 8.1648-4.239 11.7103l7.585 6.5164Zm6.638-18.7601c-.012-.1705-.024-.3411-.037-.5116l-.036-.5113-9.975.7149c.013.1706.025.3411.037.5116.012.1705.025.3409.037.5113l9.974-.7149Zm-.085-1.1652a132.5862 132.5862 0 0 0-.427-3.7108l-9.917 1.2827c.148 1.1415.279 2.284.394 3.4276l9.95-.9995Zm-.451-3.8769c-.288-1.7594-.737-3.5896-1.328-5.483l-9.546 2.9804c.477 1.5259.805 2.8958 1.005 4.1175l9.869-1.6149Zm-1.301-5.3937c-.59-2.0221-1.363-3.9417-2.325-5.7476l-8.825 4.7043c.622 1.1651 1.141 2.4431 1.55 3.8451l9.6-2.8018Zm-2.325-5.7476c-1.01-1.894-2.305-3.6894-3.838-5.3934l-7.435 6.688c1.074 1.1938 1.874 2.3327 2.448 3.4097l8.825-4.7043Zm-3.792-5.341a25.6571 25.6571 0 0 0-5.372-4.6539l-5.443 8.3892a15.666 15.666 0 0 1 3.288 2.848l7.527-6.5833Zm-5.314-4.6154c-2.079-1.3906-4.481-2.492-7.126-3.3593l-3.115 9.5025c1.987.6513 3.521 1.3927 4.682 2.169l5.559-8.3122Zm-7.126-3.3593c-2.743-.8991-5.679-1.4528-8.782-1.6933l-.773 9.9701c2.412.1868 4.55.6061 6.44 1.2257l3.115-9.5025Zm-14.168 3.2184c-.042 2.866-.01 5.7755.096 8.7283l9.994-.3584c-.1-2.7903-.13-5.5313-.091-8.2233l-9.999-.1466Zm.096 8.7261c.101 2.853.202 5.2255.302 7.1096l9.986-.53c-.096-1.8033-.194-4.1119-.294-6.9337l-9.994.3541Zm58.451 32.2953V62.1979h10V61.7364h-10Zm0 .4279c-.036 5.4835.57 10.6659 1.86 15.521l9.665-2.5673c-1.035-3.8962-1.556-8.183-1.525-12.8866l-10-.0671Zm1.851 15.4845c1.338 5.1967 3.692 9.9062 7.043 14.0848l7.801-6.256c-2.46-3.0686-4.175-6.495-5.161-10.3231l-9.683 2.4943Zm7.043 14.0848c3.461 4.3164 7.784 7.454 12.912 9.3154l3.411-9.4006c-3.35-1.2158-6.172-3.24-8.522-6.1708l-7.801 6.256Zm13.054 9.3644c3.113 1.024 6.191 1.584 9.204 1.584V92.6816c-1.773 0-3.789-.3294-6.078-1.0826l-3.126 9.499Zm9.306 1.583c2.054-.042 4.068-.316 6.031-.828l-2.524-9.676c-1.182.3083-2.416.4792-3.711.5057l.204 9.9983Zm6.166-.865c4.689-1.364 8.768-3.9615 12.206-7.6452l-7.311-6.8232c-2.304 2.4696-4.857 4.0427-7.689 4.8665l2.794 9.6019Zm12.187-7.6249c3.251-3.4446 5.867-7.3402 7.837-11.6665l-9.101-4.1441c-1.517 3.331-3.517 6.3066-6.008 8.9468l7.272 6.8638Zm7.828-11.6484c1.962-4.2639 3.3-8.6414 3.989-13.1236l-9.883-1.5206c-.541 3.517-1.597 7.002-3.19 10.4638l9.084 4.1804Zm3.992-13.1381c.951-6.31 1.44-12.1194 1.44-17.4109h-10c0 4.6906-.434 9.9912-1.328 15.9193l9.888 1.4916Zm1.44-17.4109c0-9.6591-1.633-17.9265-5.339-24.4038-3.794-6.6325-9.571-11.0416-17.031-13.1265l-2.692 9.6311c5.017 1.4019 8.599 4.1887 11.043 8.4612 2.533 4.4276 4.019 10.7742 4.019 19.438h10ZM561.901 14.376c-.51-.1018-1.324-.1747-1.984-.2321l-.866 9.9624c.378.0329.657.0595.849.0801.096.0103.154.0173.182.021.048.0064-.02-.0011-.143-.0255l1.962-9.8059Zm-1.865-.2203c-.96-.1067-2.07-.1165-3.226-.0793l.323 9.9948c.963-.031 1.529-.0067 1.799.0233l1.104-9.9388Zm-3.064-.0819H556.151v10H556.972v-10Zm-.821 0c-1.674 0-3.382.1196-5.122.3516l1.322 9.9122c1.337-.1782 2.602-.2638 3.8-.2638v-10Zm-5.013.3383c-1.946.2162-3.934.6816-5.952 1.3541l3.163 9.4868c1.469-.4898 2.763-.7765 3.893-.9021l-1.104-9.9388Zm-5.952 1.3541c-2.149.7165-4.132 1.6864-5.878 2.9606l5.894 8.0779c.784-.5716 1.809-1.106 3.147-1.5517l-3.163-9.4868Zm-6.106 3.1375c-3.654 3.0039-6.748 6.9132-9.347 11.5838l8.738 4.8624c2.119-3.8073 4.46-6.6666 6.96-8.722l-6.351-7.7242Zm-9.347 11.5838c-2.571 4.6201-4.537 9.5615-5.905 14.8101l9.677 2.5215c1.162-4.4598 2.819-8.6115 4.966-12.4692l-8.738-4.8624Zm-5.913 14.8421c-1.335 5.2649-2.014 10.727-2.051 16.3743l10 .065c.032-4.8816.618-9.5382 1.744-13.9818l-9.693-2.4575Zm22.664 21.097c.066-2.5914.212-4.8729.433-6.8557l-9.939-1.1044c-.258 2.3245-.419 4.8972-.49 7.707l9.996.2531Zm.434-6.8643c.221-2.023.536-3.9702.942-5.8432l-9.774-2.1175c-.483 2.2292-.852 4.5209-1.109 6.8735l9.941 1.0872Zm.941-5.8398c.14-.6426.347-1.4501.634-2.4371l-9.604-2.7881c-.329 1.1325-.6 2.171-.802 3.1009l9.772 2.1243Zm.645-2.4774c.274-.9732.687-2.2813 1.254-3.9489l-9.468-3.2191c-.595 1.7509-1.071 3.2459-1.412 4.4606l9.626 2.7074Zm1.254-3.9489c.494-1.4528 1.082-2.7955 1.758-4.0353l-8.779-4.7886c-.965 1.7685-1.778 3.6391-2.447 5.6048l9.468 3.2191Zm1.78-4.0767c.709-1.3292 1.483-2.553 2.318-3.6767l-8.024-5.967c-1.147 1.5428-2.185 3.1905-3.117 4.9379l8.823 4.7058Zm2.318-3.6767c.604-.8124 1.198-1.2923 1.752-1.5842l-4.657-8.8492c-2.043 1.0754-3.741 2.6124-5.119 4.4664l8.024 5.967Zm1.725-1.57c.248-.1284.419-.1567.57-.1567v-10c-1.832 0-3.575.4503-5.173 1.2791l4.603 8.8776Zm.57-.1567c.074 0 .191.0067.358.0345l1.644-9.8639c-.654-.109-1.323-.1706-2.002-.1706v10Zm.835.0907c.014.001.019.0022.015.0015a.1312.1312 0 0 1-.013-.004c-.005-.0017-.003-.0018.004.0025a.49.49 0 0 1 .056.0374l6-8c-1.566-1.1744-3.388-1.8768-5.373-2.0137l-.689 9.9763Zm.251.172c.38.259.533.4558.593.5496l8.436-5.3688c-.897-1.4104-2.078-2.5467-3.406-3.45l-5.623 8.2692Zm.593.5496c.295.4645.532.94.716 1.43l9.363-3.5113a17.6701 17.6701 0 0 0-1.643-3.2875l-8.436 5.3688Zm.782 1.5974c.136.3257.231.5809.295.7732.066.1987.085.2864.084.2841l9.806-1.9611c-.197-.9822-.56-1.997-.954-2.9423l-9.231 3.8461Zm.474 1.4504c.063.2196.097.3461.111.4034.008.032 0 .002-.014-.0654-.006-.0335-.022-.1122-.037-.2191a4.5228 4.5228 0 0 1-.027-.2345 4.6043 4.6043 0 0 1-.02-.4376h10c0-.5728-.106-1.0507-.11-1.0706a7.073 7.073 0 0 0-.091-.3987 22.9066 22.9066 0 0 0-.196-.7247l-9.616 2.7472Zm.252.9749c.69 2.1471 1.094 4.9042 1.094 8.3684h10c0-4.1932-.484-8.0338-1.572-11.4246l-9.522 3.0562Zm1.094 8.3684c0 1.6243-.092 3.3689-.282 5.2371l9.949 1.0118c.22-2.1655.333-4.2497.333-6.2489h-10Zm-.289 5.3099c-.042.4871-.165 1.2819-.418 2.4531l9.774 2.1133c.294-1.3585.512-2.6148.607-3.7001l-9.963-.8663Zm-.412 2.4251c-.255 1.1452-.596 2.5291-1.029 4.161l9.666 2.5644c.456-1.7182.832-3.24 1.125-4.5561l-9.762-2.1693Zm-1.047 4.2305c-.354 1.4185-.816 2.8499-1.388 4.2951l9.298 3.6804c.727-1.8365 1.326-3.6869 1.792-5.5501l-9.702-2.4254Zm-1.388 4.2951c-.6 1.518-1.266 3.0226-1.995 4.5138l8.982 4.3955a72.9458 72.9458 0 0 0 2.311-5.2289l-9.298-3.6804Zm-1.995 4.5138c-.62 1.2654-1.288 2.263-1.976 3.0431l7.498 6.6162c1.363-1.5445 2.507-3.3159 3.46-5.2638l-8.982-4.3955Zm-2.031 3.1064c-.668.7835-1.268 1.2481-1.769 1.5217l4.788 8.7789c1.755-.9571 3.275-2.2701 4.589-3.8111l-7.608-6.4895Zm-1.835 1.5584c-.01.0055-.013.0062-.019.0077-.007.0018-.048.0117-.136.0117v10c1.766 0 3.493-.4196 5.075-1.3138l-4.92-8.7056Zm-.608.0399c.09-.0081.127.0014.095-.0038l-1.644 9.864c.79.1315 1.613.1753 2.455.0987l-.906-9.9589Zm.231.0207c-.298-.0582-.966-.2969-2.004-1.19l-6.522 7.5801c1.902 1.6365 4.106 2.9361 6.611 3.4248l1.915-9.8149Zm-1.96-1.1518c-.614-.5413-1.291-1.4797-1.836-3.1408l-9.501 3.1197c.959 2.9196 2.47 5.5364 4.727 7.5247l6.61-7.5036Zm-1.821-3.0939c-.521-1.6402-.815-3.4733-.843-5.5293l-9.999.137c.04 2.935.464 5.751 1.311 8.4181l9.531-3.0258Zm-.939-4.4802c.097-.4875.148-.9868.148-1.4933h-10c0-.1647.017-.3222.046-.4679l9.806 1.9612Z" fill="#000" mask="url(#a)"/><path d="M11.0577 72.5959a549.4387 549.4387 0 0 1-4.1005-22.191c-1.2205-7.4555-1.8706-13.9653-1.95-19.5293-.0851-5.5977.5927-8.757 2.0335-9.4778.9569-.5031 2.6611-.9899 5.1128-1.4606l1.4675-.2402c1.8892-.3093 3.6769-.498 5.363-.5662 4.9752-.5027 9.5516-.1608 13.7295 1.0258 4.206 1.1473 8.3588 3.2387 12.4582 6.274 4.5313 3.3457 8.0871 7.821 10.6674 13.4259 1.8208 3.928 3.0708 7.9667 3.7501 12.1162a44.707 44.707 0 0 1 .5414 5.2113c.2451 4.6708.0448 8.8431-.6008 12.5167-.6119 3.6681-1.8443 7.1433-3.6971 10.4256-1.819 3.2768-4.3224 6.0768-7.5099 8.3999-3.1484 2.3513-7.1978 4.3825-12.1483 6.0936-4.028 1.4215-8.6396 2.5575-13.8349 3.408a136.677 136.677 0 0 1-3.6517.5459c-.579.0601-1.6088-2.4213-3.0892-7.4441-1.4805-5.0229-2.9941-11.2008-4.541-18.5337ZM21.5301 48.331l.1657 1.012c.2927 1.788.7551 4.1891 1.3871 7.2032.7651 3.6158 1.2891 6.0761 1.572 7.3807.2773 1.2709 1.0072 4.4596 2.1895 9.5659 1.2106 5.0671 1.9962 8.3851 2.357 9.9541 5.5031-2.3558 9.9588-5.9257 13.367-10.7097 3.4082-4.784 4.7579-9.9758 4.0491-15.5753a3052.873 3052.873 0 0 1-.1657-1.0121 125.7604 125.7604 0 0 0-.7317-3.5173c-.378-1.4623-.9102-3.0206-1.5967-4.6748-.6527-1.6598-1.4407-3.1935-2.364-4.6012-.9232-1.4076-2.0995-2.7738-3.5287-4.0986a20.6713 20.6713 0 0 0-4.6522-3.3433c-1.7114-.9322-3.7549-1.6715-6.1306-2.2178-2.3757-.5464-4.9461-.8011-7.7112-.7641.2112 2.7713.4982 5.5821.8609 8.4325.3572 2.8166.668 5.1385.9325 6.9658Z" fill="#EF965A"/><path d="M94.3994 14.8006c.3076-.8546 1.487-1.4528 3.5381-1.7947a22.4217 22.4217 0 0 1 3.6915-.3076c.889 0 1.778.0513 2.667.1538 2.188.2393 3.572.6837 4.153 1.3332.821.9572 1.504 5.179 2.051 12.6655.547 7.4864.906 15.5711 1.077 24.254.137 6.1875.205 12.0502.205 17.5881 0 2.222-.017 4.3927-.051 6.5122-.068 7.3839-.256 11.5373-.564 12.4603.137.9572-1.06 1.6922-3.589 2.2049-1.505.3077-3.043.4615-4.615.4615-1.026 0-2.069-.0683-3.1283-.2051-2.6322-.3418-4.0679-1.0597-4.3072-2.1536-.3077-1.5383-.6324-13.9303-.9743-37.1759-.1709-13.4004-.2735-23.0576-.3077-28.9716 0-4.3756.0513-6.7173.1539-7.025Z" fill="#539AD1"/><path d="M142.317 23.1931c.211-.5228 1.318-1.1621 3.322-1.9178 2.038-.751 4.253-1.2875 6.645-1.6093 1.406-.1834 2.55-.2136 3.43-.0908.609.0851 1.105.2407 1.488.4667.697.4425 1.293 1.3712 1.785 2.7862.527 1.4196.949 3.2215 1.265 5.4057.35 2.1889.63 4.2644.839 6.2266.21 1.9621.408 4.2506.595 6.8654.226 2.5857.413 4.4585.562 5.6183.893 7.2005 1.692 15.9411 2.397 26.2218.48-1.2101 2.461-6.6287 5.945-16.2556 3.523-9.656 6.481-17.3716 8.875-23.1468 2.399-5.809 4.078-8.9398 5.039-9.3925.598-.3307 1.439-.4204 2.523-.2691 1.049.1465 2.358.5363 3.927 1.1695 3.146 1.1985 4.969 2.2297 5.47 3.0935.499.3803.671 1.25.516 2.609-.014.1015-.031.22-.05.3554-.184 1.3204-.573 2.8711-1.167 4.6521-.656 1.9794-1.432 4.0801-2.329 6.3019-.859 2.1928-1.838 4.5068-2.937 6.9421-1.099 2.4352-2.115 4.6406-3.046 6.616a449.3912 449.3912 0 0 1-2.586 5.5413c-.826 1.7141-1.366 2.864-1.621 3.4498-1.726 4.2115-3.159 7.6703-4.296 10.3764-1.137 2.7061-2.656 6.17-4.557 10.3917-1.867 4.2265-3.495 7.4853-4.885 9.7764-1.361 2.3298-2.416 3.5804-3.165 3.752-1.139.4968-3.268.5447-6.388.1437l-.457-.0638c-2.844-.397-4.579-.9499-5.205-1.6585-1.284-.9387-3.011-7.3582-5.181-19.2586-2.136-11.8956-3.929-23.7779-5.378-35.6467-1.306-10.6752-1.805-16.9923-1.497-18.9512.033-.237.074-.4039.122-.5008Z" fill="#EF965A"/><path d="M222.814 70.6414c-.068-3.6578-.119-7.2984-.154-10.922 0-8.9906.257-18.0325.77-27.1256.718-12.7167 1.846-19.2289 3.384-19.5366 2.803-.376 6.307-.564 10.512-.564 1.401 0 2.888.0171 4.461.0513 6.29.1709 10.631.4444 13.024.8204.889-.0684 1.607.3931 2.154 1.3845.547 1.0255.854 2.2562.923 3.6919.034.3761.051.7521.051 1.1281-.034 1.0597-.12 2.1366-.256 3.2305-.205 1.4699-.598 2.7348-1.18 3.7945-.547 1.0597-1.213 1.6238-1.999 1.6921-.855.0684-2.479.1026-4.872.1026-2.358 0-4.871-.0171-7.537-.0513-2.633-.0342-4.017-.0513-4.154-.0513-.171 1.4358-.256 3.0425-.256 4.8201v.8717c.068 2.0853.136 4.256.205 6.5122.068 1.6067.085 2.6835.051 3.2304v.4102c3.316 0 6.991.1881 11.025.5641.581.0684 1.589.1538 3.025.2564 1.47.1025 2.478.2222 3.025.3589.992.2735 1.487 1.6751 1.487 4.2047 0 1.7435-.239 4.0509-.717 6.9225-.137.6836-2.393 1.0255-6.769 1.0255s-8.136-.1026-11.281-.3077c-.034 2.0169-.137 5.2987-.308 9.8452-.136 4.5124-.222 7.7429-.256 9.6914 3.145.2051 5.965.3077 8.461.3077.923 0 1.811-.0171 2.666-.0513 1.333-.0342 2.53-.0513 3.589-.0513 1.436 0 2.684.0342 3.744.1026 1.811.1367 2.803.5298 2.974 1.1793.547 1.6751.82 3.4527.82 5.3329 0 1.9485-.154 3.5039-.461 4.6662-.274 1.0939-.496 1.6408-.667 1.6408-.889.4103-6.016.6837-15.383.8205-1.607.0342-3.111.0342-4.512 0-6.837 0-11.435-.2393-13.794-.7179-.923-.2051-1.521-6.6318-1.795-19.2802Z" fill="#539AD1"/><path d="M278.067 33.1032c-.391-3.6718-.347-5.6583.132-5.9595.937-.7721 2.56-1.5613 4.871-2.3677 2.345-.8106 5.088-1.4645 8.229-1.9617a33.4515 33.4515 0 0 1 1.826-.2805 56.9895 56.9895 0 0 1 7.644-.4414c3.172.0159 6.193.6191 9.064 1.8095 2.871 1.1905 5.07 2.9303 6.597 5.2195 2.172 3.0351 3.827 6.0663 4.964 9.0933.837 2.2724 1.357 4.3605 1.561 6.2642.119.6741.185 1.3377.198 1.9907.034 2.4762-.166 4.8613-.602 7.1553-.402 2.2898-1.01 4.3125-1.823 6.0682-.814 1.7557-1.6 3.3184-2.358 4.6882-.763 1.3359-1.367 2.428-1.812 3.2761-.449.8143-.593 1.3147-.432 1.5012.764.8689 2.927 3.1473 6.49 6.8349 3.558 3.6538 7.215 7.8121 10.969 12.4749.085.1272.136.2586.153.3943.085.6783-.602 1.798-2.06 3.3588-1.763 1.8747-3.804 3.457-6.123 4.7468-1.225.6703-2.228 1.0544-3.008 1.1522-.678.085-1.196-.0569-1.552-.4256-2.541-2.6789-5.601-6.3434-9.181-10.9936-3.581-4.6501-6.054-7.7509-7.42-9.3023-.691-.8436-1.581-1.0765-2.671-.6988l-.102.0128c-.53.1698-.937.4964-1.221.9799-.254.4453-.328.9541-.222 1.5265.221 1.2126.623 3.1777 1.204 5.8954.578 2.6838 1.045 5.0369 1.402 7.0593a65.725 65.725 0 0 1 .555 3.5997c.102.814.185 1.6133.248 2.3977.124.9836-.819 1.9805-2.829 2.9905-1.78.912-3.62 1.487-5.52 1.725-.203.026-.407.051-.61.077-2.078.191-3.185-.256-3.321-1.341-1.24-5.4949-2.52-11.3119-3.841-17.4511-1.321-6.1392-2.644-12.571-3.969-19.2953-1.359-6.7201-2.514-12.7767-3.466-18.1698-.722-4.1126-1.277-7.7123-1.664-10.7989-.123-.9837-.223-1.9186-.3-2.8047Zm14.21 3.6967c.438 2.9425 1.262 7.4558 2.473 13.5399 1.244 6.0799 2.083 10.5741 2.516 13.4827.094.7462.565 1.0662 1.413.9599 2.637-.6751 4.941-2.0836 6.912-4.2255 2-2.1801 3.339-4.6907 4.017-7.5318.478-1.9548.581-3.8799.309-5.7751-.106-.848-.28-1.6875-.522-2.5184-.874-2.8533-2.609-5.0131-5.205-6.4793-2.561-1.4704-6.121-2.385-10.679-2.7439-.382-.0211-.694.1041-.935.3756-.242.2714-.341.5767-.299.9159Z" fill="#EF965A"/><path d="M338.784 13.7082c-.016-.6869.001-1.3712.053-2.053.051-.6817.137-1.3609.257-2.0375.239-1.3531.736-2.4811 1.49-3.384.788-.9002 1.745-1.3078 2.869-1.2227l.103.0078c.102.0077 1.81.0856 5.124.2336 3.349.1506 7.123.3334 11.324.5485 4.2.215 8.534.4746 13.002.7785l2.045.1548c3.682.2786 6.915.5919 9.7.9398 3.325.4574 5.314.8993 5.968 1.326.687.429 1.07 1.7094 1.149 3.8408.021.6188.008 1.2519-.041 1.8996-.109 1.4317-.42 2.8308-.935 4.1974-.695 1.9358-1.677 2.9071-2.946 2.9139-.926-.0015-1.883-.0396-2.871-.1145-.855-.0304-1.757-.1158-2.706-.2562-1.427-.1766-2.769-.3296-4.028-.4591-.582-.0098-1.112-.0328-1.589-.0689-1.709-.0608-2.563.1146-2.559.5262-1.363 26.603-2.502 45.955-3.418 58.0559-.08 1.0567-.507 1.95-1.282 2.6798-.741.7324-1.642 1.0757-2.701 1.0298-3.078-.0959-5.555-.2148-7.429-.3567-1.057-.0799-1.932-.5233-2.625-1.3299-.662-.7701-.987-1.686-.975-2.7479.087-5.6842.329-16.1221.725-31.3136.398-15.2256.638-24.2923.721-27.2-.071-.4168-1.163-.7052-3.277-.8651-2.113-.16-4.624-.2814-7.531-.3644-2.397-.0443-4.106-.1051-5.129-.1825-.239-.018-.426-.0322-.562-.0426-.509-.0727-.949-.6031-1.32-1.5911-.371-.988-.573-2.1689-.606-3.5427Z" fill="#539AD1"/><path d="M413.155 25.5347c.308-.8547 1.487-1.4529 3.538-1.7947a22.4116 22.4116 0 0 1 3.692-.3077c.889 0 1.778.0513 2.666.1538 2.188.2393 3.573.6837 4.154 1.3332.82.9572 1.504 5.179 2.051 12.6655.547 7.4864.906 15.5711 1.077 24.254.137 6.1875.205 12.0502.205 17.5881 0 2.222-.017 4.3927-.051 6.5122-.069 7.3839-.257 11.5373-.564 12.4603.136.9572-1.06 1.6926-3.59 2.2046-1.504.308-3.042.462-4.615.462-1.025 0-2.068-.069-3.128-.205-2.632-.342-4.068-1.06-4.307-2.1539-.308-1.5383-.632-13.9303-.974-37.1759-.171-13.4004-.274-23.0576-.308-28.9716 0-4.3756.051-6.7173.154-7.0249Z" fill="#EF965A"/><path d="M455.985 59.5021a549.3947 549.3947 0 0 1-2.073-22.4712c-.54-7.5355-.598-14.0774-.173-19.6257.423-5.5824 1.384-8.6673 2.884-9.2546.999-.4143 2.74-.7448 5.224-.9914.512-.0366 1.006-.072 1.483-.1063 1.91-.1368 3.707-.1628 5.393-.078 5-.0499 9.527.7053 13.58 2.2655 4.084 1.5237 8.031 3.9826 11.838 7.3769 4.21 3.7424 7.346 8.5215 9.407 14.3371 1.458 4.0768 2.337 8.2121 2.637 12.4061.125 1.739.147 3.4853.067 5.2389-.179 4.6739-.756 8.8108-1.732 12.4108-.942 3.5976-2.484 6.9468-4.626 10.0478-2.109 3.0985-4.855 5.6602-8.24 7.685-3.349 2.0564-7.565 3.7124-12.651 4.9679-4.14 1.0507-8.835 1.7643-14.086 2.1406-1.194.0855-2.423.1565-3.687.2128-.582.0074-1.382-2.557-2.402-7.6934-1.019-5.1363-1.967-11.4259-2.843-18.8688Zm12.628-23.2164c.022.3069.046.6479.073 1.0229.13 1.8072.373 4.2403.729 7.2992.434 3.6703.733 6.1679.897 7.4928.161 1.2908.599 4.5325 1.314 9.7249.746 5.1559 1.228 8.5315 1.445 10.1267 5.694-1.8475 10.455-4.999 14.282-9.4546 3.828-4.4556 5.643-9.5037 5.444-15.1444-.025-.341-.049-.682-.073-1.0229-.12-1.191-.257-2.3807-.41-3.5693-.244-1.4905-.633-3.0905-1.167-4.8002-.5-1.7121-1.145-3.3108-1.937-4.7963-.792-1.4855-1.84-2.9527-3.143-4.4016a20.6992 20.6992 0 0 0-4.33-3.7509c-1.62-1.0834-3.589-2.0048-5.905-2.7642-2.316-.7593-4.853-1.2458-7.61-1.4595-.041 2.779-.01 5.6043.093 8.4758.101 2.8374.2 5.1779.298 7.0216Z" fill="#539AD1"/><path d="M526.769 61.7364v.4615c-.034 5.0935.53 9.8281 1.692 14.2037 1.163 4.5124 3.197 8.5804 6.102 12.204 2.906 3.6236 6.478 6.2045 10.717 7.7428 2.701.8888 5.248 1.3332 7.641 1.3332 1.675-.0341 3.298-.2563 4.871-.6666 3.76-1.0939 7.076-3.1791 9.948-6.2558 2.871-3.0424 5.179-6.478 6.922-10.3067 1.778-3.8628 2.974-7.7941 3.59-11.7937.923-6.1191 1.384-11.6741 1.384-16.6651 0-18.323-6.239-29.2279-18.716-32.7148-.171-.0341-.65-.0854-1.436-.1538-.615-.0684-1.453-.0854-2.512-.0513h-.821c-1.436 0-2.923.1026-4.461.3077-1.538.1709-3.179.547-4.923 1.1281-1.743.5811-3.247 1.3332-4.512 2.2562-3.077 2.5297-5.794 5.9139-8.153 10.1529-2.359 4.2389-4.171 8.7854-5.435 13.6397-1.231 4.8542-1.863 9.9135-1.898 15.178Zm14.717 4.5637c.068-2.7006.222-5.1278.461-7.2814.24-2.1878.582-4.3073 1.026-6.3584.171-.7862.41-1.7092.718-2.7689.307-1.0939.752-2.4955 1.333-4.2047.581-1.7093 1.282-3.316 2.102-4.8201.821-1.5383 1.727-2.9741 2.718-4.3073.991-1.3332 2.137-2.3416 3.436-3.0253.923-.4786 1.88-.7179 2.871-.7179.376 0 .769.0342 1.18.1026.991.0683 1.897.4102 2.717 1.0255.855.5811 1.521 1.2477 2 1.9998.479.7521.872 1.5383 1.179 2.3588.342.8204.564 1.487.667 1.9998.137.4785.205.752.205.8204.889 2.769 1.333 6.0678 1.333 9.8965 0 1.8118-.102 3.7261-.307 5.743-.069.7863-.24 1.8118-.513 3.0766-.274 1.2307-.633 2.6835-1.077 4.3586-.41 1.6409-.94 3.2817-1.59 4.9226a67.9822 67.9822 0 0 1-2.153 4.8713c-.786 1.6067-1.692 2.9912-2.718 4.1535-.991 1.1622-2.051 2.051-3.179 2.6664-.786.4444-1.658.6666-2.615.6666-.376.0342-.769.0171-1.18-.0513-1.401-.2735-2.837-1.0426-4.307-2.3075-1.436-1.2648-2.53-3.0424-3.282-5.3328-.683-2.1536-1.042-4.4782-1.076-6.9737.034-.1709.051-.3418.051-.5127Z" fill="#EF965A"/><path d="M205.519 134.612c-.077-.962.019-1.75.288-2.365.141-.321.301-.449.481-.385.013-.026.949-.038 2.807-.038 1.859 0 3.712.006 5.558.019l2.788.019c.346-.026.602.314.769 1.019.167.692.186 1.391.058 2.096-.116.705-.353 1.051-.712 1.038-.795.039-2.134.058-4.019.058-1.871 0-3.551-.006-5.038-.019l-2.211-.039c-.436.039-.692-.429-.769-1.403ZM231.728 133.746v-12.46c0-.282.397-.487 1.192-.615.538-.09 1.115-.135 1.731-.135.307 0 .615.013.923.039.974.064 1.673.218 2.096.461.141.09.211.199.211.327.026.538.039 1.308.039 2.307v.808c0 1.41-.013 2.833-.039 4.269l-.038 2.134c1.692-2.217 3.563-4.474 5.614-6.768 1.898-2.115 3.09-3.173 3.577-3.173.038 0 .071.006.096.019.628.205 1.231.5 1.808.885.577.384.993.711 1.25.98.269.257.416.423.442.5.077.116.038.346-.116.693-.153.346-.429.807-.826 1.384-.398.564-.808 1.128-1.231 1.692-.41.564-.942 1.25-1.596 2.058-.654.794-1.205 1.467-1.654 2.019-.448.538-1.019 1.218-1.711 2.038-.68.808-1.147 1.372-1.404 1.692.064.064.263.289.596.673.346.385.853.994 1.519 1.827.68.82 1.359 1.686 2.039 2.596.679.91 1.384 1.961 2.115 3.153.743 1.193 1.359 2.314 1.846 3.365.077.154.083.347.019.577-.051.244-.154.41-.308.5-.756.551-1.82 1.269-3.192 2.154-.166.102-.384.07-.653-.096-.27-.154-.507-.346-.712-.577-.654-.744-1.615-2.09-2.884-4.038a619.7935 619.7935 0 0 1-3.327-5.211c-.948-1.526-1.468-2.276-1.557-2.25v.269c0 .744.038 1.885.115 3.423.115 1.743.186 3.179.212 4.307v.558c0 .974-.071 2.012-.212 3.115-.064.32-.852.481-2.365.481-.795 0-1.788-.045-2.981-.135-.102 0-.198-.045-.288-.135-.077-.076-.115-.16-.115-.25-.065-.551-.116-1.576-.154-3.076-.026-1.513-.045-3.519-.058-6.019-.013-2.5-.019-4.621-.019-6.365ZM253.63 147.149c0-.859 1.147-5.051 3.442-12.576 2.371-7.768 3.749-11.781 4.134-12.037.23-.115.846-.173 1.846-.173h.73c1.436.026 2.205.083 2.308.173.449.269 1.698 4.301 3.75 12.095 1.948 7.371 2.916 11.563 2.903 12.576v.134c-.038.141-.077.237-.115.289-.039.051-.212.121-.519.211-.295.09-.757.186-1.385.289-.385.115-.731.173-1.038.173-.205 0-.385-.026-.539-.077-.41-.128-.692-.257-.846-.385-.141-.128-.224-.237-.25-.327l-2.25-8.864c-.256.025-.91.057-1.961.096-.449.013-.865.019-1.25.019-.487 0-.897-.013-1.23-.038-.244.884-.59 2.076-1.039 3.576-.436 1.5-.827 2.808-1.173 3.923-.333 1.102-.519 1.711-.557 1.827-.039.128-.231.243-.577.346-.334.102-.731.166-1.192.192h-.347c-.346 0-.698-.026-1.057-.077-.462-.051-.865-.192-1.212-.423-.384-.256-.576-.57-.576-.942Zm8.441-13.037c1.372 0 2.41.013 3.115.038-.167-.564-.423-1.583-.769-3.057-.346-1.487-.603-2.513-.769-3.077-.346.962-.872 2.993-1.577 6.096ZM276.281 142.938c-.013-.59-.019-1.18-.019-1.769 0-2.526.064-5.237.192-8.134.154-3.589.398-6.288.731-8.095.077-.282.461-.488 1.154-.616.371-.064.75-.096 1.134-.096.321-.013.648.006.981.058.718.102 1.141.307 1.269.615.026.026.301.776.827 2.25.525 1.461 1.141 3.211 1.846 5.249.705 2.026 1.256 3.66 1.653 4.904.257-.795 1.052-3.096 2.385-6.903 1.346-3.808 2.045-5.718 2.096-5.731.051-.23.436-.397 1.154-.5.448-.064.903-.102 1.365-.115.295 0 .583.013.865.038.769.065 1.256.206 1.462.424.23.115.384 2.134.461 6.057.038 2.051.058 4.095.058 6.134 0 1.871-.02 3.756-.058 5.653-.077 3.923-.167 5.993-.269 6.211-.205.295-.757.442-1.654.442-.192 0-.404-.006-.634-.019-1.282-.077-2.013-.282-2.193-.615-.025-.039-.038-.238-.038-.596-.013-.462.006-1.18.058-2.154.077-1.718.179-3.814.307-6.288.129-2.487.193-4.41.193-5.769-.18.603-.693 2.551-1.539 5.846-.833 3.282-1.493 5.608-1.98 6.98-.077.192-.551.288-1.423.288-.077-.012-.16-.019-.25-.019-1.026-.025-1.609-.115-1.75-.269-.256-.346-.602-1.231-1.038-2.654-.436-1.435-.936-3.185-1.5-5.249-.564-2.077-.981-3.538-1.25-4.384 0 .115-.006.237-.019.365.013.846.057 1.859.134 3.038.077 1.359.154 2.577.231 3.654.077 1 .115 2.102.115 3.307v.269c0 1.295-.07 2.436-.211 3.423-.039.333-.417.551-1.135.654-.359.051-.724.077-1.096.077-.371 0-.737-.026-1.096-.077-.73-.103-1.121-.25-1.173-.442-.192-.603-.307-2.417-.346-5.442ZM300.087 137.131c-.026-1.692-.039-3.205-.039-4.538 0-4.769.128-7.256.385-7.461 1.692-.603 3.275-.904 4.749-.904 1.474 0 2.833.308 4.077.923 2.487 1.231 4.006 3.352 4.557 6.365.115.602.173 1.192.173 1.769 0 .679-.083 1.346-.25 2-.295 1.166-.801 2.173-1.519 3.019-.718.846-1.596 1.557-2.634 2.134-1.026.577-2.16.987-3.404 1.231-.128.013-.243.083-.346.211-.09.116-.135.244-.135.385.141 1.32.218 2.724.231 4.211v.288c0 1.346-.09 2.327-.269 2.942-.077.167-.538.282-1.384.347-.283.012-.565.019-.847.019-.564 0-1.121-.039-1.672-.116-.847-.115-1.289-.301-1.327-.557-.141-.449-.257-4.538-.346-12.268Zm4.518-8.365c.154 2.884.231 5.756.231 8.615 0 .166.071.314.212.442.153.115.307.154.461.115 1.282-.32 2.333-.891 3.154-1.711.82-.833 1.237-1.788 1.25-2.865v-.135c0-1.089-.436-2.16-1.308-3.211-.91-1.102-2.051-1.718-3.423-1.846-.154-.013-.288.038-.404.154-.115.115-.173.263-.173.442ZM316.527 141.515c-.025-1.09-.032-2.179-.019-3.269-.013-3.128.071-6.256.25-9.384.231-4.23.596-6.377 1.096-6.441.962-.154 2.199-.231 3.711-.231.411 0 .834.006 1.269.019 2.103.051 3.558.147 4.365.288h.039c.449-.012.75.379.904 1.173a5.4 5.4 0 0 1 .096 1.02c0 .487-.064.974-.193 1.461-.217.833-.538 1.269-.961 1.308-.295.025-.84.038-1.634.038-.782 0-1.616-.006-2.5-.019-.872-.013-1.333-.019-1.385-.019-.051.294-.083.737-.096 1.326v.712c.013.346.019.673.019.98.026.513.045 1.013.058 1.5.013.487.019.744.019.769 1.462 0 2.667.052 3.615.154.193.013.436.032.731.058.295.013.551.032.769.058.218.013.404.038.558.077.218.064.359.327.423.788.038.256.058.519.058.788 0 .231-.013.449-.039.654-.051.487-.122.974-.211 1.462-.039.217-.789.333-2.25.346h-.846c-1.103 0-2.064-.02-2.885-.058l-.153 6.461c.999.064 1.897.096 2.692.096.333 0 .653-.006.961-.019.436-.013.84-.019 1.211-.019.5 0 .917.012 1.25.038.616.051.949.186 1 .404.167.59.25 1.147.25 1.673a.6186.6186 0 0 0-.019.154c-.026.564-.083 1.038-.173 1.423-.077.397-.147.602-.212.615-.269.128-1.967.211-5.095.25-.551.013-1.071.019-1.558.019-2.256 0-3.769-.077-4.538-.231-.307-.077-.5-2.217-.577-6.422ZM332.199 126.67c.013-1 .07-1.551.173-1.654.141-.179.929-.294 2.365-.346.282-.012.545-.019.788-.019.962 0 1.539.083 1.731.25.333.167 2.372 4.987 6.115 14.46-.064-1.153-.276-3.423-.635-6.807-.346-3.397-.532-5.788-.557-7.172 0-.231.365-.436 1.096-.616.73-.192 1.493-.288 2.288-.288.026 0 .051-.006.077-.019.769 0 1.404.109 1.904.327.256.359.442 4.102.557 11.229.026 1.808.039 3.423.039 4.846 0 4.154-.122 6.576-.366 7.269-.051.153-.673.307-1.865.461-.949.128-1.724.192-2.327.192-.153 0-.288-.006-.403-.019-.218 0-.423-.064-.616-.192-.179-.128-.307-.289-.384-.481-.244-.513-1.007-2.577-2.289-6.192-1.281-3.627-2.076-5.8-2.384-6.518.013.756.237 2.852.673 6.288.41 3.23.615 5.365.615 6.403v.173c0 .308-.448.532-1.346.673-.474.077-.955.115-1.442.115-.41-.012-.827-.044-1.25-.096-.897-.128-1.359-.346-1.384-.654-.064-.897-.141-1.935-.231-3.115-.077-1.179-.179-2.685-.308-4.518-.115-1.834-.224-3.59-.326-5.269-.09-1.679-.167-3.301-.231-4.865-.051-1.308-.077-2.41-.077-3.307v-.539ZM361.542 134.612c-.077-.962.019-1.75.289-2.365.141-.321.301-.449.48-.385.013-.026.949-.038 2.808-.038s3.711.006 5.557.019l2.788.019c.346-.026.603.314.769 1.019.167.692.186 1.391.058 2.096-.115.705-.353 1.051-.711 1.038-.795.039-2.135.058-4.019.058-1.872 0-3.551-.006-5.038-.019l-2.212-.039c-.435.039-.692-.429-.769-1.403Z" fill="#000"/></svg>