<svg width="585" height="151" fill="none" xmlns="http://www.w3.org/2000/svg"><mask id="a" maskUnits="userSpaceOnUse" x="0" y="-1" width="585" height="110" fill="#000"><path fill="#fff" d="M0-1h585v110H0z"/><path d="M11 72.6a549.4 549.4 0 0 1-4-22.2c-1.3-7.5-2-14-2-19.5 0-5.6.6-8.8 2-9.5 1-.5 2.7-1 5.2-1.5l1.4-.2 5.4-.6a36.5 36.5 0 0 1 26.2 7.3A34 34 0 0 1 55.8 40c1.9 3.9 3.1 8 3.8 12a44.7 44.7 0 0 1 .5 5.3c.3 4.7 0 8.8-.6 12.5-.6 3.7-1.8 7.1-3.7 10.4-1.8 3.3-4.3 6.1-7.5 8.4a44.6 44.6 0 0 1-12.1 6.1c-4 1.4-8.7 2.6-13.9 3.4a136.7 136.7 0 0 1-3.6.6c-.6 0-1.6-2.4-3.1-7.5-1.5-5-3-11.2-4.5-18.5Zm10.5-24.3.2 1a174 174 0 0 0 3 14.6 1103.7 1103.7 0 0 0 4.5 19.5c5.5-2.3 10-5.9 13.4-10.7 3.4-4.7 4.7-10 4-15.5a3052.9 3052.9 0 0 1-.1-1 125.8 125.8 0 0 0-.8-3.6 35.4 35.4 0 0 0-4-9.2c-.9-1.5-2-2.8-3.5-4.1a20.7 20.7 0 0 0-4.6-3.4 24 24 0 0 0-6.2-2.2c-2.3-.5-4.9-.8-7.7-.8a167.9 167.9 0 0 0 1.8 15.4Zm72.9-33.5c.3-.9 1.5-1.5 3.5-1.8a22.4 22.4 0 0 1 3.7-.3c1 0 1.8 0 2.7.2 2.2.2 3.6.6 4.1 1.3.9 1 1.6 5.2 2.1 12.7a457.8 457.8 0 0 1 1.3 41.8 406.2 406.2 0 0 1-.6 19c.1 1-1 1.7-3.6 2.2a23 23 0 0 1-7.8.2c-2.6-.3-4-1-4.3-2.1-.3-1.6-.6-14-1-37.2a4709.3 4709.3 0 0 1-.1-36Zm48 8.4c.1-.5 1.2-1.2 3.2-2 2-.7 4.3-1.2 6.7-1.5 1.4-.2 2.5-.2 3.4-.1a4 4 0 0 1 1.5.4c.7.5 1.3 1.4 1.8 2.8s1 3.2 1.3 5.4a120.1 120.1 0 0 1 1.4 13.1l.5 5.6c1 7.2 1.7 16 2.4 26.3l6-16.3c3.5-9.6 6.5-17.4 8.9-23.1 2.4-5.8 4-9 5-9.4.6-.4 1.4-.4 2.5-.3 1 .1 2.4.5 4 1.2 3.1 1.2 5 2.2 5.4 3 .5.4.7 1.3.5 2.7v.3a105.8 105.8 0 0 1-6.4 17.9l-3 6.6a449.4 449.4 0 0 1-2.7 5.6 123 123 0 0 0-5.9 13.8l-4.5 10.4a89.3 89.3 0 0 1-5 9.8c-1.3 2.3-2.4 3.6-3.1 3.7-1.1.5-3.3.6-6.4.2h-.4c-2.9-.5-4.6-1-5.2-1.7-1.3-1-3-7.4-5.2-19.3s-4-23.8-5.4-35.7a115 115 0 0 1-1.4-19.4Zm80.4 47.4-.1-10.9c0-9 .2-18 .7-27.1.7-12.7 1.9-19.2 3.4-19.5a81.3 81.3 0 0 1 15-.6c6.3.2 10.6.5 13 .9.9-.1 1.6.4 2.2 1.3a12.5 12.5 0 0 1 1 4.8l-.3 3.3a11 11 0 0 1-1.2 3.8c-.5 1-1.2 1.6-2 1.7h-4.9a589.3 589.3 0 0 1-11.7 0 41 41 0 0 0-.2 4.8v.9a3231.1 3231.1 0 0 1 .2 9.7v.4a119.7 119.7 0 0 1 17.1 1.2c1 .3 1.5 1.7 1.5 4.2 0 1.8-.2 4-.7 7-.2.6-2.4 1-6.8 1s-8.1-.1-11.3-.3a538.4 538.4 0 0 1-.5 19.5 131.3 131.3 0 0 0 14.7.2l3.7.1c1.8.1 2.8.5 3 1.2.6 1.7.8 3.4.8 5.3 0 2-.1 3.5-.4 4.7-.3 1-.5 1.6-.7 1.6-.9.4-6 .7-15.4.8h-4.5c-6.8 0-11.4-.2-13.8-.7-1-.2-1.5-6.6-1.8-19.3Zm55.3-37.5c-.4-3.7-.4-5.7.1-6 1-.7 2.6-1.5 4.9-2.3 2.3-.8 5-1.5 8.2-2a33.5 33.5 0 0 1 1.8-.3 57 57 0 0 1 7.7-.4c3.1 0 6.2.6 9 1.8 2.9 1.2 5.1 3 6.6 5.2 2.2 3 3.9 6 5 9.1a26.5 26.5 0 0 1 1.2 15.4c-.5 2.3-1 4.3-1.9 6a74.2 74.2 0 0 1-4.1 8c-.5.9-.6 1.4-.5 1.6l6.5 6.8a177 177 0 0 1 11.1 12.9c.1.6-.6 1.8-2 3.3a25 25 0 0 1-6.1 4.8 9 9 0 0 1-3 1.1c-.7.1-1.2 0-1.6-.4-2.5-2.7-5.6-6.3-9.2-11l-7.4-9.3c-.7-.8-1.6-1-2.7-.7a2.1 2.1 0 0 0-1.5 2.5 225.4 225.4 0 0 0 2.6 13 65.7 65.7 0 0 1 .5 3.6l.3 2.4c.1 1-.8 2-2.8 3-1.8.9-3.7 1.4-5.6 1.7h-.6c-2 .3-3.2-.2-3.3-1.3A1790.8 1790.8 0 0 1 280 46.7a226.4 226.4 0 0 1-2-13.6Zm14.2 3.7c.4 3 1.2 7.5 2.4 13.5 1.3 6.1 2.1 10.6 2.6 13.5 0 .8.5 1 1.4 1 2.6-.7 5-2.1 6.9-4.2a16.7 16.7 0 0 0 3.8-15.9c-.9-2.8-2.6-5-5.2-6.4a25.7 25.7 0 0 0-10.7-2.8c-.4 0-.7.1-1 .4-.2.3-.3.6-.2.9Zm46.5-23a20.7 20.7 0 0 1 .3-4.2 7 7 0 0 1 1.5-3.4c.8-.9 1.7-1.3 2.9-1.2a1115 1115 0 0 0 16.5.8l13 .8 2 .1c3.7.3 7 .6 9.8 1 3.3.4 5.3.9 6 1.3.6.4 1 1.7 1 3.8a17.4 17.4 0 0 1-1 6.1c-.6 2-1.6 3-2.9 3a38.8 38.8 0 0 1-5.5-.4 197 197 0 0 0-5.6-.5c-1.8-.1-2.6 0-2.6.5-1.4 26.6-2.5 46-3.4 58-.1 1-.5 2-1.3 2.7-.7.7-1.6 1-2.7 1-3 0-5.6-.2-7.4-.3-1 0-2-.5-2.7-1.3a4 4 0 0 1-1-2.8 3489.5 3489.5 0 0 1 1.5-58.5c0-.4-1.2-.7-3.3-.9a163.4 163.4 0 0 0-13.2-.6c-.5 0-1-.6-1.3-1.5-.4-1-.6-2.2-.6-3.6Zm74.4 11.7c.3-.8 1.4-1.4 3.5-1.8a22.4 22.4 0 0 1 3.7-.3c.9 0 1.8 0 2.7.2 2.1.2 3.5.7 4.1 1.3.8 1 1.5 5.2 2 12.7a457.8 457.8 0 0 1 1.3 41.8 406.2 406.2 0 0 1-.6 19c.2 1-1 1.7-3.6 2.2a23 23 0 0 1-7.7.3c-2.6-.4-4-1.1-4.3-2.2-.3-1.5-.6-14-1-37.2a4691 4691 0 0 1-.1-36Zm42.8 34a549.4 549.4 0 0 1-2-22.5c-.6-7.5-.7-14-.3-19.6.5-5.6 1.4-8.7 3-9.2a20.6 20.6 0 0 1 6.6-1.1c2-.2 3.7-.2 5.4-.1a36.5 36.5 0 0 1 25.4 9.6 34 34 0 0 1 9.4 14.4 46.6 46.6 0 0 1 2.8 17.6c-.2 4.7-.8 8.8-1.8 12.4-1 3.6-2.5 7-4.6 10a25.9 25.9 0 0 1-8.2 7.7c-3.4 2.1-7.6 3.8-12.7 5a81.1 81.1 0 0 1-17.8 2.4c-.6 0-1.4-2.6-2.4-7.7-1-5.2-2-11.5-2.8-18.9Zm12.6-23.2v1a175.5 175.5 0 0 0 1.7 14.8 1098 1098 0 0 0 2.8 19.9c5.7-1.9 10.4-5 14.3-9.5 3.8-4.5 5.6-9.5 5.4-15.1v-1l-.5-3.6a35.3 35.3 0 0 0-3-9.6c-.9-1.5-2-3-3.2-4.4a20.7 20.7 0 0 0-4.4-3.8c-1.6-1-3.6-2-5.9-2.8-2.3-.7-4.8-1.2-7.6-1.4a167.5 167.5 0 0 0 .4 15.5Zm58.2 25.4v.5c0 5 .5 9.8 1.7 14.2 1.1 4.5 3.2 8.6 6 12.2a24 24 0 0 0 18.4 9 21 21 0 0 0 4.9-.6c3.8-1 7-3.2 10-6.2a44.2 44.2 0 0 0 10.5-22.1c.9-6.2 1.3-11.7 1.3-16.7 0-18.3-6.2-29.2-18.7-32.7a19.9 19.9 0 0 0-4-.2h-.7a33.8 33.8 0 0 0-9.4 1.4c-1.8.6-3.3 1.3-4.5 2.3-3.1 2.5-5.8 5.9-8.2 10.1a58 58 0 0 0-7.3 28.8Zm14.7 4.6a86.2 86.2 0 0 1 1.5-13.6 42.4 42.4 0 0 1 2-7 30.7 30.7 0 0 1 4.8-9.1c1-1.4 2.2-2.4 3.5-3a6.2 6.2 0 0 1 4-.7c1 0 2 .4 2.7 1a7 7 0 0 1 2 2c.5.8 1 1.6 1.2 2.4a11.3 11.3 0 0 1 .9 2.8c.9 2.8 1.3 6 1.3 10a56.9 56.9 0 0 1-.8 8.7 114.3 114.3 0 0 1-2.7 9.3 68 68 0 0 1-2.1 4.9c-.8 1.6-1.7 3-2.7 4.1-1 1.2-2 2.1-3.2 2.7-.8.5-1.7.7-2.6.7H550c-1.4-.3-2.8-1.1-4.3-2.4-1.4-1.2-2.5-3-3.3-5.3a24 24 0 0 1-1-7.5Z"/></mask><path d="M11 72.6a549.4 549.4 0 0 1-4-22.2c-1.3-7.5-2-14-2-19.5 0-5.6.6-8.8 2-9.5 1-.5 2.7-1 5.2-1.5l1.4-.2 5.4-.6a36.5 36.5 0 0 1 26.2 7.3A34 34 0 0 1 55.8 40c1.9 3.9 3.1 8 3.8 12a44.7 44.7 0 0 1 .5 5.3c.3 4.7 0 8.8-.6 12.5-.6 3.7-1.8 7.1-3.7 10.4-1.8 3.3-4.3 6.1-7.5 8.4a44.6 44.6 0 0 1-12.1 6.1c-4 1.4-8.7 2.6-13.9 3.4a136.7 136.7 0 0 1-3.6.6c-.6 0-1.6-2.4-3.1-7.5-1.5-5-3-11.2-4.5-18.5Zm10.5-24.3.2 1a174 174 0 0 0 3 14.6 1103.7 1103.7 0 0 0 4.5 19.5c5.5-2.3 10-5.9 13.4-10.7 3.4-4.7 4.7-10 4-15.5a3052.9 3052.9 0 0 1-.1-1 125.8 125.8 0 0 0-.8-3.6 35.4 35.4 0 0 0-4-9.2c-.9-1.5-2-2.8-3.5-4.1a20.7 20.7 0 0 0-4.6-3.4 24 24 0 0 0-6.2-2.2c-2.3-.5-4.9-.8-7.7-.8a167.9 167.9 0 0 0 1.8 15.4Zm72.9-33.5c.3-.9 1.5-1.5 3.5-1.8a22.4 22.4 0 0 1 3.7-.3c1 0 1.8 0 2.7.2 2.2.2 3.6.6 4.1 1.3.9 1 1.6 5.2 2.1 12.7a457.8 457.8 0 0 1 1.3 41.8 406.2 406.2 0 0 1-.6 19c.1 1-1 1.7-3.6 2.2a23 23 0 0 1-7.8.2c-2.6-.3-4-1-4.3-2.1-.3-1.6-.6-14-1-37.2a4709.3 4709.3 0 0 1-.1-36Zm48 8.4c.1-.5 1.2-1.2 3.2-2 2-.7 4.3-1.2 6.7-1.5 1.4-.2 2.5-.2 3.4-.1a4 4 0 0 1 1.5.4c.7.5 1.3 1.4 1.8 2.8s1 3.2 1.3 5.4a120.1 120.1 0 0 1 1.4 13.1l.5 5.6c1 7.2 1.7 16 2.4 26.3l6-16.3c3.5-9.6 6.5-17.4 8.9-23.1 2.4-5.8 4-9 5-9.4.6-.4 1.4-.4 2.5-.3 1 .1 2.4.5 4 1.2 3.1 1.2 5 2.2 5.4 3 .5.4.7 1.3.5 2.7v.3a105.8 105.8 0 0 1-6.4 17.9l-3 6.6a449.4 449.4 0 0 1-2.7 5.6 123 123 0 0 0-5.9 13.8l-4.5 10.4a89.3 89.3 0 0 1-5 9.8c-1.3 2.3-2.4 3.6-3.1 3.7-1.1.5-3.3.6-6.4.2h-.4c-2.9-.5-4.6-1-5.2-1.7-1.3-1-3-7.4-5.2-19.3s-4-23.8-5.4-35.7a115 115 0 0 1-1.4-19.4Zm80.4 47.4-.1-10.9c0-9 .2-18 .7-27.1.7-12.7 1.9-19.2 3.4-19.5a81.3 81.3 0 0 1 15-.6c6.3.2 10.6.5 13 .9.9-.1 1.6.4 2.2 1.3a12.5 12.5 0 0 1 1 4.8l-.3 3.3a11 11 0 0 1-1.2 3.8c-.5 1-1.2 1.6-2 1.7h-4.9a589.3 589.3 0 0 1-11.7 0 41 41 0 0 0-.2 4.8v.9a3231.1 3231.1 0 0 1 .2 9.7v.4a119.7 119.7 0 0 1 17.1 1.2c1 .3 1.5 1.7 1.5 4.2 0 1.8-.2 4-.7 7-.2.6-2.4 1-6.8 1s-8.1-.1-11.3-.3a538.4 538.4 0 0 1-.5 19.5 131.3 131.3 0 0 0 14.7.2l3.7.1c1.8.1 2.8.5 3 1.2.6 1.7.8 3.4.8 5.3 0 2-.1 3.5-.4 4.7-.3 1-.5 1.6-.7 1.6-.9.4-6 .7-15.4.8h-4.5c-6.8 0-11.4-.2-13.8-.7-1-.2-1.5-6.6-1.8-19.3Zm55.3-37.5c-.4-3.7-.4-5.7.1-6 1-.7 2.6-1.5 4.9-2.3 2.3-.8 5-1.5 8.2-2a33.5 33.5 0 0 1 1.8-.3 57 57 0 0 1 7.7-.4c3.1 0 6.2.6 9 1.8 2.9 1.2 5.1 3 6.6 5.2 2.2 3 3.9 6 5 9.1a26.5 26.5 0 0 1 1.2 15.4c-.5 2.3-1 4.3-1.9 6a74.2 74.2 0 0 1-4.1 8c-.5.9-.6 1.4-.5 1.6l6.5 6.8a177 177 0 0 1 11.1 12.9c.1.6-.6 1.8-2 3.3a25 25 0 0 1-6.1 4.8 9 9 0 0 1-3 1.1c-.7.1-1.2 0-1.6-.4-2.5-2.7-5.6-6.3-9.2-11l-7.4-9.3c-.7-.8-1.6-1-2.7-.7a2.1 2.1 0 0 0-1.5 2.5 225.4 225.4 0 0 0 2.6 13 65.7 65.7 0 0 1 .5 3.6l.3 2.4c.1 1-.8 2-2.8 3-1.8.9-3.7 1.4-5.6 1.7h-.6c-2 .3-3.2-.2-3.3-1.3A1790.8 1790.8 0 0 1 280 46.7a226.4 226.4 0 0 1-2-13.6Zm14.2 3.7c.4 3 1.2 7.5 2.4 13.5 1.3 6.1 2.1 10.6 2.6 13.5 0 .8.5 1 1.4 1 2.6-.7 5-2.1 6.9-4.2a16.7 16.7 0 0 0 3.8-15.9c-.9-2.8-2.6-5-5.2-6.4a25.7 25.7 0 0 0-10.7-2.8c-.4 0-.7.1-1 .4-.2.3-.3.6-.2.9Zm46.5-23a20.7 20.7 0 0 1 .3-4.2 7 7 0 0 1 1.5-3.4c.8-.9 1.7-1.3 2.9-1.2a1115 1115 0 0 0 16.5.8l13 .8 2 .1c3.7.3 7 .6 9.8 1 3.3.4 5.3.9 6 1.3.6.4 1 1.7 1 3.8a17.4 17.4 0 0 1-1 6.1c-.6 2-1.6 3-2.9 3a38.8 38.8 0 0 1-5.5-.4 197 197 0 0 0-5.6-.5c-1.8-.1-2.6 0-2.6.5-1.4 26.6-2.5 46-3.4 58-.1 1-.5 2-1.3 2.7-.7.7-1.6 1-2.7 1-3 0-5.6-.2-7.4-.3-1 0-2-.5-2.7-1.3a4 4 0 0 1-1-2.8 3489.5 3489.5 0 0 1 1.5-58.5c0-.4-1.2-.7-3.3-.9a163.4 163.4 0 0 0-13.2-.6c-.5 0-1-.6-1.3-1.5-.4-1-.6-2.2-.6-3.6Zm74.4 11.7c.3-.8 1.4-1.4 3.5-1.8a22.4 22.4 0 0 1 3.7-.3c.9 0 1.8 0 2.7.2 2.1.2 3.5.7 4.1 1.3.8 1 1.5 5.2 2 12.7a457.8 457.8 0 0 1 1.3 41.8 406.2 406.2 0 0 1-.6 19c.2 1-1 1.7-3.6 2.2a23 23 0 0 1-7.7.3c-2.6-.4-4-1.1-4.3-2.2-.3-1.5-.6-14-1-37.2a4691 4691 0 0 1-.1-36Zm42.8 34a549.4 549.4 0 0 1-2-22.5c-.6-7.5-.7-14-.3-19.6.5-5.6 1.4-8.7 3-9.2a20.6 20.6 0 0 1 6.6-1.1c2-.2 3.7-.2 5.4-.1a36.5 36.5 0 0 1 25.4 9.6 34 34 0 0 1 9.4 14.4 46.6 46.6 0 0 1 2.8 17.6c-.2 4.7-.8 8.8-1.8 12.4-1 3.6-2.5 7-4.6 10a25.9 25.9 0 0 1-8.2 7.7c-3.4 2.1-7.6 3.8-12.7 5a81.1 81.1 0 0 1-17.8 2.4c-.6 0-1.4-2.6-2.4-7.7-1-5.2-2-11.5-2.8-18.9Zm12.6-23.2v1a175.5 175.5 0 0 0 1.7 14.8 1098 1098 0 0 0 2.8 19.9c5.7-1.9 10.4-5 14.3-9.5 3.8-4.5 5.6-9.5 5.4-15.1v-1l-.5-3.6a35.3 35.3 0 0 0-3-9.6c-.9-1.5-2-3-3.2-4.4a20.7 20.7 0 0 0-4.4-3.8c-1.6-1-3.6-2-5.9-2.8-2.3-.7-4.8-1.2-7.6-1.4a167.5 167.5 0 0 0 .4 15.5Zm58.2 25.4v.5c0 5 .5 9.8 1.7 14.2 1.1 4.5 3.2 8.6 6 12.2a24 24 0 0 0 18.4 9 21 21 0 0 0 4.9-.6c3.8-1 7-3.2 10-6.2a44.2 44.2 0 0 0 10.5-22.1c.9-6.2 1.3-11.7 1.3-16.7 0-18.3-6.2-29.2-18.7-32.7a19.9 19.9 0 0 0-4-.2h-.7a33.8 33.8 0 0 0-9.4 1.4c-1.8.6-3.3 1.3-4.5 2.3-3.1 2.5-5.8 5.9-8.2 10.1a58 58 0 0 0-7.3 28.8Zm14.7 4.6a86.2 86.2 0 0 1 1.5-13.6 42.4 42.4 0 0 1 2-7 30.7 30.7 0 0 1 4.8-9.1c1-1.4 2.2-2.4 3.5-3a6.2 6.2 0 0 1 4-.7c1 0 2 .4 2.7 1a7 7 0 0 1 2 2c.5.8 1 1.6 1.2 2.4a11.3 11.3 0 0 1 .9 2.8c.9 2.8 1.3 6 1.3 10a56.9 56.9 0 0 1-.8 8.7 114.3 114.3 0 0 1-2.7 9.3 68 68 0 0 1-2.1 4.9c-.8 1.6-1.7 3-2.7 4.1-1 1.2-2 2.1-3.2 2.7-.8.5-1.7.7-2.6.7H550c-1.4-.3-2.8-1.1-4.3-2.4-1.4-1.2-2.5-3-3.3-5.3a24 24 0 0 1-1-7.5Z" fill="#000"/><path d="m11 72.6-4.8 1 4.9-1ZM5 30.9l5-.1H5Zm2-9.5 2.3 4.5L7 21.3Zm5.2-1.5-.9-4.9.9 5Zm6.8-.8.2 5H19.5l-.5-5Zm13.7 1L31.3 25h.1l1.3-4.8Zm12.5 6.3-3 4 3-4ZM55.8 40l-4.5 2 4.5-2Zm3.8 12-5 .9 5-.8Zm.5 5.3-5 .2 5-.2Zm-.6 12.5-4.9-.9 5 .9Zm-3.7 10.4-4.3-2.4 4.3 2.4Zm-7.5 8.4-3-4 3 4Zm-12.1 6.1L34.5 90l1.7 4.7ZM22.3 98l-.8-5 .8 5Zm-3.6.6.5 5h.2l-.7-5Zm2.8-50.3-5 .7.1.1 5-.8Zm.2 1-5 .9 5-.9Zm1.4 7.2-5 1 5-1Zm1.6 7.4-5 1 5-1Zm2.1 9.6L22 74.6l4.8-1.1Zm2.4 10-4.9 1 1.4 5.9 5.5-2.4-2-4.6Zm17.4-26.3 5-.7v-.1l-5 .8Zm-.1-1 4.9-.9v-.1l-5 1Zm-.8-3.6 4.9-1v-.2l-4.9 1.2ZM44.1 48l-4.6 1.8 4.6-1.8Zm-5.9-8.7-3.4 3.6 3.4-3.6Zm-4.6-3.4-2.4 4.4 2.4-4.4Zm-13.9-3v-5l-5.4.1.5 5.3 5-.4Zm.9 8.5 5-.7-5 .7Zm73.8-26.6-4.7-1.7v.1l4.7 1.6Zm3.5-1.8-.8-5 .8 5Zm6.4-.1-.6 5 .6-5Zm4.1 1.3 3.8-3.3-3.8 3.3Zm3.2 36.9-5 .1 5-.1Zm.1 24.1h-5 5Zm-.5 12.5-4.8-1.6-.3 1.1.1 1.2 5-.7Zm-3.6 2.2-1-5 1 5Zm-7.8.2-.6 5 .6-5ZM95.5 88l-4.9 1 5-1Zm-1-37.2h-5 5Zm-.3-29h-5 5Zm48.1 1.4 4.5 2.2v-.2l.2-.1-4.7-2Zm3.3-2-1.7-4.6 1.7 4.7Zm6.7-1.5-.7-5 .7 5Zm3.4-.1-.7 5 .7-5Zm1.5.4 2.7-4.2h-.2l-2.5 4.2Zm1.8 2.8-4.7 1.7 4.7-1.7Zm1.3 5.4-5 .8 5-.8Zm1.4 13.1-5 .4 5-.4Zm.5 5.6 5-.6-5 .6Zm2.4 26.3-5 .3 9.7 1.5-4.7-1.8Zm6-16.3-4.7-1.7 4.7 1.7Zm8.9-23.1 4.6 1.9-4.6-2Zm5-9.4 2.1 4.5h.2l.1-.2-2.4-4.3Zm2.5-.3.7-5-.7 5Zm4 1.2-2 4.6h.1l1.9-4.6Zm5.4 3-4.3 2.6.5.8.8.6 3-4Zm.5 2.7 5 .7v-.1l-5-.6Zm0 .3 5 .7-5-.7Zm-1.2 4.7-4.7-1.6 4.7 1.6Zm-2.3 6.3-4.6-1.9 4.6 1.9Zm-6 13.5-4.5-2 4.5 2Zm-2.6 5.6 4.5 2.2-4.5-2.2Zm-1.6 3.4-4.6-2v.1l4.6 2Zm-8.8 20.8-4.6-2 4.6 2Zm-5 9.8-4.2-2.6 4.3 2.6Zm-3.1 3.7-1.1-4.8h-.5l-.4.2 2 4.6Zm-6.4.2-.7 5 .7-5Zm-.4 0-.7 4.9.7-5Zm-5.2-1.7 3.7-3.4-.4-.4-.4-.3-3 4ZM149 78.3l-5 .9 5-1Zm-5.4-35.7 5-.6-5 .6Zm-1.5-19 5 .9v-.1l-5-.7Zm80.6 47-5 .1h5Zm-.1-10.9h-5 5Zm.7-27.1-5-.3 5 .3Zm3.4-19.5-.7-5H225.8l1 5Zm15-.6.1-5-.1 5Zm13 .9-.8 4.9h1.2l-.4-5Zm2.2 1.3 4.4-2.3-4.4 2.3Zm.9 3.7-5 .3v.2l5-.5Zm0 1.2 5 .1v-.1h-5Zm-.2 3.2 5 .7-5-.7Zm-1.2 3.8-4.4-2.4v.1l4.4 2.3Zm-2 1.7.4 5-.4-5Zm-12.4 0v5-5Zm-4.2 0v-5h-4.4l-.5 4.4 5 .6Zm-.2 5.7h-5v.1l5-.1Zm.2 6.5-5 .1v.1l5-.2Zm0 3.2-5-.3V43.7h5Zm0 .4h-5v5h5v-5Zm11 .6.7-5h-.1l-.5 5Zm3 .3-.3 5 .4-5Zm3.1.3 1.3-4.8-1.3 4.8Zm.8 11.1 4.9 1v-.1l-5-.9Zm-18 .8.3-5-5.3-.4v5.3h5Zm-.4 9.8-5-.2 5 .2Zm-.2 9.7-5-.1-.1 4.8 4.7.3.4-5Zm11.1.2-.1-5h-.1l.2 5Zm7.3.1.4-5-.4 5Zm3 1.2-4.8 1.3v.2l4.8-1.5Zm.4 10-4.9-1.3 4.9 1.3Zm-.7 1.6v-5h-1.1l-1 .5 2.1 4.5Zm-15.4.8v-5 5Zm-4.5 0 .1-5h-.1v5Zm-13.8-.7-1 4.9 1-4.9Zm53.5-56.8 5-.4v-.1l-5 .5Zm.1-6 2.7 4.3.2-.2.3-.2-3.2-3.9Zm4.9-2.3-1.7-4.7 1.7 4.7Zm8.2-2 .8 5h.1l-.9-5Zm1.8-.3-.6-5 .6 5Zm7.7-.4v5-5Zm15.6 7-4.1 2.8v.1l4.1-2.9Zm5 9.1 4.7-1.7-4.7 1.7Zm1.6 6.3-5 .5V45.3l5-.8Zm.2 2 5-.1h-5Zm-.6 7.1-5-1v.1l5 1Zm-4.2 10.8 4.3 2.5v-.1l-4.3-2.4Zm-1.8 3.3 4.3 2.4V70l-4.3-2.3Zm-.5 1.5-3.8 3.2 3.8-3.2Zm6.5 6.8-3.6 3.5 3.6-3.5Zm11 12.5 4.1-2.8v-.2l-.2-.2-4 3.2Zm.1.4-5 .6 5-.6Zm-2 3.3 3.6 3.4-3.6-3.4Zm-6.1 4.8 2.4 4.4-2.4-4.4Zm-3 1.1-.7-5 .6 5Zm-1.6-.4-3.6 3.4 3.6-3.4Zm-16.6-20.3-3.9 3.2.1.1 3.8-3.3Zm-2.7-.7.6 5 .6-.1.5-.2-1.7-4.7Zm0 0-.7-5-.5.1-.4.2 1.5 4.7Zm-1.3 1-4.3-2.5 4.3 2.5Zm-.2 1.5 4.9-.9-5 1Zm1.2 6-5 1 5-1Zm1.4 7-5 .8 5-.8Zm.5 3.6 5-.6-5 .6Zm.3 2.4-5 .4v.2l5-.6Zm-2.8 3-2.3-4.5 2.3 4.5Zm-5.6 1.7.7 5-.7-5Zm-.6 0 .5 5h.1l-.6-5Zm-3.3-1.3 5-.6v-.2l-.1-.3-4.9 1.1ZM283.5 65l4.9-1-4.9 1ZM280 46.7l-4.9.9 5-.9ZM278.4 36l-5 .6 5-.6Zm13.9.9-5 .6v.1l5-.7Zm2.5 13.5-5 1 5-1Zm2.5 13.5 5-.6V63l-5 .7Zm1.4 1 .6 5 .3-.1h.3l-1.2-5Zm6.9-4.2 3.7 3.3-3.7-3.3Zm4-7.6-4.8-1.2 4.8 1.2Zm.3-5.8-5 .7 5-.7Zm-.5-2.5 4.8-1.4-4.8 1.4Zm-5.2-6.4-2.5 4.3 2.5-4.3Zm-10.7-2.8.4-5h-.1l-.3 5Zm47-29.3L336.9 3V3l3.8 3.2Zm3-1.2.3-5-.3 5Zm0 0-.3 5 .4-5Zm5.2.3.2-5-.2 5ZM373 6.6l.4-5-.4 5Zm2 .1.4-5-.3 5Zm9.8 1 .6-5-.6 5Zm6 1.3-2.8 4.2 2.7-4.2Zm1 3.8 5-.1-5 .1Zm0 2 5 .3-5-.4Zm-1 4.1-4.6-1.7 4.7 1.7Zm-2.9 3v5-5Zm-2.8-.2.4-5h-.2l-.2 5Zm-2.7-.2.7-5h-.1l-.6 5Zm-4-.5.5-5h-.5v5Zm-1.6 0 .3-5h-.2l-.1 5Zm-2.6.5 5 .2V21.4h-5Zm-3.4 58 5 .4-5-.4Zm-1.3 2.7-3.4-3.6h-.1l3.5 3.6Zm-2.7 1 .2-5-.2 5Zm-7.4-.3-.4 5 .4-5Zm-2.7-1.3-3.8 3.2 3.8-3.2Zm-1-2.8h-5 5Zm.8-31.3-5-.1 5 .1Zm.7-27.2 5 .1v-.9l-5 .8Zm-10.8-1.2.1-5-.1 5Zm-5.1-.2.3-5-.3 5Zm-.6 0-.7 4.9H340.3l.4-5Zm72.5 6.6-4.7-1.7v.1l4.7 1.6Zm3.5-1.8-.8-4.9.8 5Zm6.4-.1-.6 5 .6-5Zm4.1 1.3 3.8-3.2v-.1l-3.8 3.3Zm3.1 37h-5 5Zm.2 24h-5 5Zm-.6 12.5-4.7-1.6-.4 1.1.2 1.2 5-.7Zm-3.6 2.2-1-4.9 1 4.9Zm-7.7.3-.7 5 .7-5Zm-4.3-2.2-5 1h.1l4.9-1Zm-1-37.2h-5v.1h5Zm-.3-29h-5 5Zm43 27-5 .6 5-.6Zm-2.3-42 5 .3-5-.4Zm3-9.3 1.7 4.6h.1l-1.9-4.6Zm5.1-1-.3-5h-.1l.4 5Zm7-.2-.3 5H468.8V7Zm13.5 2.2-1.8 4.7 1.8-4.7Zm11.8 7.4-3.3 3.7 3.3-3.7Zm9.4 14.4-4.7 1.6 4.7-1.6Zm2.7 12.4-5 .3 5-.3Zm0 5.2-5-.2 5 .2ZM504.6 61l-4.8-1.3 4.8 1.3ZM500 71l-4.1-2.8 4 2.9Zm-8.2 7.7-2.6-4.2 2.6 4.2Zm-12.7 5-1.2-4.8 1.2 4.8ZM465 86l-.4-5 .3 5Zm-3.8.2v5h.2l-.2-5Zm7.4-49.8-5 .3 5-.3Zm0 1-4.9.4 5-.4Zm.8 7.3-5 .6 5-.6Zm1 7.5-5 .6 5-.6Zm1.2 9.7-5 .7 5-.7Zm1.5 10.2-5 .6.8 6 5.7-1.9-1.5-4.7Zm19.7-24.6 5-.2V47l-5 .4Zm0-1 5-.4v-.1h-.1l-5 .4Zm-.5-3.6 5-.7V42l-5 .8Zm-1.2-4.8-4.8 1.4 4.8-1.4Zm-5-9.2-3.8 3.3 3.8-3.3Zm-4.4-3.8-2.7 4.2 2.7-4.2Zm-13.5-4.2.4-5-5.3-.4v5.3h5Zm.1 8.5 5-.2-5 .2Zm58.5 32.4h-5 5Zm0 .5h5-5Zm1.7 14.2 4.8-1.2-4.8 1.2Zm16.8 20-1.7 4.6.1.1 1.6-4.8Zm7.6 1.3v5h.1v-5Zm4.9-.7 1.3 4.9-1.3-4.9Zm10-6.2-3.7-3.5 3.6 3.5Zm6.9-10.3-4.6-2.1 4.6 2Zm3.6-11.8 4.9.7-5-.7Zm-17.4-49.4 1.4-4.8h-.2l-.2-.1-1 4.9Zm-1.4-.2-.6 5h.2l.4-5Zm-2.5 0v5h.1l-.1-5Zm-5.3.3.5 5h.1l-.6-5Zm-9.4 3.4-3-4h-.1l-.1.1 3.2 3.9Zm-13.6 23.8-4.9-1.3 4.9 1.3Zm12.8 19.7-5-.1v.1h5Zm.4-7.3 5 .6-5-.6Zm1-6.3-4.8-1.1 4.9 1Zm.8-2.8 4.8 1.4-4.8-1.4Zm3.4-9 4.4 2.4-4.4-2.4Zm6.2-7.4-2.3-4.4 2.3 4.4Zm4-.6-.8 5h.5l.3-5Zm2.7 1-3 4 .1.1h.1l2.8-4Zm3.2 4.4-4.7 1.8.1.1 4.6-1.9Zm.7 2-5 1 .1.2v.2l4.9-1.4Zm.2.8h-5v.8l.2.8 4.8-1.6Zm1 15.7-5-.5 5 .5Zm-.5 3 4.9 1.1-4.9-1Zm-1 4.4-4.9-1.3 4.8 1.3Zm-6.5 14-3.8-3.4v.1l3.8 3.2Zm-3.2 2.6-2.4-4.4 2.4 4.4Zm-2.6.7v-5h-.5l.5 5Zm-1.2 0-1 4.8h.1l.9-4.9Zm-4.3-2.4-3.3 3.8 3.3-3.8Zm-3.3-5.3-4.8 1.5 4.8-1.5Zm-1-7-5-1V67h5ZM16 71.6a544.4 544.4 0 0 1-4.1-22L2 51.2a554.4 554.4 0 0 0 4.2 22.4l9.8-2Zm-4.1-22A130 130 0 0 1 10 30.8l-10 .1c0 6 .8 12.7 2 20.3l9.9-1.6ZM10 30.8c0-2.7.1-4.4.3-5.4l.2-.6s-.4.7-1.2 1L4.8 17c-3 1.5-3.9 4.6-4.2 6.4C0 25.3 0 28 0 31l10-.2Zm-.6-5h.2c.2-.2.5-.2.8-.3a32 32 0 0 1 2.7-.7L11.2 15c-2.5.5-4.8 1-6.5 2l4.7 8.8Zm3.6-1 1.4-.2-1.6-9.8-1.5.2 1.7 9.9Zm1.4-.2 4.8-.5-.4-10c-2 .1-4 .3-6 .7l1.6 9.8Zm5-.5c4.5-.4 8.5-.1 12 .9l2.7-9.7C29.2 14 24 13.6 18.5 14.2l1 10Zm12 .9c3.5 1 7.1 2.7 10.8 5.4l6-8a42.6 42.6 0 0 0-14.2-7L31.4 25Zm10.8 5.5a29 29 0 0 1 9.1 11.4l9-4.1a39 39 0 0 0-12.2-15.4l-5.9 8ZM51.3 42c1.6 3.5 2.8 7 3.4 10.8l9.8-1.6c-.7-4.6-2.1-9.1-4.1-13.4L51.3 42Zm3.4 10.8a39.7 39.7 0 0 1 .4 4.6l10-.4a49.7 49.7 0 0 0-.6-5.8l-9.8 1.6Zm.4 4.6c.3 4.4 0 8.2-.5 11.4l9.9 1.8c.7-4.2.9-8.7.6-13.7l-10 .5ZM54.6 69c-.5 3-1.6 6-3.1 8.8l8.7 4.9c2.1-3.8 3.6-7.8 4.3-12l-9.9-1.7Zm-3.1 8.8a20.9 20.9 0 0 1-6.1 6.8l5.9 8c3.7-2.7 6.7-6 8.9-10l-8.7-4.8Zm-6.2 6.8c-2.6 2-6.1 3.8-10.8 5.4l3.3 9.4c5.3-1.8 9.8-4 13.5-6.8l-6-8ZM34.5 90c-3.7 1.3-8 2.4-13 3.2l1.6 9.9c5.5-1 10.4-2.1 14.7-3.7L34.5 90Zm-13 3.2a131.8 131.8 0 0 1-3.5.5l1.4 10 3.7-.6-1.6-10Zm-3.3.5c1.8-.2 3 .7 3.4 1 .5.4.7.7.7.8l-.2-.6c-.4-1-1-2.6-1.7-5l-9.6 2.7A64.9 64.9 0 0 0 14 101c.2.3.6 1 1.3 1.4.5.5 2 1.5 3.9 1.2l-1-9.9Zm2.2-3.9C19 85 17.4 78.8 16 71.6l-9.8 2c1.5 7.4 3 13.8 4.6 19l9.6-2.9Zm-3.8-40.6.2 1 9.8-1.6-.1-1-9.9 1.6Zm.2 1 1.4 7.5 9.8-2-1.4-7-9.8 1.6Zm1.4 7.5 1.6 7.4 9.7-2.1-1.5-7.4-9.8 2Zm1.6 7.4 2.2 9.6 9.7-2.2-2.2-9.5-9.7 2Zm2.2 9.7 2.3 9.9 9.8-2.3-2.4-10-9.7 2.4ZM31.2 88a36.1 36.1 0 0 0 15.4-12.4l-8.1-5.8c-2.9 4-6.6 7-11.3 9l4 9.2Zm15.4-12.4a26.4 26.4 0 0 0 5-19l-10 1.2c.6 4.3-.4 8.2-3.1 12l8.1 5.8Zm5-19.2-.1-.6a888.4 888.4 0 0 1-.1-.5L41.5 57l.1.5v.5l10-1.6Zm-.2-1.2-.8-3.7-9.8 2.2a121.1 121.1 0 0 1 .7 3.4l9.9-1.9Zm-.8-3.8c-.5-1.7-1.1-3.5-1.9-5.4L39.5 50l1.4 4 9.7-2.5ZM48.8 46c-.8-2-1.7-3.8-2.9-5.5l-8.3 5.5c.7 1.1 1.3 2.3 1.9 3.7l9.3-3.7Zm-2.9-5.5a27.3 27.3 0 0 0-4.3-5l-6.8 7.3c1.2 1.1 2.1 2.2 2.8 3.2l8.3-5.5Zm-4.2-5a25.7 25.7 0 0 0-5.8-4.1l-4.7 8.8a15.7 15.7 0 0 1 3.6 2.6l6.9-7.3Zm-5.7-4a29 29 0 0 0-7.4-2.8l-2.3 9.8c2 .4 3.7 1 4.9 1.7l4.8-8.8Zm-7.4-2.8c-2.8-.6-5.8-1-9-.9l.2 10c2.4 0 4.6.2 6.5.7l2.3-9.8Zm-13.8 4.5.8 8.7 10-1.3-.9-8.1-10 .7Zm.8 8.7 1 7 9.9-1.4-1-6.9-9.9 1.3Zm83.5-25.5a3 3 0 0 1-1.3 1.7h.2l.8-.3L97 8.1c-1.3.2-2.6.5-3.8 1.2a7 7 0 0 0-3.6 3.8l9.4 3.4Zm-.3 1.4a17.4 17.4 0 0 1 2.8-.2v-10c-1.5 0-3 .1-4.5.4l1.7 9.8Zm2.8-.2 2.1.1 1.2-10a28.2 28.2 0 0 0-3.3-.1v10Zm2.2.1a13.9 13.9 0 0 1 1.6.3c.2 0 .1 0 0 0 0 0-.4-.2-.7-.6l7.5-6.6a8.2 8.2 0 0 0-3.7-2.3c-1.1-.4-2.4-.6-3.7-.7l-1 10Zm.9-.4c-.6-.6-.6-1-.5-.5l.4 2 1 8.3 9.9-.7a111.4 111.4 0 0 0-1.7-12.4c-.2-.7-.6-2-1.6-3.2l-7.5 6.5Zm.8 9.8c.6 7.4 1 15.4 1 24l10-.2c-.1-8.8-.5-17-1-24.5l-10 .7Zm1 24 .3 17.5h10c0-5.6 0-11.5-.2-17.7l-10 .2Zm.3 17.5V75l10 .2v-6.6h-10Zm0 6.5a251.5 251.5 0 0 1-.4 10.7c0 .7-.1.6 0 .2l9.5 3.1c.3-.8.4-1.8.5-2.3l.1-2.8.2-8.8-10-.1Zm-.6 13.2c-.1-1 .1-2 .6-2.7.4-.7.8-1 1-1 0-.1 0 0-.2 0l-1 .3 2 9.8c1.4-.3 3-.8 4.4-1.6 1.4-.9 3.6-3 3.1-6.2l-9.9 1.4Zm.4-3.4a18 18 0 0 1-3.6.3v10a28 28 0 0 0 5.6-.5l-2-9.8Zm-3.6.3-2.5-.1-1.3 9.9 3.8.2v-10Zm-2.5-.1-1.2-.2-.3-.1.6.4c.3.4.7 1 .8 1.6L90.6 89a7 7 0 0 0 4 4.8c1.4.7 3 1 4.6 1.3l1.3-10Zm0 1.8-.2-2.4-.2-7.2c-.2-6.2-.4-15-.5-26.7l-10 .2a2508.6 2508.6 0 0 0 .7 34.1c0 1.6.2 3.1.3 4l9.8-2Zm-1-36.3-.3-28.9h-10l.4 29h10Zm-.3-28.9a243.2 243.2 0 0 1 .1-6.1v-.1a2.9 2.9 0 0 1 0 .1l-.2.7-9.4-3.2-.3 1.3a13 13 0 0 0 0 .6l-.1 1.6v5.1h10Zm47.8 3.3a4.1 4.1 0 0 1-1 1.4l-.2.2.5-.3 1.1-.4-3.5-9.4c-1.1.4-2.2.9-3 1.4a9 9 0 0 0-1.6 1c-.4.4-1.2 1.2-1.6 2.3l9.3 3.8Zm.4.9c1.6-.6 3.5-1.1 5.6-1.4l-1.4-9.9c-2.7.4-5.3 1-7.7 1.9l3.5 9.4Zm5.5-1.4h2.1l1.4-10c-1.5-.2-3.1-.1-4.8.1l1.3 10Zm2.1 0c.1 0 .1 0 0 0l-.3-.3 5-8.6a9 9 0 0 0-3.3-1l-1.4 9.8Zm-.5-.3-.4-.4-.1-.1v.2l.3.5 9.4-3.3a10 10 0 0 0-3.8-5.4l-5.4 8.5Zm-.2.3c.4 1 .7 2.4 1 4.4l9.9-1.5c-.3-2.4-.8-4.5-1.5-6.4l-9.4 3.5Zm1 4.4c.4 2.1.6 4.1.8 6l10-1c-.3-2.1-.5-4.3-1-6.6l-9.8 1.6Zm.8 6 .6 6.7 10-.7-.6-7-10 1Zm.6 6.8.6 5.8 10-1.3-.6-5.4-10 .9Zm.6 5.8c.9 7 1.7 15.7 2.4 26l10-.8c-.8-10.3-1.6-19.2-2.5-26.5l-10 1.3Zm12 27.4 6-16.4-9.4-3.4-5.9 16.1 9.3 3.7Zm6-16.4a597 597 0 0 1 8.8-23l-9.3-3.8c-2.4 6-5.4 13.7-9 23.4l9.5 3.4Zm8.8-23a72.9 72.9 0 0 1 3.6-7.4c0-.1 0 0 0 0l-1 .7-4.3-9a7.5 7.5 0 0 0-2.8 2.3l-1.5 2.5c-1 1.8-2 4.2-3.3 7.2l9.3 3.8Zm2.8-6.9c-.4.3-.7.3-.8.3h.2l1.4-9.9a9 9 0 0 0-5.6.9l4.8 8.7Zm-.6.4c.5 0 1.4.2 2.8.8l3.7-9.3c-1.7-.7-3.5-1.2-5-1.5l-1.5 10Zm2.9.8a23.7 23.7 0 0 1 3.3 1.6h.1-.1l-.4-.6 8.6-5a9.4 9.4 0 0 0-3.6-3.3 33 33 0 0 0-4.4-2l-3.5 9.3Zm4.2 2.4c-1-.8-1.3-1.8-1.4-2v.1l10 1.1c0-.9 0-2-.2-3.2a6.5 6.5 0 0 0-2.3-4l-6.1 8Zm-1.4-2V30.6l9.8 1.4v-.3l-9.8-1.4Zm0 .3-1 3.8 9.5 3.2c.6-2 1.1-3.9 1.3-5.6l-9.9-1.4Zm-1 3.8-2.2 6 9.2 3.8 2.5-6.6-9.5-3.2Zm-2.3 6c-.8 2.2-1.7 4.4-2.8 6.8l9.1 4c1.1-2.4 2.2-4.8 3-7l-9.3-3.7Zm-2.8 6.8c-1 2.4-2 4.6-3 6.5l9 4.3 3.1-6.7-9.1-4.1Zm-3 6.6a441.6 441.6 0 0 1-2.6 5.4l9 4.3A457.7 457.7 0 0 0 192 58l-9.1-4.1Zm-2.6 5.4-1.7 3.6 9.2 4 1.5-3.2-9-4.4Zm-1.7 3.7-4.3 10.4 9.2 3.8 4.3-10.4-9.2-3.8Zm-4.3 10.4-4.5 10.2 9.1 4.2c2-4.3 3.5-7.8 4.6-10.6l-9.2-3.8Zm-4.5 10.3a84.8 84.8 0 0 1-4.6 9.2l8.5 5.2c1.6-2.6 3.3-6 5.2-10.4l-9.1-4Zm-4.7 9.3-1.3 2c-.1 0-.1 0 0 0l.4-.3 1-.3 2.2 9.7c2.1-.5 3.5-2 4-2.7.9-1 1.6-2.1 2.4-3.4l-8.7-5Zm-.8 1.6h-.6c-.7 0-1.7 0-3.1-.2l-1.3 10c1.7.2 3.3.3 4.7.2 1.3 0 2.9-.2 4.3-.8l-4-9.2Zm-3.7-.2h-.5l-1.3 9.9h.4l1.4-9.9Zm-.5 0-2.6-.6h-.2l.7.5-7.5 6.7c1.3 1.4 3 2 4 2.4 1.2.4 2.7.6 4.3.9l1.3-10Zm-2.9-.8.7.6.1.3-.2-.5-1-3.2c-.8-3-1.7-7.4-2.8-13.3l-9.8 1.8a186.6 186.6 0 0 0 4.4 18.5l.9 1.8a7 7 0 0 0 1.8 2l5.9-8Zm-3.2-16a637.6 637.6 0 0 1-5.3-35.5l-10 1.3c1.5 12 3.3 23.9 5.4 35.9l9.9-1.8ZM148.7 42a308.2 308.2 0 0 1-1.6-17.2v-.3l-9.8-1.6a37 37 0 0 0 0 7.4l1.4 13 10-1.3ZM147 24.4v.2a3.4 3.4 0 0 1 0 .3 4.3 4.3 0 0 1-.3.5l-9-4.4c-.4.9-.5 1.7-.6 2l10 1.4Zm80.7 46.1-.1-10.8h-10l.1 11 10-.2Zm-.1-10.8c0-8.9.2-17.8.7-26.8l-10-.6c-.5 9.2-.7 18.3-.7 27.4h10Zm.7-26.8a131.8 131.8 0 0 1 2-16.6c0-.2 0 0-.2.2a4 4 0 0 1-2.4 1.5l-2-9.8a6 6 0 0 0-3.5 2.2 9 9 0 0 0-1.2 2.2 25 25 0 0 0-1.2 4.7c-.6 3.6-1.1 8.6-1.5 15l10 .6Zm-1-14.9c2.6-.3 5.8-.5 10-.5v-10c-4.4 0-8.1.2-11.3.6l1.4 10Zm10-.5h4.3l.2-10h-4.6v10Zm4.3 0c6.3.2 10.3.5 12.3.8l1.6-9.9c-2.8-.4-7.4-.7-13.7-.9l-.2 10Zm13.5.9c-.6 0-1.3-.1-1.9-.5l-.7-.7 8.7-4.9a8 8 0 0 0-2.6-2.8 6.9 6.9 0 0 0-4.3-1.1l.8 10Zm-2.6-1.3c0 .2.3.7.3 1.6l10-.5c-.1-2-.6-4-1.5-5.8l-8.8 4.7Zm.3 1.8v.7h10V18l-10 .9Zm0 .5c0 1 0 1.8-.2 2.8l10 1.2.2-3.7-10-.3Zm-.2 2.7a6 6 0 0 1-.6 2L261 29a16 16 0 0 0 1.7-5.5l-9.9-1.4Zm-.6 2.2.3-.3a3 3 0 0 1 1.7-.7l.8 10a7.6 7.6 0 0 0 6-4.4l-8.8-4.6Zm2-1h-4.5v10h5.3l-.8-10Zm-4.5 0h-7.4l-.2 10h7.6v-10Zm-7.4 0h-4.3v10h.3a663.9 663.9 0 0 1 3.8 0l.2-10Zm-9.2 4.4a46 46 0 0 0-.3 5.4h10c0-1.6 0-3 .2-4.2l-10-1.2Zm-.3 5.4v.9h10V33h-10Zm0 1 .2 6.5 10-.3-.2-6.5-10 .3Zm.2 6.6v2.7l10 .6v-3.7l-10 .4Zm0 3v.4h10v-.4h-10Zm5 5.4c3.2 0 6.7.2 10.6.6l1-10c-4.2-.4-8-.6-11.6-.6v10Zm10.5.6 3.2.2.7-10-2.8-.2-1.1 10Zm3.2.2 1.7.2h.5l2.4-9.6c-1-.3-2.4-.4-3.9-.5l-.7 10Zm2 .2c-.7-.2-1.3-.6-1.7-1l-.5-.9v.3l.1 1h10a14 14 0 0 0-.7-4.6 6.7 6.7 0 0 0-4.5-4.4l-2.6 9.6Zm-2.1-.6c0 1.4-.2 3.4-.6 6.1l9.8 1.7c.5-3 .8-5.6.8-7.8h-10Zm-.6 6c.2-1.3.9-2.1 1.4-2.5.5-.5.9-.6 1-.7.3-.1.3-.1 0 0l-4.3.2v10c2.3 0 4.2-.1 5.7-.3.8-.2 1.7-.3 2.6-.7.5-.3 2.8-1.3 3.4-4l-9.8-2Zm-1.9-3c-4.3 0-8-.1-11-.3l-.6 10c3.3.2 7.2.3 11.6.3v-10ZM232.7 57l-.3 9.7 10 .4.3-10-10-.1Zm-.3 9.7-.2 9.8 10 .2c0-2 0-5.1.2-9.6l-10-.4Zm4.4 14.9 8.8.3V72l-8.1-.3-.7 10Zm8.8.3h2.9l-.4-10h-2.5v10Zm2.8 0 3.5-.1v-10h-3.7l.2 10Zm3.5-.1h3.4l.7-9.9a64 64 0 0 0-4.1-.1v10Zm3.4 0 .6.1c-.1 0-1.6-.6-2.1-2.5l9.6-2.6a6.2 6.2 0 0 0-3.8-4.2c-1.2-.4-2.5-.6-3.6-.7l-.7 10Zm-1.4-2.2c.3 1.2.5 2.4.5 3.8h10a22 22 0 0 0-1-6.9l-9.5 3.1Zm.5 3.8c0 1.8-.1 2.8-.3 3.4l9.7 2.6c.5-1.8.6-3.8.6-6h-10Zm-.3 3.5-.1.5a2.4 2.4 0 0 1 0-.2 4 4 0 0 1 .4-.5c.1-.2.4-.6 1-1 .5-.4 1.5-1 2.9-1v10c2.7 0 4-2 4.2-2.2.4-.5.6-1 .7-1.3.3-.6.5-1.3.6-2l-9.7-2.3Zm2.1-1.7.6-.2h-.5l-2.8.2c-2.4.2-6 .3-10.7.3l.2 10a305 305 0 0 0 15.7-.7l1.7-.5-4.2-9.1Zm-13.4.3h-4.3l-.2 10h4.7l-.2-10Zm-4.4 0a82 82 0 0 1-12.8-.6l-2 9.8c3 .6 8 .8 14.8.8v-10Zm-12.7-.6a4.7 4.7 0 0 1 3 2.4c.2.3.2.4.2 0-.2-.4-.3-1.4-.5-3-.2-3-.5-7.6-.6-13.9l-10 .2a223.7 223.7 0 0 0 1.3 19c.1.6.3 1.3.7 2 .1.4.4 1 1 1.5.4.5 1.3 1.3 2.7 1.6l2.2-9.8ZM283 32.6l-.2-3.6v-.2l-.3.8c-.2.4-.7 1.2-1.6 1.8l-5.4-8.5c-1 .7-1.6 1.6-2 2.2l-.5 1.5a40.2 40.2 0 0 0 0 7l10-1Zm-1.6-1.6c.2-.2 1.1-.7 3.3-1.5l-3.3-9.4c-2.4.8-4.7 1.8-6.4 3.2l6.4 7.7Zm3.3-1.5c2-.7 4.5-1.3 7.4-1.7l-1.6-10c-3.3.6-6.4 1.3-9 2.3l3.2 9.4Zm7.5-1.8a28.1 28.1 0 0 1 1.5-.2l-1.2-10-2.1.4 1.8 9.8Zm1.5-.2a52 52 0 0 1 7-.4l.1-10a62 62 0 0 0-8.3.5l1.2 9.9Zm7-.4c2.6 0 5 .5 7.2 1.4l3.8-9.2a28.7 28.7 0 0 0-11-2.2v10Zm7.2 1.4c2.1.9 3.5 2 4.4 3.4l8.3-5.6a19.2 19.2 0 0 0-8.9-7l-3.8 9.2Zm4.5 3.5c2 2.8 3.4 5.4 4.3 8l9.4-3.5c-1.3-3.5-3.2-7-5.6-10.3l-8.1 5.8Zm4.3 8c.7 2 1.1 3.6 1.3 5l10-1c-.3-2.5-1-5-2-7.5l-9.3 3.4Zm1.3 5.3.2 1.3 10-.2c0-1-.2-1.9-.3-2.8l-9.9 1.7Zm.2 1.2c0 2.2-.2 4.2-.6 6.2l9.9 1.9c.5-2.7.7-5.4.7-8.2l-10 .1Zm-.6 6.3c-.3 2-.8 3.5-1.4 4.8l9 4.2c1-2.2 1.8-4.7 2.3-7.3l-9.9-1.7Zm-1.4 4.8L314 62l8.7 4.8c.9-1.5 1.7-3.2 2.6-5l-9.1-4.2Zm-2.2 4.3-1.9 3.4L321 70l1.7-3.1-8.7-5Zm-1.8 3.3a10 10 0 0 0-.9 2 6 6 0 0 0-.2 1.9c0 .8.2 2.1 1.2 3.3L320 66a4.7 4.7 0 0 1 1.2 3l-.2 1.1c0 .3-.1.4 0 0l-8.7-4.8Zm.2 7.3c.8 1 3 3.3 6.6 7l7.2-7L320 66l-7.5 6.6Zm6.6 7c3.5 3.5 7 7.5 10.7 12.1l7.8-6.3a182 182 0 0 0-11.3-12.8l-7.2 7Zm10.4 11.7c-.3-.4-.5-1-.6-1.7l9.9-1.3a6 6 0 0 0-1-2.5l-8.3 5.5Zm-.6-1.7c-.1-.8 0-1.4.1-1.6l.1-.3-.3.4-.7.8 7.3 6.8c.9-.9 1.7-1.8 2.2-2.8.5-.7 1.5-2.4 1.2-4.6l-10 1.3Zm-.8-.7a20 20 0 0 1-4.9 3.8l4.9 8.7a30 30 0 0 0 7.3-5.7l-7.3-6.8Zm-4.8 3.8-1.1.5h-.2l1.3 10c1.7-.2 3.3-1 4.8-1.7l-4.8-8.8Zm-1.3.6h1c.6.2 1.2.5 1.7 1l-7.2 7c1.8 1.8 4 2 5.8 1.9l-1.3-10Zm2.7 1c-2.4-2.5-5.3-6-8.8-10.5l-8 6c3.7 4.8 6.9 8.6 9.6 11.4l7.2-6.8Zm-8.8-10.5A224 224 0 0 0 308 74l-7.5 6.6c1.3 1.4 3.7 4.4 7.3 9l7.9-6Zm-7.5-9.5A7.3 7.3 0 0 0 300 72l3.3 9.4c-.2 0-.7.2-1.5 0-.7-.2-1.2-.6-1.4-.8l7.8-6.4Zm-7.2-2.5h-.1l1.2 10h.1l-1.2-10Zm-1 .3a7.1 7.1 0 0 0-4 3.2l8.6 5a2.8 2.8 0 0 1-1.6 1.3l-3-9.5Zm-4 3.2c-1 1.6-1.1 3.4-.8 5l9.8-1.9v.8c0 .4-.2.7-.4 1l-8.6-4.9Zm-.8 5 1.2 6 9.8-2.1-1.2-5.8-9.8 1.8Zm1.2 6 1.4 6.8 9.8-1.7a201 201 0 0 0-1.4-7.2l-9.8 2Zm1.4 6.9.5 3.3 9.9-1.2a71 71 0 0 0-.6-4l-9.8 1.9Zm.5 3.3.2 2.2 10-.8a61.6 61.6 0 0 0-.3-2.6l-10 1.2Zm.2 2.4c0-.7 0-1.3.3-1.8.1-.5.4-.7.4-.8.1 0 .1 0 0 0l-.8.5 4.5 9c1.2-.7 2.6-1.5 3.6-2.6 1-1.2 2.3-3 2-5.6l-10 1.3Zm-.1-2c-1.3.6-2.6 1-3.9 1.1l1.3 10c2.5-.4 4.9-1.1 7.1-2.3l-4.5-8.9Zm-3.9 1.1h-.3l-.3.1 1.2 10 .4-.1h.3l-1.3-10Zm-.4 0-.5.1.4.1c.4.2.9.5 1.4 1 .5.7.7 1.4.8 1.9l-10 1.2c.4 2.6 2 4.4 4 5.2 1.7.7 3.5.7 4.8.5l-1-10Zm2 2.6-3.8-17.4-9.8 2.1 3.8 17.5 9.8-2.2Zm-3.8-17.4c-1.4-6-2.7-12.5-4-19.2l-9.8 2 4 19.3 9.8-2Zm-4-19.2c-1.4-6.7-2.5-12.7-3.4-18l-9.9 1.7a755 755 0 0 0 3.5 18.3l9.8-2Zm-3.4-18c-.8-4.1-1.3-7.6-1.7-10.6l-9.9 1.2 1.7 11 9.9-1.7Zm-1.7-10.6c0-1-.2-1.8-.3-2.6l-10 .8.4 3 10-1.2Zm4 2.2 2.5 13.8 9.9-2c-1.3-6-2-10.4-2.5-13.2l-9.9 1.4Zm2.6 13.8c1.2 6.1 2 10.5 2.4 13.3l10-1.5c-.5-3-1.4-7.7-2.7-13.8l-9.7 2Zm2.4 13.1a6 6 0 0 0 2.6 4.4 6.4 6.4 0 0 0 4.4 1l-1.2-10c.2 0 1.2-.1 2.4.7a4 4 0 0 1 1.7 2.7l-9.9 1.2Zm7.6 5.2a19 19 0 0 0 9.4-5.7l-7.4-6.7a9 9 0 0 1-4.5 2.7l2.5 9.7Zm9.4-5.7c2.5-2.8 4.3-6 5.2-9.7l-9.8-2.3c-.4 2-1.4 3.7-2.8 5.3l7.4 6.7Zm5.2-9.7c.6-2.5.7-5.1.4-7.7l-10 1.5a10 10 0 0 1-.1 3.8l9.7 2.4Zm.4-7.6a21.3 21.3 0 0 0-.7-3.3l-9.6 2.8.4 1.8 9.9-1.3Zm-.7-3.3c-1.3-4.1-3.8-7.3-7.6-9.4l-4.9 8.7c1.5.8 2.4 2 3 3.6l9.5-3Zm-7.5-9.4c-3.5-2-7.9-3-12.8-3.4l-.8 10c4.2.3 7 1.1 8.6 2l5-8.6Zm-13-3.4c-1.7 0-3.5.6-4.9 2l7.5 6.7a3.9 3.9 0 0 1-3 1.3l.5-10Zm-4.9 2a6.1 6.1 0 0 0-1.5 5l10-1.3a3.9 3.9 0 0 1-1 3l-7.5-6.6Zm55-19V12l-10-.7a25.5 25.5 0 0 0 0 2.5l10-.2Zm0-1.5.2-1.5-9.8-1.8a25.7 25.7 0 0 0-.3 2.6l10 .7Zm.2-1.5c.1-.7.3-1 .4-1L336.7 3a12 12 0 0 0-2.5 5.7l9.8 1.8Zm.3-1-.4.4-.8.1.7-10c-2.8-.2-5.2 1-7 3l7.5 6.5Zm-1.2.5.8-10-.8 10Zm0 0 5.4.2.4-10c-3.4 0-5-.2-5-.2l-.7 10Zm5.4.2 11.2.6.6-10-11.4-.5-.4 10Zm11.2.6 13 .8.6-10-13-.8-.6 10Zm13 .8h1l1 .1.7-10h-1l-1-.1-.8 10Zm2 .1c3.6.3 6.7.6 9.4 1l1.3-10-10-1-.7 10Zm9.4 1a47 47 0 0 1 4.3.7l-.4-.2 5.5-8.4c-1.2-.8-2.8-1.1-3.7-1.3l-4.4-.8-1.3 10Zm4 .5c-.6-.3-1-.8-1.2-1l-.2-.5.1.4v1l10-.4c0-1.3-.1-2.6-.5-3.9-.3-1-1-2.9-3-4l-5.2 8.4Zm-1.2-.2v1.4l10 .7v-2.4l-10 .3Zm0 1.4c-.1 1-.3 1.8-.7 2.8l9.4 3.5a20 20 0 0 0 1.2-5.6l-10-.7Zm-.7 2.8c-.2.6-.3.6 0 .4 0-.2.3-.4.7-.5.3-.2.7-.2 1-.2v10c4.6 0 6.8-3.8 7.7-6.3l-9.4-3.4Zm1.8-.3-2.5-.1-.8 10h3.2v-10Zm-2.7-.2c-.7 0-1.4 0-2.2-.2l-1.5 10 3.3.2.4-10Zm-2.3-.2a202.7 202.7 0 0 0-4.1-.5l-1 10 3.9.4 1.2-9.9Zm-4.6-.5h-1.3l-.7 10h1.9l.1-10Zm-1.5 0-3 .1c-.6.1-1.5.4-2.4 1-1 .7-2.3 2.2-2.3 4.4h10a4.7 4.7 0 0 1-.7 2.4c-.4.7-1 1.2-1.3 1.4-.7.5-1.3.6-1.4.6h.8l.3-10Zm-7.7 5.2c-1.4 26.6-2.5 46-3.4 58l10 .7c.9-12.2 2-31.6 3.4-58.2l-10-.5Zm-3.4 58v-.4l.3-.2 6.8 7.3a9 9 0 0 0 2.9-6l-10-.7Zm.2-.5c0-.1.2-.3.5-.4h.5l-.4 10c2.4 0 4.7-.8 6.4-2.5l-7-7.1Zm1-.5c-3.1 0-5.5-.2-7.3-.3l-.7 10 7.6.3.3-10Zm-7.3-.3.5.1.3.3-7.6 6.5a8.7 8.7 0 0 0 6 3l.8-9.9Zm.8.4a1 1 0 0 1 .3.5h-10a9 9 0 0 0 2.1 6l7.6-6.5Zm.3.6c0-5.7.3-16 .7-31.3l-10-.2-.7 31.3 10 .2Zm.7-31.3.7-27.2-10-.2-.7 27.2 10 .2Zm.6-28.1c-.3-2.3-1.9-3.4-2.5-3.8l-2-.8a19 19 0 0 0-3.3-.5l-.7 10a17.4 17.4 0 0 1 1.4.2l-.6-.3a4.6 4.6 0 0 1-2.1-3.2l9.8-1.6Zm-7.8-5-7.8-.4-.2 10c2.8 0 5.2.2 7.3.3l.7-10Zm-7.8-.4-4.9-.2-.7 10 5.4.2.2-10Zm-4.9-.2h-.5l-.8 10h.6l.7-10Zm-.2 0c1.4.2 2.1 1 2.4 1.3l.3.3-9.4 3.5a9 9 0 0 0 1.4 2.6c.8.9 2 2 3.9 2.2l1.4-10Zm2.7 1.6a6 6 0 0 1-.3-2l-10 .3c0 1.8.3 3.6 1 5.2l9.3-3.5Zm73.8 11.7a3 3 0 0 1-1.4 1.7h.2l.8-.2-1.6-9.9c-1.3.2-2.7.6-3.9 1.2a7 7 0 0 0-3.5 3.8l9.4 3.4Zm-.4 1.5a17.4 17.4 0 0 1 2.9-.3v-10c-1.5 0-3 .2-4.5.4l1.6 9.9Zm2.9-.3c.7 0 1.4 0 2 .2l1.2-10a28.2 28.2 0 0 0-3.2-.2v10Zm2.1.2a14 14 0 0 1 1.7.3c.1 0 .1 0 0 0l-.7-.6 7.4-6.7a8.2 8.2 0 0 0-3.6-2.3l-3.7-.7-1 10Zm1-.4c-.6-.7-.7-1.1-.5-.6l.4 2 .9 8.3 10-.7a111.9 111.9 0 0 0-1.7-12.3c-.2-.8-.6-2.1-1.6-3.2l-7.6 6.5Zm.8 9.7c.5 7.4.9 15.4 1 24l10-.2c-.1-8.7-.5-16.9-1-24.5l-10 .7Zm1 24c.2 6.2.2 12 .2 17.5h10c0-5.6 0-11.5-.2-17.7l-10 .2Zm.2 17.5V86l10 .1v-6.6h-10Zm0 6.5a251 251 0 0 1-.3 10.7c-.1.7-.1.6 0 .2l9.5 3.2.4-2.4.2-2.8.2-8.8-10-.1ZM425 99c-.2-1 0-2 .5-2.7.4-.6.9-1 1-1h-.1l-1 .3 2 9.8c1.4-.3 3-.7 4.3-1.6 1.4-.8 3.6-2.9 3.2-6.2l-10 1.4Zm.3-3.4a18 18 0 0 1-3.6.4v10a28 28 0 0 0 5.6-.6l-2-9.8Zm-3.6.4c-.8 0-1.6 0-2.5-.2l-1.2 10 3.7.2V96Zm-2.5-.2-1.1-.2-.3-.1s.3.1.6.5c.3.3.6.9.8 1.5l-9.8 2.2a7 7 0 0 0 3.9 4.7c1.4.8 3 1.1 4.6 1.3l1.3-9.9Zm0 1.8-.2-2.4-.2-7.2-.5-26.6-10 .1a2512.3 2512.3 0 0 0 .8 34.1c0 1.6.1 3.1.3 4l9.8-2Zm-.9-36.2-.3-29h-10l.3 29h10Zm-.3-29a246.7 246.7 0 0 1 0-6v-.2a3.1 3.1 0 0 1 0 .2l-.1.6-9.5-3.1-.3 1.2v2.2l-.1 5.2h10ZM461 59a544.6 544.6 0 0 1-2.1-22.2l-10 .7A554.2 554.2 0 0 0 451 60l10-1.2Zm-2.1-22.2a130 130 0 0 1-.2-19l-10-.7c-.4 5.9-.3 12.7.2 20.4l10-.7Zm-.2-19c.2-2.6.5-4.3.9-5.3l.2-.6c-.1.1-.5.7-1.4 1l-3.6-9.3c-3 1.2-4.3 4.2-4.8 6-.6 2-1 4.6-1.2 7.5l10 .8Zm-.2-5H458.8l.8-.2 2.7-.4-1-10c-2.4.3-4.8.7-6.6 1.4l3.8 9.3Zm3.7-.6h1.5L463 2h-1.5l.7 10Zm1.5 0c1.7-.2 3.3-.2 4.8-.1l.5-10h-6l.7 10Zm5-.1c4.5 0 8.4.6 11.8 2l3.6-9.4A41.5 41.5 0 0 0 468.7 2v10Zm11.9 2c3.4 1.2 6.8 3.3 10.2 6.3l6.7-7.4A42.6 42.6 0 0 0 484 4.6l-3.5 9.3Zm10.2 6.4a29 29 0 0 1 8 12.2l9.5-3.3a39 39 0 0 0-10.8-16.4l-6.7 7.5Zm8 12.2c1.4 3.7 2.1 7.4 2.4 11.1l10-.7c-.4-4.7-1.3-9.2-3-13.7l-9.4 3.3Zm2.4 11.1v4.7l10 .4V43l-10 .7Zm0 4.7c-.1 4.4-.6 8.1-1.5 11.3l9.6 2.6c1.1-4 1.8-8.5 2-13.5l-10-.4Zm-1.5 11.3c-.8 3-2.1 5.9-4 8.5L504 74c2.5-3.6 4.3-7.5 5.4-11.6l-9.7-2.6Zm-4 8.5a20.9 20.9 0 0 1-6.6 6.3l5.1 8.5c4-2.3 7.3-5.4 9.8-9.1l-8.2-5.7Zm-6.7 6.3a39.7 39.7 0 0 1-11.2 4.4l2.4 9.7a49.5 49.5 0 0 0 14-5.6l-5.2-8.5Zm-11.2 4.4c-3.8 1-8.2 1.6-13.2 2l.7 10a86 86 0 0 0 15-2.3l-2.5-9.7Zm-13.2 2-3.6.2.5 10 3.8-.3-.7-10Zm-3.4.2c1.8 0 3 1 3.3 1.3l.7.8-.2-.5a56 56 0 0 1-1.3-5.3l-9.8 2a64.5 64.5 0 0 0 2.5 8.6c.1.3.5 1 1 1.5.6.5 1.9 1.6 3.9 1.6l-.1-10Zm2.5-3.7c-1-5-1.9-11.1-2.7-18.5l-10 1.2c1 7.5 1.9 14 3 19.2l9.7-1.9Zm0-40.8v1.1l10-.7v-.6l-.1-.5-10 .7Zm0 1 .7 7.6 10-1.2-.7-7-10 .7Zm.8 7.6.8 7.5 10-1.2-1-7.5-9.8 1.2Zm.9 7.5 1.3 9.8 9.9-1.4-1.3-9.6-10 1.2Zm1.3 9.8 1.4 10.1 10-1.3-1.5-10.2-10 1.4Zm8 14.2c6.5-2.1 12-5.8 16.4-11l-7.5-6.5a26.1 26.1 0 0 1-12 8l3 9.5Zm16.4-11a26.4 26.4 0 0 0 6.7-18.5l-10 .3c.2 4.4-1.2 8.2-4.2 11.7l7.5 6.6Zm6.7-18.7v-1l-10 .7v1l10-.7Zm-.1-1.2a132.6 132.6 0 0 0-.4-3.7l-10 1.3.4 3.4 10-1Zm-.5-3.8c-.2-1.8-.7-3.6-1.3-5.5l-9.5 3c.5 1.5.8 2.8 1 4l9.8-1.5Zm-1.3-5.4c-.5-2-1.3-4-2.3-5.8l-8.8 4.7a20 20 0 0 1 1.5 3.9l9.6-2.8Zm-2.3-5.8c-1-1.9-2.3-3.7-3.8-5.4l-7.5 6.7c1.1 1.2 2 2.3 2.5 3.4l8.8-4.7Zm-3.8-5.3a25.7 25.7 0 0 0-5.3-4.7l-5.5 8.4a15.7 15.7 0 0 1 3.3 2.9l7.5-6.6Zm-5.3-4.6a29 29 0 0 0-7.1-3.4l-3.1 9.5c2 .7 3.5 1.4 4.7 2.2l5.5-8.3Zm-7.1-3.4c-2.8-.9-5.7-1.5-8.8-1.7l-.8 10c2.4.2 4.6.6 6.5 1.2l3-9.5Zm-14.2 3.2.1 8.7 10-.3v-8.2l-10-.2Zm.1 8.7.3 7.2 10-.6-.3-7-10 .4Zm58.5 32.3v.5h10v-.5h-10Zm0 .5c0 5.4.5 10.6 1.8 15.5l9.7-2.6c-1-3.9-1.6-8.2-1.5-12.9h-10Zm1.8 15.4a37 37 0 0 0 7 14.1l7.9-6.2a27 27 0 0 1-5.2-10.3l-9.7 2.4Zm7 14.1a29 29 0 0 0 13 9.3l3.4-9.4a19 19 0 0 1-8.5-6.1l-7.8 6.2Zm13.1 9.4c3.1 1 6.2 1.6 9.2 1.6v-10c-1.8 0-3.8-.3-6-1.1l-3.2 9.5Zm9.3 1.6c2 0 4-.3 6-.8l-2.5-9.7a16 16 0 0 1-3.7.5l.2 10Zm6.2-.9c4.7-1.3 8.8-4 12.2-7.6l-7.3-6.9c-2.3 2.5-4.9 4-7.7 5l2.8 9.5Zm12.2-7.6c3.2-3.5 5.8-7.3 7.8-11.7l-9-4.1a32.7 32.7 0 0 1-6.1 9l7.3 6.8Zm7.8-11.7c2-4.2 3.3-8.6 4-13l-9.9-1.6c-.5 3.5-1.6 7-3.2 10.5l9.1 4.1Zm4-13.1c1-6.3 1.4-12.1 1.4-17.4h-10c0 4.7-.4 10-1.3 16l9.9 1.4Zm1.4-17.4a49 49 0 0 0-5.3-24.4c-3.8-6.6-9.6-11-17-13.1l-2.7 9.6c5 1.4 8.6 4.2 11 8.5 2.6 4.4 4 10.7 4 19.4h10ZM562 14.4l-2-.3-.8 10a45.1 45.1 0 0 1 1 .1h-.2l2-9.8Zm-1.9-.2c-1-.2-2-.2-3.2-.1l.3 10h1.8l1.1-10Zm-3-.1h-.8v10h.8V14Zm-.8 0c-1.7 0-3.4 0-5.2.3l1.4 10 3.8-.3V14Zm-5 .3c-2 .2-4 .7-6 1.4l3.1 9.5a19 19 0 0 1 4-1l-1.2-9.9Zm-6 1.4c-2.2.7-4.1 1.7-5.9 3l5.9 8c.8-.6 1.8-1.1 3.1-1.5l-3.1-9.5Zm-6.1 3.1c-3.7 3-6.8 7-9.4 11.6l8.8 4.8a30 30 0 0 1 7-8.7L539 19Zm-9.4 11.6a63 63 0 0 0-5.9 14.8l9.7 2.5a53 53 0 0 1 5-12.5l-8.8-4.8Zm-5.9 14.8c-1.3 5.3-2 10.8-2 16.4h10c0-4.8.6-9.5 1.7-14l-9.7-2.4Zm22.7 21.1c0-2.6.2-4.8.4-6.8l-10-1.1-.4 7.7 10 .2Zm.4-6.8c.2-2 .6-4 1-5.9l-9.8-2.1c-.5 2.2-.9 4.5-1.1 6.9l10 1Zm1-5.9.6-2.4-9.6-2.8-.8 3.1 9.8 2.1Zm.6-2.5 1.3-3.9-9.5-3.2a90 90 0 0 0-1.4 4.4l9.6 2.7Zm1.3-3.9c.5-1.5 1-2.8 1.7-4l-8.8-4.8c-1 1.7-1.7 3.6-2.4 5.6l9.5 3.2Zm1.7-4c.7-1.4 1.5-2.6 2.4-3.8l-8-6a39.1 39.1 0 0 0-3.2 5l8.8 4.7Zm2.4-3.8c.6-.8 1.2-1.2 1.7-1.5L551 29c-2 1-3.8 2.6-5.2 4.5l8 6Zm1.7-1.5c.2-.2.4-.2.6-.2v-10c-1.9 0-3.6.5-5.2 1.3l4.6 8.9Zm.6-.2h.3l1.7-9.8-2-.2v10Zm.8.1 6-8a10 10 0 0 0-5.3-2l-.7 10Zm.2.2c.4.2.6.4.6.5l8.5-5.3a12 12 0 0 0-3.4-3.5l-5.7 8.3Zm.6.5c.3.5.6 1 .7 1.5l9.4-3.6a17.7 17.7 0 0 0-1.6-3.2l-8.5 5.3Zm.8 1.6a11.4 11.4 0 0 1 .4 1l9.8-1.9c-.2-1-.6-2-1-3l-9.2 4Zm.5 1.5.1.4v-.3a4.5 4.5 0 0 1 0-.2 4.6 4.6 0 0 1-.1-.5h10l-.1-1a7 7 0 0 0-.1-.4 23 23 0 0 0-.2-.8l-9.6 2.8Zm.2 1c.7 2.1 1.1 4.9 1.1 8.3h10c0-4.2-.5-8-1.5-11.4l-9.6 3Zm1.1 8.3c0 1.6 0 3.4-.2 5.3l9.9 1 .3-6.3h-10Zm-.3 5.3c0 .5-.1 1.3-.4 2.5l9.8 2.1.6-3.7-10-.9Zm-.4 2.5-1 4.1 9.7 2.6 1-4.6-9.7-2.1Zm-1 4.2c-.4 1.4-.8 2.8-1.4 4.3l9.3 3.7c.7-1.9 1.3-3.7 1.8-5.6l-9.7-2.4Zm-1.4 4.3a63 63 0 0 1-2 4.5l9 4.4a73 73 0 0 0 2.3-5.2l-9.3-3.7Zm-2 4.5c-.6 1.3-1.3 2.3-2 3l7.5 6.7c1.4-1.6 2.5-3.4 3.5-5.3l-9-4.4Zm-2 3.1c-.7.8-1.3 1.2-1.8 1.5l4.8 8.8c1.7-1 3.3-2.3 4.6-3.8l-7.6-6.5Zm-1.9 1.6h-.1v10c1.7 0 3.5-.4 5-1.3l-4.9-8.7Zm-.6 0h.1l-1.6 9.9h2.4l-.9-9.9Zm.3 0c-.3 0-1-.3-2-1.2l-6.6 7.6c2 1.6 4.1 3 6.6 3.4l2-9.8Zm-2-1.1a7 7 0 0 1-1.8-3.2l-9.5 3.1c1 3 2.4 5.6 4.7 7.6l6.6-7.5Zm-1.8-3.1a19 19 0 0 1-.9-5.6l-10 .2c0 3 .5 5.7 1.3 8.4l9.6-3Zm-1-4.5.2-1.5h-10v-.5l9.8 2Z" fill="#000" mask="url(#a)"/><path d="M11 72.6a549.4 549.4 0 0 1-4-22.2c-1.3-7.5-2-14-2-19.5 0-5.6.6-8.8 2-9.5 1-.5 2.7-1 5.2-1.5l1.4-.2 5.4-.6a36.5 36.5 0 0 1 26.2 7.3A34 34 0 0 1 55.8 40c1.9 3.9 3.1 8 3.8 12a44.7 44.7 0 0 1 .5 5.3c.3 4.7 0 8.8-.6 12.5-.6 3.7-1.8 7.1-3.7 10.4-1.8 3.3-4.3 6.1-7.5 8.4a44.6 44.6 0 0 1-12.1 6.1c-4 1.4-8.7 2.6-13.9 3.4a136.7 136.7 0 0 1-3.6.6c-.6 0-1.6-2.4-3.1-7.5-1.5-5-3-11.2-4.5-18.5Zm10.5-24.3.2 1a174 174 0 0 0 3 14.6 1103.7 1103.7 0 0 0 4.5 19.5c5.5-2.3 10-5.9 13.4-10.7 3.4-4.7 4.7-10 4-15.5a3052.9 3052.9 0 0 1-.1-1 125.8 125.8 0 0 0-.8-3.6 35.4 35.4 0 0 0-4-9.2c-.9-1.5-2-2.8-3.5-4.1a20.7 20.7 0 0 0-4.6-3.4 24 24 0 0 0-6.2-2.2c-2.3-.5-4.9-.8-7.7-.8a167.9 167.9 0 0 0 1.8 15.4Z" fill="#EF965A"/><path d="M94.4 14.8c.3-.9 1.5-1.5 3.5-1.8a22.4 22.4 0 0 1 3.7-.3c1 0 1.8 0 2.7.2 2.2.2 3.6.6 4.1 1.3.9 1 1.6 5.2 2.1 12.7a457.8 457.8 0 0 1 1.3 41.8 406.2 406.2 0 0 1-.6 19c.1 1-1 1.7-3.6 2.2a23 23 0 0 1-7.8.2c-2.6-.3-4-1-4.3-2.1-.3-1.6-.6-14-1-37.2a4709.3 4709.3 0 0 1-.1-36Z" fill="#539AD1"/><path d="M142.3 23.2c.2-.5 1.3-1.2 3.3-2 2-.7 4.3-1.2 6.7-1.5 1.4-.2 2.5-.2 3.4-.1a4 4 0 0 1 1.5.4c.7.5 1.3 1.4 1.8 2.8s1 3.2 1.3 5.4a120.1 120.1 0 0 1 1.4 13.1l.5 5.6c1 7.2 1.7 16 2.4 26.3l6-16.3c3.5-9.6 6.5-17.4 8.9-23.1 2.4-5.8 4-9 5-9.4.6-.4 1.4-.4 2.5-.3 1 .1 2.4.5 4 1.2 3.1 1.2 5 2.2 5.4 3 .5.4.7 1.3.5 2.7v.3a105.8 105.8 0 0 1-6.4 17.9l-3 6.6a449.4 449.4 0 0 1-2.7 5.6 123 123 0 0 0-5.9 13.8l-4.5 10.4a89.3 89.3 0 0 1-5 9.8c-1.3 2.3-2.4 3.6-3.1 3.7-1.1.5-3.3.6-6.4.2h-.4c-2.9-.5-4.6-1-5.2-1.7-1.3-1-3-7.4-5.2-19.3s-4-23.8-5.4-35.7a115 115 0 0 1-1.4-19.4Z" fill="#EF965A"/><path d="m222.8 70.6-.1-10.9c0-9 .2-18 .7-27.1.7-12.7 1.9-19.2 3.4-19.5a81.3 81.3 0 0 1 15-.6c6.3.2 10.6.5 13 .9.9-.1 1.6.4 2.2 1.3a12.5 12.5 0 0 1 1 4.8l-.3 3.3a11 11 0 0 1-1.2 3.8c-.5 1-1.2 1.6-2 1.7h-4.9a589.3 589.3 0 0 1-11.7 0 41 41 0 0 0-.2 4.8v.9a3231.1 3231.1 0 0 1 .2 9.7v.4a119.7 119.7 0 0 1 17.1 1.2c1 .3 1.5 1.7 1.5 4.2 0 1.8-.2 4-.7 7-.2.6-2.4 1-6.8 1s-8.1-.1-11.3-.3a538.4 538.4 0 0 1-.5 19.5 131.3 131.3 0 0 0 14.7.2l3.7.1c1.8.1 2.8.5 3 1.2.6 1.7.8 3.4.8 5.3 0 2-.1 3.5-.4 4.7-.3 1-.5 1.6-.7 1.6-.9.4-6 .7-15.4.8h-4.5c-6.8 0-11.4-.2-13.8-.7-1-.2-1.5-6.6-1.8-19.3Z" fill="#539AD1"/><path d="M278 33.1c-.3-3.7-.3-5.7.2-6 1-.7 2.6-1.5 4.9-2.3 2.3-.8 5-1.5 8.2-2a33.5 33.5 0 0 1 1.8-.3 57 57 0 0 1 7.7-.4c3.1 0 6.2.6 9 1.8 2.9 1.2 5.1 3 6.6 5.2 2.2 3 3.9 6 5 9.1a26.5 26.5 0 0 1 1.2 15.4c-.5 2.3-1 4.3-1.9 6a74.2 74.2 0 0 1-4.1 8c-.5.9-.6 1.4-.5 1.6l6.5 6.8a177 177 0 0 1 11.1 12.9c.1.6-.6 1.8-2 3.3a25 25 0 0 1-6.1 4.8 9 9 0 0 1-3 1.1c-.7.1-1.2 0-1.6-.4-2.5-2.7-5.6-6.3-9.2-11l-7.4-9.3c-.7-.8-1.6-1-2.7-.7a2.1 2.1 0 0 0-1.5 2.5 225.4 225.4 0 0 0 2.6 13 65.7 65.7 0 0 1 .5 3.6l.3 2.4c.1 1-.8 2-2.8 3-1.8.9-3.7 1.4-5.6 1.7h-.6c-2 .3-3.2-.2-3.3-1.3A1790.8 1790.8 0 0 1 280 46.7a226.4 226.4 0 0 1-2-13.6Zm14.3 3.7c.4 3 1.2 7.5 2.4 13.5 1.3 6.1 2.1 10.6 2.6 13.5 0 .8.5 1 1.4 1 2.6-.7 5-2.1 6.9-4.2a16.7 16.7 0 0 0 3.8-15.9c-.9-2.8-2.6-5-5.2-6.4a25.7 25.7 0 0 0-10.7-2.8c-.4 0-.7.1-1 .4-.2.3-.3.6-.2.9Z" fill="#EF965A"/><path d="M338.8 13.7a20.7 20.7 0 0 1 .3-4 7 7 0 0 1 1.5-3.5c.8-.9 1.7-1.3 2.9-1.2a1115 1115 0 0 0 16.5.8l13 .8 2 .1c3.7.3 7 .6 9.8 1 3.3.4 5.3.9 6 1.3.6.4 1 1.7 1 3.8a17.4 17.4 0 0 1-1 6.1c-.6 2-1.6 3-2.9 3a38.8 38.8 0 0 1-5.5-.4 197 197 0 0 0-5.6-.5c-1.8-.1-2.6 0-2.6.5-1.4 26.6-2.5 46-3.4 58-.1 1-.5 2-1.3 2.7-.7.7-1.6 1-2.7 1-3 0-5.6-.2-7.4-.3-1 0-2-.5-2.7-1.3a4 4 0 0 1-1-2.8 3489.5 3489.5 0 0 1 1.5-58.5c0-.4-1.2-.7-3.3-.9a163.4 163.4 0 0 0-13.2-.6c-.5 0-1-.6-1.3-1.5-.4-1-.6-2.2-.6-3.6Z" fill="#539AD1"/><path d="M413.2 25.5c.3-.8 1.4-1.4 3.5-1.8a22.4 22.4 0 0 1 3.7-.3c.9 0 1.8 0 2.7.2 2.1.2 3.5.7 4.1 1.3.8 1 1.5 5.2 2 12.7a457.8 457.8 0 0 1 1.3 41.8 406.2 406.2 0 0 1-.6 19c.2 1-1 1.7-3.6 2.2a23 23 0 0 1-7.7.3c-2.6-.4-4-1.1-4.3-2.2-.3-1.5-.6-14-1-37.2a4691 4691 0 0 1-.1-36Z" fill="#EF965A"/><path d="M456 59.5a549.4 549.4 0 0 1-2-22.5c-.6-7.5-.7-14-.3-19.6.5-5.6 1.4-8.7 3-9.2a20.6 20.6 0 0 1 6.6-1.1c2-.2 3.7-.2 5.4-.1a36.5 36.5 0 0 1 25.4 9.6 34 34 0 0 1 9.4 14.4 46.6 46.6 0 0 1 2.8 17.6c-.2 4.7-.8 8.8-1.8 12.4-1 3.6-2.5 7-4.6 10a25.9 25.9 0 0 1-8.2 7.7c-3.4 2.1-7.6 3.8-12.7 5a81.1 81.1 0 0 1-17.8 2.4c-.6 0-1.4-2.6-2.4-7.7-1-5.2-2-11.5-2.8-18.9Zm12.6-23.2v1a175.5 175.5 0 0 0 1.7 14.8 1098 1098 0 0 0 2.8 19.9c5.7-1.9 10.4-5 14.3-9.5 3.8-4.5 5.6-9.5 5.4-15.1v-1l-.5-3.6a35.3 35.3 0 0 0-3-9.6c-.9-1.5-2-3-3.2-4.4a20.7 20.7 0 0 0-4.4-3.8c-1.6-1-3.6-2-5.9-2.8-2.3-.7-4.8-1.2-7.6-1.4a167.5 167.5 0 0 0 .4 15.5Z" fill="#539AD1"/><path d="M526.8 61.7v.5c0 5 .5 9.8 1.7 14.2 1.1 4.5 3.2 8.6 6 12.2a24 24 0 0 0 18.4 9 21 21 0 0 0 4.9-.6c3.8-1 7-3.2 10-6.2a44.2 44.2 0 0 0 10.5-22.1c.9-6.2 1.3-11.7 1.3-16.7 0-18.3-6.2-29.2-18.7-32.7a19.9 19.9 0 0 0-4-.2h-.7a33.8 33.8 0 0 0-9.4 1.4c-1.8.6-3.3 1.3-4.5 2.3-3.1 2.5-5.8 5.9-8.2 10.1a58 58 0 0 0-7.3 28.8Zm14.7 4.6a86.2 86.2 0 0 1 1.5-13.6 42.4 42.4 0 0 1 2-7 30.7 30.7 0 0 1 4.8-9.1c1-1.4 2.2-2.4 3.5-3a6.2 6.2 0 0 1 4-.7c1 0 2 .4 2.7 1a7 7 0 0 1 2 2c.5.8 1 1.6 1.2 2.4a11.3 11.3 0 0 1 .9 2.8c.9 2.8 1.3 6 1.3 10a56.9 56.9 0 0 1-.8 8.7 114.3 114.3 0 0 1-2.7 9.3 68 68 0 0 1-2.1 4.9c-.8 1.6-1.7 3-2.7 4.1-1 1.2-2 2.1-3.2 2.7-.8.5-1.7.7-2.6.7H550c-1.4-.3-2.8-1.1-4.3-2.4-1.4-1.2-2.5-3-3.3-5.3a24 24 0 0 1-1-7.5Z" fill="#EF965A"/><path d="M205.5 134.6c0-1 0-1.7.3-2.4.1-.3.3-.4.5-.3H217.4c.4 0 .6.3.8 1a5 5 0 0 1 0 2c0 .8-.3 1.1-.6 1.1a94.4 94.4 0 0 1-9.1 0h-2.2c-.4 0-.7-.4-.8-1.4Zm26.2-.9v-12.4c0-.3.4-.5 1.2-.6a10.5 10.5 0 0 1 4.8.3l.2.4v9.5c1.6-2.2 3.5-4.5 5.6-6.8 1.9-2.1 3-3.2 3.5-3.2h.1c.7.3 1.3.6 1.8 1a7.7 7.7 0 0 1 1.7 1.4v.7l-1 1.4a72.2 72.2 0 0 1-6.1 7.8l-1.4 1.7a22 22 0 0 1 2.1 2.5 65.3 65.3 0 0 1 4.2 5.7l1.8 3.4v.6a71.7 71.7 0 0 1-3.5 2.7c-.1 0-.4 0-.6-.2l-.7-.5-3-4a619.8 619.8 0 0 1-3.2-5.3c-1-1.5-1.5-2.3-1.6-2.2v.2a75.4 75.4 0 0 0 .3 7.8v.5c0 1 0 2-.2 3.1 0 .4-.8.5-2.4.5a40.9 40.9 0 0 1-3.2-.2l-.1-.3-.2-3a528.4 528.4 0 0 1 0-12.5Zm22 13.4c0-.8 1-5 3.4-12.5a76.2 76.2 0 0 1 4.1-12c.2-.2.9-.2 1.9-.2h.7a9 9 0 0 1 2.3.1 61 61 0 0 1 3.7 12.1c2 7.4 3 11.6 3 12.6v.1c0 .2-.1.3-.2.3 0 0-.2.2-.5.2l-1.4.3-1 .2h-.6l-.8-.5a.8.8 0 0 1-.2-.3l-2.3-8.9a46.9 46.9 0 0 1-4.4.1 181.8 181.8 0 0 1-2.8 9.4l-.6.3-1.2.2h-1.3l-1.3-.5c-.4-.3-.6-.6-.6-1Zm8.4-13h3a65.1 65.1 0 0 1-1.5-6l-1.5 6Zm14.2 8.8a80.3 80.3 0 0 1 .2-9.9c.1-3.6.4-6.3.7-8 0-.3.4-.5 1.1-.7a6.7 6.7 0 0 1 2.2 0c.7 0 1.1.3 1.2.6l.9 2.3a474 474 0 0 1 3.4 10.1 474.8 474.8 0 0 1 4.5-12.6c0-.3.5-.4 1.2-.5a12 12 0 0 1 2.2-.1c.8 0 1.3.2 1.5.4a331 331 0 0 1 .2 24c-.2.4-.8.5-1.7.5h-.6c-1.3 0-2-.3-2.2-.6V145.6a931.1 931.1 0 0 1 .5-12l-1.5 5.8-2 7c0 .2-.6.3-1.4.3h-.3c-1 0-1.6-.1-1.7-.3a198.1 198.1 0 0 1-3.8-12 62.2 62.2 0 0 0 .3 6.8l.1 3.3v.2c0 1.3 0 2.5-.2 3.5 0 .3-.4.5-1.1.6a7.8 7.8 0 0 1-2.2 0c-.7 0-1.1-.2-1.2-.4-.2-.6-.3-2.4-.3-5.5Zm23.8-5.8v-4.5c0-4.8 0-7.3.3-7.5 1.7-.6 3.3-.9 4.8-.9a9 9 0 0 1 4 1c2.5 1.2 4 3.3 4.6 6.3a9.4 9.4 0 0 1 0 3.8 7.4 7.4 0 0 1-1.6 3c-.7.8-1.6 1.6-2.6 2.1-1 .6-2.2 1-3.4 1.3-.1 0-.3 0-.4.2l-.1.4.2 4.2v.3c0 1.3 0 2.3-.2 3l-1.4.3a20 20 0 0 1-2.5-.1c-.9-.2-1.3-.3-1.4-.6l-.3-12.3Zm4.5-8.3a161.5 161.5 0 0 1 .4 9c.2.1.4.2.5.1 1.3-.3 2.3-.9 3.2-1.7a4 4 0 0 0 1.2-2.8v-.2a5 5 0 0 0-1.3-3.2c-1-1-2-1.7-3.4-1.8l-.4.1-.2.5Zm12 12.7v-3.3c-.1-3 0-6.2.2-9.3.2-4.3.6-6.4 1-6.5a24.3 24.3 0 0 1 5-.2c2.1 0 3.6.2 4.4.3.5 0 .8.4 1 1.2a5.4 5.4 0 0 1 0 1c0 .5 0 1-.2 1.5-.2.8-.5 1.2-1 1.3h-1.5a170.3 170.3 0 0 1-4 0v2a26.1 26.1 0 0 1 0 2.5v.7a34.9 34.9 0 0 1 5.7.4c.3 0 .4.3.5.8a5.4 5.4 0 0 1 0 1.4l-.2 1.5c0 .2-.8.3-2.3.3h-3.8v6.4a42.5 42.5 0 0 0 6 .1c.7 0 1 .2 1 .4l.3 1.7a.6.6 0 0 0 0 .2l-.2 1.4c0 .4-.1.6-.2.6a31.3 31.3 0 0 1-6.7.3c-2.2 0-3.7-.1-4.5-.3-.3 0-.5-2.2-.6-6.4Zm15.6-14.8c0-1 0-1.6.2-1.7a18.7 18.7 0 0 1 3.2-.4c.9 0 1.5.1 1.7.3.3.2 2.3 5 6 14.5 0-1.2-.2-3.5-.6-6.8l-.5-7.2c0-.2.3-.5 1-.6a9 9 0 0 1 2.4-.3c.8 0 1.4 0 2 .3a340.6 340.6 0 0 1 .6 16 37 37 0 0 1-.4 7.3c0 .2-.7.3-1.9.5a18.1 18.1 0 0 1-2.7.2 1 1 0 0 1-1-.7c-.3-.5-1-2.6-2.3-6.2-1.3-3.6-2-5.8-2.4-6.5 0 .7.2 2.8.7 6.3.4 3.2.6 5.3.6 6.4v.1c0 .4-.5.6-1.4.7a9 9 0 0 1-2.6 0c-1 0-1.4-.3-1.4-.6a647.4 647.4 0 0 0-.9-13 385.3 385.3 0 0 1-.3-8v-.6Zm29.3 8c0-1 0-1.8.3-2.5.2-.3.3-.4.5-.3h11.2c.3 0 .6.3.7 1a5 5 0 0 1 0 2c0 .8-.3 1.1-.6 1.1a94.4 94.4 0 0 1-9 0h-2.3c-.4 0-.7-.4-.8-1.4Z" fill="#000"/></svg>