<svg width="335" height="438" fill="none" xmlns="http://www.w3.org/2000/svg"><path d="m35.77 331-3.84-25.46-.74-5.53-3.14-2.4-5.6 1.84-9.57 12.53-3.02 12.96 6.8 13.6 8.52 3.83 10.24-5.92.35-5.46Zm163.13 54.32-12.36 4.7-3.76 7.42-1.2 18.56 4.69 12.36L198 433.5l11.4-6.94.39-23-10.89-18.24Z" fill="#A1A1A1"/><path d="m151.61 268.29-2.43-13.32-26.4 1.6-16.73 4.4-31.73-.94-3.49 3.06-6.75 36.84-16.23-3.24-5.07 10.64.78 21.97 7.29 5.95 14.44 14.08 18.35 4.47 15.91-8.84 7.67-17.05 4.68-21.62 49.95 75.56 15.64-4.48 20.84-17.3 2.89-10.77-17.44-18.66-16.95-26.3-15.22-36.05Z" fill="#2D5473"/><path d="m67.85 173.02-17.9-28.56 26.98-10.32 26.9 24.75 8.25 8.2 12 .77 8.95-2.71 5.25 3.62 41.06 9.22-1.82 28.38-29.34-4.08 3.11 53.92-30.7.22-14.62 5.63-32.75-2.1-8.24-8.2-1.4-12.15 8.36-61.95-4.09-4.64Z" fill="#539AD1"/><path d="m28.3 37.84 10.75 20.42 12.82 5.2 17.08-9.86 3.7-6.34-3-4.57-4.37-.28.92-14.2-5.4-1.44-6.96 6.13-9.34-8.27-4.5 1.9 1.4 12.15-10.63-5.07-2.46 4.23Zm53.4 56.05-3.27-.21-3.74-10.11 23.55-42.33 22.47-8.42 35.92 20.94 39.59 32.14 9.1 29.09-5.29 13.9-9.75-1.72 4.12-12.89c-14.25 30.66-42.6 37.46-55 37.03-37.44-4.16-51.22-27.41-53.43-38.51l-4.26-18.91Zm109.31 158.3-.6-7.72-16.09-5.42-6.76 2.85-1.37 4.3 6.27 4.79-3.84 8.52 1.9 4.5 6.55.43 1.7 7.78 6.54.42 6.1-9.47-.4-10.99Z" fill="#BF8C69"/><path d="m76.49 72.72-4.09-4.64-.67-6.62.56-8.74 2.75-8.59 10.38-8.1 2.47-4.23 5.74-4.01 2.53-5.32 10.18-4.83 11.86 2.96 9.16-6 15.63-4.47 15.08 4.26 3.94 6.83 12.96 3.02 1.76 6.7 12.08-.33 9.27 9.37 4.15 3.56 3.8 9 1.63 8.88 8.31 7.11 2.5 12.22.19 14.26 3.8 9.02-3.56 4.15-7.99 4.97-10.1 3.74-5.6 1.83-3.32-16.66-4.08-4.64-2.65-10.04-10.42-8.34-9.55-5-9.75-1.72-9.26-9.37-5.53.74-11.24-12.78-2.71-8.94-7.5-2.68.07-1.09-8.42 11.52-9.08 4.9-5.14 11.72-5.67 2.93L89.1 81.2l-7.57-1.59-5.04-6.9Z" fill="#555"/><path d="m111.68 122.12-1.2-15.42 22.3 11.3 28.1 6.19-10.6 11.37-20.81-.24-17.79-13.2Z" fill="#fff"/><path fill-rule="evenodd" clip-rule="evenodd" d="M129.78 17.66c9.79-7.88 21.71-4.17 26.53-1.19a2.73 2.73 0 1 0 2.88-4.65c-5.72-3.54-20.43-8.4-32.84 1.58a2.73 2.73 0 0 0 3.43 4.26Zm29.34 2.4a2.73 2.73 0 0 0 1.66 3.5c2.66.94 9.43 2.74 15.32 2.14a2.73 2.73 0 1 0-.56-5.44c-4.7.48-10.58-1.02-12.92-1.86a2.74 2.74 0 0 0-3.5 1.66Zm33.83 5.38a2.73 2.73 0 0 0-3.86-.25 12.83 12.83 0 0 1-6.52 2.82c-2.35.37-4.5.22-5.64 0a2.73 2.73 0 1 0-1.02 5.37c1.74.33 4.52.5 7.51.03 3-.47 6.45-1.62 9.28-4.11a2.73 2.73 0 0 0 .25-3.86Zm2.7 12.57a2.73 2.73 0 0 0 .38 3.85c1.05.85 2.74 2.5 4.21 4.53 1.5 2.06 2.57 4.24 2.76 6.2a2.73 2.73 0 1 0 5.44-.56c-.33-3.34-2.03-6.45-3.77-8.85a31.1 31.1 0 0 0-5.18-5.56 2.73 2.73 0 0 0-3.85.4Zm18.55 25.24a21.38 21.38 0 0 0-12.38-4.06 2.73 2.73 0 1 0 0 5.47c2.49 0 6.2.78 9.09 2.96 2.73 2.06 4.98 5.54 4.6 11.63a2.74 2.74 0 0 0 5.45.35c.5-7.89-2.52-13.15-6.76-16.35Zm2.2 29.6a2.73 2.73 0 0 0 .01 3.86 10.5 10.5 0 0 1 2.8 4.75c.18.82.13 1.51-.1 2.1a4.51 4.51 0 0 1-1.96 2.06 2.73 2.73 0 0 0 2.88 4.65 9.92 9.92 0 0 0 4.14-4.64 9 9 0 0 0 .4-5.3c-.67-3.16-2.72-5.92-4.3-7.5a2.73 2.73 0 0 0-3.87.02Zm-44.63-14.71a2.73 2.73 0 0 0 2 3.31c2.96.74 10.14 4.92 11 15.94a2.73 2.73 0 0 0 5.45-.42c-1.06-13.66-10.19-19.6-15.13-20.82a2.73 2.73 0 0 0-3.32 1.99Zm-27.96-25.92a2.74 2.74 0 0 0-2.35 3.07c1.01 7.57 5.37 12.9 10.2 16.41a34.94 34.94 0 0 0 13.77 5.95 2.73 2.73 0 0 0 .95-5.38 29.49 29.49 0 0 1-11.5-4.99c-3.98-2.9-7.24-7.01-8-12.71a2.73 2.73 0 0 0-3.07-2.35Z" fill="#000"/><path fill-rule="evenodd" clip-rule="evenodd" d="M127.33 40.16a2.73 2.73 0 0 0-2.66 2.8c.15 5.74 3.15 10.79 6.47 14.62a42.2 42.2 0 0 0 10 8.38 2.73 2.73 0 1 0 2.76-4.73 36.73 36.73 0 0 1-8.63-7.23c-2.93-3.39-5.03-7.25-5.13-11.18a2.73 2.73 0 0 0-2.8-2.66Zm44.68 61.24a2.73 2.73 0 0 0-3.74.99l-1.24 2.11a2.74 2.74 0 0 0 4.73 2.76l1.23-2.12a2.73 2.73 0 0 0-.98-3.74Zm-54.63-19.95a2.73 2.73 0 0 0-3.74.99l-1.23 2.1a2.73 2.73 0 1 0 4.73 2.76l1.23-2.1a2.73 2.73 0 0 0-.99-3.75Zm94.4 29a2.74 2.74 0 0 0-3.65 1.29c-.35.72-2.35 3.22-7.08 2.23a2.73 2.73 0 0 0-1.12 5.35c7.4 1.55 11.8-2.41 13.14-5.23a2.74 2.74 0 0 0-1.3-3.65Z" fill="#000"/><path fill-rule="evenodd" clip-rule="evenodd" d="M192.78 100.26a2.73 2.73 0 0 0-2.9 2.55c-.15 2.15-.13 5.54.37 8.8.25 1.64.63 3.33 1.22 4.86.57 1.49 1.43 3.04 2.74 4.16a2.73 2.73 0 1 0 3.55-4.16c-.35-.3-.78-.9-1.19-1.97-.4-1.04-.7-2.31-.92-3.71a38.2 38.2 0 0 1-.32-7.63 2.73 2.73 0 0 0-2.55-2.9Zm7.42 1.86a2.73 2.73 0 0 0-1.45 3.58c.27.65.62 1.65.8 2.5l.08.6a2.73 2.73 0 0 0 4.18 3.42 4.08 4.08 0 0 0 1.3-2.9 8.89 8.89 0 0 0-.2-2.2 19.98 19.98 0 0 0-1.12-3.54 2.73 2.73 0 0 0-3.59-1.46Zm-.56 6.95a.16.16 0 0 0 0-.04.17.17 0 0 0 0 .04Zm-78.62-76.94a2.73 2.73 0 0 0-3.4 1.87 36.1 36.1 0 0 1-5.68 11.24c-2.92 3.78-6.46 6.33-10.54 6.4a2.73 2.73 0 1 0 .1 5.47c6.47-.12 11.39-4.15 14.77-8.52 3.4-4.4 5.6-9.59 6.61-13.07a2.74 2.74 0 0 0-1.86-3.39Z" fill="#000"/><path fill-rule="evenodd" clip-rule="evenodd" d="M100.43 47.22a2.73 2.73 0 0 0-2.51 2.93c.19 2.4.15 6.06-.54 9.2a12.1 12.1 0 0 1-1.37 3.77c-.56.89-1.09 1.24-1.55 1.36a2.73 2.73 0 1 0 1.4 5.3 8.15 8.15 0 0 0 4.79-3.76 17.48 17.48 0 0 0 2.08-5.5c.83-3.82.85-8.05.64-10.8a2.73 2.73 0 0 0-2.94-2.5Z" fill="#000"/><path fill-rule="evenodd" clip-rule="evenodd" d="M91.33 64.24a2.73 2.73 0 0 0-2.13 3.23c.39 1.88.75 4.79.61 7.31a10.1 10.1 0 0 1-.53 2.98c-.13.34-.26.54-.35.65a.59.59 0 0 1-.09.1.13.13 0 0 1-.03 0 2.73 2.73 0 1 0 2.13 5.05 6.52 6.52 0 0 0 3.44-3.8c.57-1.46.8-3.12.9-4.68a36.7 36.7 0 0 0-.72-8.71 2.73 2.73 0 0 0-3.23-2.13Zm16.15-43.6a13.96 13.96 0 0 1 8.64 2.95 2.73 2.73 0 1 0 3.4-4.29 19.41 19.41 0 0 0-12.22-4.13c-5.3.16-10.8 2.9-15.15 9.92a2.73 2.73 0 1 0 4.65 2.87c3.5-5.63 7.4-7.22 10.68-7.33Z" fill="#000"/><path fill-rule="evenodd" clip-rule="evenodd" d="M92.44 31.84c2.32.01 5.16.97 7.1 1.92a2.73 2.73 0 1 0 2.42-4.9c-2.31-1.14-6.01-2.47-9.5-2.49-1.77 0-3.72.32-5.4 1.43a7.95 7.95 0 0 0-3.4 5.36 2.73 2.73 0 0 0 5.37 1.03c.21-1.1.64-1.56 1.03-1.82a4.3 4.3 0 0 1 2.37-.53Z" fill="#000"/><path fill-rule="evenodd" clip-rule="evenodd" d="M88.6 34.53a2.73 2.73 0 0 0-3.73-1.06 39.8 39.8 0 0 0-10.42 8.58c-3.33 3.93-6.16 9.18-5.47 15.12a2.73 2.73 0 1 0 5.44-.63c-.44-3.79 1.33-7.56 4.2-10.96a34.34 34.34 0 0 1 8.91-7.33 2.73 2.73 0 0 0 1.06-3.72Zm-5.77 13.74a2.73 2.73 0 0 0-2.52 2.94c.08 1-.03 2.5-.53 3.72-.47 1.14-1.1 1.69-2.03 1.81a2.73 2.73 0 1 0 .72 5.42c3.49-.46 5.43-2.85 6.37-5.15.9-2.22 1.05-4.64.93-6.22a2.73 2.73 0 0 0-2.94-2.52Z" fill="#000"/><path fill-rule="evenodd" clip-rule="evenodd" d="M74.24 58.02a2.73 2.73 0 0 0-3.83.51c-1.3 1.72-2.8 5.74-.84 10.37a2.73 2.73 0 0 0 5.04-2.13c-1.09-2.57-.14-4.54.14-4.92a2.73 2.73 0 0 0-.5-3.83Zm2.11 11.73a2.73 2.73 0 0 0-2.9 2.56c-.16 2.49.96 8.08 7.06 9.72a2.73 2.73 0 0 0 1.41-5.29 3.75 3.75 0 0 1-2.48-1.86 4.45 4.45 0 0 1-.53-2.22 2.73 2.73 0 0 0-2.56-2.9Z" fill="#000"/><path fill-rule="evenodd" clip-rule="evenodd" d="M78.19 74.46a2.73 2.73 0 0 0-3.66 1.26c-1.62 3.32-3.08 8.46-2.64 13.17.23 2.4.97 4.87 2.63 6.9 1.7 2.07 4.16 3.43 7.35 3.9a2.73 2.73 0 1 0 .8-5.4c-2.02-.3-3.19-1.08-3.92-1.97a7.2 7.2 0 0 1-1.41-3.94c-.33-3.43.78-7.55 2.1-10.26a2.73 2.73 0 0 0-1.25-3.66Zm32.94 28.25a2.74 2.74 0 0 0-2.03 1.15c-1.27 1.79-1.8 4.38-1.8 7.01 0 2.73.57 5.87 1.86 9.05 2.6 6.4 8.18 12.97 18.03 16.57 19.69 7.19 33.54-1.55 36.03-11.9a2.73 2.73 0 0 0-2.32-3.36 145.5 145.5 0 0 1-24.6-5.5c-9.4-3.02-18.15-7.1-23-12.18a2.74 2.74 0 0 0-2.17-.84Zm45.56 23.45c-3.34 5.49-12.6 10.68-27.62 5.2-8.35-3.06-12.8-8.47-14.84-13.5a18.94 18.94 0 0 1-1.45-7.46c5.87 4.56 13.98 8.01 21.85 10.54a153.53 153.53 0 0 0 22.06 5.22Z" fill="#000"/><path fill-rule="evenodd" clip-rule="evenodd" d="M83.52 82.29a2.73 2.73 0 0 0-3.17 2.22c-1.51 8.59-1.17 22.11 4.7 35.13 5.94 13.13 17.46 25.63 38.02 31.97 20.64 6.36 37.3 1.8 49.66-6.57a68.76 68.76 0 0 0 23.8-28.84 2.73 2.73 0 1 0-5.04-2.13 63.3 63.3 0 0 1-21.83 26.44c-11.1 7.52-26.06 11.7-44.98 5.87-19-5.85-29.32-17.23-34.64-29-5.36-11.86-5.66-24.25-4.3-31.92a2.73 2.73 0 0 0-2.22-3.17Z" fill="#000"/><path fill-rule="evenodd" clip-rule="evenodd" d="M206.41 114.3a2.73 2.73 0 0 0-3.15 2.24c-1.32 7.72-4.2 9.74-6.24 10.22-2.45.58-5.45-.57-7.61-2.17a2.73 2.73 0 0 0-3.25 4.4c2.72 2.01 7.4 4.2 12.1 3.1 5.12-1.2 8.9-5.87 10.39-14.63a2.74 2.74 0 0 0-2.24-3.16ZM49.1 32.13a30.76 30.76 0 0 1 2.23 9.52 2.73 2.73 0 0 0 5.41.33 38.97 38.97 0 0 1 3.1-9.57 8.96 8.96 0 0 1 2.09-2.9c.47-.37.63-.3.8-.23h.01c.17.07.41.18.55.97.16.89.07 2.22-.32 3.92a41.98 41.98 0 0 1-3.88 9.75 2.73 2.73 0 0 0 4.35 3.22 8.9 8.9 0 0 1 3.86-2.4 2.3 2.3 0 0 1 1.42.05c.33.14.84.47 1.38 1.42.04.06.07.12.03.33-.05.27-.22.73-.67 1.38-.92 1.32-2.58 2.87-4.8 4.53a87.38 87.38 0 0 1-14.25 8.3 2.73 2.73 0 0 0 2.3 4.96c4.24-1.97 10.44-5.3 15.24-8.88 2.37-1.78 4.58-3.75 6-5.8 1.38-1.98 2.48-4.8.9-7.56a8.42 8.42 0 0 0-4.06-3.74 7.46 7.46 0 0 0-3.62-.5 34.92 34.92 0 0 0 1.13-3.83c.46-2 .72-4.17.38-6.11-.37-2.05-1.48-4.1-3.88-5.08a6.1 6.1 0 0 0-6.24.99 14.14 14.14 0 0 0-3.6 4.71l-.46.97a25.9 25.9 0 0 0-.4-.95c-1.64-3.75-4.63-7.94-9.73-8.27a6.6 6.6 0 0 0-6.15 2.86c-1.2 1.76-1.61 3.98-1.71 6a25.08 25.08 0 0 0 .04 2.92 9.97 9.97 0 0 0-3.86-1.55 6.35 6.35 0 0 0-5.27 1.54c-2.1 1.85-2 4.64-1.62 6.61a27.91 27.91 0 0 0 2.58 6.87 88.3 88.3 0 0 0 8.2 12.78 2.73 2.73 0 0 0 4.33-3.34c-2.3-3-5.5-7.66-7.65-11.91a22.75 22.75 0 0 1-2.1-5.44c-.2-1-.1-1.41-.06-1.52.24-.18.45-.23.78-.18.5.07 1.2.37 2.1 1.01a21.05 21.05 0 0 1 4.64 4.94 2.73 2.73 0 0 0 4.88-2.33c-.86-2.84-1.69-6.94-1.53-10.14.08-1.62.4-2.64.76-3.17.2-.3.46-.55 1.28-.5 1.88.13 3.64 1.72 5.09 5.02ZM42 63.18a2.73 2.73 0 0 0-3.17 2.2c-2.4 13.39-.21 46.38 26.8 74.23a2.73 2.73 0 1 0 3.93-3.81c-25.61-26.4-27.49-57.54-25.34-69.44A2.73 2.73 0 0 0 42 63.18Z" fill="#000"/><path fill-rule="evenodd" clip-rule="evenodd" d="M78.54 130.25a2.74 2.74 0 0 0-2.1.24 165.16 165.16 0 0 1-13.6 6.75c-5.38 2.34-10.39 4.07-13.36 4.25a2.74 2.74 0 0 0-1.99 4.42c2.84 3.62 7.14 9.37 10.77 14.86a97.34 97.34 0 0 1 4.65 7.63c1.26 2.36 1.83 3.92 1.9 4.65a2.73 2.73 0 1 0 5.45-.55c-.2-1.92-1.28-4.34-2.52-6.68a102.41 102.41 0 0 0-4.92-8.08c-2.7-4.06-5.72-8.24-8.29-11.64 3.3-.88 7-2.33 10.5-3.85 4.27-1.87 8.5-3.98 11.7-5.69 7.96 13.22 20.02 21.4 26.06 24.32 5.87 8.33 12.35 11.42 18.43 11.25 6-.17 10.9-3.52 13.59-6.47a2.73 2.73 0 0 0-4.04-3.69c-2.03 2.23-5.61 4.58-9.7 4.7-3.89.1-8.96-1.79-14.2-9.49a2.74 2.74 0 0 0-1.13-.96c-5.28-2.37-18.07-10.76-25.56-24.64a2.74 2.74 0 0 0-1.64-1.33Z" fill="#000"/><path fill-rule="evenodd" clip-rule="evenodd" d="M74.67 172.74a2.73 2.73 0 0 0-3.36 1.92 334.53 334.53 0 0 0-7.8 38.01c-2.07 14.5-3.01 29.66-.4 39.61a2.73 2.73 0 1 0 5.3-1.39c-2.32-8.78-1.56-22.93.5-37.45a329.3 329.3 0 0 1 7.68-37.34 2.73 2.73 0 0 0-1.92-3.36Zm60.7-5.09a2.73 2.73 0 0 0 1.72 3.47c4.71 1.6 12.47 3.98 20.51 5.95 6.65 1.63 13.68 3.02 19.35 3.39a420.56 420.56 0 0 0-1.73 13.08c-.33 2.92-.61 5.76-.77 8.16a69.56 69.56 0 0 0-.12 2.31c-3.84-.62-8.58-1.45-12.88-2.32-2.82-.57-5.4-1.15-7.42-1.7a30.8 30.8 0 0 1-2.47-.76c-.55-.2-.8-.33-.86-.36-.01-.01-.02-.02 0-.01a2.74 2.74 0 0 0-4.35 1.64 92.63 92.63 0 0 0-1.52 12.1c-.25 4.6-.14 9.74 1.17 13.43 1.24 3.5 1.9 9.74 2.2 15.95.2 4.24.2 8.25.15 11-4.22-.33-9.85-.53-15.62-.28-7.14.3-14.88 1.31-20.37 3.86-4.35 2.02-11.41 2.66-18.88 2.48a128.32 128.32 0 0 1-18.98-1.94 2.73 2.73 0 1 0-1 5.38c4.64.86 12.18 1.85 19.85 2.03 7.55.18 15.73-.4 21.32-2.99 4.45-2.07 11.28-3.05 18.3-3.36 6.92-.3 13.66.09 17.72.53a2.73 2.73 0 0 0 3.02-2.55c.15-2.3.24-8.16-.05-14.42-.29-6.16-.96-13.16-2.5-17.51-.92-2.6-1.12-6.78-.86-11.3.16-2.88.49-5.71.84-8.06l1.45.42a128 128 0 0 0 7.77 1.78 366.25 366.25 0 0 0 16.36 2.88 2.73 2.73 0 0 0 3.12-3.07c-.1-.8-.1-2.44.06-4.8.15-2.28.42-5.02.76-7.9a426.1 426.1 0 0 1 2.16-15.92 2.74 2.74 0 0 0-2.74-3.16c-5.32.07-13.24-1.38-21.18-3.32a256.71 256.71 0 0 1-20.06-5.82 2.73 2.73 0 0 0-3.46 1.71Zm38.2 74.4c4.04.1 9.1 1.29 12.57 2.4a2.73 2.73 0 0 0 1.66-5.22c-3.7-1.18-9.32-2.54-14.09-2.65-2.33-.06-4.84.16-6.83 1.16a6.53 6.53 0 0 0-2.71 2.41 6.42 6.42 0 0 0-.88 3.8c.25 4.3 2.14 7.1 5.01 8.34l.42.17a21.27 21.27 0 0 0-1.64 2.96c-1.3 2.94-2.15 7.25 1.29 10.38a7.61 7.61 0 0 0 4.8 2.12 7.2 7.2 0 0 0 2.02-.2 8.27 8.27 0 0 0-.01.22 8.7 8.7 0 0 0 1.07 5.15 6.36 6.36 0 0 0 5.23 2.92c5.48.36 9.5-3.7 11.5-8.5 2.04-4.9 2.42-11.32.4-17.5a2.73 2.73 0 0 0-5.2 1.7c1.63 5 1.27 10.05-.25 13.69-1.56 3.73-3.94 5.3-6.1 5.16-.75-.05-.88-.27-.93-.35-.15-.24-.33-.82-.26-1.93.13-2.2 1.15-5.04 2.13-7.02a2.74 2.74 0 0 0-4.82-2.6 9.92 9.92 0 0 1-3.13 3.36c-.59.35-1.04.45-1.39.43-.3-.01-.75-.12-1.38-.7-.7-.63-1.01-1.77.03-4.1a21.4 21.4 0 0 1 4.24-5.9 2.74 2.74 0 0 0-2.84-4.53c-.92.33-2.15.42-3.01.05-.56-.24-1.56-.92-1.72-3.66-.03-.4.06-.56.08-.6.04-.06.15-.2.5-.38.77-.39 2.19-.64 4.25-.59Z" fill="#000"/><path fill-rule="evenodd" clip-rule="evenodd" d="M176.91 185.14a2.73 2.73 0 0 0 2.4 3.04c5.99.7 15.05 5.1 22.11 11.4 7.18 6.39 11.23 13.75 9.49 20.24a32.18 32.18 0 0 1-11.41 17.08 29.27 29.27 0 0 1-6.25 3.77c-.88.38-1.6.62-2.14.75-.4.1-.6.1-.6.1a2.73 2.73 0 0 0-.92 5.4 6.9 6.9 0 0 0 2.8-.18c.9-.22 1.93-.57 3.03-1.04a34.7 34.7 0 0 0 7.44-4.5 37.65 37.65 0 0 0 13.33-19.97c2.59-9.67-3.62-19.04-11.13-25.74-7.62-6.8-17.68-11.86-25.1-12.74a2.73 2.73 0 0 0-3.05 2.39ZM124.7 147.5a2.73 2.73 0 0 0-3.47 1.7l-4.05 11.8a2.73 2.73 0 1 0 5.17 1.77l4.05-11.8a2.73 2.73 0 0 0-1.7-3.47Zm25.68 117.98a2.73 2.73 0 0 0-1.64 3.5c3.3 9.11 9.76 24.07 18.42 39.5 8.64 15.4 19.58 31.46 31.92 42.61a2.73 2.73 0 1 0 3.67-4.06c-11.7-10.56-22.3-26.03-30.82-41.22-8.5-15.16-14.84-29.85-18.05-38.7a2.73 2.73 0 0 0-3.5-1.64Zm-39.2 33.56a2.73 2.73 0 0 0-1.94 3.34c.97 3.72 3.7 9.34 7.25 15.79 3.6 6.53 8.22 14.17 13.17 22.03 9.89 15.7 21.18 32.36 28.56 42.9a2.73 2.73 0 0 0 2.2 1.17c9.12.1 17.67-3.81 24.52-8.51a69.97 69.97 0 0 0 15.26-14.26 2.74 2.74 0 1 0-4.35-3.32 64.56 64.56 0 0 1-14 13.07c-5.99 4.1-12.92 7.24-19.98 7.53a1141.06 1141.06 0 0 1-27.59-41.5 454.8 454.8 0 0 1-13-21.75c-3.58-6.5-5.97-11.57-6.76-14.54a2.73 2.73 0 0 0-3.34-1.95Z" fill="#000"/><path fill-rule="evenodd" clip-rule="evenodd" d="M116.68 294.33c.21-.03.53.02.9.25a2.73 2.73 0 1 0 2.95-4.6 6.78 6.78 0 0 0-4.68-1.06 7.34 7.34 0 0 0-4.85 3.24c-2.44 3.45-3.86 9.8-3.66 20.42.24 12.52-5.43 26.87-14.46 34.1-4.42 3.53-9.57 5.31-15.29 4.5-5.77-.82-12.5-4.34-19.92-12.2l-5.08-5.77a2.73 2.73 0 0 0-4.1 3.6l5.1 5.82.06.07c7.97 8.45 15.78 12.85 23.17 13.9 7.45 1.06 14.08-1.34 19.48-5.66 10.62-8.5 16.77-24.63 16.51-38.46-.2-10.45 1.3-15.24 2.65-17.16.6-.85 1.06-.97 1.22-1Zm-47.43-34.27a2.73 2.73 0 0 0-2.55 2.9c.54 8.26-.15 28.43-7 43.15a2.73 2.73 0 1 0 4.96 2.3c7.41-15.93 8.06-37.18 7.5-45.8a2.73 2.73 0 0 0-2.91-2.55Z" fill="#000"/><path fill-rule="evenodd" clip-rule="evenodd" d="M46.89 293.8a2.73 2.73 0 0 0-1.9 1.63 82.43 82.43 0 0 0-4.67 16.66 45.63 45.63 0 0 0-.64 9.68c.17 3.1.81 6.18 2.29 8.73a2.73 2.73 0 0 0 4.73-2.73c-.89-1.54-1.41-3.67-1.56-6.3-.15-2.6.1-5.53.58-8.5A76.9 76.9 0 0 1 49 300.3c.45.16.9.3 1.34.4 1.66.44 3.49.69 5.28.82 3.57.27 7.25.1 9.58-.13a2.73 2.73 0 1 0-.55-5.44c-2.08.2-5.43.36-8.62.12a24.9 24.9 0 0 1-4.3-.65 6.35 6.35 0 0 1-2.42-1.04 2.73 2.73 0 0 0-2.42-.58Z" fill="#000"/><path fill-rule="evenodd" clip-rule="evenodd" d="M27.7 302.01a2.73 2.73 0 0 0-.25 3.86c1.62 1.84 4.63 3.58 7.3 4.92a80.5 80.5 0 0 0 7.57 3.3 2.73 2.73 0 1 0 1.9-5.13 74.95 74.95 0 0 1-7.02-3.06c-2.72-1.36-4.81-2.7-5.64-3.64a2.73 2.73 0 0 0-3.86-.25Z" fill="#000"/><path fill-rule="evenodd" clip-rule="evenodd" d="M28.63 301.93c-.06.36-.18.6-.22.65a2.73 2.73 0 0 0 4.5 3.11 7.6 7.6 0 0 0 .91-6.3 6.4 6.4 0 0 0-2.4-3.33 8.6 8.6 0 0 0-4.53-1.48c-1.93-.13-3.8.67-5.35 1.68a22.35 22.35 0 0 0-4.66 4.24 39.82 39.82 0 0 0-7.3 13.26c-1.65 5.1-2.3 10.8-.8 16.14 1.53 5.44 5.23 10.22 11.75 13.4a13.2 13.2 0 0 0 14.42-1.72c3.57-3.03 5.56-8.16 3.1-13.13a2.73 2.73 0 0 0-4.9 2.43c1.09 2.2.4 4.72-1.74 6.52a7.73 7.73 0 0 1-8.5.97c-5.17-2.51-7.78-6.08-8.87-9.95-1.12-3.98-.7-8.55.74-12.98 1.42-4.43 3.8-8.5 6.26-11.39a17.02 17.02 0 0 1 3.48-3.2c1.1-.72 1.76-.83 2.02-.81 1 .06 1.48.3 1.7.46a.93.93 0 0 1 .36.5c.07.25.1.57.03.92Zm168.75 81.03a2.73 2.73 0 0 0-.47 3.84c3.77 4.83 9.19 16 10.66 26.03.74 5.03.42 9.33-1.16 12.37-1.45 2.8-4.2 4.93-9.53 5.3-3.15.2-5.82-1.07-8.03-3.52-2.26-2.51-3.98-6.23-4.92-10.56-1.89-8.78-.33-18.93 4.83-24.81a2.73 2.73 0 0 0-4.11-3.61c-6.67 7.6-8.19 19.73-6.07 29.57 1.08 4.98 3.13 9.66 6.2 13.07 3.14 3.47 7.37 5.66 12.48 5.3 6.9-.46 11.53-3.47 14-8.22 2.36-4.52 2.53-10.19 1.72-15.68-1.61-11-7.43-23.05-11.76-28.6a2.73 2.73 0 0 0-3.84-.48Z" fill="#000"/><path fill-rule="evenodd" clip-rule="evenodd" d="M181.04 372.15a2.74 2.74 0 0 0-.25 3.86c2 2.28 5.04 5.97 7.64 9.6a56.26 56.26 0 0 1 3.32 5.14c.9 1.63 1.3 2.73 1.38 3.3a2.73 2.73 0 0 0 3.08 2.34 2.74 2.74 0 0 0 2.34-3.07c-.22-1.65-1.07-3.51-2.02-5.22-1-1.8-2.29-3.75-3.65-5.66-2.73-3.83-5.9-7.66-7.98-10.04a2.74 2.74 0 0 0-3.86-.24Z" fill="#000"/><path d="M285.91 307.01c0 3.63-3.43 6.57-7.66 6.57s-7.65-2.94-7.65-6.57c0-3.62 3.42-6.56 7.65-6.56s7.66 2.94 7.66 6.56Zm45.94-106.1a7.66 7.66 0 1 1-15.31 0 7.66 7.66 0 1 1 15.31 0Z" fill="#fff"/><path d="m241.06 304.82-1.1 14.23 7.66 4.37 13.13-8.75 16.4-32.82 25.17-57.98 10.94-20.78 3.28-18.6-5.47-9.84-10.94 1.1-3.28 14.21-55.79 114.86Z" fill="#C4BA8E"/><path fill-rule="evenodd" clip-rule="evenodd" d="M310.83 177.26c-.9-.98-2-1.38-3.54-1.04-2.22.5-3.25 1.1-3.8 1.62-.53.5-.9 1.2-1.26 2.56a40.5 40.5 0 0 0-.5 2.36 48.75 48.75 0 0 1-3.48 11.62c-4.4 9.67-22.3 46.4-30.67 63.51-14.51 29.66-22.04 45.27-24.77 53.91-1.4 4.42-1.27 6.24-.93 7.04.26.59.88 1.17 3.33 1.99 1.65.55 3.5.24 5.7-1.1 2.22-1.38 4.53-3.67 6.78-6.52 4.5-5.67 8.28-12.9 10.46-17.27 1.03-2.05 2.9-6.63 5.39-12.93a4648.96 4648.96 0 0 0 2.08-5.25c2.03-5.13 4.33-10.95 6.8-17.03 6.7-16.54 14.69-35.3 21.9-48.05 6.95-12.3 9.17-22.41 8.67-28.94-.24-3.28-1.15-5.37-2.16-6.48Zm7.62 6.07c.6 7.97-2.1 19.18-9.37 32.04-7.02 12.41-14.89 30.85-21.6 47.4a2201.16 2201.16 0 0 0-6.76 16.98l-2.1 5.28c-2.45 6.19-4.42 11.04-5.58 13.36-2.2 4.39-6.2 12.06-11.06 18.22-2.43 3.07-5.2 5.92-8.21 7.77-3.05 1.87-6.6 2.87-10.3 1.64-2.46-.83-5.32-2.02-6.61-5.02-1.2-2.8-.68-6.38.73-10.85 2.9-9.13 10.68-25.24 25.08-54.66 8.4-17.16 26.24-53.8 30.6-63.38a39.68 39.68 0 0 0 2.97-9.85c.21-1.12.42-2.18.7-3.24a10.34 10.34 0 0 1 2.78-5.14c1.56-1.49 3.68-2.4 6.38-3a8.84 8.84 0 0 1 8.77 2.7c2.13 2.34 3.28 5.78 3.58 9.75Z" fill="#000"/><path fill-rule="evenodd" clip-rule="evenodd" d="M312.62 182.61c-.58 3.69-1.93 8.8-4.44 15.92-1.94 5.51-5.51 12.92-9.63 21.45l-.24.5A612.62 612.62 0 0 0 285.15 249c-17.02 40.27-26.74 57.82-33.2 65.3-3.3 3.82-6.1 5.43-8.93 5.7-1.32.13-2.47-.06-3.3-.2a8.26 8.26 0 0 0-1.79-.21l-.3-5.46c1.09-.06 2.12.12 2.83.24l.2.03c.8.14 1.31.2 1.84.16.87-.09 2.48-.56 5.31-3.83 5.8-6.72 15.23-23.45 32.3-63.85 4.44-10.51 9.17-20.3 13.26-28.75l.25-.53c4.18-8.64 7.59-15.73 9.4-20.89 2.46-6.97 3.69-11.73 4.2-14.95.52-3.31.22-4.65.04-5.06a4.6 4.6 0 0 0-.3-.04c-.11-.02-.38-.05-.64-.12a3.18 3.18 0 0 1-1.55-.88 2.98 2.98 0 0 1-.77-2.55l5.4.9a2.5 2.5 0 0 0-.67-2.12 2.3 2.3 0 0 0-1.1-.66 1.16 1.16 0 0 0-.06-.01l.13.02h.03l.6.1a5.42 5.42 0 0 1 2.07.84c.8.55 1.44 1.33 1.88 2.33.82 1.88.91 4.5.34 8.1Zm12.55 8.78c3.39.71 6.56 3.15 8.04 6.1.52 1.05.76 2.46.8 3.77.04 1.4-.13 3.02-.65 4.6a9.62 9.62 0 0 1-3.04 4.52 9.53 9.53 0 0 1-6.12 2c-2.77 0-5.08-.57-6.87-1.77a8.14 8.14 0 0 1-3.35-4.77c-.9-3.4.14-7.1 1.16-9.35l.03-.05.02-.04a9.29 9.29 0 0 1 4.45-4.49 8.9 8.9 0 0 1 5.53-.52Zm-5.07 7.41c-.79 1.75-1.26 4.03-.84 5.64.2.7.54 1.24 1.12 1.63.63.42 1.77.85 3.82.85a4.1 4.1 0 0 0 2.69-.8c.55-.44.99-1.11 1.28-1.98.29-.87.4-1.84.37-2.71a6.65 6.65 0 0 0-.12-1.08 2.49 2.49 0 0 0-.1-.41 6.64 6.64 0 0 0-4.28-3.2 3.46 3.46 0 0 0-2.15.16c-.56.25-1.21.77-1.79 1.9Zm-40.7 96.94c3.39.71 6.55 3.15 8.03 6.1.53 1.05.76 2.46.8 3.77a13.5 13.5 0 0 1-.65 4.61 9.63 9.63 0 0 1-3.03 4.51 9.52 9.52 0 0 1-6.13 2.01c-2.76 0-5.08-.58-6.87-1.78a8.13 8.13 0 0 1-3.35-4.77c-.9-3.39.15-7.1 1.17-9.35l.02-.05.02-.04a9.29 9.29 0 0 1 4.45-4.49 8.9 8.9 0 0 1 5.54-.52Zm-5.07 7.41c-.79 1.75-1.27 4.04-.84 5.64.19.7.53 1.24 1.12 1.63.62.42 1.77.85 3.81.85a4.1 4.1 0 0 0 2.7-.8c.55-.44.98-1.11 1.27-1.98.3-.87.4-1.84.38-2.7a6.65 6.65 0 0 0-.12-1.09 2.49 2.49 0 0 0-.11-.41 6.64 6.64 0 0 0-4.27-3.2 3.46 3.46 0 0 0-2.16.16c-.56.25-1.21.77-1.78 1.9Z" fill="#000"/><path fill-rule="evenodd" clip-rule="evenodd" d="M281.92 307.84a3.51 3.51 0 0 1-2.43 2.43c-.79.26-1.79.43-2.68-.05a2.55 2.55 0 0 1-1.29-2.2 5.5 5.5 0 0 1 .28-1.82 10 10 0 0 1 .6-1.5c.26-.52.67-1.01 1.28-1.3a2.48 2.48 0 0 1 1.75-.11 3.68 3.68 0 0 1 2.05 1.73c.42.74.71 1.76.44 2.82Zm-3.48-1.43Zm.36 1.46Zm49.07-105.05a3.51 3.51 0 0 1-2.44 2.43c-.78.26-1.79.43-2.68-.05a2.54 2.54 0 0 1-1.28-2.2c-.03-.64.11-1.3.27-1.82.17-.54.4-1.07.6-1.5.27-.52.68-1 1.28-1.29a2.48 2.48 0 0 1 1.75-.12 3.67 3.67 0 0 1 2.06 1.74c.42.73.71 1.75.44 2.81Zm-3.49-1.42Zm.36 1.46Zm-54.37 93.9 6.27 2.1-4.66 9.3-5.53-1.84 1.73-5.18.65.21 1.54-4.59Zm44.85-103.92 5.87 1.96-2.58 7.74h-5.25v-5.47h.54l1.42-4.23Z" fill="#000"/></svg>