<svg width="388" height="431" fill="none" xmlns="http://www.w3.org/2000/svg"><path d="m315.97 331.96 6-12.32 4.23-3.48 11.48 11.52 4.48 26.08-9.39 10.29-11.02-1.69-9.25-10.53 3.47-19.87Zm-213.37 51.4 10.55-4.81 12.05-3.9 1.61 11.26-3.49 19.5-6.83 12.64-12.93 5.18-13.55-3.97.6-15.84 12-20.06Z" fill="#6A6689"/><path d="m192.21 140.53-18.52 1.94.05 1.1-.84 5.5-3.07 28.62-12.2 44.36-17.42 50.08-5.01 10.08 16.64 4.72 32.49 16.03 17.32-28.17 9.2 9.43 4.48 26.08 13.21 1.58 33.78-3.74 6.35-4.67-7-9.53-7.96-30.3-7.53-68.64.28-41.63-10.29-9.38-9.98-2.83-2.73 12.17-8.44 6.96-12.12-1.64-10.29-9.38-.4-8.74Z" fill="#EF965A"/><path d="m169.78 176.6-11.87 3.83-12.08-24.64 26.76-13.27.77-.07.23-2.16 10.87-1.6 4.35 2.23 4.5-.44 6.55-.3 7.85 4.02 9.74-2.64 8.74-.4 3.97 1.38 3.73-.64 5.81 3.96 3.18 1.1 27.32-1.25 6.47 21.6-28.96 13.38-4.78-32.63-3.23-2.2-9.54-3.32-4.96.85-3.87 11.13-8.5 5.87-10.97-.6-8.1-9.48-1.45-7.6-3.5-1.8-15.45 1.54-3.58 34.15Z" fill="#FFD6BB"/><path d="m97.69 132.81-7.7-.74-22.06-3.37-3.53-5.31 5.22-5.72-4.98-12.9 1.94-5.57 11.18 4.96 10.62-7.06 8.1 9.49 4.22-3.48 5.52.84 1.8 15.25-10.33 13.61Zm88.38-78.51-19.12 12.92-12.76 8.25 2.64 9.74 11.02 1.68 8.45 17.13 11.63 14.8 14.56 7 21.01 4.51 17.49-.8 17.18-7.36 14.7-13.81 6.95-15.65 14.2-.65-1.54-9.79-9-5.06-29.07-37-68.34 14.09Zm145.06 34.96 2.78 13.01 8.94 3.97 18.48-3.03 9.64-4.83-9.05-6.15 5.07-9-3.43-3.12-10.83 2.68.5-13.16-4.58-4.17-12.41 15.9-1.2-2.14-4.37.2.46 9.84Z" fill="#FBE7D4"/><path d="m157.6 54.5.66 14.21 6.7 2.98 2-4.47 17.03-10.64 9.98 2.83 17.44-1.9 11.17 4.97 7.55-2.54 22.25-16.35 3.58 6.4 4.97 12.92 10.24 8.3 13.41 5.95 3.97-8.95.64-9.88-7.26-15-4.82-9.63-11.48-11.52-17.83-6.85-14.26-.44-9.93-1.74-23.1-2.22-16.14 6.21-16.83 15.01-9.93 22.36Zm-14.43 43.38 12.51-13.72 12.12 1.64 7.36 17.18 9.35 12.71 21.26 9.98 21.01 4.51 3.69-.56 16.97-2.58 16-9.5 11.31-15.84 6.21-7.95 5.56 1.94.2 4.37 9.7 20.36 9.2 9.43c.8 17.49-18.98 16.2-28.96 13.38-.76 2.66-18.33 6.31-25.94-16.34l-.05-1.09-3.18 2.34-7.6 1.44-9.42.04-6.92 1.8-6.6-.79-9.94-1.73-17.93-9.04c-8 16.8-28.78 9.35-29.5 1.36-15.58 4.21-32.46-7.28-30.16-12.86l13.75-10.48Z" fill="#F6D38A"/><path d="m210.26 175.84-17.49.8-2.37 19.82 8.3 13.85 13.06-1.7 11.52-11.47 1.39-17.59-14.41-3.72Z" fill="#000" fill-opacity=".25"/><path fill-rule="evenodd" clip-rule="evenodd" d="M224.62 43.9a2.74 2.74 0 0 1 .45 3.83c-11.44 14.5-25.55 15.8-31.73 14.34a2.73 2.73 0 0 1 1.26-5.32c4.16.98 16.09.37 26.18-12.4a2.73 2.73 0 0 1 3.84-.46Zm29.1-8.51a2.73 2.73 0 0 1 2.23 2.78c-.28 8.25 4.67 27.64 27.44 36.54a2.74 2.74 0 0 1-2 5.1C262 72.22 254 57.67 251.47 46.75c-3.07 3.93-7.07 7.22-11.1 9.87a73.3 73.3 0 0 1-18.09 8.52 2.73 2.73 0 1 1-1.56-5.24 67.87 67.87 0 0 0 16.64-7.85c6.08-4 11.26-9.04 13.29-14.88a2.73 2.73 0 0 1 3.08-1.79Zm-62.7 8.48a2.73 2.73 0 0 1 1.64 3.5c-1.3 3.62-4.57 8.76-9.08 13.07-4.5 4.32-10.61 8.15-17.65 8.47a2.73 2.73 0 0 1-.25-5.46c5.2-.24 10.11-3.13 14.12-6.96 4-3.83 6.75-8.28 7.72-10.97a2.73 2.73 0 0 1 3.5-1.65Z" fill="#000"/><path fill-rule="evenodd" clip-rule="evenodd" d="M185.35 13.47c19.7-9.13 37.25-5.22 43.9-1.87a2.73 2.73 0 0 1-2.45 4.89c-5.3-2.67-21.1-6.43-39.15 1.94-11.08 5.14-18.18 13.97-22.33 22.9-4.2 9-5.26 17.82-4.55 22.62a2.73 2.73 0 1 1-5.42.79c-.89-6.08.48-15.99 5-25.72 4.58-9.82 12.5-19.75 25-25.55Zm67.52 5.75a56.93 56.93 0 0 0-18-1.66 2.73 2.73 0 0 1-.47-5.45c4.64-.4 12.13-.17 19.83 1.81 7.68 1.98 15.87 5.78 21.48 12.75 13.22 16.4 16.41 34.48 15.67 43.95a2.73 2.73 0 0 1-5.46-.43c.64-8.12-2.15-24.8-14.47-40.09-4.6-5.7-11.53-9.06-18.58-10.88Z" fill="#000"/><path fill-rule="evenodd" clip-rule="evenodd" d="M166.01 63.45a2.73 2.73 0 0 1 2.53 2.93c-.64 8.69 1.13 22.25 8.54 34.37 7.33 12.01 20.28 22.77 42.4 25.98 22 3.2 36.43-4.28 45.7-14.6 9.39-10.47 13.61-24.05 14.6-32.99a2.73 2.73 0 0 1 5.43.6c-1.07 9.78-5.63 24.53-15.96 36.04-10.47 11.66-26.7 19.83-50.56 16.37-23.75-3.45-38.1-15.17-46.28-28.55-8.1-13.26-10.04-28-9.33-37.62a2.73 2.73 0 0 1 2.93-2.53Z" fill="#000"/><path fill-rule="evenodd" clip-rule="evenodd" d="M287.73 81.9a5.57 5.57 0 0 0-2.79 2.3 2.73 2.73 0 1 1-4.6-2.96c1.05-1.62 3.1-3.83 5.93-4.61a7.59 7.59 0 0 1 4.87.26c1.68.65 3.2 1.89 4.58 3.64a8.46 8.46 0 0 1 1.58 8.01 11.86 11.86 0 0 1-4.57 5.88c-2 1.41-4.44 2.4-6.85 2.6-2.41.2-5.12-.4-7.02-2.56a2.73 2.73 0 1 1 4.1-3.6c.41.46 1.17.81 2.47.7 1.3-.1 2.83-.68 4.15-1.6a6.45 6.45 0 0 0 2.51-3.08c.28-.86.23-1.83-.67-2.97a5.78 5.78 0 0 0-2.28-1.93 2.13 2.13 0 0 0-1.4-.08Zm-127.27-8.3a5.57 5.57 0 0 1 2.82 2.29 2.73 2.73 0 1 0 4.56-3.02c-1.06-1.6-3.13-3.8-5.97-4.55a7.59 7.59 0 0 0-4.86.3 11.12 11.12 0 0 0-4.55 3.69 8.46 8.46 0 0 0-1.5 8.03c.8 2.45 2.62 4.45 4.62 5.83a14.22 14.22 0 0 0 6.87 2.53c2.42.18 5.12-.43 7-2.62a2.73 2.73 0 1 0-4.14-3.57c-.4.47-1.15.83-2.46.74a8.76 8.76 0 0 1-4.16-1.57 6.45 6.45 0 0 1-2.54-3.05c-.29-.87-.25-1.83.64-2.98a5.77 5.77 0 0 1 2.26-1.95 2.12 2.12 0 0 1 1.41-.1Zm38.7 23.51a2.73 2.73 0 0 1 3.57 1.5c1.61 3.94 8.98 12.82 25.17 11.26 8.4-.8 13.9-2.89 17.33-5.02 3.5-2.17 4.71-4.29 4.94-5.08a2.73 2.73 0 1 1 5.26 1.5c-.72 2.53-3.1 5.61-7.32 8.23-4.29 2.66-10.63 4.95-19.68 5.82-18.7 1.8-28.27-8.56-30.77-14.64a2.73 2.73 0 0 1 1.5-3.57Zm-2.08-17.58a2.73 2.73 0 0 1 2.86 2.6l.05 1.1a2.73 2.73 0 0 1-5.46.25l-.05-1.1a2.73 2.73 0 0 1 2.6-2.85Zm54.84 1.86a2.73 2.73 0 0 1 2.86 2.6l.05 1.1a2.73 2.73 0 0 1-5.47.25l-.05-1.09a2.73 2.73 0 0 1 2.61-2.86Z" fill="#000"/><path fill-rule="evenodd" clip-rule="evenodd" d="M155.84 80.71a2.73 2.73 0 0 1 1.1 3.7 68.54 68.54 0 0 1-11.97 15.54c-5.64 5.5-12.98 10.66-21.49 12.48a2.73 2.73 0 1 1-1.14-5.35c7.1-1.52 13.56-5.94 18.82-11.05a63.13 63.13 0 0 0 10.97-14.2 2.74 2.74 0 0 1 3.7-1.12Zm17.91 17.6a2.73 2.73 0 0 1 1.72 3.46 62.06 62.06 0 0 1-7.13 14.17c-3.46 5.1-8.2 10.21-14.14 12.5a2.73 2.73 0 0 1-1.97-5.1c4.4-1.7 8.36-5.73 11.58-10.48a56.67 56.67 0 0 0 6.47-12.84 2.73 2.73 0 0 1 3.47-1.72Zm112.71-6.45a2.74 2.74 0 0 1 2.75 2.72c.03 8 5.1 26.73 25.31 35.7a2.73 2.73 0 0 1-2.22 5c-22.7-10.08-28.52-31.16-28.56-40.68a2.73 2.73 0 0 1 2.72-2.74Zm-21.77 24a2.73 2.73 0 0 1 2.66 2.8c-.11 4.53 2.12 15.25 11.8 21.08a2.74 2.74 0 0 1-2.82 4.68c-11.94-7.2-14.59-20.2-14.44-25.9a2.74 2.74 0 0 1 2.8-2.66Zm-81.32 26.88c-3.88.3-7.86.9-10.32 1.37a2.73 2.73 0 1 1-1.02-5.37c2.62-.5 6.8-1.14 10.91-1.46 2.06-.16 4.15-.24 6.05-.18 1.84.06 3.71.27 5.22.8a2.73 2.73 0 0 1 1.8 2.93c-.34 2.73-.08 6.88 1.73 10.37 1.71 3.3 4.89 6.18 10.94 6.66 3.06.24 5.33-.32 7.05-1.26a10.78 10.78 0 0 0 4.1-4.09c2.08-3.51 2.68-8.06 2.54-11.18a2.74 2.74 0 0 1 2.33-2.83c4.15-.6 10.36-.04 15.62 3.75 5.4 3.9 9.33 10.84 9.38 22.04.05 13.12.37 43.94 3.22 73.24 1.42 14.66 3.46 28.85 6.39 40.21 1.46 5.69 3.13 10.59 5 14.46 1.9 3.9 3.89 6.53 5.9 7.94a2.73 2.73 0 0 1 .65 3.82 2.73 2.73 0 0 1-3.82.65c-3.09-2.19-5.58-5.76-7.65-10.03-2.1-4.32-3.86-9.6-5.38-15.47-3.03-11.77-5.1-26.28-6.54-41.05-2.87-29.57-3.19-60.6-3.24-73.75-.04-9.83-3.41-14.96-7.11-17.62a16.3 16.3 0 0 0-9.3-2.93c-.2 3.52-1.1 7.84-3.3 11.54a16.23 16.23 0 0 1-6.17 6.1c-2.76 1.5-6.12 2.23-10.1 1.91-8.01-.63-12.82-4.68-15.37-9.6a23.62 23.62 0 0 1-2.46-11.04 22.91 22.91 0 0 0-1.61-.1 50.5 50.5 0 0 0-5.44.17Zm80.48 164.7a2.73 2.73 0 0 1-1.87 3.38 137.4 137.4 0 0 1-16.76 3.6c-6.41.94-13.44 1.42-18.44.16a2.73 2.73 0 1 1 1.33-5.3c3.87.97 9.95.66 16.31-.28a132.1 132.1 0 0 0 16.05-3.44 2.73 2.73 0 0 1 3.38 1.88Z" fill="#000"/><path fill-rule="evenodd" clip-rule="evenodd" d="M172.3 138.7a2.73 2.73 0 0 1 2.97 2.49c1.86 21.07-4.32 49.26-12.6 75.66a540.34 540.34 0 0 1-24.53 63.27c7.96 1.52 16.84 5 24.88 8.83 7.98 3.8 15.32 8.02 20.41 11.23l15.8-27.84a2.73 2.73 0 0 1 3.74-1.02c3.05 1.75 5.38 4.6 7.16 7.77a46.3 46.3 0 0 1 4.11 10.67 88.9 88.9 0 0 1 2.73 20.56 2.73 2.73 0 0 1-5.47.05 83.43 83.43 0 0 0-2.54-19.22 40.96 40.96 0 0 0-3.6-9.38c-.9-1.61-1.88-2.95-2.93-4l-15.67 27.63a2.74 2.74 0 0 1-3.9.93c-4.79-3.18-13.06-8.1-22.19-12.44-9.18-4.37-18.97-8.03-26.87-8.91a2.73 2.73 0 0 1-2.16-3.9 528.98 528.98 0 0 0 25.8-65.87c8.27-26.3 14.15-53.61 12.38-73.54a2.73 2.73 0 0 1 2.48-2.97Z" fill="#000"/><path fill-rule="evenodd" clip-rule="evenodd" d="M174.99 140.2a2.73 2.73 0 0 1-1.22 3.67l-25.79 12.9a81.9 81.9 0 0 1 5.75 8.17 58.24 58.24 0 0 1 6.07 12.85l8.92-3.72a2.73 2.73 0 1 1 2.1 5.05l-11.81 4.92a2.74 2.74 0 0 1-3.73-1.95c-1.02-4.77-3.46-9.83-6.2-14.28a71.23 71.23 0 0 0-7.46-10.07 2.74 2.74 0 0 1 .8-4.3l28.9-14.46a2.74 2.74 0 0 1 3.67 1.22Zm96.96 2.36c.56.5.9 1.19.93 1.93.12 2.56.63 6.77 1.75 10.9 1.15 4.24 2.83 7.9 4.97 9.86a2.73 2.73 0 0 1-.65 4.48l-30 14.51a2.73 2.73 0 0 1-2.38-4.92l26.84-12.99c-1.9-2.82-3.18-6.28-4.06-9.5a60.16 60.16 0 0 1-1.71-9.25l-24.52 2.1a2.73 2.73 0 1 1-.47-5.44l27.27-2.35a2.74 2.74 0 0 1 2.03.67Z" fill="#000"/><path fill-rule="evenodd" clip-rule="evenodd" d="M84.08 104.13c-.6 2.99-.36 6.7.1 9.23a2.73 2.73 0 0 1-5.36 1.11 28.34 28.34 0 0 0-4.05-9.34c-2.07-2.87-4.15-3.95-6.38-3.34-.59.16-.86.36-1 .5-.12.13-.25.33-.32.7-.18.82-.04 2.2.63 4.1 1.31 3.74 4.11 8.1 6.36 11a2.73 2.73 0 0 1-2.48 4.39c-1.5-.18-2.66-.17-3.48-.03-.35.06-.59.13-.74.18.15.4.54 1.11 1.43 2.13.5.58 1.52 1.25 3.15 1.9 1.59.62 3.52 1.14 5.6 1.54 4.15.82 8.6 1.14 11.4 1.19a2.73 2.73 0 0 1-.1 5.47c-3.04-.06-7.82-.4-12.35-1.29a37.87 37.87 0 0 1-6.56-1.83c-1.95-.77-3.9-1.84-5.25-3.37a11.6 11.6 0 0 1-2.66-4.5 5.04 5.04 0 0 1 1.07-4.82 6.7 6.7 0 0 1 3.63-1.9 41.47 41.47 0 0 1-4.18-8.25c-.78-2.23-1.31-4.75-.82-7.05a6.8 6.8 0 0 1 1.74-3.35 7.47 7.47 0 0 1 3.5-2c5.43-1.46 9.51 1.74 12.08 5.2.43-1.52 1.1-3.04 2.14-4.3a8 8 0 0 1 5.99-2.98c5.37-.25 8.39 4.15 9.94 7.93l.13.31a7.44 7.44 0 0 1 3.2-3c2.18-.96 4.4-.37 6.29 1.07 4.8 3.64 4.97 10.39 3.53 16.26-1.49 6.13-4.99 12.71-9.46 17.62a2.73 2.73 0 0 1-4.1-.07c.21.27.38.58.48.93a150.69 150.69 0 0 0 9.76 24.82c2.16 4.2 4.46 7.89 6.78 10.57 2.4 2.77 4.46 4.04 6.07 4.23 4.67.56 10.7-.67 16.58-2.64a88.64 88.64 0 0 0 14.19-6.18 2.73 2.73 0 0 1 2.67 4.77 94 94 0 0 1-15.13 6.6c-6.09 2.04-13.07 3.6-18.97 2.88-3.67-.44-6.88-3.01-9.54-6.08-2.73-3.14-5.26-7.26-7.51-11.64a156.09 156.09 0 0 1-10.15-25.79 2.73 2.73 0 0 1 4.7-2.55 2.74 2.74 0 0 1 .13-3.54 36.7 36.7 0 0 0 8.19-15.22c1.33-5.48.47-9.1-1.53-10.61-.44-.34-.69-.4-.76-.42-.13.06-.57.4-1.12 1.5-1.1 2.21-1.75 5.68-1.98 8.3a2.73 2.73 0 0 1-5.46-.1 32.04 32.04 0 0 0-2.04-9.94c-1.4-3.39-3.02-4.62-4.64-4.55-.94.05-1.53.4-2.01.99a7.52 7.52 0 0 0-1.33 3.26Zm261.07-31.74c-2.23 3-4.17 7.06-5.27 9.9a2.73 2.73 0 0 1-4.94.35 7.6 7.6 0 0 0-.87-1.24c-.34-.4-.65-.65-.87-.77a2.64 2.64 0 0 0-.26.33c-.16.23-.43 1-.49 2.67-.04 1.54.11 3.44.41 5.5.6 4.11 1.7 8.53 2.53 11.32a2.73 2.73 0 1 1-5.24 1.56 90.2 90.2 0 0 1-2.7-12.1 38.58 38.58 0 0 1-.46-6.45c.05-1.86.35-3.99 1.42-5.57a6.08 6.08 0 0 1 3.52-2.65c1.5-.37 2.85.02 3.86.57.26.14.5.3.75.47a44.78 44.78 0 0 1 4.22-7.15 17.4 17.4 0 0 1 4.65-4.53c1.84-1.12 4.18-1.72 6.59-.65a7.71 7.71 0 0 1 4.15 4.81c.64 1.9.75 4.06.64 6.08a32.05 32.05 0 0 1-.5 3.98c.42-.2.85-.39 1.28-.56 2.8-1.12 6.98-2 10.07.82a5.96 5.96 0 0 1 1.84 5.52 12.43 12.43 0 0 1-2.12 4.85 26.2 26.2 0 0 1-1.86 2.41l.66.12c1.36.3 2.87.81 4.1 1.79a6.02 6.02 0 0 1 2.35 4.54c.06 1.5-.62 2.7-1.4 3.53a9.9 9.9 0 0 1-2.69 1.96 33.83 33.83 0 0 1-7.2 2.5 115.05 115.05 0 0 1-16.04 2.57 2.74 2.74 0 0 1-.48-5.45c4.1-.37 10.2-1.19 15.21-2.43 2.52-.62 4.6-1.32 5.98-2.04a5.7 5.7 0 0 0 1.07-.69.83.83 0 0 0-.2-.2c-.3-.25-.9-.53-1.83-.72-1.88-.4-4.26-.3-5.89-.07a2.73 2.73 0 0 1-2.1-4.84 30.7 30.7 0 0 0 5.79-6.04 7.24 7.24 0 0 0 1.25-2.64c.07-.45-.02-.53-.12-.62a.65.65 0 0 1 0-.01c-.58-.52-1.86-.78-4.37.22-2.3.92-4.64 2.54-6.08 3.77a2.73 2.73 0 0 1-4.33-3.04 35.43 35.43 0 0 0 2.15-9.54c.1-1.68-.04-3.05-.37-4.03-.3-.94-.73-1.35-1.18-1.55-.28-.12-.69-.2-1.53.32-.91.55-1.98 1.6-3.1 3.12Zm-11.82 8.12v.01Zm-.27.05Zm1.75 26.68a2.74 2.74 0 0 1 2.14 3.22c-2.36 11.66-18.62 35.8-63.41 47.63a2.74 2.74 0 0 1-3.35-1.95 2.74 2.74 0 0 1 1.95-3.34c43.5-11.49 57.63-34.44 59.44-43.42a2.73 2.73 0 0 1 3.23-2.14Zm-135.54 31.87a2.74 2.74 0 0 1 3.85.37 9.48 9.48 0 0 0 4.62 2.98c1.88.5 4.24.35 6.93-1.87a2.73 2.73 0 1 1 3.47 4.22c-4.06 3.35-8.24 3.87-11.8 2.94a14.95 14.95 0 0 1-7.44-4.8 2.73 2.73 0 0 1 .37-3.84Z" fill="#000"/><path fill-rule="evenodd" clip-rule="evenodd" d="M209.94 130.49a2.73 2.73 0 0 1 2.14 3.22c-.29 1.4-.65 3.62-.84 5.65-.09 1.03-.12 1.94-.1 2.65.03.64.1.87.1.87h-.01a2.73 2.73 0 0 1-4.81 2.6 7.42 7.42 0 0 1-.74-3.24c-.04-1.05.01-2.22.12-3.36.2-2.29.6-4.71.92-6.25a2.73 2.73 0 0 1 3.22-2.14Zm-14.88 48.44c-1.12 5.42-1.78 12.66-.62 18.67.65 3.3 1.8 5.99 3.5 7.82 1.62 1.75 3.92 2.93 7.38 2.95 6.82.05 11-4.11 13.58-10.11 2.31-5.4 3.1-11.91 3.08-16.82a53.76 53.76 0 0 0-26.92-2.51Zm-2.98-4.94c5.5-1.44 19.58-2.75 33.63 3.04a2.74 2.74 0 0 1 1.69 2.4c.25 5.54-.44 13.9-3.48 20.98-3.06 7.16-8.8 13.5-18.63 13.43-4.87-.03-8.64-1.77-11.36-4.7-2.64-2.85-4.1-6.63-4.85-10.5-1.5-7.7-.4-16.72 1.04-22.64a2.73 2.73 0 0 1 1.96-2Zm127.31 142.53a6.78 6.78 0 0 1 5.59-3.04c2.52-.11 4.8.96 6.7 2.48 1.89 1.53 3.59 3.64 5.06 6.03 2.96 4.78 5.3 11.1 6.5 17.39 1.22 6.24 1.4 12.8-.3 17.97a14.45 14.45 0 0 1-4.33 6.77 12.33 12.33 0 0 1-8 2.76c-6.21.04-10.93-1.65-14.24-4.8-3.27-3.12-4.8-7.33-5.35-11.66-1.06-8.56 1.65-18.56 4.36-25.07a2.73 2.73 0 1 1 5.05 2.1c-2.55 6.14-4.88 15.1-3.98 22.3.44 3.54 1.63 6.4 3.7 8.37 2.03 1.93 5.24 3.33 10.42 3.29a6.88 6.88 0 0 0 4.54-1.5c1.1-.92 2.01-2.32 2.64-4.25 1.28-3.93 1.25-9.45.13-15.24-1.12-5.76-3.24-11.43-5.79-15.56a18.38 18.38 0 0 0-3.85-4.64c-1.25-1-2.26-1.31-3.01-1.28-.48.03-.75.14-.9.22a1.03 1.03 0 0 0-.36.35c-.23.36-.32.86-.3 1.15a2.73 2.73 0 0 1-2.61 2.86 2.73 2.73 0 0 1-2.86-2.61 7.61 7.61 0 0 1 1.2-4.4Z" fill="#000"/><path fill-rule="evenodd" clip-rule="evenodd" d="M246.6 309.49a2.73 2.73 0 0 1 2.16 3.2c-1.3 6.64-2.25 16.7-1 25.33 1.3 8.88 4.65 14.76 10.68 15.8 3.3.59 7.68-.08 12.83-1.85 5.1-1.74 10.68-4.45 16.26-7.64a210.8 210.8 0 0 0 28.62-20.03 2.73 2.73 0 0 1 3.51 4.2c-6.77 5.67-17.91 14-29.42 20.58-5.75 3.28-11.65 6.17-17.2 8.07-5.48 1.88-10.9 2.88-15.55 2.07-9.87-1.73-13.8-11.22-15.13-20.4-1.38-9.45-.33-20.18 1.03-27.17a2.73 2.73 0 0 1 3.21-2.16ZM121.61 366.8a2.73 2.73 0 0 1 3.63 1.33c1.98 4.26 4.09 11.5 4.2 19.71.12 8.24-1.77 17.63-8 25.95-7.62 10.17-18.44 14.56-26.5 11.89a12.8 12.8 0 0 1-8.51-9.31c-1.18-4.6-.47-10.4 2.38-17.15 9.03-21.33 23.14-26.51 30.12-25.9a2.73 2.73 0 0 1-.48 5.44c-4.01-.35-16.24 2.83-24.6 22.6-2.58 6.1-2.9 10.61-2.12 13.65a7.33 7.33 0 0 0 4.93 5.47c5 1.66 13.58-.87 20.4-9.97 5.33-7.1 7.02-15.22 6.91-22.59-.1-7.4-2.02-13.89-3.69-17.49a2.73 2.73 0 0 1 1.33-3.63Z" fill="#000"/><path fill-rule="evenodd" clip-rule="evenodd" d="M158.8 288.64a2.73 2.73 0 0 1 1.1 3.7 942.04 942.04 0 0 0-22.31 44.15 310.22 310.22 0 0 0-9.08 21.02 76.35 76.35 0 0 0-2.47 7.52c-.55 2.14-.64 3.37-.57 3.87a2.73 2.73 0 0 1-5.41.79c-.25-1.68.12-3.83.68-6.02.6-2.3 1.5-5.04 2.65-8.08a315.2 315.2 0 0 1 9.25-21.42 948.14 948.14 0 0 1 22.46-44.42 2.73 2.73 0 0 1 3.7-1.11Z" fill="#000"/><path d="M82.09 307.56a39.38 39.38 0 1 1-78.76 0 39.38 39.38 0 0 1 78.76 0Z" fill="#fff"/><path fill-rule="evenodd" clip-rule="evenodd" d="M24.46 275.23c-6.84 3.73-13.76 10.77-17.4 24.3-3.62 13.44-.73 22.84 5.26 29.44 6.15 6.77 15.89 10.97 26.55 13.1 10.15 2.04 20.2-.51 27.58-7.14 7.36-6.62 12.33-17.54 11.8-32.74-.4-11.64-6.26-19.19-13.58-24.01-7.4-4.87-16.2-6.9-22.04-7.26-4.2 0-11.27.55-18.17 4.31Zm-2.62-4.8c8.1-4.42 16.29-4.98 20.86-4.98h.16c6.57.39 16.41 2.63 24.81 8.16 8.5 5.6 15.58 14.65 16.05 28.39.57 16.52-4.85 29.12-13.62 37-8.75 7.86-20.58 10.78-32.3 8.44-11.23-2.24-22.27-6.8-29.53-14.8-7.4-8.16-10.53-19.54-6.5-34.54 4.02-14.91 11.87-23.2 20.07-27.67Z" fill="#000"/><path fill-rule="evenodd" clip-rule="evenodd" d="m33.5 272.26.74-2.62 5.27 1.46-.13.44 4.83 2.37 3.98-1.79-.1-.36 5.27-1.46.73 2.62a2.73 2.73 0 0 1-1.51 3.23l-7.3 3.28a2.73 2.73 0 0 1-2.32-.04l-8.02-3.94a2.73 2.73 0 0 1-1.43-3.18Zm37.55 13.37a2.73 2.73 0 0 1 2.16-.42l3.64.82-1.2 5.33-.74-.16-.93 6.8 2.97 5.25 1.12-1 3.66 4.07-3.65 3.28a2.73 2.73 0 0 1-4.2-.69l-5.11-9.02a2.73 2.73 0 0 1-.33-1.72l1.46-10.67a2.73 2.73 0 0 1 1.15-1.87Zm-4.23 36.77a2.73 2.73 0 0 1 3.27 2l1.52 6.13-5.3 1.32-.88-3.51-6.34 1.47-3.98 5 3.61 3.64-3.88 3.86-5.32-5.36a2.73 2.73 0 0 1-.2-3.63l6.08-7.66c.39-.48.92-.82 1.53-.96l9.89-2.3Zm-57.99-.74a2.74 2.74 0 0 1 3.2-1.41l12.53 3.58a2.74 2.74 0 0 1 1.85 1.76l3.58 10.74c.23.7.17 1.44-.15 2.1l-2.69 5.36-4.9-2.44 2.19-4.36-2.77-8.3-8.96-2.56-2.56 5.13-4.9-2.44 3.58-7.16Zm2.43-40.9h9.57a2.73 2.73 0 0 1 2.73 2.74v11.37c0 .89-.43 1.72-1.15 2.23l-8.61 6.13a2.74 2.74 0 0 1-3.28-.08l-6.7-5.25 3.38-4.3 5.1 3.99 5.8-4.13v-7.23h-6.85v-5.47Zm30.5 11.47a2.73 2.73 0 0 1 3.13-.07l10.27 6.85a2.73 2.73 0 0 1 .96 3.43l-5.99 12.84a2.73 2.73 0 0 1-3.05 1.52l-11.99-2.57a2.73 2.73 0 0 1-2.12-2.22l-1.71-10.27a2.74 2.74 0 0 1 1.09-2.67l9.41-6.84Zm1.68 5.54-6.51 4.73 1.13 6.78L46.1 311l4.07-8.74-6.73-4.5Z" fill="#000"/><path fill-rule="evenodd" clip-rule="evenodd" d="M32.1 270.54a2.73 2.73 0 0 1 3.08-.43l10.94 5.47a2.73 2.73 0 0 1 1.5 2.62l-1.1 17.5a2.73 2.73 0 0 1-1.08 2.02l-8.75 6.56a2.73 2.73 0 0 1-2.94.22l-12.43-6.69-5.49 5.49-.9 14.52 9.21 3.84 8.6-13.39a2.73 2.73 0 0 1 3.17-1.11l13.13 4.37a2.74 2.74 0 0 1 1.38 1.04l9.85 14.22a2.73 2.73 0 0 1-.17 3.34l-6.57 7.66c-.55.64-1.36.99-2.2.95l-22.98-1.1.26-5.46 21.64 1.03 4.32-5.04-8.13-11.74-10.24-3.41-8.7 13.53a2.73 2.73 0 0 1-3.35 1.04l-13.13-5.47a2.73 2.73 0 0 1-1.67-2.7l1.09-17.5a2.73 2.73 0 0 1 .8-1.76l7.65-7.66a2.74 2.74 0 0 1 3.23-.47l12.68 6.83 6.35-4.76.9-14.44-7.64-3.81-11.74 10.76-3.7-4.03 13.14-12.04Z" fill="#000"/><path fill-rule="evenodd" clip-rule="evenodd" d="M69.55 295.03a2.73 2.73 0 0 1 2.7 1.05l6.55 8.75c.56.74.7 1.72.38 2.59l-7.66 20.78-5.13-1.9 7.15-19.38-4.65-6.2-15.84 2.97-1-5.38 17.5-3.28Zm-14.3-23.6 19.68 14.23-3.2 4.43-19.69-14.22 3.2-4.43Z" fill="#000"/><path d="m47.08 279.12-12.03-7.65L24.1 282.4l-3.28 13.13-6.57 7.66-1.09 21.88 7.66-1.1 5.47 7.66 26.25 2.19 4.38-6.56 13.12-5.47 3.29-8.76-1.1-7.65-4.37-7.66 3.28-10.94 5.47-1.1 4.37 16.42-5.47 7.65-3.28 12.04 3.28 8.75-16.4 13.12-12.04-7.65H33.95l-14.22 2.18L7.7 325.07l5.47-20.79-7.66-7.65 3.28-9.85 14.22-5.47 13.13-13.13 19.7 4.38-8.76 6.56Z" fill="#000"/><path d="m44.9 296.63-8.76 6.12 1.46 5.36 9.48 3.83 4.38-9.96-6.57-5.36Zm18.59-15.32v-5.47h2.19l4.37 2.19-2.18 5.47-4.38-2.19Z" fill="#000"/></svg>