<svg width="388" height="431" fill="none" xmlns="http://www.w3.org/2000/svg"><path d="m315.972 331.963 6.005-12.321 4.221-3.479 11.479 11.52 4.48 26.076-9.384 10.286-11.027-1.685-9.243-10.527 3.469-19.87ZM102.601 383.357l10.547-4.809 12.051-3.892 1.611 11.256-3.487 19.492-6.837 12.641-12.923 5.183-13.552-3.969.608-15.842 11.982-20.06Z" fill="#6A6689"/><path d="m192.214 140.526-18.527 1.944.05 1.093-.842 5.514-3.068 28.612-12.202 44.362-17.416 50.076-5.013 10.085 16.642 4.713 32.492 16.031 17.325-28.171 9.193 9.434 4.48 26.077 13.214 1.584 33.775-3.739 6.356-4.671-7.007-9.535-7.96-30.296-7.527-68.644.282-41.625-10.286-9.384-9.985-2.828-2.727 12.171-8.442 6.957-12.12-1.634-10.286-9.384-.401-8.742Z" fill="#EF965A"/><path d="m169.776 176.596-11.87 3.83-12.08-24.633 26.768-13.273.766-.075.227-2.16 10.877-1.594 4.351 2.228 4.492-.443 6.556-.301 7.85 4.02 9.735-2.636 8.742-.401 3.974 1.382 3.725-.64 5.814 3.958 3.179 1.105 27.319-1.252 6.466 21.605-28.954 13.373-4.781-32.633-3.229-2.198-9.539-3.318-4.967.854-3.87 11.128-8.491 5.864-10.978-.591-8.1-9.485-1.444-7.599-3.499-1.792-15.455 1.526-3.584 34.151Z" fill="#FFD6BB"/><path d="m97.685 132.814-7.7-.742-22.055-3.37-3.529-5.313 5.214-5.714-4.973-12.913 1.935-5.564 11.178 4.963 10.628-7.058 8.1 9.484 4.221-3.478 5.513.842 1.795 15.249-10.327 13.614ZM186.071 54.297 166.952 67.22l-12.763 8.25 2.637 9.736 11.028 1.684 8.451 17.134 11.629 14.797 14.556 6.999 21.013 4.511 17.484-.801 17.184-7.358 14.698-13.815 6.947-15.65 14.206-.65-1.543-9.785-8.993-5.063-29.072-36.994-68.343 14.083ZM331.126 89.26l2.787 13.013 8.942 3.97 18.477-3.037 9.635-4.822-9.043-6.156 5.063-8.993-3.428-3.128-10.828 2.687.492-13.163-4.572-4.171-12.412 15.9-1.193-2.136-4.371.2.451 9.836Z" fill="#FBE7D4"/><path d="m157.609 54.507.652 14.206 6.706 2.978 1.986-4.471 17.033-10.637 9.985 2.828 17.434-1.895 11.178 4.963 7.549-2.536 22.247-16.35 3.579 6.405 4.972 12.913 10.236 8.291 13.414 5.956 3.97-8.943.642-9.885-7.258-14.998-4.822-9.634-11.479-11.52-17.835-6.847-14.256-.442-9.935-1.735-23.098-2.226-16.141 6.215-16.833 15.008-9.926 22.356ZM143.171 97.876l12.512-13.714 12.121 1.635 7.358 17.183 9.343 12.713 21.264 9.975 21.013 4.512 3.688-.56 16.974-2.577 15.991-9.494 11.319-15.849 6.206-7.95 5.564 1.935.2 4.371 9.694 20.362 9.193 9.434c.802 17.484-18.968 16.2-28.953 13.373-.754 2.662-18.327 6.315-25.935-16.332l-.051-1.093-3.178 2.336-7.599 1.443-9.425.041-6.916 1.803-6.607-.792-9.935-1.734-17.935-9.034c-7.991 16.793-28.773 9.35-29.505 1.353-15.575 4.218-32.455-7.273-30.156-12.853l13.755-10.487Z" fill="#F6D38A"/><path d="m210.259 175.835-17.485.802-2.376 19.82 8.3 13.855 13.064-1.694 11.519-11.478 1.384-17.585-14.406-3.72Z" fill="#000" fill-opacity=".25"/><path fill-rule="evenodd" clip-rule="evenodd" d="M224.619 43.891a2.736 2.736 0 0 1 .452 3.841c-11.439 14.489-25.555 15.802-31.731 14.34a2.735 2.735 0 0 1 1.261-5.323c4.156.984 16.088.373 26.177-12.406a2.735 2.735 0 0 1 3.841-.452ZM253.722 35.39a2.735 2.735 0 0 1 2.232 2.781c-.281 8.25 4.663 27.644 27.435 36.54a2.736 2.736 0 0 1-1.991 5.094c-19.397-7.577-27.395-22.125-29.939-33.044-3.07 3.926-7.067 7.215-11.103 9.866-6.522 4.285-13.542 7.163-18.082 8.522a2.735 2.735 0 1 1-1.568-5.24c4.102-1.227 10.626-3.898 16.647-7.853 6.077-3.992 11.255-9.04 13.285-14.876a2.734 2.734 0 0 1 3.084-1.79ZM191.016 43.874a2.735 2.735 0 0 1 1.649 3.498c-1.3 3.622-4.578 8.76-9.084 13.072-4.51 4.316-10.611 8.142-17.646 8.465a2.734 2.734 0 0 1-.251-5.464c5.203-.238 10.111-3.121 14.116-6.953 4.008-3.835 6.752-8.28 7.718-10.969a2.734 2.734 0 0 1 3.498-1.649Z" fill="#000"/><path fill-rule="evenodd" clip-rule="evenodd" d="M185.353 13.47c19.691-9.13 37.243-5.221 43.905-1.866a2.735 2.735 0 0 1-2.46 4.885c-5.295-2.666-21.091-6.427-39.144 1.943-11.082 5.138-18.182 13.964-22.337 22.89-4.19 9.003-5.254 17.826-4.551 22.624a2.735 2.735 0 1 1-5.412.793c-.891-6.08.472-15.985 5.004-25.724 4.568-9.816 12.487-19.746 24.995-25.546ZM252.867 19.221c-7.042-1.814-13.911-2.016-17.994-1.658a2.735 2.735 0 0 1-.477-5.448c4.643-.407 12.139-.173 19.835 1.81 7.681 1.978 15.864 5.777 21.481 12.743 13.222 16.399 16.409 34.478 15.664 43.947a2.735 2.735 0 0 1-5.453-.429c.639-8.115-2.148-24.804-14.469-40.085-4.602-5.707-11.53-9.062-18.587-10.88Z" fill="#000"/><path fill-rule="evenodd" clip-rule="evenodd" d="M166.01 63.45a2.735 2.735 0 0 1 2.527 2.928c-.641 8.688 1.131 22.249 8.539 34.375 7.336 12.009 20.285 22.768 42.399 25.979 22.007 3.195 36.438-4.28 45.701-14.604 9.394-10.469 13.615-24.05 14.599-32.984a2.735 2.735 0 0 1 5.437.6c-1.077 9.775-5.632 24.521-15.964 36.037-10.463 11.66-26.706 19.827-50.559 16.364-23.746-3.448-38.108-15.162-46.281-28.541-8.102-13.262-10.036-28.003-9.326-37.628a2.734 2.734 0 0 1 2.928-2.526Z" fill="#000"/><path fill-rule="evenodd" clip-rule="evenodd" d="M287.732 81.9c-1.042.289-2.132 1.289-2.792 2.308a2.735 2.735 0 1 1-4.591-2.972c1.044-1.614 3.092-3.824 5.925-4.607a7.59 7.59 0 0 1 4.869.258c1.673.658 3.2 1.89 4.579 3.644 2.01 2.558 2.411 5.407 1.58 8.013-.785 2.462-2.583 4.473-4.569 5.877-1.999 1.412-4.441 2.393-6.852 2.592-2.414.2-5.123-.384-7.026-2.551a2.734 2.734 0 1 1 4.11-3.61c.407.465 1.163.818 2.465.71 1.306-.108 2.83-.678 4.146-1.608 1.329-.938 2.193-2.06 2.515-3.071.276-.867.228-1.83-.669-2.972-.947-1.205-1.736-1.72-2.281-1.934a2.125 2.125 0 0 0-1.409-.077ZM160.461 73.605c1.045.279 2.145 1.27 2.814 2.282a2.735 2.735 0 1 0 4.564-3.014c-1.06-1.605-3.128-3.795-5.968-4.553a7.59 7.59 0 0 0-4.866.304c-1.668.673-3.183 1.919-4.546 3.686-1.986 2.576-2.36 5.429-1.506 8.027.808 2.455 2.625 4.45 4.624 5.835 2.012 1.393 4.463 2.351 6.875 2.528 2.416.177 5.119-.43 7.003-2.616a2.734 2.734 0 1 0-4.144-3.57c-.403.467-1.155.827-2.458.731-1.307-.096-2.836-.652-4.161-1.57-1.337-.925-2.212-2.04-2.543-3.047-.284-.864-.245-1.828.642-2.978.935-1.214 1.719-1.736 2.262-1.955a2.124 2.124 0 0 1 1.408-.09ZM199.159 97.112a2.735 2.735 0 0 1 3.567 1.494c1.618 3.948 8.986 12.823 25.178 11.268 8.396-.807 13.893-2.894 17.324-5.022 3.504-2.173 4.714-4.288 4.939-5.081a2.734 2.734 0 1 1 5.263 1.49c-.718 2.535-3.102 5.623-7.318 8.239-4.289 2.66-10.636 4.949-19.685 5.818-18.695 1.796-28.27-8.555-30.762-14.639a2.734 2.734 0 0 1 1.494-3.567ZM197.083 79.526a2.734 2.734 0 0 1 2.857 2.607l.05 1.093a2.735 2.735 0 0 1-5.464.25l-.05-1.093a2.735 2.735 0 0 1 2.607-2.857ZM251.922 81.393a2.734 2.734 0 0 1 2.857 2.606l.05 1.093a2.735 2.735 0 0 1-5.464.25l-.05-1.092a2.735 2.735 0 0 1 2.607-2.857Z" fill="#000"/><path fill-rule="evenodd" clip-rule="evenodd" d="M155.839 80.713a2.735 2.735 0 0 1 1.108 3.705c-2.142 3.972-6.31 10.022-11.973 15.533-5.647 5.496-12.988 10.658-21.492 12.479a2.734 2.734 0 1 1-1.145-5.348c7.112-1.523 13.568-5.937 18.823-11.051 5.239-5.1 9.079-10.696 10.973-14.21a2.736 2.736 0 0 1 3.706-1.108ZM173.75 98.303a2.735 2.735 0 0 1 1.718 3.465c-1.194 3.544-3.631 9.026-7.13 14.172-3.461 5.091-8.205 10.215-14.139 12.5a2.735 2.735 0 0 1-1.966-5.104c4.397-1.693 8.358-5.729 11.582-10.471 3.187-4.688 5.415-9.713 6.47-12.843a2.734 2.734 0 0 1 3.465-1.719ZM286.462 91.857a2.736 2.736 0 0 1 2.747 2.724c.033 8.002 5.097 26.724 25.312 35.699a2.735 2.735 0 0 1-2.22 4.999c-22.709-10.083-28.522-31.16-28.562-40.675a2.735 2.735 0 0 1 2.723-2.747ZM264.689 115.856a2.735 2.735 0 0 1 2.664 2.804c-.116 4.526 2.121 15.247 11.8 21.077a2.736 2.736 0 0 1-2.823 4.686c-11.943-7.195-14.59-20.196-14.445-25.902a2.736 2.736 0 0 1 2.804-2.665ZM183.368 142.737c-3.882.302-7.858.911-10.313 1.377a2.734 2.734 0 1 1-1.021-5.373c2.611-.496 6.79-1.137 10.91-1.457 2.06-.161 4.15-.244 6.044-.181 1.846.061 3.712.266 5.217.79a2.735 2.735 0 0 1 1.814 2.934c-.354 2.729-.094 6.883 1.716 10.37 1.715 3.306 4.89 6.187 10.944 6.664 3.056.24 5.333-.323 7.054-1.262 1.733-.946 3.07-2.365 4.089-4.085 2.084-3.517 2.686-8.059 2.543-11.18a2.736 2.736 0 0 1 2.336-2.832c4.149-.608 10.357-.037 15.614 3.751 5.399 3.89 9.335 10.835 9.382 22.033.054 13.124.377 43.939 3.219 73.242 1.422 14.661 3.467 28.847 6.392 40.214 1.463 5.685 3.127 10.584 5.001 14.454 1.895 3.912 3.891 6.533 5.892 7.948a2.733 2.733 0 0 1 .655 3.811 2.733 2.733 0 0 1-3.811.655c-3.092-2.185-5.589-5.757-7.658-10.03-2.09-4.315-3.862-9.593-5.376-15.475-3.028-11.767-5.106-26.274-6.539-41.049-2.868-29.569-3.19-60.595-3.245-73.747-.041-9.824-3.411-14.954-7.11-17.619-2.972-2.141-6.448-2.903-9.306-2.927-.197 3.521-1.087 7.833-3.283 11.539-1.42 2.398-3.421 4.595-6.175 6.098-2.766 1.509-6.125 2.226-10.103 1.913-8.013-.63-12.821-4.684-15.37-9.596-1.917-3.694-2.511-7.763-2.463-11.042a22.915 22.915 0 0 0-1.611-.106c-1.624-.054-3.497.017-5.438.168ZM263.853 307.437a2.735 2.735 0 0 1-1.874 3.383c-3.882 1.114-10.23 2.633-16.758 3.594-6.415.944-13.439 1.422-18.437.168a2.734 2.734 0 1 1 1.33-5.305c3.864.969 9.945.663 16.31-.274 6.253-.921 12.362-2.383 16.046-3.44a2.735 2.735 0 0 1 3.383 1.874Z" fill="#000"/><path fill-rule="evenodd" clip-rule="evenodd" d="M172.303 138.703a2.735 2.735 0 0 1 2.965 2.483c1.867 21.078-4.313 49.263-12.6 75.659-7.731 24.621-17.406 48.022-24.524 63.271 7.956 1.519 16.837 5.011 24.876 8.836 7.981 3.797 15.323 8.016 20.411 11.228l15.795-27.837a2.733 2.733 0 0 1 3.739-1.022c3.054 1.752 5.381 4.59 7.162 7.773 1.79 3.198 3.124 6.913 4.115 10.661 1.981 7.49 2.683 15.467 2.728 20.567a2.734 2.734 0 0 1-5.47.048c-.041-4.753-.706-12.262-2.545-19.217-.919-3.474-2.108-6.72-3.601-9.388-.899-1.606-1.875-2.944-2.921-3.992l-15.675 27.625a2.736 2.736 0 0 1-3.889.93c-4.796-3.178-13.071-8.094-22.199-12.437-9.184-4.37-18.97-8.032-26.869-8.911a2.732 2.732 0 0 1-2.163-3.901c7.114-14.827 17.582-39.662 25.811-65.872 8.259-26.305 14.136-53.608 12.371-73.538a2.735 2.735 0 0 1 2.483-2.966Z" fill="#000"/><path fill-rule="evenodd" clip-rule="evenodd" d="M174.99 140.203a2.735 2.735 0 0 1-1.222 3.67l-25.785 12.905a81.904 81.904 0 0 1 5.75 8.166c2.356 3.827 4.643 8.284 6.064 12.845l8.928-3.717a2.734 2.734 0 1 1 2.103 5.049l-11.82 4.922a2.738 2.738 0 0 1-3.726-1.952c-1.022-4.775-3.465-9.827-6.207-14.279-2.729-4.432-5.646-8.098-7.453-10.074a2.736 2.736 0 0 1 .795-4.29l28.903-14.466a2.736 2.736 0 0 1 3.67 1.221ZM271.953 142.561c.56.491.896 1.188.93 1.932.117 2.561.623 6.77 1.748 10.903 1.153 4.237 2.827 7.893 4.972 9.849a2.735 2.735 0 0 1-.652 4.482l-29.996 14.516a2.735 2.735 0 0 1-2.383-4.923l26.839-12.988c-1.897-2.823-3.182-6.282-4.058-9.5-.892-3.279-1.431-6.578-1.713-9.253l-24.524 2.109a2.735 2.735 0 1 1-.468-5.449l27.269-2.346a2.738 2.738 0 0 1 2.036.668Z" fill="#000"/><path fill-rule="evenodd" clip-rule="evenodd" d="M84.078 104.126c-.606 2.992-.357 6.709.098 9.234a2.735 2.735 0 0 1-5.353 1.112c-.63-2.677-2.023-6.508-4.056-9.338-2.066-2.876-4.151-3.951-6.382-3.347-.585.159-.857.365-.99.503-.128.134-.252.334-.329.694-.176.828-.033 2.202.635 4.11 1.309 3.74 4.112 8.096 6.36 10.988a2.734 2.734 0 0 1-2.486 4.393c-1.492-.179-2.654-.162-3.475-.027-.35.057-.586.127-.74.186.147.402.535 1.107 1.432 2.129.505.575 1.518 1.245 3.152 1.892 1.584.627 3.514 1.142 5.59 1.548 4.155.813 8.605 1.138 11.405 1.184a2.735 2.735 0 0 1-.091 5.469c-3.045-.051-7.825-.397-12.363-1.285-2.269-.444-4.551-1.037-6.555-1.831-1.954-.774-3.904-1.839-5.248-3.369-1.282-1.46-2.259-2.97-2.662-4.505-.438-1.668-.192-3.436 1.068-4.817.988-1.082 2.338-1.631 3.63-1.905-1.63-2.552-3.207-5.464-4.18-8.243-.78-2.231-1.31-4.756-.822-7.054.256-1.203.798-2.373 1.74-3.35.936-.974 2.138-1.62 3.5-1.989 5.435-1.472 9.517 1.734 12.083 5.201.433-1.53 1.104-3.046 2.142-4.311 1.413-1.722 3.42-2.86 5.984-2.977 5.37-.246 8.39 4.152 9.947 7.925l.129.318c.74-1.194 1.77-2.365 3.208-3.002 2.167-.96 4.387-.368 6.279 1.067 4.806 3.646 4.967 10.388 3.536 16.262-1.493 6.131-4.992 12.713-9.466 17.616a2.735 2.735 0 0 1-4.097-.064c.213.269.38.582.481.932 1.916 6.552 5.44 16.452 9.754 24.819 2.161 4.191 4.463 7.885 6.788 10.568 2.394 2.764 4.453 4.038 6.061 4.231 4.67.56 10.707-.674 16.586-2.638 5.808-1.94 11.117-4.472 14.187-6.187a2.735 2.735 0 0 1 2.667 4.775c-3.337 1.864-8.958 4.542-15.122 6.6-6.092 2.035-13.069 3.588-18.969 2.88-3.678-.441-6.887-3.013-9.544-6.079-2.727-3.147-5.259-7.267-7.515-11.643-4.52-8.768-8.162-19.017-10.142-25.791a2.735 2.735 0 0 1 4.7-2.549 2.736 2.736 0 0 1 .125-3.541c3.868-4.239 6.921-10.003 8.192-15.224 1.334-5.477.473-9.091-1.528-10.609-.442-.335-.692-.405-.76-.418l-.008-.001c-.123.062-.561.397-1.113 1.509-1.093 2.206-1.754 5.669-1.983 8.297a2.735 2.735 0 0 1-5.456-.112c-.125-2.723-.728-6.735-2.046-9.93-1.4-3.391-3.018-4.621-4.64-4.547-.933.043-1.523.393-2.007.983-.558.679-1.029 1.764-1.33 3.258ZM345.147 72.391c-2.23 2.998-4.171 7.058-5.262 9.899a2.734 2.734 0 0 1-4.94.353 7.6 7.6 0 0 0-.871-1.24c-.347-.398-.654-.65-.873-.775a2.636 2.636 0 0 0-.265.336c-.152.223-.43 1.002-.481 2.667-.047 1.543.108 3.442.405 5.503.592 4.11 1.695 8.522 2.53 11.312a2.735 2.735 0 1 1-5.24 1.568c-.889-2.971-2.064-7.654-2.704-12.101-.319-2.219-.518-4.464-.458-6.449.057-1.862.348-3.993 1.427-5.578.864-1.27 2.021-2.278 3.516-2.648 1.498-.37 2.849.022 3.855.57.26.141.511.3.751.47 1.147-2.383 2.593-4.963 4.223-7.152 1.306-1.756 2.867-3.449 4.646-4.53 1.843-1.12 4.181-1.713 6.591-.643 2.226.988 3.499 2.847 4.155 4.809.638 1.907.752 4.056.635 6.08a32.054 32.054 0 0 1-.5 3.98c.421-.2.849-.389 1.28-.561 2.812-1.122 6.979-2.002 10.07.819 1.726 1.574 2.145 3.63 1.844 5.524-.277 1.751-1.16 3.43-2.123 4.851-.556.82-1.19 1.63-1.86 2.405.223.037.444.079.663.125 1.364.289 2.867.807 4.097 1.781 1.32 1.045 2.258 2.573 2.348 4.543.069 1.501-.618 2.7-1.389 3.536-.752.814-1.725 1.449-2.697 1.957-1.955 1.02-4.53 1.838-7.193 2.499-5.373 1.333-11.783 2.184-16.042 2.566a2.736 2.736 0 0 1-.488-5.448c4.102-.367 10.209-1.185 15.213-2.426 2.525-.627 4.603-1.322 5.979-2.04.54-.282.879-.52 1.075-.69a.832.832 0 0 0-.201-.209c-.308-.244-.895-.52-1.835-.718-1.874-.397-4.254-.305-5.885-.066a2.735 2.735 0 0 1-2.105-4.842c1.822-1.457 4.269-3.792 5.792-6.04.773-1.141 1.154-2.039 1.25-2.641.07-.446-.02-.528-.12-.619a.647.647 0 0 1-.009-.008c-.566-.516-1.846-.78-4.357.221-2.301.918-4.646 2.544-6.079 3.768a2.735 2.735 0 0 1-4.337-3.04c.917-2.443 1.956-6.21 2.149-9.543.096-1.672-.033-3.043-.363-4.03-.311-.933-.73-1.341-1.187-1.544-.273-.121-.685-.195-1.53.318-.909.553-1.973 1.608-3.1 3.121Zm-11.812 8.123-.012.007a.06.06 0 0 1 .012-.007Zm-.279.045-.004-.002ZM334.805 107.241a2.736 2.736 0 0 1 2.14 3.222c-2.353 11.657-18.617 35.795-63.409 47.627a2.737 2.737 0 0 1-3.343-1.946 2.737 2.737 0 0 1 1.946-3.343c43.496-11.489 57.633-34.445 59.444-43.42a2.735 2.735 0 0 1 3.222-2.14ZM199.267 139.107a2.736 2.736 0 0 1 3.85.371c.881 1.07 2.58 2.442 4.622 2.979 1.877.495 4.238.35 6.927-1.866a2.735 2.735 0 1 1 3.478 4.221c-4.064 3.35-8.243 3.871-11.797 2.935-3.389-.892-6.013-3.045-7.451-4.79a2.734 2.734 0 0 1 .371-3.85Z" fill="#000"/><path fill-rule="evenodd" clip-rule="evenodd" d="M209.939 130.487a2.735 2.735 0 0 1 2.139 3.222c-.283 1.404-.652 3.618-.833 5.655-.091 1.022-.129 1.935-.1 2.649.025.632.097.869.089.871l-.006-.009a2.735 2.735 0 0 1-4.81 2.604c-.581-1.04-.702-2.335-.738-3.244-.043-1.044.015-2.217.117-3.357.204-2.288.608-4.708.92-6.252a2.735 2.735 0 0 1 3.222-2.139ZM195.063 178.93c-1.123 5.416-1.787 12.663-.618 18.666.644 3.305 1.796 5.991 3.496 7.825 1.623 1.752 3.923 2.925 7.383 2.949 6.82.046 11.002-4.113 13.573-10.114 2.315-5.405 3.095-11.908 3.078-16.816-10.924-4.034-21.645-3.497-26.912-2.51Zm-2.983-4.938c5.506-1.447 19.578-2.754 33.627 3.034a2.736 2.736 0 0 1 1.69 2.404c.254 5.538-.439 13.899-3.473 20.98-3.068 7.162-8.808 13.496-18.637 13.429-4.866-.033-8.64-1.766-11.358-4.7-2.642-2.851-4.099-6.629-4.853-10.497-1.5-7.708-.388-16.727 1.04-22.647a2.734 2.734 0 0 1 1.964-2.003ZM319.393 316.518c1.088-1.667 2.948-2.916 5.587-3.037 2.524-.115 4.8.96 6.692 2.481 1.895 1.524 3.596 3.638 5.073 6.027 2.957 4.783 5.286 11.102 6.504 17.387 1.208 6.24 1.39 12.807-.3 17.979-.855 2.618-2.234 5.012-4.337 6.763-2.138 1.78-4.836 2.738-8.004 2.761-6.21.046-10.929-1.652-14.234-4.803-3.27-3.117-4.812-7.33-5.352-11.659-1.066-8.558 1.651-18.554 4.36-25.068a2.735 2.735 0 1 1 5.05 2.1c-2.552 6.137-4.879 15.098-3.982 22.292.442 3.546 1.633 6.408 3.698 8.376 2.029 1.934 5.244 3.331 10.42 3.293 2.031-.015 3.472-.603 4.544-1.495 1.106-.922 2.008-2.328 2.638-4.258 1.282-3.923 1.252-9.442.129-15.241-1.115-5.755-3.236-11.427-5.786-15.551-1.277-2.064-2.594-3.632-3.848-4.64-1.256-1.01-2.26-1.315-3.015-1.28-.484.022-.753.133-.897.216a1.031 1.031 0 0 0-.359.346c-.234.358-.321.861-.308 1.152a2.733 2.733 0 0 1-2.606 2.857 2.733 2.733 0 0 1-2.857-2.606c-.054-1.166.196-2.869 1.19-4.392Z" fill="#000"/><path fill-rule="evenodd" clip-rule="evenodd" d="M246.6 309.487a2.735 2.735 0 0 1 2.16 3.208c-1.295 6.633-2.25 16.698-.992 25.327 1.295 8.882 4.645 14.756 10.667 15.807 3.304.577 7.683-.092 12.839-1.855 5.099-1.743 10.678-4.457 16.256-7.647 11.156-6.38 22.035-14.503 28.62-20.024a2.735 2.735 0 0 1 3.514 4.191c-6.772 5.677-17.917 14.004-29.419 20.581-5.75 3.288-11.658 6.179-17.202 8.075-5.486 1.875-10.905 2.878-15.549 2.067-9.874-1.724-13.798-11.213-15.139-20.406-1.377-9.446-.329-20.17 1.037-27.164a2.733 2.733 0 0 1 3.208-2.16ZM121.612 366.811a2.734 2.734 0 0 1 3.631 1.331c1.976 4.26 4.083 11.499 4.2 19.71.118 8.242-1.771 17.633-8.002 25.948-7.624 10.174-18.437 14.559-26.502 11.887-4.155-1.377-7.301-4.59-8.51-9.309-1.18-4.603-.47-10.4 2.385-17.144 9.027-21.336 23.138-26.516 30.115-25.91a2.735 2.735 0 0 1-.474 5.449c-4.018-.349-16.243 2.832-24.604 22.592-2.58 6.098-2.903 10.615-2.124 13.656.75 2.925 2.554 4.686 4.932 5.474 5 1.657 13.582-.87 20.405-9.975 5.326-7.107 7.015-15.219 6.91-22.59-.106-7.401-2.023-13.885-3.693-17.488a2.735 2.735 0 0 1 1.331-3.631Z" fill="#000"/><path fill-rule="evenodd" clip-rule="evenodd" d="M158.8 288.638a2.734 2.734 0 0 1 1.109 3.705c-6.04 11.2-15.018 28.537-22.32 44.143-3.653 7.808-6.865 15.137-9.08 21.029-1.108 2.949-1.947 5.488-2.468 7.517-.549 2.142-.646 3.363-.573 3.864a2.735 2.735 0 0 1-5.412.793c-.245-1.675.126-3.83.687-6.016.59-2.299 1.504-5.042 2.646-8.082 2.288-6.087 5.569-13.564 9.246-21.423 7.36-15.729 16.389-33.163 22.46-44.421a2.735 2.735 0 0 1 3.705-1.109Z" fill="#000"/><path d="M82.086 307.564c0 21.75-17.632 39.381-39.381 39.381-21.75 0-39.38-17.631-39.38-39.381 0-21.749 17.63-39.381 39.38-39.381 21.75 0 39.38 17.632 39.38 39.381Z" fill="#fff"/><path fill-rule="evenodd" clip-rule="evenodd" d="M24.461 275.233c-6.84 3.731-13.76 10.764-17.402 24.291-3.62 13.446-.728 22.844 5.264 29.448 6.145 6.771 15.883 10.971 26.543 13.103 10.155 2.031 20.201-.517 27.582-7.147 7.363-6.614 12.335-17.538 11.81-32.739-.4-11.64-6.272-19.185-13.593-24.01-7.39-4.87-16.204-6.904-22.04-7.261-4.186.007-11.267.553-18.164 4.315Zm-2.62-4.801c8.1-4.418 16.288-4.984 20.864-4.984.054 0 .107.002.16.005 6.563.386 16.408 2.623 24.81 8.159 8.503 5.604 15.576 14.649 16.05 28.388.57 16.523-4.85 29.118-13.622 36.997-8.755 7.865-20.586 10.786-32.31 8.442-11.218-2.244-22.264-6.795-29.52-14.792-7.408-8.163-10.533-19.55-6.495-34.545 4.015-14.915 11.863-23.197 20.064-27.67Z" fill="#000"/><path fill-rule="evenodd" clip-rule="evenodd" d="m33.507 272.265.73-2.626 5.27 1.464-.123.439 4.83 2.371 3.98-1.791-.102-.363 5.27-1.463.73 2.625a2.735 2.735 0 0 1-1.513 3.226l-7.293 3.281a2.732 2.732 0 0 1-2.327-.039l-8.022-3.938a2.733 2.733 0 0 1-1.43-3.186ZM71.046 285.627a2.734 2.734 0 0 1 2.16-.421l3.646.82-1.2 5.336-.74-.166-.93 6.8 2.973 5.256 1.114-1.002 3.659 4.065-3.647 3.282a2.735 2.735 0 0 1-4.21-.686l-5.105-9.025a2.735 2.735 0 0 1-.329-1.717l1.459-10.666a2.734 2.734 0 0 1 1.15-1.876ZM66.819 322.403a2.735 2.735 0 0 1 3.272 2.004l1.522 6.126-5.308 1.319-.873-3.512-6.34 1.472-3.981 5.007 3.612 3.635-3.88 3.855-5.326-5.36a2.734 2.734 0 0 1-.201-3.629l6.088-7.658c.384-.483.92-.822 1.522-.962l9.892-2.297ZM8.834 321.656a2.736 2.736 0 0 1 3.197-1.407l12.53 3.58a2.736 2.736 0 0 1 1.844 1.765l3.58 10.74c.23.688.176 1.44-.149 2.088l-2.685 5.37-4.892-2.446 2.179-4.357-2.766-8.297-8.96-2.56-2.566 5.13-4.892-2.446 3.58-7.16ZM11.255 280.763h9.572a2.735 2.735 0 0 1 2.735 2.735v11.377c0 .885-.429 1.716-1.15 2.229l-8.615 6.126a2.737 2.737 0 0 1-3.272-.077l-6.7-5.25 3.374-4.306 5.093 3.992 5.8-4.125v-7.231h-6.837v-5.47ZM41.763 292.225a2.735 2.735 0 0 1 3.125-.063l10.273 6.849a2.734 2.734 0 0 1 .962 3.432l-5.993 12.841a2.735 2.735 0 0 1-3.051 1.518l-11.986-2.569a2.734 2.734 0 0 1-2.124-2.224l-1.713-10.273a2.736 2.736 0 0 1 1.09-2.662l9.417-6.849Zm1.676 5.544-6.51 4.735 1.13 6.771 8.036 1.722 4.078-8.739-6.734-4.489Z" fill="#000"/><path fill-rule="evenodd" clip-rule="evenodd" d="M32.106 270.543a2.735 2.735 0 0 1 3.07-.43l10.94 5.47a2.733 2.733 0 0 1 1.506 2.616l-1.093 17.503a2.735 2.735 0 0 1-1.09 2.017l-8.75 6.563a2.734 2.734 0 0 1-2.938.221l-12.43-6.693-5.487 5.487-.907 14.525 9.213 3.84 8.607-13.389a2.735 2.735 0 0 1 3.166-1.115l13.127 4.375a2.737 2.737 0 0 1 1.383 1.038l9.845 14.221a2.734 2.734 0 0 1-.172 3.336l-6.563 7.658c-.55.64-1.364.992-2.207.952l-22.972-1.094.26-5.464 21.637 1.031 4.32-5.04-8.126-11.737-10.246-3.415-8.696 13.527a2.735 2.735 0 0 1-3.352 1.045l-13.127-5.469a2.735 2.735 0 0 1-1.678-2.695l1.094-17.503a2.734 2.734 0 0 1 .796-1.763l7.657-7.658a2.737 2.737 0 0 1 3.23-.474l12.682 6.829 6.343-4.757.903-14.436-7.637-3.818-11.74 10.761-3.695-4.032 13.127-12.033Z" fill="#000"/><path fill-rule="evenodd" clip-rule="evenodd" d="M69.549 295.031a2.735 2.735 0 0 1 2.692 1.047l6.563 8.751c.557.743.7 1.716.379 2.587L71.525 328.2l-5.132-1.891 7.143-19.388-4.65-6.201-15.832 2.969-1.008-5.376 17.503-3.282ZM55.245 271.436l19.69 14.221-3.202 4.434-19.69-14.221 3.202-4.434Z" fill="#000"/><path d="m47.08 279.122-12.032-7.657-10.94 10.939-3.281 13.127-6.564 7.658-1.093 21.878 7.657-1.094 5.47 7.657 26.253 2.188 4.376-6.563 13.127-5.47 3.282-8.751-1.094-7.658-4.376-7.657 3.282-10.939 5.47-1.094 4.375 16.409-5.47 7.657-3.281 12.033 3.281 8.751-16.408 13.127-12.033-7.657H33.954l-14.22 2.188L7.7 325.067l5.47-20.785-7.658-7.657 3.282-9.845 14.22-5.47 13.128-13.127 19.69 4.376-8.751 6.563Z" fill="#000"/><path d="m44.893 296.625-8.751 6.126 1.458 5.36 9.48 3.829 4.376-9.955-6.563-5.36ZM63.49 281.31v-5.469h2.187l4.376 2.188-2.188 5.469-4.376-2.188Z" fill="#000"/></svg>