<svg width="335" height="438" viewBox="0 0 335 438" fill="none" xmlns="http://www.w3.org/2000/svg">
<path d="M35.7742 330.994L31.9296 305.535L31.1887 300.007L28.0541 297.613L22.4555 299.446L12.8803 311.984L9.85504 324.944L16.6547 338.535L25.1775 342.371L35.4234 336.453L35.7742 330.994Z" fill="#A1A1A1"/>
<path d="M198.9 385.325L186.541 390.012L182.775 397.443L181.582 416.001L186.269 428.36L197.996 433.498L209.404 426.558L209.786 403.563L198.9 385.325Z" fill="#A1A1A1"/>
<path d="M151.614 268.285L149.181 254.974L122.771 256.566L106.045 260.971L74.3166 260.028L70.8312 263.093L64.0791 299.929L47.8445 296.693L42.7763 307.329L43.5564 329.303L50.8472 335.252L65.2885 349.334L83.6363 353.802L99.5509 344.959L107.223 327.913L111.902 306.291L161.854 381.848L177.488 377.372L198.331 360.077L201.216 349.301L183.78 330.641L166.835 304.34L151.614 268.285Z" fill="#2D5473"/>
<path d="M67.8512 173.016L49.9553 144.461L76.9269 134.137L103.837 158.886L112.079 167.089L124.087 167.861L133.031 165.147L138.279 168.773L179.341 177.989L177.517 206.372L148.182 202.294L151.294 256.207L120.587 256.425L105.975 262.063L73.2251 259.958L64.9829 251.756L63.5714 239.607L71.9372 177.663L67.8512 173.016Z" fill="#539AD1"/>
<path d="M28.3072 37.8378L39.0525 58.2594L51.8718 63.468L68.9483 53.6038L72.6442 47.2643L69.6499 42.6872L65.2833 42.4066L66.1953 28.215L60.8072 26.7725L53.8363 32.9015L44.5025 24.6285L39.9955 26.5312L41.4071 38.6797L30.7711 33.6115L28.3072 37.8378Z" fill="#BF8C69"/>
<path d="M81.7056 93.8857L78.4307 93.6752L74.6955 83.5697L98.2434 41.2363L120.708 32.8146L156.632 53.7583L196.22 85.8992L205.313 114.984L200.034 128.895L190.279 127.172L194.396 114.282C180.149 144.936 151.796 151.737 139.401 151.306C101.96 147.146 88.1807 123.898 85.9712 112.795L81.7056 93.8857Z" fill="#BF8C69"/>
<path d="M191.015 252.182L190.414 244.47L174.32 239.051L167.559 241.905L166.187 246.202L172.456 250.99L168.62 259.512L170.523 264.019L177.073 264.44L178.765 272.222L185.315 272.643L191.405 263.169L191.015 252.182Z" fill="#BF8C69"/>
<path d="M76.4891 72.7233L72.4031 68.076L71.7324 61.4559L72.2937 52.7226L75.0383 44.1296L85.4245 36.0278L87.8884 31.8015L93.6274 27.7857L96.1615 22.4677L106.337 17.6408L118.205 20.5959L127.359 14.6072L142.993 10.1312L158.066 14.3884L162.012 21.219L174.971 24.2442L176.734 30.9345L188.812 30.6146L198.076 39.9793L202.232 43.5349L206.037 52.5489L207.659 61.4225L215.972 68.5337L218.475 80.7524L218.655 95.0142L222.46 104.028L218.904 108.184L210.912 113.151L200.806 116.887L195.208 118.719L191.893 102.064L187.807 97.4163L185.164 87.3809L174.738 79.0377L165.194 74.0396L155.439 72.3165L146.176 62.9518L140.647 63.6926L129.411 50.9126L126.697 41.9689L119.196 39.2944L119.266 38.2028L110.853 49.7199L101.768 54.6169L96.6301 66.3445L90.9613 69.2687L89.0979 81.2068L81.5264 79.624L76.4891 72.7233Z" fill="#555555"/>
<path d="M111.68 122.12L110.479 106.697L132.772 117.995L160.875 124.186L150.278 135.563L129.467 135.321L111.68 122.12Z" fill="white"/>
<path fill-rule="evenodd" clip-rule="evenodd" d="M129.783 17.6603C139.569 9.78288 151.494 13.4922 156.314 16.4748C157.599 17.2696 159.284 16.8727 160.079 15.5884C160.874 14.304 160.477 12.6185 159.192 11.8238C153.47 8.28258 138.762 3.4109 126.353 13.3996C125.177 14.3467 124.991 16.0683 125.938 17.2448C126.885 18.4214 128.606 18.6074 129.783 17.6603Z" fill="black"/>
<path fill-rule="evenodd" clip-rule="evenodd" d="M159.123 20.0613C158.616 21.484 159.358 23.0485 160.781 23.5557C163.442 24.5045 170.214 26.3003 176.096 25.7043C177.599 25.5521 178.694 24.2105 178.542 22.7078C178.389 21.2051 177.048 20.1104 175.545 20.2626C170.835 20.7398 164.957 19.238 162.618 18.4038C161.195 17.8966 159.631 18.6387 159.123 20.0613Z" fill="black"/>
<path fill-rule="evenodd" clip-rule="evenodd" d="M192.947 25.435C191.95 24.3007 190.222 24.1896 189.088 25.1869C187.275 26.7809 184.923 27.6349 182.572 28.0055C180.216 28.3767 178.078 28.2273 176.934 28.009C175.45 27.7259 174.018 28.6991 173.735 30.1828C173.452 31.6664 174.425 33.0986 175.909 33.3816C177.652 33.7143 180.426 33.8807 183.423 33.4083C186.424 32.9354 189.865 31.7866 192.699 29.2946C193.833 28.2973 193.944 26.5693 192.947 25.435Z" fill="black"/>
<path fill-rule="evenodd" clip-rule="evenodd" d="M195.644 38.0112C194.689 39.1814 194.864 40.9042 196.034 41.8591C197.081 42.7132 198.77 44.3619 200.24 46.3885C201.737 48.4515 202.806 50.6315 203.004 52.5854C203.156 54.0881 204.498 55.1828 206 55.0306C207.503 54.8784 208.598 53.5368 208.445 52.0341C208.107 48.6919 206.41 45.5787 204.668 43.1768C202.899 40.7384 200.876 38.7504 199.492 37.6214C198.322 36.6665 196.599 36.841 195.644 38.0112Z" fill="black"/>
<path fill-rule="evenodd" clip-rule="evenodd" d="M214.2 63.253C210.127 60.1832 205.175 59.1956 201.823 59.1896C200.313 59.187 199.086 60.4092 199.084 61.9196C199.081 63.43 200.303 64.6565 201.814 64.6592C204.307 64.6636 208.012 65.438 210.908 67.6211C213.642 69.6814 215.895 73.1584 215.503 79.2465C215.407 80.7537 216.55 82.0542 218.057 82.151C219.564 82.2479 220.865 81.1045 220.962 79.5973C221.468 71.7121 218.436 66.4455 214.2 63.253Z" fill="black"/>
<path fill-rule="evenodd" clip-rule="evenodd" d="M216.403 92.8459C215.338 93.9164 215.342 95.648 216.413 96.7134C217.576 97.8712 218.851 99.7173 219.219 101.46C219.391 102.278 219.345 102.97 219.103 103.565C218.866 104.148 218.345 104.878 217.148 105.622C215.865 106.42 215.471 108.106 216.269 109.389C217.066 110.671 218.752 111.065 220.035 110.268C222.035 109.025 223.425 107.458 224.17 105.626C224.909 103.806 224.916 101.967 224.57 100.33C223.902 97.1652 221.855 94.4132 220.271 92.8366C219.2 91.7712 217.469 91.7753 216.403 92.8459Z" fill="black"/>
<path fill-rule="evenodd" clip-rule="evenodd" d="M171.772 78.1378C171.407 79.6035 172.3 81.0874 173.765 81.4524C176.729 82.1904 183.91 86.3716 184.768 97.3896C184.886 98.8954 186.201 100.021 187.707 99.9038C189.213 99.7865 190.339 98.4707 190.221 96.9649C189.158 83.3052 180.035 77.3769 175.087 76.1449C173.621 75.7799 172.137 76.6722 171.772 78.1378Z" fill="black"/>
<path fill-rule="evenodd" clip-rule="evenodd" d="M143.808 52.2202C142.311 52.4208 141.26 53.797 141.46 55.294C142.474 62.862 146.832 68.1863 151.654 71.7013C156.437 75.1874 161.828 77.0196 165.427 77.6554C166.915 77.9181 168.333 76.9254 168.596 75.438C168.859 73.9507 167.866 72.532 166.379 72.2692C163.475 71.7563 158.889 70.2068 154.876 67.2814C150.902 64.3849 147.645 60.2678 146.881 54.5675C146.681 53.0705 145.305 52.0196 143.808 52.2202Z" fill="black"/>
<path fill-rule="evenodd" clip-rule="evenodd" d="M127.334 40.1578C125.824 40.1978 124.632 41.4542 124.672 42.964C124.824 48.6972 127.817 53.7458 131.143 57.5802C134.494 61.4437 138.451 64.3881 141.141 65.9565C142.445 66.7172 144.12 66.2761 144.881 64.9713C145.641 63.6665 145.2 61.992 143.895 61.2313C141.655 59.925 138.183 57.3497 135.275 53.9964C132.341 50.614 130.244 46.7488 130.14 42.8192C130.1 41.3094 128.843 40.1178 127.334 40.1578Z" fill="black"/>
<path fill-rule="evenodd" clip-rule="evenodd" d="M172.006 101.404C170.702 100.643 169.027 101.084 168.266 102.389L167.034 104.502C166.274 105.807 166.715 107.481 168.02 108.242C169.324 109.003 170.999 108.562 171.76 107.257L172.992 105.144C173.752 103.839 173.311 102.164 172.006 101.404Z" fill="black"/>
<path fill-rule="evenodd" clip-rule="evenodd" d="M117.384 81.4508C116.079 80.69 114.405 81.1311 113.644 82.4359L112.412 84.5491C111.651 85.8539 112.092 87.5284 113.397 88.2891C114.702 89.0498 116.376 88.6087 117.137 87.3039L118.369 85.1907C119.13 83.8859 118.689 82.2115 117.384 81.4508Z" fill="black"/>
<path fill-rule="evenodd" clip-rule="evenodd" d="M211.776 110.443C210.412 109.794 208.78 110.372 208.13 111.736C207.784 112.463 205.777 114.958 201.053 113.97C199.575 113.661 198.126 114.609 197.817 116.088C197.508 117.566 198.455 119.015 199.934 119.324C207.324 120.869 211.725 116.906 213.068 114.089C213.718 112.725 213.139 111.093 211.776 110.443Z" fill="black"/>
<path fill-rule="evenodd" clip-rule="evenodd" d="M192.778 100.257C191.27 100.16 189.97 101.304 189.873 102.811C189.735 104.964 189.749 108.345 190.248 111.615C190.497 113.251 190.88 114.94 191.467 116.465C192.043 117.96 192.896 119.505 194.209 120.628C195.356 121.61 197.083 121.476 198.065 120.328C199.047 119.18 198.912 117.454 197.764 116.472C197.415 116.173 196.981 115.562 196.571 114.498C196.172 113.463 195.868 112.189 195.655 110.79C195.228 107.99 195.212 105.012 195.331 103.162C195.428 101.654 194.285 100.354 192.778 100.257Z" fill="black"/>
<path fill-rule="evenodd" clip-rule="evenodd" d="M200.202 102.12C198.81 102.707 198.158 104.311 198.746 105.703C199.018 106.346 199.367 107.345 199.542 108.205C199.595 108.464 199.622 108.663 199.634 108.806C199.067 109.793 199.159 111.071 199.952 111.973C200.95 113.108 202.678 113.219 203.812 112.221C204.888 111.276 205.067 109.983 205.103 109.317C205.144 108.548 205.035 107.767 204.902 107.115C204.633 105.792 204.147 104.434 203.785 103.576C203.197 102.184 201.593 101.532 200.202 102.12ZM199.636 109.068C199.637 109.069 199.639 109.056 199.641 109.025C199.636 109.052 199.635 109.067 199.636 109.068Z" fill="black"/>
<path fill-rule="evenodd" clip-rule="evenodd" d="M121.019 32.1328C119.568 31.7112 118.051 32.5453 117.629 33.9956C116.765 36.971 114.834 41.4974 111.939 45.242C109.021 49.0175 105.478 51.5663 101.404 51.6436C99.8939 51.6722 98.693 52.9196 98.7216 54.4297C98.7502 55.9398 99.9976 57.1408 101.508 57.1121C107.97 56.9896 112.889 52.9571 116.267 48.5872C119.669 44.1864 121.87 39.0032 122.882 35.5221C123.303 34.0718 122.469 32.5543 121.019 32.1328Z" fill="black"/>
<path fill-rule="evenodd" clip-rule="evenodd" d="M100.432 47.2145C98.9266 47.3318 97.8009 48.6475 97.9182 50.1533C98.1049 52.5511 98.0649 56.2134 97.3845 59.3542C97.0439 60.9268 96.5751 62.2131 96.008 63.121C95.454 64.008 94.9238 64.3599 94.4589 64.4824C92.9983 64.8671 92.1262 66.363 92.5109 67.8236C92.8957 69.2841 94.3916 70.1562 95.8521 69.7715C98.0633 69.189 99.6074 67.6829 100.647 66.0186C101.673 64.3753 102.317 62.4172 102.73 60.5122C103.556 56.6978 103.585 52.4722 103.371 49.7287C103.254 48.2229 101.938 47.0972 100.432 47.2145Z" fill="black"/>
<path fill-rule="evenodd" clip-rule="evenodd" d="M91.332 64.2373C89.8524 64.5404 88.8986 65.9857 89.2017 67.4653C89.5888 69.3549 89.9511 72.2589 89.8133 74.7846C89.7439 76.0548 89.5555 77.0672 89.2824 77.7642C89.1502 78.1015 89.0225 78.3014 88.9321 78.4099C88.8891 78.4615 88.8578 78.4885 88.8413 78.5011C88.8259 78.5129 88.8176 78.5166 88.8135 78.5184C87.422 79.1058 86.7702 80.71 87.3577 82.1015C87.9451 83.493 89.5493 84.1448 90.9408 83.5573C92.7774 82.782 93.8059 81.2119 94.3749 79.7598C94.9459 78.3027 95.1895 76.6435 95.2747 75.0828C95.4459 71.9465 95.0073 68.5509 94.56 66.3676C94.2569 64.8879 92.8116 63.9342 91.332 64.2373Z" fill="black"/>
<path fill-rule="evenodd" clip-rule="evenodd" d="M107.476 20.6338C110.963 20.524 114.228 22.0908 116.125 23.5923C117.309 24.5299 119.029 24.3301 119.967 23.1459C120.904 21.9618 120.704 20.2418 119.52 19.3042C116.896 17.2268 112.404 15.0064 107.304 15.1669C101.993 15.3342 96.4913 18.0721 92.1511 25.0858C91.3563 26.3701 91.7532 28.0556 93.0376 28.8504C94.3219 29.6452 96.0074 29.2483 96.8022 27.9639C100.291 22.3267 104.202 20.7369 107.476 20.6338Z" fill="black"/>
<path fill-rule="evenodd" clip-rule="evenodd" d="M92.4351 31.8423C94.7565 31.8528 97.5974 32.807 99.5346 33.7643C100.889 34.4335 102.529 33.8782 103.198 32.5242C103.867 31.1701 103.312 29.53 101.958 28.8608C99.6452 27.718 95.9463 26.3885 92.4597 26.3728C90.6938 26.3649 88.7384 26.693 87.0519 27.8023C85.2819 28.9665 84.11 30.7929 83.6578 33.1629C83.3747 34.6465 84.348 36.0787 85.8316 36.3618C87.3152 36.6449 88.7474 35.6716 89.0304 34.188C89.2394 33.0928 89.6672 32.6287 90.0575 32.372C90.5313 32.0604 91.297 31.8372 92.4351 31.8423Z" fill="black"/>
<path fill-rule="evenodd" clip-rule="evenodd" d="M88.594 34.5307C87.8605 33.2105 86.1955 32.7349 84.8752 33.4684C81.9907 35.0712 77.8073 38.0867 74.4523 42.0479C71.1231 45.9784 68.2939 51.228 68.9839 57.1659C69.1582 58.6662 70.5157 59.7411 72.016 59.5668C73.5163 59.3924 74.5912 58.0349 74.4169 56.5346C73.9776 52.7536 75.7475 48.9814 78.626 45.5829C81.4786 42.215 85.1114 39.5944 87.5318 38.2495C88.852 37.516 89.3276 35.851 88.594 34.5307Z" fill="black"/>
<path fill-rule="evenodd" clip-rule="evenodd" d="M82.8258 48.2753C81.32 48.3926 80.1944 49.7083 80.3116 51.2142C80.3887 52.204 80.2761 53.716 79.7774 54.9326C79.312 56.0679 78.6865 56.618 77.747 56.7439C76.25 56.9445 75.1991 58.3207 75.3997 59.8177C75.6003 61.3147 76.9765 62.3656 78.4735 62.165C81.9568 61.6982 83.8953 59.3073 84.8382 57.0072C85.7478 54.7883 85.8878 52.3703 85.7647 50.7895C85.6474 49.2837 84.3317 48.158 82.8258 48.2753Z" fill="black"/>
<path fill-rule="evenodd" clip-rule="evenodd" d="M74.2415 58.0216C73.0411 57.1049 71.3248 57.3349 70.4082 58.5353C69.1008 60.2473 67.615 64.267 69.5711 68.9004C70.1585 70.2918 71.7627 70.9436 73.1542 70.3562C74.5456 69.7688 75.1974 68.1646 74.61 66.7731C73.5218 64.1953 74.4666 62.2327 74.7551 61.8549C75.6718 60.6545 75.4418 58.9383 74.2415 58.0216Z" fill="black"/>
<path fill-rule="evenodd" clip-rule="evenodd" d="M76.3521 69.755C74.8448 69.6581 73.5444 70.8015 73.4475 72.3088C73.2875 74.7979 74.4126 80.3952 80.5068 82.0267C81.9658 82.4173 83.4652 81.5511 83.8558 80.0921C84.2463 78.6331 83.3802 77.1338 81.9212 76.7432C80.5585 76.3784 79.8503 75.6374 79.4382 74.8788C78.9788 74.033 78.8762 73.1208 78.9058 72.6596C79.0027 71.1523 77.8593 69.8519 76.3521 69.755Z" fill="black"/>
<path fill-rule="evenodd" clip-rule="evenodd" d="M78.1889 74.464C76.8321 73.8005 75.1943 74.3626 74.5308 75.7194C72.9081 79.0381 71.4475 84.1799 71.8954 88.8932C72.1228 91.2861 72.8619 93.7554 74.5206 95.782C76.2193 97.8574 78.6832 99.2233 81.8732 99.6967C83.3673 99.9184 84.7581 98.887 84.9798 97.393C85.2015 95.899 84.1701 94.5081 82.6761 94.2864C80.6542 93.9864 79.4832 93.2096 78.7532 92.3177C77.9833 91.377 77.4999 90.0544 77.3404 88.3758C77.0145 84.9459 78.1224 80.8258 79.4444 78.1221C80.1079 76.7652 79.5458 75.1274 78.1889 74.464ZM111.13 102.708C110.315 102.768 109.568 103.189 109.096 103.856C107.827 105.65 107.3 108.238 107.303 110.871C107.305 113.598 107.872 116.741 109.164 119.918C111.769 126.324 117.336 132.888 127.194 136.489C146.878 143.679 160.728 134.939 163.221 124.587C163.404 123.83 163.255 123.032 162.812 122.391C162.37 121.751 161.675 121.33 160.903 121.233C155.066 120.501 145.595 118.709 136.3 115.728C126.896 112.713 118.147 108.628 113.309 103.549C112.745 102.958 111.945 102.649 111.13 102.708ZM156.693 126.157C153.349 131.646 144.089 136.837 129.071 131.351C120.722 128.302 116.279 122.894 114.23 117.857C113.195 115.313 112.774 112.866 112.772 110.865C112.772 110.705 112.775 110.549 112.779 110.398C118.655 114.965 126.756 118.412 134.63 120.937C142.602 123.493 150.674 125.205 156.693 126.157Z" fill="black"/>
<path fill-rule="evenodd" clip-rule="evenodd" d="M83.5221 82.2904C82.0347 82.0276 80.616 83.0204 80.3533 84.5077C78.8363 93.0956 79.1776 106.62 85.0582 119.64C90.9883 132.769 102.509 145.271 123.07 151.606C143.709 157.966 160.372 153.401 172.725 145.036C184.969 136.744 192.919 124.772 196.534 116.197C197.121 114.805 196.468 113.201 195.076 112.615C193.684 112.028 192.081 112.681 191.494 114.073C188.211 121.862 180.87 132.914 169.658 140.507C158.555 148.026 143.598 152.208 124.681 146.379C105.686 140.526 95.3565 129.153 90.0429 117.389C84.68 105.515 84.3846 93.1292 85.7395 85.4592C86.0022 83.9718 85.0094 82.5531 83.5221 82.2904Z" fill="black"/>
<path fill-rule="evenodd" clip-rule="evenodd" d="M206.412 114.302C204.923 114.048 203.51 115.049 203.256 116.538C201.939 124.256 199.067 126.284 197.021 126.764C194.575 127.337 191.569 126.186 189.407 124.591C188.192 123.695 186.48 123.953 185.583 125.169C184.687 126.384 184.945 128.097 186.161 128.993C188.883 131.001 193.554 133.194 198.268 132.089C203.382 130.891 207.152 126.221 208.648 117.458C208.902 115.97 207.901 114.557 206.412 114.302Z" fill="black"/>
<path fill-rule="evenodd" clip-rule="evenodd" d="M49.0965 32.1297C50.4789 35.2824 51.1519 39.1084 51.3262 41.6526C51.4201 43.0243 52.5179 44.113 53.8903 44.1956C55.2628 44.2781 56.4832 43.3289 56.7409 41.9783C57.2665 39.2234 58.351 35.3027 59.8363 32.4053C60.5916 30.9319 61.3227 29.98 61.9264 29.5088C62.4001 29.1391 62.5589 29.2036 62.7394 29.2769L62.7406 29.2774C62.9095 29.346 63.1518 29.4628 63.2916 30.2468C63.45 31.1356 63.3636 32.4671 62.9721 34.1714C62.1994 37.5357 60.47 41.3917 59.0867 43.9187C58.4304 45.118 58.7604 46.6177 59.8595 47.4306C60.9586 48.2435 62.4892 48.1199 63.4437 47.1411C64.4261 46.1336 65.9434 45.0636 67.2961 44.7484C67.9163 44.6039 68.3696 44.647 68.7171 44.7894C69.0479 44.925 69.5568 45.2617 70.1043 46.2097C70.1366 46.2655 70.1712 46.3293 70.1318 46.5398C70.081 46.8113 69.9062 47.2689 69.455 47.9191C68.5405 49.2367 66.8823 50.7938 64.6687 52.4502C60.2891 55.7271 54.4565 58.8662 50.4068 60.7488C49.0372 61.3856 48.4431 63.012 49.0798 64.3816C49.7165 65.7512 51.3429 66.3454 52.7125 65.7086C56.949 63.7392 63.151 60.417 67.9455 56.8295C70.3188 55.0537 72.5324 53.0779 73.9484 51.0376C75.3254 49.0536 76.4332 46.2311 74.8405 43.4738C73.8098 41.6896 72.4495 40.408 70.7912 39.7284C69.5577 39.2229 68.3161 39.1146 67.1648 39.2341C67.6166 37.9631 68.0116 36.6641 68.3029 35.3958C68.7612 33.4004 69.0231 31.2328 68.6763 29.2871C68.3108 27.2365 67.1945 25.1832 64.7995 24.2101C62.4166 23.242 60.2165 23.9051 58.5611 25.1971C57.0346 26.3886 55.8639 28.1645 54.969 29.9101C54.8071 30.226 54.65 30.5493 54.4977 30.8785C54.3729 30.5603 54.2423 30.2449 54.1056 29.9332C52.4623 26.1854 49.4738 21.9884 44.3658 21.6601C41.6969 21.4886 39.5617 22.5571 38.2153 24.5236C37.0156 26.276 36.6068 28.4972 36.5075 30.5136C36.4608 31.4624 36.4796 32.4488 36.5477 33.4431C35.4188 32.7192 34.1091 32.1034 32.6928 31.8916C30.8908 31.6221 29.0133 32.0318 27.4212 33.4316C25.3214 35.2778 25.4116 38.0715 25.7972 40.0451C26.2174 42.1954 27.2107 44.5958 28.3789 46.9064C30.7355 51.5677 34.1511 56.5327 36.571 59.6854C37.4907 60.8835 39.2074 61.1092 40.4056 60.1896C41.6037 59.27 41.8294 57.5532 40.9098 56.355C38.6095 53.3581 35.4095 48.6901 33.26 44.4386C32.1752 42.2928 31.4428 40.4168 31.1653 38.9963C30.9689 37.9913 31.0626 37.5903 31.0991 37.4838C31.3371 37.2956 31.5475 37.2507 31.8839 37.301C32.3727 37.3741 33.0862 37.6711 33.9874 38.3129C35.7843 39.5924 37.5557 41.6827 38.6225 43.2526C39.3821 44.3703 40.8441 44.7657 42.0635 44.1831C43.2828 43.6005 43.8938 42.2146 43.5014 40.9214C42.6385 38.0775 41.8132 33.9768 41.9705 30.7825C42.0505 29.1565 42.3707 28.136 42.7285 27.6135C42.9397 27.3051 43.1905 27.0654 44.0149 27.1184C45.8935 27.2391 47.6487 28.8278 49.0965 32.1297Z" fill="black"/>
<path fill-rule="evenodd" clip-rule="evenodd" d="M42.0082 63.1809C40.5217 62.9135 39.0999 63.9018 38.8325 65.3883C36.4264 78.7649 38.6169 111.762 65.6376 139.608C66.6895 140.692 68.4208 140.718 69.5048 139.666C70.5887 138.614 70.6147 136.883 69.5629 135.799C43.9461 109.4 42.0736 78.265 44.2156 66.3566C44.483 64.8701 43.4947 63.4483 42.0082 63.1809Z" fill="black"/>
<path fill-rule="evenodd" clip-rule="evenodd" d="M78.5398 130.25C77.8363 130.046 77.08 130.132 76.4405 130.49C73.2823 132.257 68.091 134.945 62.8404 137.236C57.4602 139.583 52.4525 141.313 49.478 141.492C48.4626 141.554 47.5651 142.173 47.1481 143.101C46.731 144.029 46.8634 145.111 47.4916 145.911C50.3308 149.527 54.6249 155.281 58.2632 160.767C60.0844 163.513 61.7133 166.15 62.9096 168.395C64.1719 170.764 64.7436 172.323 64.8175 173.052C64.9697 174.555 66.3113 175.65 67.814 175.498C69.3166 175.345 70.4114 174.004 70.2592 172.501C70.0647 170.582 68.983 168.162 67.7367 165.823C66.4243 163.36 64.6894 160.56 62.8214 157.744C60.1288 153.684 57.1015 149.501 54.534 146.098C57.8248 145.216 61.5387 143.771 65.0274 142.249C69.304 140.383 73.5246 138.272 76.7307 136.562C84.6936 149.782 96.7467 157.962 102.787 160.881C108.655 169.21 115.141 172.301 121.215 172.132C127.223 171.964 132.116 168.614 134.81 165.658C135.827 164.542 135.746 162.812 134.63 161.795C133.514 160.777 131.784 160.858 130.767 161.974C128.743 164.196 125.157 166.55 121.062 166.664C117.184 166.773 112.113 164.884 106.877 157.18C106.593 156.762 106.199 156.431 105.738 156.223C100.461 153.848 87.6665 145.461 80.1831 131.579C79.8354 130.934 79.2434 130.455 78.5398 130.25Z" fill="black"/>
<path fill-rule="evenodd" clip-rule="evenodd" d="M74.6655 172.742C73.208 172.346 71.7053 173.206 71.3089 174.663C68.892 183.552 65.5863 198.032 63.5025 212.672C61.4379 227.178 60.4948 242.328 63.1172 252.283C63.5019 253.744 64.9978 254.616 66.4584 254.231C67.9189 253.846 68.791 252.351 68.4063 250.89C66.0941 242.112 66.8516 227.958 68.9175 213.443C70.9643 199.063 74.219 184.807 76.5869 176.098C76.9832 174.641 76.1229 173.138 74.6655 172.742Z" fill="black"/>
<path fill-rule="evenodd" clip-rule="evenodd" d="M135.376 167.655C134.891 169.085 135.657 170.638 137.087 171.123C141.801 172.723 149.564 175.104 157.601 177.07C164.249 178.697 171.276 180.089 176.953 180.46C176.394 184.245 175.739 189.02 175.222 193.537C174.887 196.46 174.606 199.299 174.447 201.703C174.394 202.502 174.352 203.28 174.328 204.015C170.489 203.393 165.75 202.565 161.445 201.692C158.634 201.122 156.046 200.54 154.027 199.992C153.015 199.717 152.187 199.461 151.562 199.231C151.013 199.029 150.767 198.898 150.704 198.865C150.686 198.856 150.683 198.854 150.691 198.86C149.941 198.287 148.948 198.142 148.065 198.475C147.182 198.808 146.534 199.573 146.349 200.499C145.788 203.312 145.1 207.892 144.835 212.597C144.577 217.196 144.692 222.34 146.002 226.034C147.242 229.531 147.909 235.771 148.198 241.978C148.395 246.216 148.409 250.231 148.354 252.981C144.132 252.654 138.499 252.453 132.73 252.7C125.585 253.006 117.848 254.01 112.361 256.56C108.008 258.584 100.946 259.223 93.4815 259.043C86.1417 258.866 78.8962 257.916 74.5034 257.101C73.0185 256.825 71.5911 257.805 71.3153 259.29C71.0396 260.775 72.0198 262.202 73.5048 262.478C78.139 263.339 85.6769 264.326 93.3497 264.511C100.898 264.693 109.077 264.119 114.667 261.52C119.124 259.448 125.947 258.465 132.964 258.164C139.892 257.868 146.635 258.248 150.688 258.686C151.429 258.766 152.172 258.54 152.742 258.06C153.313 257.58 153.663 256.887 153.711 256.143C153.859 253.836 153.953 247.983 153.661 241.724C153.375 235.562 152.701 228.562 151.157 224.206C150.239 221.618 150.042 217.425 150.296 212.904C150.458 210.032 150.79 207.199 151.145 204.854C151.602 204.994 152.088 205.133 152.593 205.27C154.778 205.864 157.498 206.473 160.358 207.053C166.087 208.214 172.532 209.291 176.723 209.928C177.574 210.057 178.436 209.779 179.05 209.175C179.665 208.572 179.959 207.714 179.844 206.861C179.737 206.061 179.748 204.422 179.904 202.064C180.055 199.783 180.325 197.04 180.656 194.159C181.316 188.402 182.205 182.195 182.822 178.241C182.946 177.446 182.713 176.636 182.186 176.028C181.659 175.42 180.89 175.075 180.085 175.085C174.756 175.152 166.836 173.699 158.901 171.757C151.038 169.833 143.428 167.499 138.845 165.944C137.415 165.458 135.862 166.224 135.376 167.655Z" fill="black"/>
<path fill-rule="evenodd" clip-rule="evenodd" d="M173.579 242.044C177.605 242.144 182.668 243.336 186.135 244.443C187.574 244.902 189.112 244.109 189.572 242.67C190.031 241.231 189.238 239.692 187.799 239.233C184.105 238.053 178.48 236.694 173.714 236.576C171.379 236.518 168.873 236.743 166.882 237.736C165.84 238.256 164.853 239.029 164.166 240.155C163.47 241.294 163.204 242.593 163.285 243.944C163.544 248.248 165.429 251.05 168.3 252.289C168.439 252.349 168.578 252.405 168.718 252.456C168.104 253.395 167.538 254.395 167.082 255.42C165.774 258.357 164.93 262.669 168.368 265.802C169.813 267.118 171.449 267.837 173.179 267.917C173.885 267.95 174.558 267.874 175.192 267.723C175.186 267.797 175.181 267.871 175.177 267.945C175.078 269.563 175.243 271.471 176.25 273.092C177.364 274.885 179.216 275.869 181.482 276.015C186.964 276.367 190.974 272.309 192.979 267.505C195.024 262.603 195.399 256.195 193.371 250.001C192.901 248.566 191.357 247.783 189.921 248.253C188.486 248.722 187.703 250.267 188.173 251.702C189.811 256.705 189.449 261.76 187.931 265.399C186.372 269.135 183.992 270.695 181.833 270.556C181.076 270.508 180.946 270.288 180.902 270.214C180.9 270.211 180.898 270.208 180.896 270.205C180.75 269.97 180.568 269.39 180.636 268.278C180.771 266.072 181.788 263.239 182.768 261.257C183.42 259.936 182.909 258.335 181.611 257.637C180.313 256.939 178.695 257.395 177.953 258.668C177.263 259.852 176.067 261.295 174.821 262.023C174.233 262.367 173.775 262.469 173.432 262.453C173.136 262.44 172.679 262.33 172.052 261.759C171.349 261.118 171.037 259.983 172.078 257.645C173.067 255.423 174.903 253.146 176.321 251.744C177.231 250.843 177.395 249.431 176.714 248.346C176.033 247.261 174.691 246.794 173.483 247.222C172.557 247.55 171.329 247.64 170.468 247.268C169.907 247.026 168.91 246.354 168.745 243.615C168.72 243.206 168.805 243.052 168.833 243.006C168.87 242.946 168.98 242.802 169.323 242.631C170.102 242.242 171.518 241.993 173.579 242.044Z" fill="black"/>
<path fill-rule="evenodd" clip-rule="evenodd" d="M176.913 185.139C176.735 186.639 177.806 187.999 179.306 188.177C185.298 188.888 194.358 193.273 201.423 199.571C208.598 205.967 212.645 213.328 210.907 219.819C208.785 227.746 204.058 233.337 199.495 236.895C197.212 238.675 195.006 239.918 193.253 240.673C192.374 241.051 191.647 241.29 191.112 241.418C190.703 241.516 190.518 241.522 190.502 241.526C189.059 241.311 187.691 242.272 187.415 243.719C187.132 245.202 188.106 246.634 189.589 246.918C190.54 247.099 191.573 246.932 192.386 246.738C193.293 246.52 194.322 246.167 195.416 245.696C197.609 244.752 200.218 243.267 202.859 241.208C208.144 237.086 213.697 230.548 216.19 221.234C218.78 211.56 212.575 202.185 205.063 195.488C197.44 188.693 187.376 183.627 179.951 182.746C178.451 182.567 177.091 183.639 176.913 185.139Z" fill="black"/>
<path fill-rule="evenodd" clip-rule="evenodd" d="M124.692 147.498C123.264 147.008 121.708 147.769 121.218 149.198L117.172 160.995C116.682 162.424 117.442 163.979 118.871 164.47C120.3 164.96 121.855 164.199 122.345 162.77L126.392 150.972C126.882 149.544 126.121 147.988 124.692 147.498Z" fill="black"/>
<path fill-rule="evenodd" clip-rule="evenodd" d="M150.368 265.475C148.948 265.991 148.215 267.559 148.731 268.979C152.039 278.093 158.492 293.054 167.148 308.483C175.787 323.881 186.73 339.943 199.07 351.091C200.19 352.104 201.92 352.016 202.932 350.895C203.945 349.774 203.857 348.045 202.736 347.032C191.041 336.466 180.442 320.999 171.919 305.807C163.413 290.646 157.083 275.957 153.872 267.113C153.357 265.693 151.788 264.96 150.368 265.475Z" fill="black"/>
<path fill-rule="evenodd" clip-rule="evenodd" d="M111.173 299.041C109.712 299.425 108.84 300.921 109.225 302.382C110.204 306.097 112.924 311.721 116.482 318.169C120.087 324.704 124.7 332.344 129.646 340.196C139.539 355.904 150.829 372.56 158.209 383.107C158.714 383.829 159.537 384.264 160.418 384.274C169.528 384.379 178.078 380.458 184.93 375.759C191.802 371.046 197.239 365.365 200.191 361.498C201.108 360.297 200.878 358.581 199.678 357.664C198.477 356.748 196.761 356.978 195.844 358.178C193.212 361.625 188.189 366.891 181.836 371.248C175.851 375.353 168.925 378.488 161.861 378.784C154.518 368.252 143.745 352.318 134.274 337.281C129.355 329.473 124.804 321.931 121.271 315.527C117.69 309.036 115.298 303.963 114.514 300.988C114.129 299.528 112.633 298.656 111.173 299.041Z" fill="black"/>
<path fill-rule="evenodd" clip-rule="evenodd" d="M116.676 294.329C116.891 294.296 117.206 294.346 117.573 294.582C118.843 295.399 120.535 295.031 121.352 293.76C122.168 292.49 121.801 290.798 120.53 289.981C119.318 289.202 117.671 288.642 115.845 288.923C113.957 289.213 112.29 290.338 110.998 292.163C108.557 295.612 107.141 301.964 107.342 312.584C107.58 325.095 101.907 339.446 92.8821 346.671C88.457 350.214 83.3076 351.995 77.5907 351.182C71.8217 350.361 65.0806 346.84 57.6648 338.981L52.5886 333.207C51.5913 332.073 49.8633 331.962 48.729 332.959C47.5948 333.957 47.4837 335.685 48.481 336.819L53.5885 342.628C53.6092 342.652 53.6304 342.675 53.6519 342.698C61.6162 351.15 69.427 355.545 76.8202 356.597C84.2739 357.657 90.9026 355.263 96.3004 350.941C106.921 342.439 113.073 326.309 112.811 312.48C112.613 302.028 114.105 297.24 115.462 295.323C116.069 294.467 116.523 294.353 116.676 294.329Z" fill="black"/>
<path fill-rule="evenodd" clip-rule="evenodd" d="M69.2481 260.055C67.7409 260.154 66.5993 261.456 66.6982 262.963C67.2396 271.215 66.5455 291.388 59.7039 306.109C59.0673 307.478 59.6616 309.105 61.0313 309.741C62.4009 310.378 64.0273 309.783 64.6639 308.414C72.0695 292.48 72.7221 271.232 72.156 262.605C72.0571 261.098 70.7552 259.956 69.2481 260.055Z" fill="black"/>
<path fill-rule="evenodd" clip-rule="evenodd" d="M46.8855 293.797C46.0313 294.005 45.3291 294.61 44.9982 295.425C43.418 299.314 41.3697 305.634 40.3194 312.085C39.7937 315.314 39.5054 318.65 39.6795 321.773C39.8523 324.873 40.4901 327.945 41.9672 330.502C42.7227 331.81 44.3954 332.257 45.7033 331.502C47.0111 330.746 47.4589 329.074 46.7034 327.766C45.8131 326.225 45.287 324.097 45.1406 321.469C44.9954 318.864 45.2324 315.945 45.7179 312.964C46.4662 308.368 47.7748 303.801 49.0028 300.304C49.4489 300.46 49.8988 300.594 50.3423 300.709C51.997 301.141 53.8293 301.388 55.6171 301.523C59.1918 301.791 62.8741 301.625 65.2038 301.389C66.7065 301.237 67.8013 299.895 67.649 298.393C67.4968 296.89 66.1552 295.795 64.6525 295.948C62.5688 296.159 59.2154 296.308 56.0265 296.068C54.4325 295.949 52.951 295.737 51.7218 295.417C50.4452 295.084 49.6821 294.695 49.3096 294.376C48.6416 293.805 47.7396 293.589 46.8855 293.797Z" fill="black"/>
<path fill-rule="evenodd" clip-rule="evenodd" d="M27.6985 302.011C26.5642 303.008 26.4531 304.736 27.4504 305.87C29.0706 307.713 32.0819 309.451 34.7431 310.788C37.5384 312.192 40.4624 313.399 42.3226 314.09C43.7385 314.616 45.3126 313.895 45.8385 312.479C46.3644 311.063 45.6429 309.489 44.2271 308.963C42.5186 308.329 39.7831 307.199 37.1982 305.901C34.4791 304.535 32.3895 303.205 31.5581 302.259C30.5608 301.125 28.8328 301.014 27.6985 302.011Z" fill="black"/>
<path fill-rule="evenodd" clip-rule="evenodd" d="M28.6324 301.925C28.5696 302.293 28.4476 302.527 28.4082 302.584C27.5497 303.827 27.8611 305.53 29.1037 306.389C30.3463 307.247 32.0497 306.936 32.9082 305.693C33.951 304.184 34.5369 301.701 33.8225 299.392C33.4397 298.155 32.6765 296.959 31.4265 296.059C30.1944 295.173 28.6548 294.693 26.8881 294.579C24.9575 294.455 23.0984 295.246 21.5407 296.259C19.9341 297.303 18.3499 298.777 16.8806 300.498C13.9407 303.94 11.2207 308.651 9.57104 313.757C7.92504 318.852 7.27515 324.565 8.77636 329.899C10.3072 335.339 14.0078 340.125 20.5272 343.294C25.8381 345.876 31.347 344.627 34.9488 341.578C38.5214 338.554 40.5102 333.422 38.0444 328.452C37.373 327.099 35.732 326.547 34.379 327.218C33.0261 327.89 32.4735 329.531 33.1449 330.884C34.2374 333.085 33.5422 335.603 31.4153 337.403C29.3175 339.179 26.1113 339.927 22.9186 338.375C17.7455 335.86 15.1319 332.292 14.0414 328.418C12.9212 324.437 13.3428 319.874 14.7757 315.438C16.205 311.014 18.5712 306.94 21.0397 304.05C22.2745 302.604 23.4748 301.525 24.5227 300.844C25.6194 300.13 26.2846 300.021 26.5373 300.037C27.5323 300.101 28.0178 300.345 28.2322 300.499C28.4286 300.641 28.5332 300.802 28.5974 301.009C28.6716 301.249 28.6925 301.571 28.6324 301.925Z" fill="black"/>
<path fill-rule="evenodd" clip-rule="evenodd" d="M197.382 382.961C196.192 383.89 195.979 385.608 196.908 386.799C200.677 391.63 206.097 402.798 207.573 412.833C208.311 417.857 207.993 422.163 206.414 425.195C204.956 427.995 202.205 430.127 196.882 430.492C193.734 430.707 191.062 429.434 188.851 426.98C186.588 424.469 184.865 420.754 183.932 416.419C182.041 407.641 183.601 397.492 188.762 391.606C189.757 390.471 189.644 388.743 188.508 387.747C187.373 386.751 185.645 386.865 184.649 388C177.981 395.605 176.465 407.73 178.585 417.57C179.656 422.545 181.71 427.225 184.787 430.641C187.916 434.114 192.146 436.298 197.256 435.948C204.164 435.475 208.791 432.474 211.266 427.721C213.62 423.199 213.791 417.531 212.984 412.037C211.367 401.036 205.554 388.99 201.221 383.435C200.292 382.244 198.573 382.032 197.382 382.961Z" fill="black"/>
<path fill-rule="evenodd" clip-rule="evenodd" d="M181.038 372.155C179.904 373.153 179.793 374.881 180.79 376.015C182.788 378.287 185.829 381.976 188.428 385.617C189.728 387.44 190.888 389.207 191.746 390.753C192.649 392.38 193.057 393.478 193.133 394.043C193.333 395.54 194.709 396.591 196.206 396.39C197.703 396.189 198.754 394.813 198.554 393.316C198.333 391.669 197.478 389.81 196.527 388.097C195.531 386.303 194.244 384.351 192.88 382.44C190.149 378.613 186.986 374.778 184.898 372.403C183.901 371.269 182.173 371.158 181.038 372.155Z" fill="black"/>
<path d="M285.91 307.012C285.91 310.637 282.482 313.575 278.253 313.575C274.024 313.575 270.595 310.637 270.595 307.012C270.595 303.387 274.024 300.448 278.253 300.448C282.482 300.448 285.91 303.387 285.91 307.012Z" fill="white"/>
<path d="M331.854 200.902C331.854 205.132 328.426 208.56 324.197 208.56C319.968 208.56 316.54 205.132 316.54 200.902C316.54 196.673 319.968 193.245 324.197 193.245C328.426 193.245 331.854 196.673 331.854 200.902Z" fill="white"/>
<path d="M241.06 304.824L239.966 319.045L247.623 323.421L260.75 314.669L277.159 281.852L302.319 223.875L313.258 203.09L316.54 184.494L311.07 174.649L300.131 175.743L296.849 189.963L241.06 304.824Z" fill="#C4BA8E"/>
<path fill-rule="evenodd" clip-rule="evenodd" d="M310.826 177.259C309.936 176.283 308.825 175.883 307.288 176.224C305.069 176.717 304.041 177.316 303.486 177.843C302.959 178.345 302.584 179.041 302.23 180.398C302.062 181.042 301.908 181.836 301.729 182.762C301.182 185.589 300.397 189.642 298.245 194.377C293.849 204.049 275.958 240.778 267.582 257.894C253.07 287.55 245.543 303.164 242.809 311.803C241.409 316.224 241.543 318.045 241.883 318.837C242.136 319.426 242.755 320.009 245.206 320.826C246.858 321.377 248.708 321.072 250.904 319.722C253.133 318.352 255.438 316.06 257.69 313.214C262.181 307.539 265.968 300.307 268.149 295.944C269.178 293.887 271.041 289.306 273.54 283.013C274.195 281.364 274.891 279.606 275.622 277.759C277.651 272.631 279.952 266.814 282.418 260.725C289.114 244.189 297.105 225.438 304.314 212.684C311.265 200.386 313.485 190.267 312.992 183.742C312.745 180.462 311.838 178.371 310.826 177.259ZM318.446 183.331C319.048 191.3 316.345 202.513 309.075 215.375C302.063 227.781 294.192 246.222 287.488 262.778C285.031 268.845 282.741 274.631 280.715 279.754C279.982 281.606 279.283 283.372 278.624 285.032C276.167 291.217 274.201 296.071 273.041 298.39C270.847 302.778 266.849 310.454 261.979 316.608C259.55 319.677 256.78 322.53 253.768 324.381C250.723 326.253 247.167 327.245 243.477 326.015C241.006 325.191 238.147 323.997 236.858 320.996C235.656 318.199 236.18 314.619 237.594 310.152C240.486 301.015 248.274 284.906 262.669 255.49C271.067 238.33 288.911 201.695 293.266 192.113C295.123 188.026 295.711 184.991 296.24 182.255C296.455 181.143 296.66 180.081 296.938 179.018C297.404 177.23 298.123 175.396 299.716 173.881C301.281 172.392 303.397 171.486 306.101 170.885C309.486 170.133 312.614 171.1 314.869 173.576C317.002 175.918 318.147 179.364 318.446 183.331Z" fill="black"/>
<path fill-rule="evenodd" clip-rule="evenodd" d="M312.621 182.613C312.037 186.298 310.687 191.403 308.181 198.528C306.241 204.042 302.667 211.455 298.547 219.978L298.308 220.473C294.212 228.946 289.534 238.623 285.148 249.005C268.134 289.271 258.412 306.82 251.952 314.3C248.653 318.121 245.854 319.732 243.02 320.002C241.701 320.127 240.549 319.936 239.729 319.795L239.726 319.795C238.82 319.639 238.375 319.563 237.93 319.588L237.626 314.126C238.718 314.066 239.749 314.246 240.461 314.371C240.528 314.383 240.593 314.394 240.654 314.404C241.453 314.541 241.973 314.607 242.503 314.557C243.369 314.474 244.981 314.004 247.813 310.725C253.616 304.006 263.038 287.279 280.109 246.876C284.55 236.366 289.28 226.582 293.366 218.129L293.623 217.598C297.799 208.957 301.208 201.868 303.021 196.713C305.475 189.736 306.708 184.981 307.218 181.757C307.743 178.447 307.442 177.112 307.262 176.699C307.262 176.699 307.261 176.699 307.261 176.699C307.198 176.687 307.124 176.677 306.989 176.66C306.983 176.659 306.975 176.658 306.966 176.657C306.85 176.641 306.582 176.607 306.322 176.542C306.096 176.486 305.374 176.3 304.767 175.662C303.984 174.839 303.877 173.828 303.997 173.105L309.392 174.004C309.48 173.48 309.412 172.609 308.729 171.891C308.235 171.372 307.689 171.245 307.638 171.234L307.635 171.233C307.599 171.224 307.572 171.219 307.572 171.219C307.572 171.218 307.606 171.224 307.702 171.237L307.728 171.24C307.858 171.257 308.082 171.286 308.324 171.333C308.86 171.436 309.629 171.648 310.399 172.178C311.195 172.726 311.836 173.506 312.275 174.513C313.095 176.393 313.19 179.015 312.621 182.613Z" fill="black"/>
<path fill-rule="evenodd" clip-rule="evenodd" d="M325.171 191.389C328.56 192.103 331.728 194.535 333.207 197.492C333.731 198.54 333.967 199.945 334.007 201.264C334.049 202.654 333.884 204.282 333.355 205.869C332.824 207.462 331.889 209.119 330.324 210.381C328.726 211.669 326.666 212.388 324.197 212.388C321.43 212.388 319.118 211.813 317.326 210.605C315.492 209.37 314.456 207.642 313.978 205.843C313.078 202.449 314.121 198.74 315.144 196.489L315.165 196.443L315.188 196.398C316.25 194.273 317.775 192.754 319.638 191.914C321.477 191.085 323.417 191.02 325.171 191.389ZM320.102 198.8C319.315 200.553 318.839 202.834 319.265 204.44C319.453 205.148 319.798 205.676 320.382 206.07C321.008 206.491 322.151 206.919 324.197 206.919C325.556 206.919 326.368 206.544 326.89 206.123C327.444 205.676 327.877 205.008 328.166 204.14C328.457 203.266 328.566 202.296 328.54 201.43C328.527 201.003 328.482 200.634 328.425 200.349C328.373 200.09 328.324 199.963 328.315 199.94C328.313 199.936 328.313 199.935 328.314 199.938C327.605 198.518 325.85 197.122 324.044 196.742C323.199 196.564 322.473 196.635 321.885 196.9C321.328 197.151 320.675 197.673 320.102 198.8Z" fill="black"/>
<path fill-rule="evenodd" clip-rule="evenodd" d="M279.396 295.741C282.785 296.454 285.953 298.886 287.432 301.843C287.956 302.891 288.192 304.297 288.232 305.615C288.274 307.005 288.109 308.633 287.58 310.221C287.049 311.813 286.114 313.47 284.549 314.732C282.951 316.021 280.891 316.74 278.422 316.74C275.655 316.74 273.343 316.164 271.551 314.957C269.717 313.721 268.681 311.993 268.204 310.194C267.303 306.801 268.346 303.092 269.369 300.84L269.39 300.794L269.413 300.749C270.475 298.624 272 297.105 273.863 296.265C275.702 295.436 277.643 295.372 279.396 295.741ZM274.327 303.151C273.54 304.904 273.064 307.185 273.49 308.791C273.678 309.499 274.023 310.027 274.607 310.421C275.233 310.843 276.376 311.27 278.422 311.27C279.782 311.27 280.593 310.895 281.115 310.475C281.67 310.028 282.102 309.36 282.391 308.491C282.682 307.618 282.791 306.647 282.765 305.781C282.752 305.354 282.707 304.985 282.65 304.7C282.598 304.441 282.549 304.314 282.54 304.291C282.538 304.287 282.538 304.286 282.54 304.289C281.83 302.87 280.076 301.473 278.269 301.093C277.424 300.915 276.698 300.987 276.11 301.252C275.553 301.503 274.9 302.025 274.327 303.151Z" fill="black"/>
<path fill-rule="evenodd" clip-rule="evenodd" d="M281.922 307.838C281.623 308.999 280.737 309.849 279.485 310.267C278.702 310.528 277.7 310.699 276.805 310.215C275.797 309.671 275.554 308.667 275.522 308.024C275.491 307.375 275.638 306.718 275.798 306.197C275.966 305.651 276.189 305.125 276.405 304.694L276.405 304.694C276.663 304.178 277.071 303.69 277.675 303.409C278.287 303.124 278.911 303.139 279.426 303.289C280.377 303.567 281.081 304.318 281.485 305.024C281.904 305.757 282.195 306.78 281.922 307.838ZM278.436 306.412C278.434 306.411 278.433 306.41 278.433 306.41ZM278.801 307.872C278.801 307.875 278.801 307.876 278.801 307.876Z" fill="black"/>
<path fill-rule="evenodd" clip-rule="evenodd" d="M327.867 202.822C327.567 203.983 326.681 204.834 325.429 205.251C324.646 205.512 323.644 205.683 322.75 205.2C321.742 204.655 321.498 203.652 321.467 203.009C321.435 202.359 321.582 201.703 321.742 201.181C321.91 200.636 322.134 200.109 322.349 199.679L322.349 199.679C322.607 199.162 323.016 198.675 323.619 198.393C324.231 198.108 324.855 198.123 325.37 198.273C326.322 198.551 327.025 199.302 327.429 200.009C327.848 200.742 328.14 201.765 327.867 202.822ZM324.38 201.396C324.379 201.395 324.378 201.395 324.378 201.394ZM324.745 202.857C324.745 202.859 324.746 202.861 324.746 202.861Z" fill="black"/>
<path fill-rule="evenodd" clip-rule="evenodd" d="M270.366 296.76L276.639 298.851L271.981 308.168L266.449 306.325L268.178 301.136L268.835 301.354L270.366 296.76Z" fill="black"/>
<path fill-rule="evenodd" clip-rule="evenodd" d="M315.217 192.838L321.093 194.797L318.511 202.543H313.258V197.074H313.805L315.217 192.838Z" fill="black"/>
</svg>
