<svg width="388" height="431" viewBox="0 0 388 431" fill="none" xmlns="http://www.w3.org/2000/svg">
<path d="M315.972 331.963L321.977 319.642L326.198 316.163L337.677 327.683L342.157 353.759L332.773 364.045L321.746 362.36L312.503 351.833L315.972 331.963Z" fill="#6A6689"/>
<path d="M102.601 383.357L113.148 378.548L125.199 374.656L126.81 385.912L123.323 405.404L116.486 418.045L103.563 423.228L90.0114 419.259L90.6188 403.417L102.601 383.357Z" fill="#6A6689"/>
<path d="M192.214 140.526L173.687 142.47L173.737 143.563L172.895 149.077L169.827 177.689L157.625 222.051L140.209 272.127L135.196 282.212L151.838 286.925L184.33 302.956L201.655 274.785L210.848 284.219L215.328 310.296L228.542 311.88L262.317 308.141L268.673 303.47L261.666 293.935L253.706 263.639L246.179 194.995L246.461 153.37L236.175 143.986L226.19 141.158L223.463 153.329L215.021 160.286L202.901 158.652L192.615 149.268L192.214 140.526Z" fill="#EF965A"/>
<path d="M169.776 176.596L157.906 180.426L145.826 155.793L172.594 142.52L173.36 142.445L173.587 140.285L184.464 138.691L188.815 140.919L193.307 140.476L199.863 140.175L207.713 144.195L217.448 141.559L226.19 141.158L230.164 142.54L233.889 141.9L239.703 145.858L242.882 146.963L270.201 145.711L276.667 167.316L247.713 180.689L242.932 148.056L239.703 145.858L230.164 142.54L225.197 143.394L221.327 154.522L212.836 160.386L201.858 159.795L193.758 150.31L192.314 142.711L188.815 140.919L173.36 142.445L169.776 176.596Z" fill="#FFD6BB"/>
<path d="M97.6852 132.814L89.9857 132.072L67.93 128.702L64.4013 123.389L69.6146 117.675L64.6424 104.762L66.5774 99.1978L77.7555 104.161L88.3826 97.1031L96.4828 106.587L100.704 103.109L106.217 103.951L108.012 119.2L97.6852 132.814Z" fill="#FBE7D4"/>
<path d="M186.071 54.2973L166.952 67.2194L154.189 75.4699L156.826 85.2046L167.854 86.8892L176.305 104.023L187.934 118.82L202.49 125.819L223.503 130.33L240.987 129.529L258.171 122.171L272.869 108.356L279.816 92.7069L294.022 92.0556L292.479 82.2708L283.486 77.2078L254.414 40.2135L186.071 54.2973Z" fill="#FBE7D4"/>
<path d="M331.126 89.2596L333.913 102.273L342.855 106.243L361.332 103.206L370.967 98.3837L361.924 92.2279L366.987 83.2353L363.559 80.1073L352.731 82.7938L353.223 69.6305L348.651 65.4599L336.239 81.3597L335.046 79.2243L330.675 79.4247L331.126 89.2596Z" fill="#FBE7D4"/>
<path d="M157.609 54.5072L158.261 68.7131L164.967 71.6908L166.953 67.2196L183.986 56.5831L193.971 59.4106L211.405 57.5162L222.583 62.4791L230.132 59.9429L252.379 43.5921L255.958 49.9984L260.93 62.9112L271.166 71.2024L284.58 77.1578L288.55 68.2153L289.192 58.3304L281.934 43.3323L277.112 33.6978L265.633 22.1783L247.798 15.3306L233.542 14.8891L223.607 13.1544L200.509 10.9282L184.368 17.1435L167.535 32.1509L157.609 54.5072Z" fill="#F6D38A"/>
<path d="M143.171 97.8765L155.683 84.1622L167.804 85.7966L175.162 102.98L184.505 115.693L205.769 125.668L226.782 130.18L230.47 129.62L247.444 127.043L263.435 117.549L274.754 101.7L280.96 93.7497L286.524 95.6848L286.724 100.056L296.418 120.418L305.611 129.852C306.413 147.336 286.643 146.052 276.658 143.225C275.904 145.887 258.331 149.54 250.723 126.893L250.672 125.8L247.494 128.136L239.895 129.579L230.47 129.62L223.554 131.423L216.947 130.631L207.012 128.897L189.077 119.863C181.086 136.656 160.304 129.213 159.572 121.216C143.997 125.434 127.117 113.943 129.416 108.363L143.171 97.8765Z" fill="#F6D38A"/>
<path d="M210.259 175.835L192.774 176.637L190.398 196.457L198.698 210.312L211.762 208.618L223.281 197.14L224.665 179.555L210.259 175.835Z" fill="black" fill-opacity="0.25"/>
<path fill-rule="evenodd" clip-rule="evenodd" d="M224.619 43.891C225.804 44.8269 226.006 46.5466 225.071 47.7321C213.632 62.2209 199.516 63.534 193.34 62.0717C191.871 61.7237 190.961 60.2502 191.309 58.7804C191.657 57.3107 193.131 56.4013 194.601 56.7493C198.757 57.7335 210.689 57.1224 220.778 44.3429C221.713 43.1574 223.433 42.9551 224.619 43.891Z" fill="black"/>
<path fill-rule="evenodd" clip-rule="evenodd" d="M253.722 35.3898C255.051 35.6376 256 36.8198 255.954 38.1712C255.673 46.4211 260.617 65.815 283.389 74.7107C284.795 75.2603 285.49 76.8462 284.941 78.2531C284.391 79.6599 282.805 80.3549 281.398 79.8053C262.001 72.2278 254.003 57.6804 251.459 46.7615C248.389 50.6868 244.392 53.9758 240.356 56.6271C233.834 60.912 226.814 63.7905 222.274 65.1491C220.827 65.5822 219.303 64.7602 218.87 63.3133C218.437 61.8663 219.259 60.3422 220.706 59.9092C224.808 58.6815 231.332 56.0114 237.353 52.0557C243.43 48.0635 248.608 43.0168 250.638 37.1799C251.082 35.9027 252.393 35.1419 253.722 35.3898Z" fill="black"/>
<path fill-rule="evenodd" clip-rule="evenodd" d="M191.016 43.874C192.437 44.3845 193.176 45.9507 192.665 47.3722C191.365 50.9937 188.087 56.1321 183.581 60.444C179.071 64.7595 172.97 68.5864 165.935 68.909C164.426 68.9781 163.147 67.8111 163.078 66.3023C163.008 64.7935 164.175 63.5143 165.684 63.4451C170.887 63.2066 175.795 60.3235 179.8 56.492C183.808 52.6568 186.552 48.2111 187.518 45.5234C188.028 44.102 189.594 43.3635 191.016 43.874Z" fill="black"/>
<path fill-rule="evenodd" clip-rule="evenodd" d="M185.353 13.4695C205.044 4.34022 222.596 8.24903 229.258 11.6044C230.607 12.2839 231.15 13.9282 230.471 15.2771C229.791 16.626 228.147 17.1688 226.798 16.4894C221.503 13.8226 205.707 10.0618 187.654 18.4317C176.572 23.5696 169.472 32.3959 165.317 41.3226C161.127 50.3253 160.063 59.1479 160.766 63.9457C160.985 65.4402 159.951 66.8291 158.456 67.0481C156.962 67.267 155.573 66.2331 155.354 64.7386C154.463 58.659 155.826 48.7543 160.358 39.0148C164.926 29.1994 172.845 19.2686 185.353 13.4695Z" fill="black"/>
<path fill-rule="evenodd" clip-rule="evenodd" d="M252.867 19.221C245.825 17.4074 238.956 17.2054 234.873 17.5634C233.369 17.6953 232.042 16.5825 231.91 15.0779C231.778 13.5733 232.891 12.2466 234.396 12.1147C239.039 11.7076 246.535 11.9421 254.231 13.9243C261.912 15.9026 270.095 19.7022 275.712 26.6678C288.934 43.067 292.121 61.1464 291.376 70.6155C291.257 72.1212 289.941 73.2458 288.435 73.1273C286.929 73.0088 285.805 71.6921 285.923 70.1864C286.562 62.0711 283.775 45.3825 271.454 30.1009C266.852 24.3941 259.924 21.0386 252.867 19.221Z" fill="black"/>
<path fill-rule="evenodd" clip-rule="evenodd" d="M166.01 63.4497C167.517 63.5607 168.648 64.8719 168.537 66.3782C167.896 75.066 169.668 88.6266 177.076 100.753C184.412 112.762 197.361 123.521 219.475 126.732C241.482 129.927 255.913 122.452 265.176 112.128C274.57 101.659 278.791 88.0784 279.775 79.144C279.941 77.6428 281.292 76.5599 282.793 76.7253C284.295 76.8908 285.378 78.242 285.212 79.7433C284.135 89.5195 279.58 104.265 269.248 115.781C258.785 127.441 242.542 135.608 218.689 132.145C194.943 128.697 180.581 116.983 172.408 103.604C164.306 90.342 162.372 75.601 163.082 65.9759C163.193 64.4696 164.504 63.3386 166.01 63.4497Z" fill="black"/>
<path fill-rule="evenodd" clip-rule="evenodd" d="M287.732 81.9003C286.69 82.1886 285.6 83.189 284.94 84.2081C284.12 85.4761 282.426 85.8387 281.158 85.018C279.891 84.1973 279.528 82.5041 280.349 81.2362C281.393 79.622 283.441 77.4124 286.274 76.6288C287.766 76.216 289.437 76.2163 291.143 76.8869C292.816 77.5451 294.343 78.7766 295.722 80.5314C297.732 83.0887 298.133 85.9377 297.302 88.5439C296.517 91.0064 294.719 93.0174 292.733 94.4211C290.734 95.8332 288.292 96.8137 285.881 97.013C283.467 97.2126 280.758 96.6295 278.855 94.4616C277.858 93.3267 277.97 91.5987 279.105 90.6022C280.24 89.6056 281.968 89.7178 282.965 90.8528C283.372 91.3166 284.128 91.6697 285.43 91.5621C286.736 91.4542 288.26 90.884 289.576 89.9541C290.905 89.0156 291.769 87.8931 292.091 86.8828C292.367 86.0163 292.319 85.0531 291.422 83.911C290.475 82.7062 289.686 82.1915 289.141 81.9771C288.628 81.7753 288.178 81.7771 287.732 81.9003Z" fill="black"/>
<path fill-rule="evenodd" clip-rule="evenodd" d="M160.461 73.6053C161.506 73.8839 162.606 74.8742 163.275 75.8872C164.107 77.1475 165.803 77.4944 167.064 76.6621C168.324 75.8297 168.671 74.1332 167.839 72.8729C166.779 71.2685 164.711 69.0779 161.871 68.3205C160.375 67.9215 158.704 67.9373 157.005 68.6236C155.337 69.2972 153.822 70.5428 152.459 72.3102C150.473 74.886 150.099 77.7386 150.953 80.337C151.761 82.7922 153.578 84.7865 155.577 86.1717C157.589 87.5653 160.04 88.5232 162.452 88.7002C164.868 88.8775 167.571 88.2694 169.455 86.084C170.441 84.9399 170.313 83.2131 169.168 82.227C168.024 81.241 166.297 81.3692 165.311 82.5133C164.908 82.9809 164.156 83.341 162.853 83.2453C161.546 83.1495 160.017 82.5934 158.692 81.6757C157.355 80.7496 156.48 79.6351 156.149 78.6279C155.865 77.7639 155.904 76.8003 156.791 75.65C157.726 74.4365 158.51 73.9145 159.053 73.6951C159.565 73.4885 160.015 73.4862 160.461 73.6053Z" fill="black"/>
<path fill-rule="evenodd" clip-rule="evenodd" d="M199.159 97.1119C200.556 96.5393 202.153 97.2081 202.726 98.6057C204.344 102.554 211.712 111.429 227.904 109.874C236.3 109.067 241.797 106.98 245.228 104.852C248.732 102.679 249.942 100.564 250.167 99.771C250.578 98.3178 252.09 97.4733 253.543 97.8848C254.997 98.2963 255.841 99.808 255.43 101.261C254.712 103.796 252.328 106.884 248.112 109.5C243.823 112.16 237.476 114.449 228.427 115.318C209.732 117.114 200.157 106.763 197.665 100.679C197.092 99.2817 197.761 97.6845 199.159 97.1119Z" fill="black"/>
<path fill-rule="evenodd" clip-rule="evenodd" d="M197.083 79.5264C198.592 79.4572 199.871 80.6242 199.94 82.133L199.99 83.2258C200.059 84.7346 198.892 86.0138 197.384 86.0829C195.875 86.1521 194.596 84.9851 194.526 83.4763L194.476 82.3835C194.407 80.8747 195.574 79.5955 197.083 79.5264Z" fill="black"/>
<path fill-rule="evenodd" clip-rule="evenodd" d="M251.922 81.3928C253.431 81.3237 254.71 82.4907 254.779 83.9995L254.829 85.0923C254.898 86.601 253.731 87.8802 252.222 87.9494C250.714 88.0186 249.434 86.8515 249.365 85.3427L249.315 84.25C249.246 82.7412 250.413 81.462 251.922 81.3928Z" fill="black"/>
<path fill-rule="evenodd" clip-rule="evenodd" d="M155.839 80.7125C157.168 81.4294 157.664 83.0883 156.947 84.4177C154.805 88.3898 150.637 94.4396 144.974 99.9506C139.327 105.447 131.986 110.609 123.482 112.43C122.006 112.746 120.552 111.806 120.236 110.329C119.919 108.852 120.86 107.398 122.337 107.082C129.449 105.559 135.905 101.145 141.16 96.031C146.399 90.9312 150.239 85.3347 152.133 81.8214C152.85 80.492 154.509 79.9955 155.839 80.7125Z" fill="black"/>
<path fill-rule="evenodd" clip-rule="evenodd" d="M173.75 98.3035C175.181 98.7859 175.95 100.337 175.468 101.768C174.274 105.312 171.837 110.794 168.338 115.94C164.877 121.031 160.133 126.155 154.199 128.44C152.789 128.983 151.207 128.28 150.664 126.87C150.121 125.461 150.824 123.878 152.233 123.336C156.63 121.643 160.591 117.607 163.815 112.865C167.002 108.177 169.23 103.152 170.285 100.022C170.767 98.5903 172.318 97.8211 173.75 98.3035Z" fill="black"/>
<path fill-rule="evenodd" clip-rule="evenodd" d="M286.462 91.8574C287.973 91.8511 289.202 93.0704 289.209 94.5807C289.242 102.583 294.306 121.305 314.521 130.28C315.901 130.893 316.523 132.509 315.91 133.889C315.297 135.27 313.682 135.892 312.301 135.279C289.592 125.196 283.779 104.119 283.739 94.6036C283.733 93.0932 284.952 91.8637 286.462 91.8574Z" fill="black"/>
<path fill-rule="evenodd" clip-rule="evenodd" d="M264.689 115.856C266.199 115.895 267.391 117.15 267.353 118.66C267.237 123.186 269.474 133.907 279.153 139.737C280.446 140.517 280.863 142.197 280.084 143.491C279.305 144.785 277.624 145.202 276.33 144.423C264.387 137.228 261.74 124.227 261.885 118.521C261.924 117.011 263.179 115.818 264.689 115.856Z" fill="black"/>
<path fill-rule="evenodd" clip-rule="evenodd" d="M183.368 142.737C179.486 143.039 175.51 143.648 173.055 144.114C171.571 144.396 170.139 143.422 169.858 141.938C169.576 140.454 170.55 139.023 172.034 138.741C174.645 138.245 178.824 137.604 182.944 137.284C185.004 137.123 187.094 137.04 188.988 137.103C190.834 137.164 192.7 137.369 194.205 137.893C195.428 138.318 196.185 139.543 196.019 140.827C195.665 143.556 195.925 147.71 197.735 151.197C199.45 154.503 202.625 157.384 208.679 157.861C211.735 158.101 214.012 157.538 215.733 156.599C217.466 155.653 218.803 154.234 219.822 152.514C221.906 148.997 222.508 144.455 222.365 141.334C222.301 139.93 223.311 138.706 224.701 138.502C228.85 137.894 235.058 138.465 240.315 142.253C245.714 146.143 249.65 153.088 249.697 164.286C249.751 177.41 250.074 208.225 252.916 237.528C254.338 252.189 256.383 266.375 259.308 277.742C260.771 283.427 262.435 288.326 264.309 292.196C266.204 296.108 268.2 298.729 270.201 300.144C271.435 301.015 271.728 302.722 270.856 303.955C269.985 305.189 268.278 305.482 267.045 304.61C263.953 302.425 261.456 298.853 259.387 294.58C257.297 290.265 255.525 284.987 254.011 279.105C250.983 267.338 248.905 252.831 247.472 238.056C244.604 208.487 244.282 177.461 244.227 164.309C244.186 154.485 240.816 149.355 237.117 146.69C234.145 144.549 230.669 143.787 227.811 143.763C227.614 147.284 226.724 151.596 224.528 155.302C223.108 157.7 221.107 159.897 218.353 161.4C215.587 162.909 212.228 163.626 208.25 163.313C200.237 162.683 195.429 158.629 192.88 153.717C190.963 150.023 190.369 145.954 190.417 142.675C189.94 142.625 189.403 142.589 188.806 142.569C187.182 142.515 185.309 142.586 183.368 142.737Z" fill="black"/>
<path fill-rule="evenodd" clip-rule="evenodd" d="M263.853 307.437C264.27 308.888 263.431 310.403 261.979 310.82C258.097 311.934 251.749 313.453 245.221 314.414C238.806 315.358 231.782 315.836 226.784 314.582C225.319 314.215 224.429 312.73 224.796 311.265C225.163 309.8 226.649 308.91 228.114 309.277C231.978 310.246 238.059 309.94 244.424 309.003C250.677 308.082 256.786 306.62 260.47 305.563C261.921 305.146 263.436 305.985 263.853 307.437Z" fill="black"/>
<path fill-rule="evenodd" clip-rule="evenodd" d="M172.303 138.703C173.807 138.57 175.135 139.682 175.268 141.186C177.135 162.264 170.955 190.449 162.668 216.845C154.937 241.466 145.262 264.867 138.144 280.116C146.1 281.635 154.981 285.127 163.02 288.952C171.001 292.749 178.343 296.968 183.431 300.18L199.226 272.343C199.585 271.71 200.181 271.247 200.883 271.055C201.585 270.863 202.334 270.958 202.965 271.321C206.019 273.073 208.346 275.911 210.127 279.094C211.917 282.292 213.251 286.007 214.242 289.755C216.223 297.245 216.925 305.222 216.97 310.322C216.983 311.832 215.77 313.067 214.259 313.08C212.749 313.094 211.514 311.88 211.5 310.37C211.459 305.617 210.794 298.108 208.955 291.153C208.036 287.679 206.847 284.433 205.354 281.765C204.455 280.159 203.479 278.821 202.433 277.773L186.758 305.398C186.384 306.058 185.753 306.532 185.016 306.709C184.279 306.885 183.501 306.747 182.869 306.328C178.073 303.15 169.798 298.234 160.67 293.891C151.486 289.521 141.7 285.859 133.801 284.98C132.92 284.882 132.141 284.364 131.712 283.589C131.282 282.814 131.254 281.878 131.638 281.079C138.752 266.252 149.22 241.417 157.449 215.207C165.708 188.902 171.585 161.599 169.82 141.669C169.687 140.164 170.798 138.837 172.303 138.703Z" fill="black"/>
<path fill-rule="evenodd" clip-rule="evenodd" d="M174.99 140.203C175.666 141.554 175.119 143.197 173.768 143.873L147.983 156.778C149.735 158.961 151.782 161.776 153.733 164.944C156.089 168.771 158.376 173.228 159.797 177.789L168.725 174.072C170.12 173.491 171.721 174.151 172.301 175.545C172.882 176.939 172.222 178.54 170.828 179.121L159.008 184.043C158.258 184.355 157.407 184.318 156.687 183.941C155.967 183.563 155.453 182.886 155.282 182.091C154.26 177.316 151.817 172.264 149.075 167.812C146.346 163.38 143.429 159.714 141.622 157.738C141.044 157.105 140.796 156.238 140.952 155.395C141.108 154.552 141.65 153.831 142.417 153.448L171.32 138.982C172.671 138.306 174.314 138.853 174.99 140.203Z" fill="black"/>
<path fill-rule="evenodd" clip-rule="evenodd" d="M271.953 142.561C272.513 143.052 272.849 143.749 272.883 144.493C273 147.054 273.506 151.263 274.631 155.396C275.784 159.633 277.458 163.289 279.603 165.245C280.273 165.857 280.596 166.761 280.466 167.659C280.335 168.557 279.768 169.332 278.951 169.727L248.955 184.243C247.595 184.901 245.96 184.332 245.302 182.973C244.644 181.613 245.212 179.978 246.572 179.32L273.411 166.332C271.514 163.509 270.229 160.05 269.353 156.832C268.461 153.553 267.922 150.254 267.64 147.579L243.116 149.688C241.611 149.817 240.287 148.703 240.157 147.198C240.028 145.693 241.143 144.368 242.648 144.239L269.917 141.893C270.658 141.83 271.394 142.071 271.953 142.561Z" fill="black"/>
<path fill-rule="evenodd" clip-rule="evenodd" d="M84.0781 104.126C83.4722 107.118 83.7211 110.835 84.1763 113.36C84.4393 114.819 83.4923 116.221 82.041 116.523C80.5897 116.824 79.1625 115.915 78.8229 114.472C78.1929 111.795 76.7995 107.964 74.767 105.134C72.7005 102.258 70.6155 101.183 68.3853 101.787C67.8004 101.946 67.5279 102.152 67.3956 102.29C67.2666 102.424 67.1428 102.624 67.0664 102.984C66.8904 103.812 67.0327 105.186 67.7007 107.094C69.0096 110.834 71.8133 115.19 74.0602 118.082C74.7371 118.953 74.8241 120.146 74.2809 121.106C73.7376 122.067 72.6705 122.607 71.575 122.475C70.0835 122.296 68.9205 122.313 68.1003 122.448C67.7508 122.505 67.5141 122.575 67.3603 122.634C67.5074 123.036 67.8955 123.741 68.7924 124.763C69.2975 125.338 70.3102 126.008 71.9442 126.655C73.528 127.282 75.4577 127.797 77.5349 128.203C81.6893 129.016 86.1387 129.341 88.9386 129.387C90.4488 129.412 91.6527 130.657 91.6276 132.167C91.6025 133.677 90.3579 134.881 88.8478 134.856C85.8029 134.805 81.023 134.459 76.4849 133.571C74.216 133.127 71.9337 132.534 69.9299 131.74C67.9762 130.966 66.0257 129.901 64.6823 128.371C63.3997 126.911 62.4234 125.401 62.0203 123.866C61.582 122.198 61.8281 120.43 63.088 119.049C64.0758 117.967 65.4262 117.418 66.7185 117.144C65.0886 114.592 63.5109 111.68 62.5382 108.901C61.7572 106.67 61.228 104.145 61.7163 101.847C61.972 100.644 62.5143 99.4739 63.4551 98.4966C64.3925 97.5228 65.5935 96.8769 66.9555 96.508C72.391 95.036 76.4727 98.242 79.0386 101.709C79.4725 100.179 80.1426 98.6629 81.181 97.3979C82.5942 95.6761 84.6006 94.5388 87.1648 94.4213C92.5354 94.1751 95.5553 98.5728 97.1123 102.346C97.1559 102.452 97.1988 102.558 97.241 102.664C97.9816 101.47 99.0114 100.299 100.449 99.6624C102.616 98.7021 104.836 99.2944 106.728 100.729C111.534 104.375 111.695 111.117 110.264 116.991C108.771 123.122 105.272 129.704 100.798 134.607C99.7805 135.722 98.0508 135.802 96.935 134.784C96.8512 134.707 96.7732 134.627 96.7011 134.543C96.9143 134.812 97.0801 135.125 97.1823 135.475C99.0979 142.027 102.622 151.927 106.936 160.294C109.097 164.485 111.399 168.179 113.724 170.862C116.118 173.626 118.177 174.9 119.785 175.093C124.455 175.653 130.492 174.419 136.371 172.455C142.179 170.515 147.488 167.983 150.558 166.268C151.876 165.532 153.542 166.003 154.279 167.322C155.016 168.64 154.544 170.307 153.225 171.043C149.888 172.907 144.267 175.585 138.103 177.643C132.011 179.678 125.034 181.231 119.134 180.523C115.456 180.082 112.247 177.51 109.59 174.444C106.863 171.297 104.331 167.177 102.075 162.801C97.5543 154.033 93.9131 143.784 91.9325 137.01C91.5087 135.56 92.3403 134.041 93.79 133.617C94.8539 133.306 95.955 133.671 96.6332 134.461C95.8143 133.428 95.841 131.925 96.7578 130.92C100.626 126.681 103.679 120.917 104.95 115.696C106.284 110.219 105.423 106.605 103.422 105.087C102.98 104.752 102.73 104.682 102.662 104.669C102.659 104.669 102.657 104.668 102.654 104.668C102.531 104.73 102.093 105.065 101.541 106.177C100.448 108.383 99.7868 111.846 99.5582 114.474C99.4335 115.908 98.2175 117 96.7778 116.971C95.338 116.941 94.1678 115.8 94.1018 114.362C93.977 111.639 93.3745 107.627 92.0563 104.432C90.6567 101.041 89.0384 99.8107 87.4153 99.8851C86.4826 99.9279 85.8927 100.278 85.4088 100.868C84.8514 101.547 84.3805 102.632 84.0781 104.126Z" fill="black"/>
<path fill-rule="evenodd" clip-rule="evenodd" d="M345.147 72.3911C342.917 75.3886 340.976 79.4493 339.885 82.29C339.505 83.2806 338.586 83.9618 337.527 84.0376C336.469 84.1133 335.462 83.5699 334.945 82.6435C334.728 82.2553 334.423 81.8034 334.074 81.4027C333.727 81.0047 333.42 80.7537 333.201 80.6281C333.135 80.6968 333.046 80.8031 332.936 80.9638C332.784 81.1873 332.506 81.9659 332.455 83.6309C332.408 85.174 332.563 87.0735 332.86 89.1337C333.452 93.2447 334.555 97.656 335.39 100.446C335.823 101.893 335.001 103.417 333.554 103.85C332.107 104.283 330.583 103.461 330.15 102.014C329.261 99.0427 328.086 94.36 327.446 89.913C327.127 87.6942 326.928 85.4487 326.988 83.4643C327.045 81.602 327.336 79.4709 328.415 77.8859C329.279 76.6161 330.436 75.6075 331.931 75.2381C333.429 74.868 334.78 75.2602 335.786 75.8075C336.046 75.949 336.297 76.1074 336.537 76.2788C337.684 73.8949 339.13 71.3155 340.76 69.1258C342.066 67.3703 343.627 65.677 345.406 64.596C347.249 63.476 349.587 62.8833 351.997 63.953C354.223 64.9413 355.496 66.8004 356.152 68.7617C356.79 70.6695 356.904 72.818 356.787 74.8424C356.711 76.1615 356.531 77.5092 356.287 78.8221C356.708 78.6213 357.136 78.433 357.567 78.261C360.379 77.139 364.546 76.2592 367.637 79.0797C369.363 80.6538 369.782 82.7101 369.481 84.6044C369.204 86.3553 368.321 88.0344 367.358 89.4551C366.802 90.2759 366.168 91.0849 365.498 91.8599C365.721 91.8971 365.942 91.9387 366.161 91.985C367.525 92.2738 369.028 92.7921 370.258 93.7665C371.578 94.8112 372.516 96.3393 372.606 98.3087C372.675 99.8104 371.988 101.009 371.217 101.845C370.465 102.659 369.492 103.294 368.52 103.802C366.565 104.822 363.99 105.64 361.327 106.301C355.954 107.634 349.544 108.485 345.285 108.867C343.781 109.001 342.452 107.891 342.317 106.387C342.183 104.882 343.293 103.553 344.797 103.419C348.899 103.052 355.006 102.234 360.01 100.993C362.535 100.366 364.613 99.671 365.989 98.9527C366.529 98.6709 366.868 98.4326 367.064 98.2622C367.023 98.1952 366.959 98.1305 366.863 98.0545C366.555 97.8104 365.968 97.5348 365.028 97.336C363.154 96.9394 360.774 97.0307 359.143 97.2697C357.921 97.4488 356.73 96.7867 356.238 95.6541C355.746 94.5215 356.074 93.1995 357.038 92.4281C358.86 90.971 361.307 88.6361 362.83 86.3878C363.603 85.2468 363.984 84.3493 364.08 83.747C364.15 83.3012 364.06 83.219 363.96 83.1283C363.957 83.1257 363.954 83.123 363.951 83.1203C363.385 82.6042 362.105 82.3392 359.594 83.3411C357.293 84.2592 354.948 85.8852 353.515 87.1091C352.566 87.9192 351.19 87.9848 350.169 87.2687C349.147 86.5527 348.74 85.2363 349.178 84.0685C350.095 81.6264 351.134 77.859 351.327 74.5265C351.423 72.8544 351.294 71.4825 350.964 70.4962C350.653 69.5634 350.234 69.1549 349.777 68.9521C349.504 68.8307 349.092 68.7565 348.247 69.27C347.338 69.8225 346.274 70.8777 345.147 72.3911ZM333.335 80.5138C333.335 80.5141 333.331 80.5167 333.323 80.5207C333.331 80.5155 333.335 80.5135 333.335 80.5138ZM333.056 80.5586C333.053 80.558 333.052 80.5575 333.052 80.5574Z" fill="black"/>
<path fill-rule="evenodd" clip-rule="evenodd" d="M334.805 107.241C336.286 107.54 337.243 108.983 336.945 110.463C334.592 122.12 318.328 146.258 273.536 158.09C272.076 158.475 270.579 157.604 270.193 156.144C269.808 154.684 270.679 153.187 272.139 152.801C315.635 141.312 329.772 118.356 331.583 109.381C331.882 107.9 333.324 106.943 334.805 107.241Z" fill="black"/>
<path fill-rule="evenodd" clip-rule="evenodd" d="M199.267 139.107C200.432 138.147 202.156 138.313 203.117 139.478C203.998 140.548 205.697 141.92 207.739 142.457C209.616 142.952 211.977 142.807 214.666 140.591C215.831 139.631 217.555 139.797 218.516 140.962C219.476 142.128 219.31 143.852 218.144 144.812C214.08 148.162 209.901 148.683 206.347 147.747C202.958 146.855 200.334 144.702 198.896 142.957C197.935 141.791 198.101 140.068 199.267 139.107Z" fill="black"/>
<path fill-rule="evenodd" clip-rule="evenodd" d="M209.939 130.487C211.419 130.786 212.377 132.228 212.078 133.709C211.795 135.113 211.426 137.327 211.245 139.364C211.154 140.386 211.116 141.299 211.145 142.013C211.17 142.645 211.242 142.882 211.234 142.884C211.234 142.885 211.231 142.881 211.228 142.875C211.915 144.183 211.437 145.808 210.14 146.533C208.821 147.269 207.155 146.798 206.418 145.479C205.837 144.439 205.716 143.144 205.68 142.235C205.637 141.191 205.695 140.018 205.797 138.878C206.001 136.59 206.405 134.17 206.717 132.626C207.016 131.146 208.458 130.188 209.939 130.487Z" fill="black"/>
<path fill-rule="evenodd" clip-rule="evenodd" d="M195.063 178.93C193.94 184.346 193.276 191.593 194.445 197.596C195.089 200.901 196.241 203.587 197.941 205.421C199.564 207.173 201.864 208.346 205.324 208.37C212.144 208.416 216.326 204.257 218.897 198.256C221.212 192.851 221.992 186.348 221.975 181.44C211.051 177.406 200.33 177.943 195.063 178.93ZM192.08 173.992C197.586 172.545 211.658 171.238 225.707 177.026C226.689 177.431 227.348 178.368 227.397 179.43C227.651 184.968 226.958 193.329 223.924 200.41C220.856 207.572 215.116 213.906 205.287 213.839C200.421 213.806 196.647 212.073 193.929 209.139C191.287 206.288 189.83 202.51 189.076 198.642C187.576 190.934 188.688 181.915 190.116 175.995C190.352 175.017 191.106 174.248 192.08 173.992Z" fill="black"/>
<path fill-rule="evenodd" clip-rule="evenodd" d="M319.393 316.518C320.481 314.851 322.341 313.602 324.98 313.481C327.504 313.366 329.78 314.441 331.672 315.962C333.567 317.486 335.268 319.6 336.745 321.989C339.702 326.772 342.031 333.091 343.249 339.376C344.457 345.616 344.639 352.183 342.949 357.355C342.094 359.973 340.715 362.367 338.612 364.118C336.474 365.898 333.776 366.856 330.608 366.879C324.398 366.925 319.679 365.227 316.374 362.076C313.104 358.959 311.562 354.746 311.022 350.417C309.956 341.859 312.673 331.863 315.382 325.349C315.961 323.954 317.562 323.294 318.957 323.873C320.351 324.453 321.012 326.054 320.432 327.449C317.88 333.586 315.553 342.547 316.45 349.741C316.892 353.287 318.083 356.149 320.148 358.117C322.177 360.051 325.392 361.448 330.568 361.41C332.599 361.395 334.04 360.807 335.112 359.915C336.218 358.993 337.12 357.587 337.75 355.657C339.032 351.734 339.002 346.215 337.879 340.416C336.764 334.661 334.643 328.989 332.093 324.865C330.816 322.801 329.499 321.233 328.245 320.225C326.989 319.215 325.985 318.91 325.23 318.945C324.746 318.967 324.477 319.078 324.333 319.161C324.186 319.245 324.072 319.357 323.974 319.507C323.74 319.865 323.653 320.368 323.666 320.659C323.736 322.168 322.569 323.447 321.06 323.516C319.551 323.586 318.272 322.419 318.203 320.91C318.149 319.744 318.399 318.041 319.393 316.518Z" fill="black"/>
<path fill-rule="evenodd" clip-rule="evenodd" d="M246.6 309.487C248.082 309.776 249.049 311.212 248.76 312.695C247.465 319.328 246.51 329.393 247.768 338.022C249.063 346.904 252.413 352.778 258.435 353.829C261.739 354.406 266.118 353.737 271.274 351.974C276.373 350.231 281.952 347.517 287.53 344.327C298.686 337.947 309.565 329.824 316.15 324.303C317.308 323.333 319.032 323.484 320.003 324.642C320.973 325.799 320.821 327.524 319.664 328.494C312.892 334.171 301.747 342.498 290.245 349.075C284.495 352.363 278.587 355.254 273.043 357.15C267.557 359.025 262.138 360.028 257.494 359.217C247.62 357.493 243.696 348.004 242.355 338.811C240.978 329.365 242.026 318.641 243.392 311.647C243.681 310.164 245.117 309.197 246.6 309.487Z" fill="black"/>
<path fill-rule="evenodd" clip-rule="evenodd" d="M121.612 366.811C122.982 366.176 124.608 366.771 125.243 368.142C127.219 372.402 129.326 379.641 129.443 387.852C129.561 396.094 127.672 405.485 121.441 413.8C113.817 423.974 103.004 428.359 94.9389 425.687C90.7839 424.31 87.638 421.097 86.4288 416.378C85.2491 411.775 85.9596 405.978 88.8135 399.234C97.8414 377.898 111.952 372.718 118.929 373.324C120.433 373.455 121.547 374.781 121.416 376.286C121.286 377.791 119.96 378.904 118.455 378.773C114.437 378.424 102.212 381.605 93.8506 401.365C91.2704 407.463 90.948 411.98 91.7271 415.021C92.4767 417.946 94.2814 419.707 96.6591 420.495C101.659 422.152 110.241 419.625 117.064 410.52C122.39 403.413 124.079 395.301 123.974 387.93C123.868 380.529 121.951 374.045 120.281 370.442C119.646 369.072 120.242 367.446 121.612 366.811Z" fill="black"/>
<path fill-rule="evenodd" clip-rule="evenodd" d="M158.8 288.638C160.13 289.355 160.626 291.014 159.909 292.343C153.869 303.543 144.891 320.88 137.589 336.486C133.936 344.294 130.724 351.623 128.509 357.515C127.401 360.464 126.562 363.003 126.041 365.032C125.492 367.174 125.395 368.395 125.468 368.896C125.687 370.39 124.653 371.779 123.159 371.998C121.664 372.217 120.275 371.183 120.056 369.689C119.811 368.014 120.182 365.859 120.743 363.673C121.333 361.374 122.247 358.631 123.389 355.591C125.677 349.504 128.958 342.027 132.635 334.168C139.995 318.439 149.024 301.005 155.095 289.747C155.812 288.418 157.471 287.921 158.8 288.638Z" fill="black"/>
<path d="M82.0859 307.564C82.0859 329.314 64.4545 346.945 42.705 346.945C20.9556 346.945 3.32422 329.314 3.32422 307.564C3.32422 285.815 20.9556 268.183 42.705 268.183C64.4545 268.183 82.0859 285.815 82.0859 307.564Z" fill="white"/>
<path fill-rule="evenodd" clip-rule="evenodd" d="M24.461 275.233C17.6206 278.964 10.7007 285.997 7.05899 299.524C3.43873 312.97 6.33083 322.368 12.3233 328.972C18.4676 335.743 28.2062 339.943 38.8658 342.075C49.0207 344.106 59.0674 341.558 66.4478 334.928C73.8114 328.314 78.7831 317.39 78.2589 302.189C77.8576 290.549 71.9863 283.004 64.6647 278.179C57.2741 273.309 48.4606 271.275 42.6243 270.918C38.4387 270.925 31.3581 271.471 24.461 275.233ZM21.8419 270.432C29.9415 266.014 38.1287 265.448 42.7052 265.448C42.7587 265.448 42.8123 265.45 42.8657 265.453C49.4278 265.839 59.2735 268.076 67.6744 273.612C76.1781 279.216 83.2514 288.261 83.7252 302C84.295 318.523 78.8744 331.118 70.1029 338.997C61.3481 346.862 49.5165 349.783 37.7932 347.439C26.5746 345.195 15.5288 340.644 8.27275 332.647C0.864797 324.484 -2.25962 313.097 1.7775 298.102C5.79314 283.187 13.6411 274.905 21.8419 270.432Z" fill="black"/>
<path fill-rule="evenodd" clip-rule="evenodd" d="M33.5069 272.265L34.2361 269.639L39.5061 271.103L39.3843 271.542L44.2145 273.913L48.1932 272.122L48.0923 271.759L53.3624 270.296L54.0916 272.921C54.4531 274.222 53.8105 275.593 52.5789 276.147L45.2861 279.428C44.5433 279.763 43.69 279.748 42.9587 279.389L34.9367 275.451C33.7554 274.872 33.1546 273.533 33.5069 272.265Z" fill="black"/>
<path fill-rule="evenodd" clip-rule="evenodd" d="M71.046 285.627C71.6751 285.19 72.4586 285.038 73.2058 285.206L76.8521 286.026L75.6515 291.362L74.9114 291.196L73.9814 297.996L76.9547 303.252L78.0687 302.25L81.7277 306.315L78.0813 309.597C77.4649 310.152 76.6302 310.397 75.8118 310.263C74.9934 310.13 74.2797 309.632 73.8715 308.911L68.7665 299.886C68.4719 299.365 68.3562 298.762 68.4373 298.169L69.8959 287.503C69.9996 286.744 70.4168 286.064 71.046 285.627Z" fill="black"/>
<path fill-rule="evenodd" clip-rule="evenodd" d="M66.8185 322.403C68.2738 322.065 69.731 322.958 70.0912 324.407L71.6132 330.533L66.305 331.852L65.4324 328.34L59.0917 329.812L55.111 334.819L58.7231 338.454L54.8436 342.309L49.5167 336.949C48.5389 335.965 48.4526 334.405 49.3158 333.32L55.4037 325.662C55.7879 325.179 56.3243 324.84 56.9257 324.7L66.8185 322.403Z" fill="black"/>
<path fill-rule="evenodd" clip-rule="evenodd" d="M8.83398 321.656C9.42252 320.479 10.766 319.888 12.0313 320.249L24.5616 323.829C25.4296 324.077 26.1193 324.738 26.4047 325.594L29.9848 336.334C30.2142 337.022 30.1608 337.774 29.8364 338.422L27.1514 343.792L22.2593 341.346L24.4377 336.989L21.672 328.692L12.7111 326.132L10.146 331.262L5.25391 328.816L8.83398 321.656Z" fill="black"/>
<path fill-rule="evenodd" clip-rule="evenodd" d="M11.2551 280.763H20.8268C22.3372 280.763 23.5616 281.988 23.5616 283.498V294.875C23.5616 295.76 23.1331 296.591 22.4117 297.104L13.7972 303.23C12.81 303.931 11.4788 303.9 10.5254 303.153L3.8252 297.903L7.19897 293.597L12.2917 297.589L18.0921 293.464V286.233H11.2551V280.763Z" fill="black"/>
<path fill-rule="evenodd" clip-rule="evenodd" d="M41.7627 292.225C42.6885 291.552 43.9357 291.527 44.8882 292.162L55.1615 299.011C56.2857 299.76 56.6941 301.218 56.1227 302.443L50.13 315.284C49.5909 316.439 48.3252 317.069 47.0788 316.802L35.0933 314.233C33.9957 313.998 33.1533 313.116 32.9687 312.009L31.2565 301.736C31.0862 300.714 31.5078 299.684 32.3456 299.074L41.7627 292.225ZM43.4392 297.769L36.9295 302.504L38.0581 309.275L46.0948 310.997L50.1728 302.258L43.4392 297.769Z" fill="black"/>
<path fill-rule="evenodd" clip-rule="evenodd" d="M32.1059 270.543C32.9415 269.777 34.163 269.606 35.1769 270.113L46.116 275.583C47.0978 276.073 47.6909 277.104 47.6224 278.199L46.5285 295.702C46.4786 296.501 46.0807 297.238 45.4399 297.719L36.6886 304.282C35.836 304.922 34.6896 305.008 33.7512 304.503L21.3219 297.81L15.8345 303.297L14.9267 317.822L24.1405 321.662L32.7473 308.273C33.4234 307.222 34.7265 306.762 35.9126 307.158L49.0395 311.533C49.6009 311.72 50.0864 312.085 50.4232 312.571L60.2684 326.792C60.976 327.814 60.9053 329.185 60.0963 330.128L53.5328 337.786C52.9836 338.426 52.1693 338.778 51.3264 338.738L28.3542 337.644L28.6144 332.18L50.2505 333.211L54.5705 328.171L46.4451 316.434L36.199 313.019L27.503 326.546C26.7865 327.66 25.3739 328.101 24.1507 327.591L11.0238 322.122C9.94707 321.673 9.27342 320.591 9.34618 319.427L10.4401 301.924C10.4817 301.259 10.7646 300.632 11.2358 300.161L18.8931 292.503C19.7471 291.65 21.0601 291.457 22.1235 292.029L34.8053 298.858L41.1484 294.101L42.0506 279.665L34.4143 275.847L22.6749 286.608L18.979 282.576L32.1059 270.543Z" fill="black"/>
<path fill-rule="evenodd" clip-rule="evenodd" d="M69.549 295.031C70.5724 294.839 71.616 295.245 72.2408 296.078L78.8043 304.829C79.3609 305.572 79.5033 306.545 79.1826 307.416L71.5252 328.2L66.3929 326.309L73.5359 306.921L68.8855 300.72L53.0544 303.689L52.0464 298.313L69.549 295.031Z" fill="black"/>
<path fill-rule="evenodd" clip-rule="evenodd" d="M55.2453 271.436L74.9357 285.657L71.7334 290.091L52.043 275.87L55.2453 271.436Z" fill="black"/>
<path d="M47.0808 279.122L35.0478 271.465L24.1087 282.404L20.827 295.531L14.2635 303.189L13.1696 325.067L20.827 323.973L26.2965 331.63L52.5504 333.818L56.926 327.255L70.053 321.785L73.3347 313.034L72.2408 305.376L67.8652 297.719L71.1469 286.78L76.6165 285.686L80.9921 302.095L75.5225 309.752L72.2408 321.785L75.5225 330.536L59.1139 343.663L47.0808 336.006H33.9539L19.7331 338.194L7.70003 325.067L13.1696 304.282L5.51221 296.625L8.79394 286.78L23.0148 281.31L36.1417 268.183L55.8321 272.559L47.0808 279.122Z" fill="black"/>
<path d="M44.8929 296.625L36.1416 302.751L37.6002 308.111L47.0807 311.94L51.4564 301.985L44.8929 296.625Z" fill="black"/>
<path d="M63.4893 281.31V275.841H65.6771L70.0527 278.029L67.8649 283.498L63.4893 281.31Z" fill="black"/>
</svg>
