<svg width="4401" height="3657" fill="none" xmlns="http://www.w3.org/2000/svg"><path d="m2078.2 2858.6 48.2-98.8 33.8-27.9 92 92.4 36 209-75.2 82.5-88.5-13.5-74.1-84.4 27.8-159.3ZM366.7 3270.7l84.6-38.6L548 3201l12.9 90.3-28 156.3-54.8 101.3-103.7 41.6-108.7-31.8 4.9-127 96.1-160.9Z" fill="#6A6689"/><path d="M1085.5 1323.5 937 1339.1l.4 8.8-6.8 44.2-24.6 229.4-97.8 355.8-139.7 401.5-40.2 80.9 133.5 37.7 260.6 128.6 139-225.9 73.7 75.7 36 209 105.9 12.8 271-30 50.9-37.5-56.2-76.4-63.8-243-60.4-550.4 2.2-333.8-82.5-75.2-80-22.7-22 97.6-67.6 55.8-97.3-13.1-82.5-75.3-3.2-70Z" fill="#EF965A"/><path d="m905.5 1612.8-95.2 30.7-96.9-197.5 214.7-106.5 6.2-.6 1.8-17.3 87.3-12.8 34.9 17.9 36-3.6 52.6-2.4 63 32.3 78-21.2 70.1-3.2 32 11 29.8-5 46.6 31.7 25.5 8.9 219.1-10 52 173.1-232.3 107.3-38.4-261.7-25.9-17.6-76.5-26.6-39.8 6.8-31 89.3-68.2 47-88-4.8-65-76-11.6-61-28-14.3-124 12.2-28.8 273.9Z" fill="#FFD6BB"/><path d="m327.3 1261.7-61.8-6-176.9-27-28.3-42.6 41.8-45.8-39.9-103.5L77.8 992l89.6 39.8 85.3-56.5 65 76 33.8-27.9 44.2 6.8 14.4 122.2-82.8 109.2Zm709-629.6L882.8 735.7 780.5 802l21.2 78 88.4 13.6 67.8 137.3 93.3 118.7 116.7 56.1 168.6 36.2 140.2-6.4 137.9-59 117.9-110.8 55.7-125.5 114-5.2-12.5-78.5-72-40.6-233.3-296.6-548.2 113Zm1163.5 280.4 22.3 104.3 71.7 31.8 148.2-24.3 77.3-38.7-72.5-49.3 40.6-72.1-27.5-25.1-86.8 21.5 3.9-105.5-36.7-33.5-99.5 127.5-9.6-17.1-35 1.6 3.6 78.9Z" fill="#FBE7D4"/><path d="m808 633.8 5.2 113.9 53.8 23.9 15.9-35.9 136.6-85.3 80.1 22.7 139.8-15.2 89.7 39.8 60.6-20.3L1568 546.3l28.7 51.3 39.9 103.6 82.1 66.5 107.6 47.7 31.8-71.7 5.2-79.3-58.2-120.2-38.7-77.3-92-92.3-143.1-55-114.4-3.5-79.7-13.9-185.3-17.8-129.4 49.8-135 120.3-79.7 179.3ZM692 981.6l100.4-110 97.2 13 59 137.9 75 102 170.5 79.9 168.6 36.2 29.6-4.5 136.1-20.7 128.3-76.1 90.8-127 49.8-63.8L1842 964l1.6 35 77.8 163.3 73.7 75.6c6.4 140.3-152.2 130-232.3 107.3-6 21.3-147 50.6-208-131l-.4-8.7-25.5 18.7-61 11.6-75.5.3-55.5 14.5-53-6.4-79.7-14-143.9-72.4c-64 134.7-230.7 75-236.6 10.9-125 33.8-260.3-58.3-241.9-103l110.3-84.1Z" fill="#F6D38A"/><path d="M1230.3 1606.7 1090 1613l-19 159 66.5 111 104.8-13.6 92.4-92 11.1-141-115.5-29.8Z" fill="#000" fill-opacity=".3"/><path fill-rule="evenodd" clip-rule="evenodd" d="M1345.4 548.7a22 22 0 0 1 3.7 30.8c-91.8 116.1-205 126.7-254.5 115a22 22 0 1 1 10-42.7c33.4 7.9 129.1 3 210-99.5a22 22 0 0 1 30.8-3.6Zm233.5-68.2a22 22 0 0 1 17.9 22.3c-2.3 66.2 37.4 221.7 220 293a22 22 0 1 1-16 40.8c-155.5-60.7-219.7-177.4-240-265a372.1 372.1 0 0 1-89.1 79.2 588 588 0 0 1-145 68.3 22 22 0 0 1-12.7-42 544.6 544.6 0 0 0 133.6-63c48.7-32 90.3-72.4 106.5-119.2a22 22 0 0 1 24.8-14.4Zm-503 68a22 22 0 0 1 13.2 28c-10.4 29.1-36.7 70.3-72.8 104.9-36.2 34.6-85.1 65.3-141.6 67.9a22 22 0 1 1-2-43.8c41.8-2 81.1-25 113.2-55.8 32.2-30.7 54.2-66.4 62-88a22 22 0 0 1 28-13.2Z" fill="#000"/><path fill-rule="evenodd" clip-rule="evenodd" d="M1030.5 304.7c158-73.2 298.7-41.8 352.2-15a22 22 0 1 1-19.8 39.2c-42.5-21.3-169.2-51.5-314 15.6-88.9 41.2-145.8 112-179.1 183.6-33.6 72.2-42.2 143-36.5 181.4a22 22 0 0 1-43.4 6.3c-7.2-48.7 3.7-128.1 40.1-206.2 36.6-78.7 100.1-158.4 200.5-204.9Zm541.5 46.1a456.9 456.9 0 0 0-144.3-13.2 22 22 0 1 1-3.8-43.7c37.2-3.3 97.3-1.4 159 14.5 61.7 15.8 127.3 46.3 172.4 102.2C1861.3 542 1886.9 687 1880.9 763a22 22 0 0 1-43.7-3.5c5.1-65-17.3-198.9-116-321.4-37-45.8-92.6-72.7-149.2-87.3ZM875.3 705.5a22 22 0 0 1 20.3 23.5 485 485 0 0 0 68.5 275.6c58.8 96.3 162.7 182.6 340 208.3 176.6 25.6 292.4-34.3 366.7-117 75.3-84 109.2-193 117-264.6a22 22 0 0 1 43.7 4.9c-8.7 78.3-45.2 196.6-128 289-84 93.4-214.3 159-405.6 131.1-190.5-27.6-305.7-121.5-371.2-228.8a528.7 528.7 0 0 1-74.9-301.7 22 22 0 0 1 23.5-20.3Z" fill="#000"/><path fill-rule="evenodd" clip-rule="evenodd" d="M1851.7 853.4a44.7 44.7 0 0 0-22.4 18.6 22 22 0 0 1-36.8-23.9 88 88 0 0 1 47.5-37c12-3.2 25.3-3.2 39 2.1a89.2 89.2 0 0 1 36.8 29.3 67.8 67.8 0 0 1 12.6 64.2 95 95 0 0 1-36.6 47.1 114 114 0 0 1-55 20.8c-19.3 1.6-41-3-56.3-20.4a22 22 0 1 1 33-29c3.2 3.8 9.3 6.6 19.7 5.7a70.3 70.3 0 0 0 33.3-12.9 51.7 51.7 0 0 0 20.1-24.6c2.3-7 1.9-14.7-5.3-23.8A46.3 46.3 0 0 0 1863 854a17 17 0 0 0-11.3-.7ZM830.8 787a44.6 44.6 0 0 1 22.6 18.3 22 22 0 0 0 36.6-24.1 87.9 87.9 0 0 0-47.9-36.5c-12-3.2-25.4-3.1-39 2.4a89.2 89.2 0 0 0-36.5 29.6 67.8 67.8 0 0 0-12 64.3 95 95 0 0 0 37 46.8 114 114 0 0 0 55.2 20.3c19.4 1.4 41-3.5 56.1-21a22 22 0 1 0-33.2-28.6c-3.2 3.7-9.3 6.6-19.7 5.8a70.3 70.3 0 0 1-33.4-12.6 51.8 51.8 0 0 1-20.4-24.4c-2.3-7-2-14.6 5.2-23.9 7.5-9.7 13.8-13.9 18.1-15.6a17 17 0 0 1 11.3-.8Zm310.4 188.5a22 22 0 0 1 28.6 12c13 31.7 72.1 102.8 202 90.4 67.3-6.5 111.4-23.3 139-40.3 28-17.4 37.8-34.4 39.6-40.8a22 22 0 1 1 42.2 12c-5.8 20.3-24.9 45-58.7 66-34.4 21.4-85.3 39.7-158 46.7-149.9 14.4-226.7-68.6-246.7-117.4a22 22 0 0 1 12-28.6Zm-16.6-141a22 22 0 0 1 22.9 21l.4 8.7a22 22 0 0 1-43.8 2l-.4-8.8a22 22 0 0 1 20.9-22.9Zm439.8 15a22 22 0 0 1 23 20.9l.3 8.7a22 22 0 1 1-43.8 2l-.4-8.7a22 22 0 0 1 21-23Z" fill="#000"/><path fill-rule="evenodd" clip-rule="evenodd" d="M793.7 844a22 22 0 0 1 9 29.6 549.8 549.8 0 0 1-96.1 124.6c-45.3 44-104.2 85.5-172.4 100a22 22 0 1 1-9.2-42.8c57-12.3 108.9-47.6 151-88.6 42-41 72.8-85.8 88-114a22 22 0 0 1 29.7-8.9Zm143.7 141a22 22 0 0 1 13.8 27.8 497.6 497.6 0 0 1-57.2 113.6c-27.8 40.8-65.8 82-113.4 100.2a22 22 0 0 1-15.8-40.9c35.3-13.6 67-46 93-84a454.2 454.2 0 0 0 51.8-103 22 22 0 0 1 27.8-13.7Zm904-51.7a22 22 0 0 1 22.1 21.8c.3 64.2 40.9 214.3 203 286.3a22 22 0 1 1-17.8 40c-182.1-80.8-228.7-249.8-229-326a22 22 0 0 1 21.8-22.1Zm-174.6 192.4a22 22 0 0 1 21.4 22.5c-1 36.3 17 122.3 94.7 169a22 22 0 1 1-22.7 37.6c-95.8-57.7-117-162-115.9-207.7a22 22 0 0 1 22.5-21.4Zm-652.3 215.6a818 818 0 0 0-82.7 11 22 22 0 1 1-8.2-43c21-4 54.5-9.2 87.5-11.8a451 451 0 0 1 48.5-1.4c14.8.5 29.8 2.1 41.9 6.3a22 22 0 0 1 14.5 23.6c-2.8 21.8-.7 55.2 13.8 83.1 13.8 26.5 39.2 49.6 87.8 53.4 24.5 2 42.8-2.5 56.6-10a86.4 86.4 0 0 0 32.8-32.8c16.7-28.2 21.5-64.7 20.4-89.7a22 22 0 0 1 18.7-22.7c33.3-4.9 83-.3 125.2 30 43.3 31.3 75 87 75.3 176.8.4 105.2 3 352.3 25.8 587.3 11.4 117.5 27.8 231.3 51.3 322.4a635 635 0 0 0 40 116c15.3 31.3 31.3 52.3 47.4 63.6a22 22 0 0 1-25.4 35.9c-24.8-17.6-44.8-46.2-61.4-80.5-16.8-34.6-31-76.9-43.1-124-24.3-94.4-41-210.7-52.5-329.2-23-237.1-25.5-485.9-26-591.4-.3-78.7-27.4-119.9-57-141.2a130.7 130.7 0 0 0-74.7-23.5 208 208 0 0 1-26.3 92.5 130.2 130.2 0 0 1-49.5 49 142.8 142.8 0 0 1-81 15.3c-64.3-5.1-102.9-37.6-123.4-77a189.3 189.3 0 0 1-19.7-88.5c-3.8-.4-8.1-.7-13-.9-13-.4-28 .2-43.5 1.4Zm645.6 1320.6a22 22 0 0 1-15 27.2c-31.1 8.9-82 21-134.4 28.8-51.5 7.5-107.8 11.4-148 1.3a22 22 0 1 1 10.8-42.5c31 7.7 79.7 5.3 130.8-2.2 50.2-7.4 99.2-19.1 128.7-27.6a22 22 0 0 1 27.1 15Z" fill="#000"/><path fill-rule="evenodd" clip-rule="evenodd" d="M925.8 1309a22 22 0 0 1 23.8 19.8c15 169-34.6 395-101 606.7a4331 4331 0 0 1-196.8 507.3c63.8 12.2 135 40.2 199.5 70.9 64 30.4 123 64.3 163.8 90l126.6-223.2a22 22 0 0 1 30-8.2c24.5 14 43.2 36.8 57.5 62.4a372 372 0 0 1 33 85.4 713 713 0 0 1 21.9 165 22 22 0 1 1-43.9.3 669 669 0 0 0-20.4-154 328.5 328.5 0 0 0-28.9-75.3c-7.2-13-15-23.6-23.4-32l-125.8 221.5a21.8 21.8 0 0 1-22.9 10.8c-3-.6-5.7-1.7-8.3-3.4a1547 1547 0 0 0-178-99.7c-73.7-35-152.2-64.4-215.5-71.4a22 22 0 0 1-17.4-31.3c57-119 141-318 207-528.2 66.3-211 113.4-429.9 99.3-589.7a22 22 0 0 1 19.9-23.8Z" fill="#000"/><path fill-rule="evenodd" clip-rule="evenodd" d="M947.4 1321a22 22 0 0 1-9.8 29.4l-206.9 103.5a657 657 0 0 1 46.1 65.4 467 467 0 0 1 48.7 103l71.6-29.8A22 22 0 1 1 914 1633l-94.8 39.5a22 22 0 0 1-30-15.7c-8.1-38.3-27.7-78.8-49.7-114.5a571.4 571.4 0 0 0-59.8-80.7 21.9 21.9 0 0 1 6.4-34.4l231.8-116a22 22 0 0 1 29.5 9.8Zm777.7 18.9a22 22 0 0 1 7.5 15.4c1 20.6 5 54.3 14 87.5 9.2 34 22.7 63.3 39.9 79a22 22 0 0 1-5.3 35.9L1540.6 1674a22 22 0 0 1-19-39.5l215.2-104.1a262.5 262.5 0 0 1-32.5-76.2 482.7 482.7 0 0 1-13.8-74.2l-196.7 17a22 22 0 0 1-3.8-43.8l218.8-18.8a22 22 0 0 1 16.3 5.4Z" fill="#000"/><path fill-rule="evenodd" clip-rule="evenodd" d="M218.1 1031.7a215 215 0 0 0 .8 74 22 22 0 0 1-43 9c-5-21.5-16.1-52.3-32.4-75-16.6-23-33.3-31.6-51.2-26.8-4.7 1.3-7 3-8 4-1 1.1-2 2.7-2.6 5.6-1.4 6.7-.3 17.7 5 33 10.6 30 33 64.9 51 88a22 22 0 0 1-19.9 35.3c-12-1.4-21.2-1.3-27.8-.2-2.8.4-4.7 1-6 1.5 1.2 3.2 4.3 8.9 11.5 17 4 4.7 12.2 10 25.3 15.2a262 262 0 0 0 44.9 12.4c33.3 6.5 69 9.1 91.4 9.5a22 22 0 0 1-.7 43.9c-24.4-.4-62.8-3.2-99.2-10.3a303.5 303.5 0 0 1-52.5-14.7 109.1 109.1 0 0 1-42.1-27 93 93 0 0 1-21.4-36.1 40.4 40.4 0 0 1 8.6-38.7c7.9-8.6 18.7-13 29-15.3a332 332 0 0 1-33.4-66c-6.3-18-10.5-38.2-6.6-56.6a54.5 54.5 0 0 1 42-42.8c43.6-11.8 76.3 13.9 97 41.7a94.8 94.8 0 0 1 17.1-34.6 64.1 64.1 0 0 1 48-23.9c43-2 67.3 33.3 79.8 63.6l1 2.5c6-9.5 14.2-19 25.8-24 17.3-7.7 35.1-3 50.3 8.5 38.6 29.3 39.9 83.3 28.4 130.4-12 49.2-40 102-76 141.3a22 22 0 0 1-32.8-.5c1.7 2.1 3 4.6 3.8 7.4 15.4 52.6 43.7 132 78.3 199a441.7 441.7 0 0 0 54.4 84.8c19.2 22.2 35.7 32.4 48.6 34 37.5 4.4 86-5.5 133-21.2a711.4 711.4 0 0 0 113.9-49.6 22 22 0 1 1 21.4 38.2 754.5 754.5 0 0 1-121.3 53c-48.9 16.3-104.9 28.7-152.2 23-29.5-3.5-55.2-24.1-76.5-48.7a483.9 483.9 0 0 1-60.3-93.3 1251 1251 0 0 1-81.4-206.9 22 22 0 0 1 37.7-20.4 22 22 0 0 1 1-28.4c31-34 55.6-80.2 65.8-122 10.7-44 3.7-73-12.3-85.1a16.6 16.6 0 0 0-6.1-3.4c-1 .5-4.6 3.2-9 12.1-8.8 17.7-14 45.5-15.9 66.5a22 22 0 0 1-43.8-.9c-1-21.8-5.8-54-16.4-79.6-11.2-27.2-24.2-37-37.2-36.4-7.5.3-12.2 3.1-16 7.8a60.5 60.5 0 0 0-10.8 26.2Zm2094.1-254.5a360 360 0 0 0-42.2 79.4 22 22 0 0 1-39.6 2.8 60.9 60.9 0 0 0-7-10 30 30 0 0 0-7-6.2c-.5.6-1.3 1.5-2.1 2.7-1.3 1.8-3.5 8-3.9 21.4-.4 12.4.9 27.6 3.3 44.2 4.7 33 13.6 68.3 20.3 90.7a22 22 0 1 1-42 12.5 722.7 722.7 0 0 1-21.8-97 309.3 309.3 0 0 1-3.6-51.7c.4-15 2.7-32 11.4-44.7a48.8 48.8 0 0 1 28.2-21.3c12-3 22.9.2 31 4.6 2 1.1 4 2.4 6 3.8A358.7 358.7 0 0 1 2277 751c10.5-14 23-27.6 37.3-36.3a55.8 55.8 0 0 1 52.8-5.2c18 8 28.1 22.9 33.4 38.6a132 132 0 0 1 5 48.8c-.5 10.5-2 21.3-4 31.9 3.4-1.6 6.9-3.2 10.3-4.5 22.6-9 56-16 80.8 6.5a47.8 47.8 0 0 1 14.8 44.3 99.8 99.8 0 0 1-17 39c-4.5 6.5-9.6 13-15 19.2l5.4 1c11 2.3 23 6.5 32.8 14.3a48.3 48.3 0 0 1 18.9 36.4 39 39 0 0 1-11.2 28.4 79.5 79.5 0 0 1-21.6 15.7 271.6 271.6 0 0 1-57.7 20 922.3 922.3 0 0 1-128.7 20.6 22 22 0 1 1-3.9-43.7 879 879 0 0 0 122-19.5c20.3-5 37-10.6 48-16.3 4.3-2.3 7-4.2 8.6-5.6a7 7 0 0 0-1.6-1.6c-2.5-2-7.2-4.2-14.7-5.8-15-3.2-34.1-2.4-47.2-.5a22 22 0 0 1-17-38.8 246.4 246.4 0 0 0 46.6-48.5 58 58 0 0 0 10-21.1c.5-3.6-.2-4.3-1-5-4.6-4.2-14.9-6.3-35 1.7a191 191 0 0 0-48.8 30.2 22 22 0 0 1-34.8-24.4 283.9 283.9 0 0 0 17.3-76.5c.8-13.4-.3-24.4-3-32.3-2.4-7.5-5.8-10.8-9.5-12.4-2.1-1-5.5-1.5-12.2 2.6a97.7 97.7 0 0 0-24.9 25Zm-94.7 65.1h-.1Zm-2.3.4Zm14 214a22 22 0 0 1 17.2 25.8c-18.9 93.5-149.3 287-508.6 381.9a22 22 0 1 1-11.2-42.4c348.9-92.2 462.3-276.2 476.8-348.2a22 22 0 0 1 25.9-17.2Zm-1087.1 255.5a22 22 0 0 1 30.9 3c7 8.5 20.7 19.5 37 23.8 15 4 34 2.8 55.6-15a22 22 0 0 1 28 34c-32.7 26.8-66.2 31-94.7 23.4a120 120 0 0 1-59.8-38.4 22 22 0 0 1 3-30.8Z" fill="#000"/><path fill-rule="evenodd" clip-rule="evenodd" d="M1227.7 1243a22 22 0 0 1 17.1 25.9c-2.2 11.2-5.2 29-6.6 45.3-.8 8.2-1 15.5-.8 21.3.2 5 .7 7 .7 7v-.1a22 22 0 0 1-38.6 20.9 59.6 59.6 0 0 1-6-26c-.3-8.4.2-17.8 1-27 1.6-18.3 4.8-37.7 7.3-50.1a22 22 0 0 1 25.9-17.2Zm-119.3 388.5c-9 43.4-14.4 101.5-5 149.7 5.2 26.5 14.4 48 28 62.7 13 14 31.5 23.5 59.3 23.6 54.7.4 88.2-33 108.8-81 18.6-43.4 24.9-95.5 24.7-134.9a431.5 431.5 0 0 0-215.8-20.1Zm-24-39.6c44.2-11.6 157-22 269.8 24.3a22 22 0 0 1 13.5 19.3c2 44.4-3.5 111.5-27.8 168.2-24.7 57.5-70.7 108.2-149.5 107.7-39-.3-69.3-14.2-91.1-37.7-21.2-22.8-33-53.1-39-84.2-12-61.8-3-134 8.4-181.5a22 22 0 0 1 15.7-16.1Zm1021.2 1142.8a54.4 54.4 0 0 1 44.8-24.3c20.3-1 38.5 7.7 53.7 19.9a190.2 190.2 0 0 1 40.7 48.3c23.7 38.4 42.4 89 52.2 139.4 9.7 50 11.1 102.7-2.4 144.2a116 116 0 0 1-34.8 54.2 99 99 0 0 1-64.2 22.2c-49.8.3-87.7-13.3-114.2-38.5-26.2-25-38.6-58.8-43-93.5-8.5-68.7 13.3-148.8 35-201a22 22 0 1 1 40.6 16.8c-20.5 49.2-39.2 121-32 178.8 3.6 28.4 13.1 51.3 29.7 67.1 16.3 15.5 42 26.7 83.6 26.4a55.2 55.2 0 0 0 36.4-12 72.5 72.5 0 0 0 21.2-34.1c10.3-31.5 10-75.7 1-122.2-9-46.2-26-91.7-46.4-124.7a147.3 147.3 0 0 0-30.9-37.2c-10-8.1-18-10.6-24.1-10.3-4 .2-6 1-7.2 1.7a8.3 8.3 0 0 0-3 2.8c-1.8 2.9-2.5 7-2.4 9.3a22 22 0 1 1-43.8 2 61 61 0 0 1 9.5-35.3Z" fill="#000"/><path fill-rule="evenodd" clip-rule="evenodd" d="M1521.8 2678.4a22 22 0 0 1 17.3 25.7c-10.4 53.2-18 133.9-8 203 10.4 71.3 37.3 118.4 85.6 126.8 26.5 4.7 61.6-.7 103-14.8 40.9-14 85.6-35.8 130.3-61.4a1691.5 1691.5 0 0 0 229.6-160.5 22 22 0 0 1 28.2 33.6 1734.8 1734.8 0 0 1-236 165 825.8 825.8 0 0 1-138 64.8c-44 15-87.4 23-124.7 16.5-79.2-13.8-110.6-89.9-121.4-163.6-11-75.7-2.6-161.7 8.3-217.8a22 22 0 0 1 25.8-17.3ZM519.1 3138c11-5 24-.3 29.1 10.7a408 408 0 0 1 33.7 158c1 66.1-14.2 141.4-64.2 208.1-61.1 81.6-147.9 116.8-212.5 95.3a102.6 102.6 0 0 1-68.3-74.6c-9.5-37-3.8-83.4 19.1-137.5 72.4-171 185.6-212.6 241.6-207.8a22 22 0 1 1-3.8 43.7c-32.2-2.8-130.3 22.8-197.4 181.2-20.7 48.9-23.3 85.1-17 109.5a58.8 58.8 0 0 0 39.6 43.9c40 13.3 108.9-7 163.6-80 42.7-57 56.3-122 55.4-181.1a364.8 364.8 0 0 0-29.6-140.3 22 22 0 0 1 10.7-29Z" fill="#000"/><path fill-rule="evenodd" clip-rule="evenodd" d="M817.5 2511.2a22 22 0 0 1 8.9 29.7 7549.2 7549.2 0 0 0-179 354c-29.3 62.6-55.1 121.3-72.9 168.6a610 610 0 0 0-19.8 60.3 97.5 97.5 0 0 0-4.6 31 22 22 0 1 1-43.4 6.3c-2-13.4 1-30.7 5.5-48.2 4.8-18.5 12.1-40.5 21.3-64.8a2527.2 2527.2 0 0 1 74.1-171.8c59-126.2 131.5-266 180.2-356.2a22 22 0 0 1 29.7-9Z" fill="#000"/><path d="m2811.6 2578.4-30-198.3-5.7-43-24.5-18.7-43.6 14.3-74.6 97.7-23.5 100.9 53 105.9 66.3 29.9 79.9-46.2 2.7-42.5Zm1270.9 423.3-96.3 36.5-29.4 57.9-9.3 144.5 36.6 96.3 91.3 40 88.9-54 3-179.2-84.8-142Z" fill="#A1A1A1"/><path d="m3714 2090-18.9-103.8-205.7 12.4L3359 2033l-247.2-7.4-27.2 23.9-52.6 287-126.5-25.3-39.5 82.9 6.1 171.2 56.8 46.3 112.5 109.7 143 34.8 124-68.9 59.7-132.8 36.5-168.4 389.2 588.6 121.8-34.9L4078 2805l22.5-84-135.8-145.3-132-205L3714 2090Z" fill="#2D5473"/><path d="M3061.5 1347.8 2922 1125.3l210.1-80.4 209.7 192.8 64.2 64 93.5 6 69.7-21.2 40.9 28.2 319.9 71.8-14.2 221.1-228.6-31.7 24.3 420-239.3 1.6-113.8 44-255.1-16.4-64.3-64-11-94.6 65.2-482.5-31.8-36.2Z" fill="#539AD1"/><path d="m2753.4 294.8 83.7 159 99.9 40.6 133-76.8 28.8-49.4-23.3-35.7-34-2.2 7-110.5-41.9-11.2-54.3 47.7-72.7-64.4-35.1 14.8 11 94.6-82.9-39.5-19.2 33Zm416 436.6-25.5-1.7-29-78.7 183.4-329.8 175-65.6 279.9 163.2L4061.6 669l70.8 226.6-41 108.4-76-13.4 32-100.4c-111 238.7-331.9 291.7-428.5 288.4-291.7-32.4-399-213.5-416.2-300l-33.3-147.3Zm851.6 1233-4.7-60-125.3-42.2-52.7 22.2-10.7 33.5 48.8 37.3-29.8 66.4 14.8 35.1 51 3.3 13.2 60.6 51 3.3 47.5-73.8-3-85.6Z" fill="#BF8C69"/><path d="m3128.8 566.5-31.9-36.2-5.2-51.6 4.4-68 21.4-67 80.9-63 19.2-33 44.7-31.3 19.8-41.4 79.2-37.6 92.5 23 71.3-46.6 121.8-34.9 117.4 33.2 30.8 53.2 101 23.6 13.7 52 94-2.4 72.3 73 32.3 27.6 29.7 70.3 12.6 69 64.8 55.5L4235 629l1.4 111 29.6 70.3-27.7 32.3-62.3 38.7-78.7 29.1-43.6 14.3-25.8-129.7-31.9-36.2-20.6-78.2-81.2-65-74.3-39-76-13.4-72.2-73-43 5.9-87.6-99.6-21.2-69.7-58.4-20.8.6-8.5-65.6 89.7-70.8 38.2-40 91.3-44.2 22.8-14.5 93-59-12.3-39.2-53.8Z" fill="#555"/><path d="m3403 951.3-9.4-120.1 173.7 88 219 48.2-82.6 88.6-162.2-1.9L3403 951.3Z" fill="#fff"/><path fill-rule="evenodd" clip-rule="evenodd" d="M3544 137.6c76.2-61.4 169.1-32.5 206.7-9.3a21.3 21.3 0 0 0 22.4-36.2c-44.6-27.6-159.2-65.5-255.8 12.3a21.3 21.3 0 1 0 26.7 33.2Zm228.6 18.7c-4 11 1.8 23.2 12.9 27.2 20.7 7.4 73.5 21.4 119.3 16.7a21.3 21.3 0 1 0-4.3-42.4c-36.7 3.8-82.5-8-100.7-14.4-11-4-23.3 1.8-27.2 12.9ZM4036 198a21.3 21.3 0 0 0-30-1.9 99.9 99.9 0 0 1-50.8 22c-18.4 2.9-35 1.7-44 0a21.3 21.3 0 1 0-8 41.8c13.6 2.6 35.2 4 58.6.2a142.2 142.2 0 0 0 72.3-32 21.3 21.3 0 0 0 1.9-30Zm21 98c-7.4 9.1-6 22.5 3 30 8.2 6.6 21.3 19.5 32.8 35.3 11.7 16 20 33 21.5 48.2a21.3 21.3 0 1 0 42.4-4.3c-2.6-26-15.8-50.2-29.4-69a242.4 242.4 0 0 0-40.3-43.2c-9.1-7.5-22.6-6.1-30 3Zm144.6 196.6a166.6 166.6 0 0 0-96.5-31.6 21.3 21.3 0 1 0 0 42.6c19.4 0 48.3 6 70.8 23 21.3 16.1 38.9 43.2 35.8 90.6a21.3 21.3 0 1 0 42.6 2.8c3.9-61.5-19.7-102.5-52.7-127.4Zm17.1 230.6a21.3 21.3 0 0 0 .1 30c9 9.1 19 23.5 21.9 37 1.3 6.4 1 11.8-1 16.5a35.1 35.1 0 0 1-15.2 16 21.3 21.3 0 0 0 22.5 36.2 77.3 77.3 0 0 0 32.2-36.2 70 70 0 0 0 3.2-41.2c-5.3-24.7-21.2-46.1-33.5-58.4a21.3 21.3 0 0 0-30.2 0Zm-347.7-114.6a21.3 21.3 0 0 0 15.5 25.8c23.1 5.8 79 38.3 85.8 124.2a21.3 21.3 0 0 0 42.4-3.3c-8.2-106.5-79.3-152.6-117.9-162.2a21.3 21.3 0 0 0-25.8 15.5Zm-217.8-202a21.3 21.3 0 0 0-18.3 24c7.9 59 41.8 100.5 79.4 127.9a272.2 272.2 0 0 0 107.3 46.3 21.3 21.3 0 1 0 7.4-42 230 230 0 0 1-89.6-38.8c-31-22.5-56.3-54.6-62.3-99a21.3 21.3 0 0 0-24-18.3Z" fill="#000"/><path fill-rule="evenodd" clip-rule="evenodd" d="M3524.9 312.8c-11.8.3-21 10.1-20.7 21.9 1.2 44.6 24.5 84 50.4 113.8 26 30.1 57 53 77.9 65.3a21.3 21.3 0 0 0 21.4-36.8 286.2 286.2 0 0 1-67.1-56.4c-22.9-26.3-39.2-56.4-40-87-.4-11.8-10.1-21-21.9-20.8Zm348 477.1a21.3 21.3 0 0 0-29.1 7.7l-9.6 16.5a21.3 21.3 0 0 0 36.8 21.4l9.6-16.4c6-10.2 2.5-23.2-7.7-29.2Zm-425.5-155.4a21.3 21.3 0 0 0-29.2 7.7l-9.5 16.4a21.3 21.3 0 1 0 36.8 21.5l9.6-16.5c5.9-10.1 2.5-23.2-7.7-29.1Zm735.4 225.9c-10.7-5.1-23.4-.6-28.4 10-2.7 5.7-18.4 25.1-55.2 17.4a21.3 21.3 0 0 0-8.7 41.7c57.6 12 91.9-18.8 102.4-40.8 5-10.6.5-23.3-10.1-28.3Z" fill="#000"/><path fill-rule="evenodd" clip-rule="evenodd" d="M4034.8 781a21.3 21.3 0 0 0-22.7 19.9c-1 16.8-1 43.1 3 68.6 1.9 12.7 4.9 25.9 9.5 37.8a79.9 79.9 0 0 0 21.3 32.4 21.3 21.3 0 1 0 27.7-32.4c-2.7-2.3-6-7-9.3-15.4-3-8-5.5-18-7.1-28.8-3.3-21.9-3.5-45-2.5-59.5a21.3 21.3 0 0 0-20-22.6Zm57.8 14.5c-10.8 4.6-16 17-11.3 28a113.6 113.6 0 0 1 6.9 24 21.3 21.3 0 0 0 32.5 26.7 31.8 31.8 0 0 0 10-22.6c.4-6-.4-12.1-1.5-17.2a155.1 155.1 0 0 0-8.7-27.5c-4.6-10.9-17-16-27.9-11.4Zm-4.4 54.1v-.3.3Zm-612.5-599.3a21.3 21.3 0 0 0-26.4 14.5 281.5 281.5 0 0 1-44.3 87.6c-22.8 29.4-50.4 49.3-82.1 49.9a21.3 21.3 0 1 0 .8 42.6c50.4-1 88.7-32.4 115-66.4a323.9 323.9 0 0 0 51.5-101.8 21.3 21.3 0 0 0-14.5-26.4Z" fill="#000"/><path fill-rule="evenodd" clip-rule="evenodd" d="M3315.3 367.8a21.3 21.3 0 0 0-19.6 22.9c1.5 18.7 1.2 47.2-4.1 71.7a94.3 94.3 0 0 1-10.7 29.3c-4.4 7-8.5 9.7-12.1 10.6a21.3 21.3 0 0 0 10.8 41.2 63.4 63.4 0 0 0 37.4-29.2c8-12.8 13-28 16.2-43 6.5-29.6 6.7-62.5 5-84a21.3 21.3 0 0 0-22.9-19.5Z" fill="#000"/><path fill-rule="evenodd" clip-rule="evenodd" d="M3244.4 500.4a21.3 21.3 0 0 0-16.6 25.2c3 14.7 5.9 37.3 4.8 57-.5 9.9-2 17.8-4.1 23.2-1 2.6-2 4.2-2.8 5l-.7.7-.2.2a21.3 21.3 0 1 0 16.6 39.2 50.8 50.8 0 0 0 26.7-29.6c4.5-11.3 6.4-24.3 7-36.4 1.4-24.4-2-50.9-5.5-67.9a21.3 21.3 0 0 0-25.2-16.6Zm125.8-339.7c27.2-.8 52.6 11.4 67.4 23a21.3 21.3 0 0 0 26.4-33.3 151.3 151.3 0 0 0-95.1-32.2c-41.4 1.3-84.3 22.6-118.1 77.2a21.3 21.3 0 1 0 36.2 22.4c27.2-43.9 57.7-56.3 83.2-57Z" fill="#000"/><path fill-rule="evenodd" clip-rule="evenodd" d="M3253 248c18.1.1 40.2 7.6 55.3 15a21.3 21.3 0 0 0 19-38.2c-18.1-8.9-47-19.2-74-19.4-13.9 0-29 2.5-42.2 11.2a62 62 0 0 0-26.5 41.7 21.3 21.3 0 1 0 41.9 8c1.6-8.5 5-12.1 8-14.1 3.7-2.5 9.7-4.2 18.5-4.1Z" fill="#000"/><path fill-rule="evenodd" clip-rule="evenodd" d="M3223 269a21.3 21.3 0 0 0-28.9-8.3 310 310 0 0 0-81.2 66.8c-26 30.7-48 71.6-42.6 117.8a21.3 21.3 0 0 0 42.3-4.9c-3.4-29.5 10.4-58.8 32.8-85.3a267.5 267.5 0 0 1 69.4-57.1 21.3 21.3 0 0 0 8.3-29Zm-44.8 107a21.3 21.3 0 0 0-19.6 23c.6 7.7-.3 19.4-4.2 29-3.6 8.8-8.5 13-15.8 14a21.3 21.3 0 1 0 5.6 42.3 61.8 61.8 0 0 0 49.6-40.2 111 111 0 0 0 7.3-48.5 21.3 21.3 0 0 0-23-19.5Z" fill="#000"/><path fill-rule="evenodd" clip-rule="evenodd" d="M3111.3 452a21.3 21.3 0 0 0-29.9 4 83 83 0 0 0-6.5 80.7 21.3 21.3 0 0 0 39.3-16.5c-8.5-20.1-1.2-35.4 1-38.4a21.3 21.3 0 0 0-4-29.8Zm16.4 91.4a21.3 21.3 0 0 0-22.6 19.9c-1.3 19.4 7.5 63 55 75.7a21.3 21.3 0 0 0 11-41.2 29.2 29.2 0 0 1-19.3-14.5 34.7 34.7 0 0 1-4.2-17.3 21.3 21.3 0 0 0-19.9-22.6Z" fill="#000"/><path fill-rule="evenodd" clip-rule="evenodd" d="M3142 580a21.3 21.3 0 0 0-28.5 9.9c-12.6 25.8-24 65.9-20.5 102.6a98.3 98.3 0 0 0 20.4 53.6 88 88 0 0 0 57.3 30.5 21.3 21.3 0 1 0 6.3-42.1 45.8 45.8 0 0 1-30.6-15.3 56 56 0 0 1-11-30.8c-2.5-26.7 6.1-58.8 16.4-79.8 5.2-10.6.8-23.4-9.8-28.5Zm256.7 220.1c-6.4.5-12.2 3.7-15.9 9-9.9 14-14 34-14 54.6 0 21.2 4.5 45.7 14.5 70.5 20.3 49.9 63.7 101 140.5 129 153.4 56 261.3-12 280.7-92.7a21.3 21.3 0 0 0-18-26.1 1134.1 1134.1 0 0 1-191.8-42.9c-73.2-23.5-141.4-55.3-179-94.9a21.3 21.3 0 0 0-17-6.5Zm355 182.7c-26.1 42.7-98.3 83.2-215.3 40.4-65-23.7-99.6-65.9-115.6-105a147.6 147.6 0 0 1-11.3-58.2c45.8 35.6 108.9 62.4 170.2 82 62.2 20 125 33.3 172 40.8Z" fill="#000"/><path fill-rule="evenodd" clip-rule="evenodd" d="M3183.6 641a21.3 21.3 0 0 0-24.7 17.3c-11.8 67-9.2 172.3 36.7 273.7 46.2 102.3 135.9 199.7 296 249 160.9 49.5 290.7 14 387-51.2A535.6 535.6 0 0 0 4064 905.2a21.3 21.3 0 0 0-39.2-16.6 493.3 493.3 0 0 1-170.2 206c-86.5 58.5-203 91-350.4 45.7-148-45.6-228.4-134.2-269.8-225.9-41.8-92.4-44.1-189-33.6-248.7 2.1-11.6-5.6-22.6-17.2-24.7Z" fill="#000"/><path fill-rule="evenodd" clip-rule="evenodd" d="M4141 890.4a21.3 21.3 0 0 0-24.6 17.4c-10.3 60.1-32.6 76-48.6 79.7-19 4.4-42.5-4.5-59.3-17a21.3 21.3 0 0 0-25.3 34.4c21.2 15.6 57.6 32.7 94.3 24 39.9-9.3 69.3-45.6 80.9-114 2-11.5-5.8-22.5-17.4-24.5ZM2915.4 250.3c10.8 24.5 16 54.4 17.3 74.2a21.3 21.3 0 0 0 42.2 2.5c4.1-21.5 12.6-52 24.2-74.6a69.6 69.6 0 0 1 16.2-22.5c3.7-3 5-2.4 6.4-1.8 1.3.5 3.2 1.4 4.3 7.5 1.2 7 .5 17.3-2.5 30.6a327 327 0 0 1-30.3 76 21.3 21.3 0 0 0 34 25 69.4 69.4 0 0 1 30-18.6 18 18 0 0 1 11 .3c2.6 1 6.6 3.7 10.8 11 .3.5.6 1 .3 2.6-.4 2.2-1.8 5.7-5.3 10.8-7.1 10.3-20 22.4-37.3 35.3a680.6 680.6 0 0 1-111.1 64.6 21.3 21.3 0 0 0 18 38.7c33-15.4 81.3-41.3 118.6-69.2a212.1 212.1 0 0 0 46.8-45.1c10.7-15.5 19.3-37.5 7-59a65.6 65.6 0 0 0-31.6-29.1 58 58 0 0 0-28.3-3.9c3.6-9.9 6.6-20 9-29.9 3.5-15.5 5.5-32.4 2.8-47.6a50 50 0 0 0-30.2-39.5 47.5 47.5 0 0 0-48.6 7.7 110 110 0 0 0-28 36.7 195 195 0 0 0-3.6 7.5l-3.1-7.3c-12.8-29.2-36-62-75.9-64.5a51.5 51.5 0 0 0-47.9 22.3 90.8 90.8 0 0 0-13.3 46.7c-.4 7.4-.2 15 .3 22.8a77.8 77.8 0 0 0-30-12c-14-2.2-28.7 1-41 12-16.4 14.3-15.8 36-12.7 51.4 3.2 16.8 11 35.5 20 53.5 18.4 36.3 45 75 63.9 99.5a21.3 21.3 0 0 0 33.8-25.9 645.2 645.2 0 0 1-59.6-92.8 177.1 177.1 0 0 1-16.3-42.4c-1.5-7.9-.8-11-.5-11.8 1.8-1.5 3.5-1.8 6-1.4 3.9.5 9.4 2.9 16.5 7.9a164 164 0 0 1 36 38.4 21.3 21.3 0 0 0 38-18.1c-6.6-22.2-13-54.1-11.8-79a50.4 50.4 0 0 1 5.9-24.7c1.6-2.4 3.6-4.3 10-3.8 14.6.9 28.3 13.3 39.6 39ZM2860 492.2a21.3 21.3 0 0 0-24.7 17.2c-18.7 104.2-1.7 361.2 208.8 578.1a21.3 21.3 0 1 0 30.6-29.6c-199.6-205.7-214.1-448.2-197.5-541 2.1-11.6-5.6-22.6-17.2-24.7Z" fill="#000"/><path fill-rule="evenodd" clip-rule="evenodd" d="M3144.8 1014.6a21.3 21.3 0 0 0-16.4 2c-24.6 13.7-65 34.6-106 52.4-41.9 18.3-80.9 31.8-104 33.2a21.2 21.2 0 0 0-15.5 34.4 1925 1925 0 0 1 83.9 115.8 760 760 0 0 1 36.2 59.4c9.8 18.4 14.3 30.6 14.9 36.3a21.3 21.3 0 1 0 42.3-4.3c-1.5-15-9.9-33.8-19.6-52a799.3 799.3 0 0 0-38.3-63 1895 1895 0 0 0-64.6-90.7 611.5 611.5 0 0 0 81.8-30c33.3-14.5 66.2-31 91.2-44.3 62 103 156 166.7 203 189.5 45.7 64.8 96.2 89 143.6 87.6 46.8-1.3 84.9-27.4 105.8-50.4a21.3 21.3 0 1 0-31.4-28.7c-15.8 17.3-43.7 35.6-75.6 36.5-30.3.9-69.8-13.9-110.6-73.9a21.4 21.4 0 0 0-8.8-7.4c-41.1-18.5-140.8-83.9-199.1-192a21.2 21.2 0 0 0-12.8-10.4Z" fill="#000"/><path fill-rule="evenodd" clip-rule="evenodd" d="M3114.6 1345.6c-11.4-3-23 3.7-26.2 15-18.8 69.3-44.6 182-60.8 296.1-16 113-23.4 231-3 308.6a21.3 21.3 0 0 0 41.2-10.9c-18-68.4-12-178.6 4-291.7 16-112 41.3-223 59.8-290.9 3-11.3-3.7-23-15-26.2Zm473-39.6a21.3 21.3 0 0 0 13.3 27c36.7 12.5 97.2 31 159.8 46.4 51.8 12.6 106.6 23.5 150.8 26.4-4.4 29.5-9.5 66.7-13.5 101.8a1382.2 1382.2 0 0 0-7 81.7c-29.9-4.9-66.8-11.3-100.3-18.1-22-4.5-42.1-9-57.8-13.3-8-2.1-14.4-4.1-19.2-5.9-4.3-1.6-6.2-2.6-6.7-2.8-.2-.1-.2-.1-.1 0a21.4 21.4 0 0 0-29.2 3c-2.3 2.8-4 6.1-4.6 9.7-4.4 21.9-9.8 57.6-11.8 94.2-2 35.9-1.2 76 9 104.7 9.7 27.2 14.9 75.9 17.2 124.2 1.5 33 1.6 64.3 1.2 85.7-33-2.5-76.8-4.1-121.8-2.2-55.6 2.4-115.9 10.2-158.6 30-34 15.9-89 20.8-147.1 19.4-57.2-1.4-113.7-8.8-147.9-15a21.3 21.3 0 1 0-7.8 41.8c36.1 6.7 94.9 14.4 154.6 15.8 58.8 1.4 122.6-3 166.1-23.3 34.8-16.1 87.9-23.8 142.6-26.1 54-2.3 106.5.6 138 4a21.3 21.3 0 0 0 23.6-19.8c1.2-18 1.9-63.5-.4-112.3-2.2-48-7.5-102.5-19.5-136.5-7.1-20.1-8.7-52.8-6.7-88 1.3-22.4 3.8-44.4 6.6-62.7 3.6 1 7.3 2.2 11.3 3.2 17 4.7 38.2 9.4 60.5 14a2847 2847 0 0 0 127.5 22.3 21.3 21.3 0 0 0 24.3-23.9c-.8-6.2-.7-19 .5-37.3 1.2-17.8 3.3-39.2 5.8-61.6 5.2-44.9 12.1-93.2 16.9-124a21.4 21.4 0 0 0-21.3-24.6c-41.5.5-103.2-10.8-165-26-61.3-15-120.6-33-156.3-45.2a21.3 21.3 0 0 0-27 13.3Zm297.6 579.5c31.4.8 70.8 10 97.8 18.7a21.3 21.3 0 0 0 13-40.6c-28.8-9.2-72.6-19.8-109.8-20.7-18.1-.4-37.7 1.3-53.2 9-8.1 4.1-15.8 10.1-21.1 18.9a50 50 0 0 0-6.9 29.5c2 33.5 16.7 55.4 39 65 1.2.5 2.2 1 3.3 1.3-4.8 7.3-9.2 15.1-12.7 23.1-10.2 22.9-16.8 56.5 10 80.9a55.9 55.9 0 0 0 53.2 15l-.2 1.7c-.7 12.6.6 27.4 8.4 40a49.5 49.5 0 0 0 40.8 22.8c42.7 2.8 74-28.8 89.5-66.3 16-38.1 18.9-88 3-136.3a21.3 21.3 0 1 0-40.4 13.3c12.8 39 10 78.3-1.9 106.6-12.1 29.2-30.7 41.3-47.5 40.2-5.9-.4-7-2-7.3-2.7-1.1-1.8-2.6-6.4-2-15 1-17.2 9-39.3 16.6-54.7a21.3 21.3 0 0 0-37.5-20.2 77.1 77.1 0 0 1-24.4 26.2 20.2 20.2 0 0 1-10.8 3.3c-2.4-.1-6-1-10.8-5.4-5.5-5-8-13.8.2-32a167 167 0 0 1 33-46 21.3 21.3 0 0 0-22-35.3 34.8 34.8 0 0 1-23.6.4c-4.3-1.9-12-7.1-13.4-28.5-.2-3.1.5-4.3.7-4.7.3-.5 1.2-1.6 3.8-3 6.1-3 17.1-4.9 33.2-4.5Z" fill="#000"/><path fill-rule="evenodd" clip-rule="evenodd" d="M3911.2 1442.2a21.3 21.3 0 0 0 18.6 23.7c46.7 5.5 117.3 39.7 172.3 88.8 56 49.8 87.4 107.1 73.9 157.7a250.7 250.7 0 0 1-137.5 162.4c-6.9 3-12.5 4.8-16.7 5.8-3.2.8-4.6.9-4.8.9a21.3 21.3 0 0 0-7 42c7.3 1.4 15.4 0 21.7-1.4 7-1.7 15-4.5 23.6-8.1a293.3 293.3 0 0 0 161.9-190.6c20.1-75.4-28.2-148.4-86.7-200.6-59.4-52.9-137.8-92.3-195.7-99.2a21.3 21.3 0 0 0-23.6 18.6ZM3504.3 1149a21.3 21.3 0 0 0-27 13.2l-31.6 92a21.3 21.3 0 1 0 40.4 13.8l31.5-92a21.3 21.3 0 0 0-13.3-27Zm200 919c-11 4-16.7 16.3-12.7 27.3 25.8 71 76 187.6 143.5 307.8 67.3 120 152.6 245 248.7 331.9a21.3 21.3 0 1 0 28.6-31.6c-91.2-82.3-173.7-202.8-240.1-321.2a2183.4 2183.4 0 0 1-140.6-301.4c-4-11-16.3-16.8-27.3-12.8ZM3399 2329.5a21.3 21.3 0 0 0-15.2 26c7.6 29 28.8 72.8 56.6 123 28 51 64 110.4 102.5 171.6 77.1 122.4 165 252.1 222.5 334.3a21.3 21.3 0 0 0 17.3 9c71 .9 137.6-29.7 191-66.3 53.5-36.7 95.8-81 118.8-111a21.3 21.3 0 1 0-33.8-26 503.3 503.3 0 0 1-109.2 102c-46.6 31.9-100.6 56.3-155.6 58.6a8872.6 8872.6 0 0 1-215-323.3 3555 3555 0 0 1-101.2-169.5c-28-50.5-46.6-90-52.7-113.2a21.3 21.3 0 0 0-26-15.2Z" fill="#000"/><path fill-rule="evenodd" clip-rule="evenodd" d="M3441.9 2292.8c1.7-.3 4.1.1 7 2a21.3 21.3 0 1 0 23-35.9 52.8 52.8 0 0 0-36.5-8.2 57.2 57.2 0 0 0-37.8 25.2c-19 26.9-30 76.4-28.4 159.1 1.8 97.5-42.4 209.3-112.7 265.6-34.5 27.6-74.6 41.4-119.1 35-45-6.3-97.5-33.7-155.3-95l-39.5-45a21.3 21.3 0 0 0-32 28.2l39.8 45.3.5.5c62 65.8 122.9 100 180.5 108.3 58 8.2 109.7-10.4 151.7-44 82.8-66.3 130.7-192 128.7-299.7-1.6-81.4 10-118.7 20.6-133.6 4.7-6.7 8.3-7.6 9.5-7.8Zm-369.5-267a21.3 21.3 0 0 0-19.9 22.7c4.2 64.2-1.2 221.4-54.5 336a21.3 21.3 0 1 0 38.7 18c57.7-124 62.7-289.6 58.3-356.8a21.3 21.3 0 0 0-22.6-19.9Z" fill="#000"/><path fill-rule="evenodd" clip-rule="evenodd" d="M2898.2 2288.7a21.3 21.3 0 0 0-14.8 12.6 641.5 641.5 0 0 0-36.4 129.8 354.6 354.6 0 0 0-5 75.5c1.4 24.2 6.3 48 17.8 68a21.3 21.3 0 1 0 37-21.3c-7-12-11.1-28.6-12.2-49-1.2-20.4.7-43.1 4.5-66.3a599 599 0 0 1 25.6-98.7c3.4 1.3 7 2.3 10.4 3.2 12.9 3.4 27.2 5.3 41 6.3a453 453 0 0 0 74.8-1 21.3 21.3 0 0 0-4.3-42.4 411.5 411.5 0 0 1-67.2 1c-12.5-1-24-2.6-33.6-5.1a49.8 49.8 0 0 1-18.8-8.1 21.4 21.4 0 0 0-18.8-4.5Z" fill="#000"/><path fill-rule="evenodd" clip-rule="evenodd" d="M2748.7 2352.7a21.3 21.3 0 0 0-2 30c12.7 14.4 36.1 28 56.9 38.3 21.7 11 44.5 20.4 59 25.8a21.3 21.3 0 0 0 14.8-40 584 584 0 0 1-54.7-23.9c-21.2-10.6-37.5-21-44-28.3a21.3 21.3 0 0 0-30-2Z" fill="#000"/><path fill-rule="evenodd" clip-rule="evenodd" d="M2756 2352c-.6 2.8-1.5 4.7-1.8 5.1a21.3 21.3 0 0 0 35 24.2 59.3 59.3 0 0 0 7.2-49c-3-9.7-9-19-18.7-26a66.8 66.8 0 0 0-35.3-11.5 70 70 0 0 0-41.7 13 174.4 174.4 0 0 0-36.3 33 310 310 0 0 0-57 103.3c-12.8 39.7-17.8 84.3-6.2 125.8 12 42.4 40.8 79.7 91.6 104.3a102.8 102.8 0 0 0 112.3-13.3c27.9-23.6 43.4-63.6 24.2-102.3a21.3 21.3 0 0 0-38.2 19c8.5 17.1 3 36.7-13.5 50.8a60.2 60.2 0 0 1-66.2 7.5c-40.3-19.6-60.6-47.4-69.1-77.6-8.8-31-5.5-66.5 5.7-101a267.5 267.5 0 0 1 48.8-88.8c9.6-11.2 19-19.6 27.1-25 8.6-5.5 13.8-6.3 15.7-6.2 7.8.5 11.6 2.4 13.2 3.6a7.2 7.2 0 0 1 2.9 4c.6 1.8.7 4.3.2 7Zm1314.6 631.2a21.3 21.3 0 0 0-3.7 30c29.4 37.6 71.6 124.6 83.1 202.8 5.8 39 3.3 72.6-9 96.3-11.4 21.8-32.8 38.4-74.3 41.2-24.5 1.7-45.3-8.2-62.5-27.3-17.6-19.6-31-48.5-38.3-82.3-14.8-68.4-2.6-147.5 37.6-193.3a21.3 21.3 0 0 0-32-28.1c-52 59.2-63.8 153.7-47.3 230.3 8.3 38.8 24.3 75.3 48.3 101.9 24.4 27 57.3 44 97.2 41.3 53.8-3.7 89.8-27 109.1-64 18.3-35.3 19.7-79.4 13.4-122.3-12.6-85.6-57.9-179.5-91.6-222.8a21.3 21.3 0 0 0-30-3.7Z" fill="#000"/><path fill-rule="evenodd" clip-rule="evenodd" d="M3943.3 2899a21.3 21.3 0 0 0-2 30.1c15.6 17.7 39.3 46.5 59.6 74.8a435 435 0 0 1 25.8 40 88.4 88.4 0 0 1 10.8 25.7 21.3 21.3 0 1 0 42.3-5.7 124.7 124.7 0 0 0-15.8-40.6c-7.8-14-17.8-29.2-28.4-44.1-21.3-29.8-46-59.7-62.2-78.2a21.3 21.3 0 0 0-30-2Z" fill="#000"/></svg>