<svg width="37" height="37" viewBox="0 0 37 37" fill="none" xmlns="http://www.w3.org/2000/svg">
<path d="M12.9548 18.5L16.6516 22.1968L24.0452 14.8032M10.8014 5.00109C12.1273 4.89527 13.386 4.37393 14.3984 3.51127C15.5424 2.53581 16.9966 2 18.5 2C20.0034 2 21.4576 2.53581 22.6016 3.51127C23.614 4.37393 24.8727 4.89527 26.1986 5.00109C27.6972 5.12031 29.1043 5.7697 30.1673 6.83272C31.2303 7.89573 31.8797 9.30279 31.9989 10.8014C32.1047 12.1273 32.6261 13.386 33.4887 14.3984C34.4642 15.5424 35 16.9966 35 18.5C35 20.0034 34.4642 21.4576 33.4887 22.6016C32.6261 23.614 32.1047 24.8727 31.9989 26.1986C31.8797 27.6972 31.2303 29.1043 30.1673 30.1673C29.1043 31.2303 27.6972 31.8797 26.1986 31.9989C24.8727 32.1047 23.614 32.6261 22.6016 33.4887C21.4576 34.4642 20.0034 35 18.5 35C16.9966 35 15.5424 34.4642 14.3984 33.4887C13.386 32.6261 12.1273 32.1047 10.8014 31.9989C9.30279 31.8797 7.89573 31.2303 6.83272 30.1673C5.7697 29.1043 5.12031 27.6972 5.00109 26.1986C4.89527 24.8727 4.37393 23.614 3.51127 22.6016C2.53581 21.4576 2 20.0034 2 18.5C2 16.9966 2.53581 15.5424 3.51127 14.3984C4.37393 13.386 4.89527 12.1273 5.00109 10.8014C5.12031 9.30279 5.7697 7.89573 6.83272 6.83272C7.89573 5.7697 9.30279 5.12031 10.8014 5.00109Z" stroke="black" stroke-width="3" stroke-linecap="round" stroke-linejoin="round"/>
</svg>
