<svg width="16" height="11" viewBox="0 0 16 11" fill="none" xmlns="http://www.w3.org/2000/svg">
<path d="M15.8639 3.65382C13.4974 6.5179 11.09 8.89489 8.64185 10.7848C8.45824 10.9601 8.08081 11.0283 7.50958 10.9894C6.93834 10.9699 6.59152 10.8822 6.46911 10.7263C5.48985 9.73268 4.14336 8.18374 2.42966 6.07952C0.695548 3.97529 -0.110303 2.70886 0.0121048 2.28023C0.175315 1.67623 0.715949 1.14044 1.63401 0.672831C2.53166 0.22471 3.1743 0.000649285 3.56193 0.000649319C3.76594 -0.0188342 4.20457 0.400062 4.87781 1.25734C5.53065 2.1341 6.11209 2.95241 6.62212 3.71227C7.11175 4.49161 7.47897 5.0956 7.72379 5.52424L8.82546 4.2091C9.55991 3.31285 10.3046 2.43609 11.0594 1.57882C11.8142 0.721542 12.2631 0.263678 12.4059 0.205228C12.5691 0.16626 12.9975 0.361096 13.6912 0.789734C14.3644 1.23786 14.9662 1.75417 15.4967 2.33868C16.0067 2.92318 16.1291 3.36156 15.8639 3.65382Z" fill="black"/>
</svg>
