<svg width="39" height="35" viewBox="0 0 39 35" fill="none" xmlns="http://www.w3.org/2000/svg">
<path d="M19.5 21.3086L37 11.6543L19.5 2L2 11.6543L19.5 21.3086Z" stroke="black" stroke-width="3" stroke-linejoin="round"/>
<path d="M19.5 21.3086L31.4777 14.7012C33.0537 18.6751 33.501 23.0023 32.7708 27.2112C27.8388 27.6866 23.189 29.7148 19.5 33C15.8115 29.7152 11.1623 27.687 6.23107 27.2112C5.50035 23.0023 5.94763 18.6749 7.52413 14.7012L19.5 21.3086Z" stroke="black" stroke-width="3" stroke-linejoin="round"/>
<path d="M11.7222 32.8938V18.4123L19.5 14.122M19.5 21.3086L37 11.6543L19.5 2L2 11.6543L19.5 21.3086ZM19.5 21.3086L31.4778 14.7012C33.0538 18.6751 33.5011 23.0023 32.7708 27.2113C27.8389 27.6866 23.189 29.7149 19.5 33C15.8115 29.7152 11.1624 27.687 6.23111 27.2113C5.50039 23.0023 5.94767 18.675 7.52417 14.7012L19.5 21.3086Z" stroke="black" stroke-width="3" stroke-linecap="round" stroke-linejoin="round"/>
</svg>
